%TF.GenerationSoftware,KiCad,Pcbnew,9.0.5-9.0.5~ubuntu25.04.1*%
%TF.CreationDate,2025-10-12T20:46:25+02:00*%
%TF.ProjectId,CPU,4350552e-6b69-4636-9164-5f7063625858,rev?*%
%TF.SameCoordinates,Original*%
%TF.FileFunction,Soldermask,Bot*%
%TF.FilePolarity,Negative*%
%FSLAX46Y46*%
G04 Gerber Fmt 4.6, Leading zero omitted, Abs format (unit mm)*
G04 Created by KiCad (PCBNEW 9.0.5-9.0.5~ubuntu25.04.1) date 2025-10-12 20:46:25*
%MOMM*%
%LPD*%
G01*
G04 APERTURE LIST*
%ADD10R,1.600000X1.600000*%
%ADD11C,1.600000*%
%ADD12R,1.700000X1.700000*%
%ADD13C,1.700000*%
%ADD14C,2.200000*%
%ADD15C,0.900000*%
G04 APERTURE END LIST*
D10*
%TO.C,C201*%
X165000000Y-121500000D03*
D11*
X165000000Y-126500000D03*
%TD*%
D12*
%TO.C,J602*%
X189464000Y-141695000D03*
D13*
X189464000Y-144235000D03*
X192004000Y-141695000D03*
X192004000Y-144235000D03*
X194544000Y-141695000D03*
X194544000Y-144235000D03*
X197084000Y-141695000D03*
X197084000Y-144235000D03*
X199624000Y-141695000D03*
X199624000Y-144235000D03*
%TD*%
D14*
%TO.C,SW102*%
X156500000Y-148575000D03*
X149500000Y-148575000D03*
D13*
X155250000Y-151075000D03*
X150750000Y-151075000D03*
%TD*%
D15*
%TO.C,J101*%
X137400000Y-148327000D03*
X141800000Y-148327000D03*
%TD*%
D10*
%TO.C,C202*%
X165000000Y-134000000D03*
D11*
X165000000Y-139000000D03*
%TD*%
D12*
%TO.C,J501*%
X135040000Y-62000000D03*
D13*
X132500000Y-62000000D03*
X135040000Y-64540000D03*
X132500000Y-64540000D03*
X135040000Y-67080000D03*
X132500000Y-67080000D03*
X135040000Y-69620000D03*
X132500000Y-69620000D03*
X135040000Y-72160000D03*
X132500000Y-72160000D03*
X135040000Y-74700000D03*
X132500000Y-74700000D03*
X135040000Y-77240000D03*
X132500000Y-77240000D03*
X135040000Y-79780000D03*
X132500000Y-79780000D03*
X135040000Y-82320000D03*
X132500000Y-82320000D03*
X135040000Y-84860000D03*
X132500000Y-84860000D03*
X135040000Y-87400000D03*
X132500000Y-87400000D03*
X135040000Y-89940000D03*
X132500000Y-89940000D03*
X135040000Y-92480000D03*
X132500000Y-92480000D03*
X135040000Y-95020000D03*
X132500000Y-95020000D03*
X135040000Y-97560000D03*
X132500000Y-97560000D03*
X135040000Y-100100000D03*
X132500000Y-100100000D03*
X135040000Y-102640000D03*
X132500000Y-102640000D03*
X135040000Y-105180000D03*
X132500000Y-105180000D03*
X135040000Y-107720000D03*
X132500000Y-107720000D03*
X135040000Y-110260000D03*
X132500000Y-110260000D03*
%TD*%
D12*
%TO.C,J601*%
X204704000Y-141695000D03*
D13*
X204704000Y-144235000D03*
X207244000Y-141695000D03*
X207244000Y-144235000D03*
X209784000Y-141695000D03*
X209784000Y-144235000D03*
X212324000Y-141695000D03*
X212324000Y-144235000D03*
X214864000Y-141695000D03*
X214864000Y-144235000D03*
%TD*%
D12*
%TO.C,J502*%
X217500000Y-62000000D03*
D13*
X214960000Y-62000000D03*
X217500000Y-64540000D03*
X214960000Y-64540000D03*
X217500000Y-67080000D03*
X214960000Y-67080000D03*
X217500000Y-69620000D03*
X214960000Y-69620000D03*
X217500000Y-72160000D03*
X214960000Y-72160000D03*
X217500000Y-74700000D03*
X214960000Y-74700000D03*
X217500000Y-77240000D03*
X214960000Y-77240000D03*
X217500000Y-79780000D03*
X214960000Y-79780000D03*
X217500000Y-82320000D03*
X214960000Y-82320000D03*
X217500000Y-84860000D03*
X214960000Y-84860000D03*
X217500000Y-87400000D03*
X214960000Y-87400000D03*
X217500000Y-89940000D03*
X214960000Y-89940000D03*
X217500000Y-92480000D03*
X214960000Y-92480000D03*
X217500000Y-95020000D03*
X214960000Y-95020000D03*
X217500000Y-97560000D03*
X214960000Y-97560000D03*
X217500000Y-100100000D03*
X214960000Y-100100000D03*
X217500000Y-102640000D03*
X214960000Y-102640000D03*
X217500000Y-105180000D03*
X214960000Y-105180000D03*
X217500000Y-107720000D03*
X214960000Y-107720000D03*
X217500000Y-110260000D03*
X214960000Y-110260000D03*
%TD*%
M02*
