%TF.GenerationSoftware,KiCad,Pcbnew,9.0.5-9.0.5~ubuntu25.04.1*%
%TF.CreationDate,2025-10-12T20:46:25+02:00*%
%TF.ProjectId,CPU,4350552e-6b69-4636-9164-5f7063625858,rev?*%
%TF.SameCoordinates,Original*%
%TF.FileFunction,Paste,Top*%
%TF.FilePolarity,Positive*%
%FSLAX46Y46*%
G04 Gerber Fmt 4.6, Leading zero omitted, Abs format (unit mm)*
G04 Created by KiCad (PCBNEW 9.0.5-9.0.5~ubuntu25.04.1) date 2025-10-12 20:46:25*
%MOMM*%
%LPD*%
G01*
G04 APERTURE LIST*
G04 Aperture macros list*
%AMRoundRect*
0 Rectangle with rounded corners*
0 $1 Rounding radius*
0 $2 $3 $4 $5 $6 $7 $8 $9 X,Y pos of 4 corners*
0 Add a 4 corners polygon primitive as box body*
4,1,4,$2,$3,$4,$5,$6,$7,$8,$9,$2,$3,0*
0 Add four circle primitives for the rounded corners*
1,1,$1+$1,$2,$3*
1,1,$1+$1,$4,$5*
1,1,$1+$1,$6,$7*
1,1,$1+$1,$8,$9*
0 Add four rect primitives between the rounded corners*
20,1,$1+$1,$2,$3,$4,$5,0*
20,1,$1+$1,$4,$5,$6,$7,0*
20,1,$1+$1,$6,$7,$8,$9,0*
20,1,$1+$1,$8,$9,$2,$3,0*%
G04 Aperture macros list end*
%ADD10RoundRect,0.225000X0.250000X-0.225000X0.250000X0.225000X-0.250000X0.225000X-0.250000X-0.225000X0*%
%ADD11R,1.300000X1.900000*%
%ADD12RoundRect,0.200000X0.275000X-0.200000X0.275000X0.200000X-0.275000X0.200000X-0.275000X-0.200000X0*%
%ADD13RoundRect,0.250000X0.457500X0.445000X-0.457500X0.445000X-0.457500X-0.445000X0.457500X-0.445000X0*%
%ADD14RoundRect,0.250000X0.500000X0.500000X-0.500000X0.500000X-0.500000X-0.500000X0.500000X-0.500000X0*%
%ADD15RoundRect,0.225000X0.225000X0.225000X-0.225000X0.225000X-0.225000X-0.225000X0.225000X-0.225000X0*%
%ADD16RoundRect,0.250000X0.625000X-0.375000X0.625000X0.375000X-0.625000X0.375000X-0.625000X-0.375000X0*%
%ADD17RoundRect,0.100000X-0.637500X-0.100000X0.637500X-0.100000X0.637500X0.100000X-0.637500X0.100000X0*%
%ADD18RoundRect,0.225000X-0.250000X0.225000X-0.250000X-0.225000X0.250000X-0.225000X0.250000X0.225000X0*%
%ADD19R,1.500000X0.900000*%
%ADD20R,0.900000X1.500000*%
%ADD21R,1.050000X1.050000*%
%ADD22RoundRect,0.218750X0.218750X0.256250X-0.218750X0.256250X-0.218750X-0.256250X0.218750X-0.256250X0*%
%ADD23RoundRect,0.237500X0.237500X-0.250000X0.237500X0.250000X-0.237500X0.250000X-0.237500X-0.250000X0*%
%ADD24RoundRect,0.200000X-0.200000X-0.275000X0.200000X-0.275000X0.200000X0.275000X-0.200000X0.275000X0*%
%ADD25RoundRect,0.250000X1.125000X-1.275000X1.125000X1.275000X-1.125000X1.275000X-1.125000X-1.275000X0*%
%ADD26RoundRect,0.250000X0.350000X-0.850000X0.350000X0.850000X-0.350000X0.850000X-0.350000X-0.850000X0*%
%ADD27RoundRect,0.200000X0.200000X0.275000X-0.200000X0.275000X-0.200000X-0.275000X0.200000X-0.275000X0*%
%ADD28RoundRect,0.250000X0.625000X-0.312500X0.625000X0.312500X-0.625000X0.312500X-0.625000X-0.312500X0*%
%ADD29RoundRect,0.218750X0.256250X-0.218750X0.256250X0.218750X-0.256250X0.218750X-0.256250X-0.218750X0*%
%ADD30RoundRect,0.237500X-0.237500X0.250000X-0.237500X-0.250000X0.237500X-0.250000X0.237500X0.250000X0*%
%ADD31RoundRect,0.150000X-0.825000X-0.150000X0.825000X-0.150000X0.825000X0.150000X-0.825000X0.150000X0*%
%ADD32RoundRect,0.162500X-0.650000X-0.162500X0.650000X-0.162500X0.650000X0.162500X-0.650000X0.162500X0*%
%ADD33RoundRect,0.225000X0.225000X0.250000X-0.225000X0.250000X-0.225000X-0.250000X0.225000X-0.250000X0*%
%ADD34RoundRect,0.100000X-0.712500X-0.100000X0.712500X-0.100000X0.712500X0.100000X-0.712500X0.100000X0*%
%ADD35RoundRect,0.225000X-0.225000X-0.250000X0.225000X-0.250000X0.225000X0.250000X-0.225000X0.250000X0*%
%ADD36RoundRect,0.137500X-0.862500X-0.137500X0.862500X-0.137500X0.862500X0.137500X-0.862500X0.137500X0*%
%ADD37RoundRect,0.218750X-0.256250X0.218750X-0.256250X-0.218750X0.256250X-0.218750X0.256250X0.218750X0*%
%ADD38RoundRect,0.150000X-0.587500X-0.150000X0.587500X-0.150000X0.587500X0.150000X-0.587500X0.150000X0*%
%ADD39RoundRect,0.200000X-0.275000X0.200000X-0.275000X-0.200000X0.275000X-0.200000X0.275000X0.200000X0*%
%ADD40R,1.500000X1.500000*%
%ADD41R,0.500000X2.500000*%
%ADD42R,2.000000X2.500000*%
%ADD43RoundRect,0.250000X0.375000X0.850000X-0.375000X0.850000X-0.375000X-0.850000X0.375000X-0.850000X0*%
%ADD44RoundRect,0.250000X0.420000X0.945000X-0.420000X0.945000X-0.420000X-0.945000X0.420000X-0.945000X0*%
%ADD45R,1.750000X0.450000*%
%ADD46RoundRect,0.250000X-0.457500X-0.445000X0.457500X-0.445000X0.457500X0.445000X-0.457500X0.445000X0*%
%ADD47RoundRect,0.150000X-0.150000X-0.700000X0.150000X-0.700000X0.150000X0.700000X-0.150000X0.700000X0*%
%ADD48RoundRect,0.250000X-0.250000X-1.100000X0.250000X-1.100000X0.250000X1.100000X-0.250000X1.100000X0*%
%ADD49RoundRect,0.087500X-0.537500X-0.087500X0.537500X-0.087500X0.537500X0.087500X-0.537500X0.087500X0*%
G04 APERTURE END LIST*
D10*
%TO.C,C601*%
X217678000Y-131090000D03*
X217678000Y-129540000D03*
%TD*%
D11*
%TO.C,Y201*%
X150500000Y-110800000D03*
X145000000Y-110800000D03*
X145000000Y-114000000D03*
X150500000Y-114000000D03*
%TD*%
D12*
%TO.C,R203*%
X193294000Y-91249000D03*
X193294000Y-89599000D03*
%TD*%
%TO.C,R409*%
X129286000Y-135128000D03*
X129286000Y-133478000D03*
%TD*%
%TO.C,R219*%
X202184000Y-96392000D03*
X202184000Y-94742000D03*
%TD*%
D13*
%TO.C,C402*%
X159750000Y-79000000D03*
X157045000Y-79000000D03*
%TD*%
D10*
%TO.C,C602*%
X194056000Y-123470000D03*
X194056000Y-121920000D03*
%TD*%
D14*
%TO.C,D404*%
X171250000Y-153000000D03*
X167750000Y-153000000D03*
D15*
X169500000Y-152350000D03*
%TD*%
D16*
%TO.C,D201*%
X168000000Y-113400000D03*
X168000000Y-110600000D03*
%TD*%
D17*
%TO.C,U204*%
X197289500Y-100453000D03*
X197289500Y-101103000D03*
X197289500Y-101753000D03*
X197289500Y-102403000D03*
X197289500Y-103053000D03*
X197289500Y-103703000D03*
X197289500Y-104353000D03*
X197289500Y-105003000D03*
X197289500Y-105653000D03*
X197289500Y-106303000D03*
X203014500Y-106303000D03*
X203014500Y-105653000D03*
X203014500Y-105003000D03*
X203014500Y-104353000D03*
X203014500Y-103703000D03*
X203014500Y-103053000D03*
X203014500Y-102403000D03*
X203014500Y-101753000D03*
X203014500Y-101103000D03*
X203014500Y-100453000D03*
%TD*%
D18*
%TO.C,C302*%
X148082000Y-72682000D03*
X148082000Y-74232000D03*
%TD*%
D12*
%TO.C,R220*%
X200660000Y-96392000D03*
X200660000Y-94742000D03*
%TD*%
%TO.C,R401*%
X161750000Y-81150000D03*
X161750000Y-79500000D03*
%TD*%
D19*
%TO.C,U401*%
X166000000Y-77150000D03*
X166000000Y-78420000D03*
X166000000Y-79690000D03*
X166000000Y-80960000D03*
X166000000Y-82230000D03*
X166000000Y-83500000D03*
X166000000Y-84770000D03*
X166000000Y-86040000D03*
X166000000Y-87310000D03*
X166000000Y-88580000D03*
X166000000Y-89850000D03*
X166000000Y-91120000D03*
X166000000Y-92390000D03*
X166000000Y-93660000D03*
D20*
X169040000Y-94910000D03*
X170310000Y-94910000D03*
X171580000Y-94910000D03*
X172850000Y-94910000D03*
X174120000Y-94910000D03*
X175390000Y-94910000D03*
X176660000Y-94910000D03*
X177930000Y-94910000D03*
X179200000Y-94910000D03*
X180470000Y-94910000D03*
D19*
X183500000Y-93660000D03*
X183500000Y-92390000D03*
X183500000Y-91120000D03*
X183500000Y-89850000D03*
X183500000Y-88580000D03*
X183500000Y-87310000D03*
X183500000Y-86040000D03*
X183500000Y-84770000D03*
X183500000Y-83500000D03*
X183500000Y-82230000D03*
X183500000Y-80960000D03*
X183500000Y-79690000D03*
X183500000Y-78420000D03*
X183500000Y-77150000D03*
D21*
X172545000Y-82965000D03*
X172545000Y-84490000D03*
X172545000Y-86015000D03*
X174070000Y-82965000D03*
X174070000Y-84490000D03*
X174070000Y-86015000D03*
X175595000Y-82965000D03*
X175595000Y-84490000D03*
X175595000Y-86015000D03*
%TD*%
D22*
%TO.C,D202*%
X168199000Y-107696000D03*
X166624000Y-107696000D03*
%TD*%
D23*
%TO.C,R217*%
X210058000Y-108862500D03*
X210058000Y-107037500D03*
%TD*%
D12*
%TO.C,R411*%
X162250000Y-149325000D03*
X162250000Y-147675000D03*
%TD*%
D24*
%TO.C,R204*%
X170054000Y-107696000D03*
X171704000Y-107696000D03*
%TD*%
D25*
%TO.C,U301*%
X141629500Y-67807000D03*
X144679500Y-67807000D03*
X141629500Y-64457000D03*
X144679500Y-64457000D03*
D26*
X140874500Y-72432000D03*
X143154500Y-72432000D03*
X145434500Y-72432000D03*
%TD*%
D12*
%TO.C,R301*%
X151162000Y-79957000D03*
X151162000Y-78307000D03*
%TD*%
D27*
%TO.C,R214*%
X194310000Y-98044000D03*
X192660000Y-98044000D03*
%TD*%
D24*
%TO.C,R406*%
X148210000Y-135890000D03*
X149860000Y-135890000D03*
%TD*%
D28*
%TO.C,R410*%
X220726000Y-68965000D03*
X220726000Y-66040000D03*
%TD*%
D14*
%TO.C,D403*%
X164250000Y-153000000D03*
X160750000Y-153000000D03*
D15*
X162500000Y-152350000D03*
%TD*%
D29*
%TO.C,D402*%
X129286000Y-131877000D03*
X129286000Y-130302000D03*
%TD*%
D30*
%TO.C,R209*%
X205994000Y-95711000D03*
X205994000Y-97536000D03*
%TD*%
D31*
%TO.C,U201*%
X174025000Y-105095000D03*
X174025000Y-106365000D03*
X174025000Y-107635000D03*
X174025000Y-108905000D03*
X178975000Y-108905000D03*
X178975000Y-107635000D03*
X178975000Y-106365000D03*
X178975000Y-105095000D03*
%TD*%
D32*
%TO.C,U207*%
X155412500Y-104595000D03*
X155412500Y-105865000D03*
X155412500Y-107135000D03*
X155412500Y-108405000D03*
X162587500Y-108405000D03*
X162587500Y-107135000D03*
X162587500Y-105865000D03*
X162587500Y-104595000D03*
%TD*%
D27*
%TO.C,R218*%
X194310000Y-101092000D03*
X192660000Y-101092000D03*
%TD*%
D24*
%TO.C,R404*%
X148210000Y-137414000D03*
X149860000Y-137414000D03*
%TD*%
D27*
%TO.C,R216*%
X194310000Y-99568000D03*
X192660000Y-99568000D03*
%TD*%
D12*
%TO.C,R413*%
X169250000Y-149325000D03*
X169250000Y-147675000D03*
%TD*%
D30*
%TO.C,R211*%
X207518000Y-95711000D03*
X207518000Y-97536000D03*
%TD*%
D12*
%TO.C,R412*%
X164250000Y-149325000D03*
X164250000Y-147675000D03*
%TD*%
D10*
%TO.C,C405*%
X133604000Y-127788000D03*
X133604000Y-126238000D03*
%TD*%
D18*
%TO.C,C404*%
X186182000Y-95237000D03*
X186182000Y-96787000D03*
%TD*%
D33*
%TO.C,C401*%
X159750000Y-81500000D03*
X158200000Y-81500000D03*
%TD*%
D34*
%TO.C,U203*%
X155887500Y-113025000D03*
X155887500Y-113675000D03*
X155887500Y-114325000D03*
X155887500Y-114975000D03*
X160112500Y-114975000D03*
X160112500Y-114325000D03*
X160112500Y-113675000D03*
X160112500Y-113025000D03*
%TD*%
D35*
%TO.C,C203*%
X150450000Y-117000000D03*
X152000000Y-117000000D03*
%TD*%
D36*
%TO.C,U601*%
X197627500Y-122174000D03*
X197627500Y-123444000D03*
X197627500Y-124714000D03*
X197627500Y-125984000D03*
X197627500Y-127254000D03*
X197627500Y-128524000D03*
X197627500Y-129794000D03*
X197627500Y-131064000D03*
X197627500Y-132334000D03*
X197627500Y-133604000D03*
X197627500Y-134874000D03*
X197627500Y-136144000D03*
X206927500Y-136144000D03*
X206927500Y-134874000D03*
X206927500Y-133604000D03*
X206927500Y-132334000D03*
X206927500Y-131064000D03*
X206927500Y-129794000D03*
X206927500Y-128524000D03*
X206927500Y-127254000D03*
X206927500Y-125984000D03*
X206927500Y-124714000D03*
X206927500Y-123444000D03*
X206927500Y-122174000D03*
%TD*%
D37*
%TO.C,D401*%
X129286000Y-140157000D03*
X129286000Y-141732000D03*
%TD*%
D38*
%TO.C,Q602*%
X187276500Y-134686000D03*
X187276500Y-136586000D03*
X189151500Y-135636000D03*
%TD*%
%TO.C,Q601*%
X214533000Y-134686000D03*
X214533000Y-136586000D03*
X216408000Y-135636000D03*
%TD*%
D12*
%TO.C,R206*%
X202438000Y-91249000D03*
X202438000Y-89599000D03*
%TD*%
D33*
%TO.C,C403*%
X159250000Y-77000000D03*
X157700000Y-77000000D03*
%TD*%
D39*
%TO.C,R201*%
X165000000Y-115850000D03*
X165000000Y-117500000D03*
%TD*%
D40*
%TO.C,SW101*%
X186182000Y-109982000D03*
X186182000Y-102182000D03*
%TD*%
D29*
%TO.C,D301*%
X153162000Y-79807000D03*
X153162000Y-78232000D03*
%TD*%
D41*
%TO.C,J101*%
X138000000Y-145727000D03*
X138800000Y-145727000D03*
X139600000Y-145727000D03*
X140400000Y-145727000D03*
X141200000Y-145727000D03*
D42*
X135200000Y-145727000D03*
X135200000Y-151227000D03*
X144000000Y-145727000D03*
X144000000Y-151227000D03*
%TD*%
D43*
%TO.C,L401*%
X133722000Y-141986000D03*
X131572000Y-141986000D03*
%TD*%
D44*
%TO.C,C304*%
X142582000Y-78232000D03*
X139502000Y-78232000D03*
%TD*%
D12*
%TO.C,R210*%
X141097000Y-91630000D03*
X141097000Y-89980000D03*
%TD*%
D23*
%TO.C,R215*%
X208534000Y-108862500D03*
X208534000Y-107037500D03*
%TD*%
D24*
%TO.C,R405*%
X148210000Y-138938000D03*
X149860000Y-138938000D03*
%TD*%
D45*
%TO.C,U402*%
X143852000Y-139842000D03*
X143852000Y-139192000D03*
X143852000Y-138542000D03*
X143852000Y-137892000D03*
X143852000Y-137242000D03*
X143852000Y-136592000D03*
X143852000Y-135942000D03*
X143852000Y-135292000D03*
X143852000Y-134642000D03*
X143852000Y-133992000D03*
X143852000Y-133342000D03*
X143852000Y-132692000D03*
X143852000Y-132042000D03*
X143852000Y-131392000D03*
X136652000Y-131392000D03*
X136652000Y-132042000D03*
X136652000Y-132692000D03*
X136652000Y-133342000D03*
X136652000Y-133992000D03*
X136652000Y-134642000D03*
X136652000Y-135292000D03*
X136652000Y-135942000D03*
X136652000Y-136592000D03*
X136652000Y-137242000D03*
X136652000Y-137892000D03*
X136652000Y-138542000D03*
X136652000Y-139192000D03*
X136652000Y-139842000D03*
%TD*%
D12*
%TO.C,R212*%
X142748000Y-91630000D03*
X142748000Y-89980000D03*
%TD*%
D46*
%TO.C,C301*%
X145377000Y-78232000D03*
X148082000Y-78232000D03*
%TD*%
D30*
%TO.C,R208*%
X204470000Y-95711000D03*
X204470000Y-97536000D03*
%TD*%
D45*
%TO.C,U205*%
X153206000Y-101253000D03*
X153206000Y-100603000D03*
X153206000Y-99953000D03*
X153206000Y-99303000D03*
X153206000Y-98653000D03*
X153206000Y-98003000D03*
X153206000Y-97353000D03*
X153206000Y-96703000D03*
X153206000Y-96053000D03*
X153206000Y-95403000D03*
X153206000Y-94753000D03*
X153206000Y-94103000D03*
X153206000Y-93453000D03*
X153206000Y-92803000D03*
X146006000Y-92803000D03*
X146006000Y-93453000D03*
X146006000Y-94103000D03*
X146006000Y-94753000D03*
X146006000Y-95403000D03*
X146006000Y-96053000D03*
X146006000Y-96703000D03*
X146006000Y-97353000D03*
X146006000Y-98003000D03*
X146006000Y-98653000D03*
X146006000Y-99303000D03*
X146006000Y-99953000D03*
X146006000Y-100603000D03*
X146006000Y-101253000D03*
%TD*%
D31*
%TO.C,U403*%
X204535000Y-65151000D03*
X204535000Y-66421000D03*
X204535000Y-67691000D03*
X204535000Y-68961000D03*
X209485000Y-68961000D03*
X209485000Y-67691000D03*
X209485000Y-66421000D03*
X209485000Y-65151000D03*
%TD*%
D35*
%TO.C,C408*%
X131546000Y-131064000D03*
X133096000Y-131064000D03*
%TD*%
D47*
%TO.C,J102*%
X178084000Y-149280000D03*
X179334000Y-149280000D03*
X180584000Y-149280000D03*
X181834000Y-149280000D03*
D48*
X176234000Y-152480000D03*
X183684000Y-152480000D03*
%TD*%
D49*
%TO.C,U202*%
X197228000Y-86880000D03*
X197228000Y-87380000D03*
X197228000Y-87880000D03*
X197228000Y-88380000D03*
X200028000Y-88380000D03*
X200028000Y-87880000D03*
X200028000Y-87380000D03*
X200028000Y-86880000D03*
%TD*%
D12*
%TO.C,R207*%
X139446000Y-91630000D03*
X139446000Y-89980000D03*
%TD*%
D10*
%TO.C,C406*%
X131826000Y-127788000D03*
X131826000Y-126238000D03*
%TD*%
D46*
%TO.C,C407*%
X147282000Y-130175000D03*
X149987000Y-130175000D03*
%TD*%
D12*
%TO.C,R414*%
X171250000Y-149325000D03*
X171250000Y-147675000D03*
%TD*%
D39*
%TO.C,R408*%
X129286000Y-136906000D03*
X129286000Y-138556000D03*
%TD*%
D30*
%TO.C,R213*%
X209042000Y-95711000D03*
X209042000Y-97536000D03*
%TD*%
D12*
%TO.C,R202*%
X194818000Y-91249000D03*
X194818000Y-89599000D03*
%TD*%
%TO.C,R403*%
X131572000Y-138556000D03*
X131572000Y-136906000D03*
%TD*%
%TO.C,R402*%
X131572000Y-135254000D03*
X131572000Y-133604000D03*
%TD*%
%TO.C,R205*%
X203962000Y-91249000D03*
X203962000Y-89599000D03*
%TD*%
D33*
%TO.C,C303*%
X142082000Y-75232000D03*
X140532000Y-75232000D03*
%TD*%
D24*
%TO.C,R407*%
X148210000Y-140444000D03*
X149860000Y-140444000D03*
%TD*%
M02*
