%TF.GenerationSoftware,KiCad,Pcbnew,9.0.5-9.0.5~ubuntu25.04.1*%
%TF.CreationDate,2025-10-12T20:46:25+02:00*%
%TF.ProjectId,CPU,4350552e-6b69-4636-9164-5f7063625858,rev?*%
%TF.SameCoordinates,Original*%
%TF.FileFunction,Legend,Top*%
%TF.FilePolarity,Positive*%
%FSLAX46Y46*%
G04 Gerber Fmt 4.6, Leading zero omitted, Abs format (unit mm)*
G04 Created by KiCad (PCBNEW 9.0.5-9.0.5~ubuntu25.04.1) date 2025-10-12 20:46:25*
%MOMM*%
%LPD*%
G01*
G04 APERTURE LIST*
%ADD10C,0.150000*%
%ADD11C,0.120000*%
G04 APERTURE END LIST*
D10*
X216607580Y-131434047D02*
X216655200Y-131481666D01*
X216655200Y-131481666D02*
X216702819Y-131624523D01*
X216702819Y-131624523D02*
X216702819Y-131719761D01*
X216702819Y-131719761D02*
X216655200Y-131862618D01*
X216655200Y-131862618D02*
X216559961Y-131957856D01*
X216559961Y-131957856D02*
X216464723Y-132005475D01*
X216464723Y-132005475D02*
X216274247Y-132053094D01*
X216274247Y-132053094D02*
X216131390Y-132053094D01*
X216131390Y-132053094D02*
X215940914Y-132005475D01*
X215940914Y-132005475D02*
X215845676Y-131957856D01*
X215845676Y-131957856D02*
X215750438Y-131862618D01*
X215750438Y-131862618D02*
X215702819Y-131719761D01*
X215702819Y-131719761D02*
X215702819Y-131624523D01*
X215702819Y-131624523D02*
X215750438Y-131481666D01*
X215750438Y-131481666D02*
X215798057Y-131434047D01*
X215702819Y-130576904D02*
X215702819Y-130767380D01*
X215702819Y-130767380D02*
X215750438Y-130862618D01*
X215750438Y-130862618D02*
X215798057Y-130910237D01*
X215798057Y-130910237D02*
X215940914Y-131005475D01*
X215940914Y-131005475D02*
X216131390Y-131053094D01*
X216131390Y-131053094D02*
X216512342Y-131053094D01*
X216512342Y-131053094D02*
X216607580Y-131005475D01*
X216607580Y-131005475D02*
X216655200Y-130957856D01*
X216655200Y-130957856D02*
X216702819Y-130862618D01*
X216702819Y-130862618D02*
X216702819Y-130672142D01*
X216702819Y-130672142D02*
X216655200Y-130576904D01*
X216655200Y-130576904D02*
X216607580Y-130529285D01*
X216607580Y-130529285D02*
X216512342Y-130481666D01*
X216512342Y-130481666D02*
X216274247Y-130481666D01*
X216274247Y-130481666D02*
X216179009Y-130529285D01*
X216179009Y-130529285D02*
X216131390Y-130576904D01*
X216131390Y-130576904D02*
X216083771Y-130672142D01*
X216083771Y-130672142D02*
X216083771Y-130862618D01*
X216083771Y-130862618D02*
X216131390Y-130957856D01*
X216131390Y-130957856D02*
X216179009Y-131005475D01*
X216179009Y-131005475D02*
X216274247Y-131053094D01*
X215702819Y-129862618D02*
X215702819Y-129767380D01*
X215702819Y-129767380D02*
X215750438Y-129672142D01*
X215750438Y-129672142D02*
X215798057Y-129624523D01*
X215798057Y-129624523D02*
X215893295Y-129576904D01*
X215893295Y-129576904D02*
X216083771Y-129529285D01*
X216083771Y-129529285D02*
X216321866Y-129529285D01*
X216321866Y-129529285D02*
X216512342Y-129576904D01*
X216512342Y-129576904D02*
X216607580Y-129624523D01*
X216607580Y-129624523D02*
X216655200Y-129672142D01*
X216655200Y-129672142D02*
X216702819Y-129767380D01*
X216702819Y-129767380D02*
X216702819Y-129862618D01*
X216702819Y-129862618D02*
X216655200Y-129957856D01*
X216655200Y-129957856D02*
X216607580Y-130005475D01*
X216607580Y-130005475D02*
X216512342Y-130053094D01*
X216512342Y-130053094D02*
X216321866Y-130100713D01*
X216321866Y-130100713D02*
X216083771Y-130100713D01*
X216083771Y-130100713D02*
X215893295Y-130053094D01*
X215893295Y-130053094D02*
X215798057Y-130005475D01*
X215798057Y-130005475D02*
X215750438Y-129957856D01*
X215750438Y-129957856D02*
X215702819Y-129862618D01*
X216702819Y-128576904D02*
X216702819Y-129148332D01*
X216702819Y-128862618D02*
X215702819Y-128862618D01*
X215702819Y-128862618D02*
X215845676Y-128957856D01*
X215845676Y-128957856D02*
X215940914Y-129053094D01*
X215940914Y-129053094D02*
X215988533Y-129148332D01*
X152808628Y-113828571D02*
X153284819Y-113828571D01*
X152284819Y-114161904D02*
X152808628Y-113828571D01*
X152808628Y-113828571D02*
X152284819Y-113495238D01*
X152380057Y-113209523D02*
X152332438Y-113161904D01*
X152332438Y-113161904D02*
X152284819Y-113066666D01*
X152284819Y-113066666D02*
X152284819Y-112828571D01*
X152284819Y-112828571D02*
X152332438Y-112733333D01*
X152332438Y-112733333D02*
X152380057Y-112685714D01*
X152380057Y-112685714D02*
X152475295Y-112638095D01*
X152475295Y-112638095D02*
X152570533Y-112638095D01*
X152570533Y-112638095D02*
X152713390Y-112685714D01*
X152713390Y-112685714D02*
X153284819Y-113257142D01*
X153284819Y-113257142D02*
X153284819Y-112638095D01*
X152284819Y-112019047D02*
X152284819Y-111923809D01*
X152284819Y-111923809D02*
X152332438Y-111828571D01*
X152332438Y-111828571D02*
X152380057Y-111780952D01*
X152380057Y-111780952D02*
X152475295Y-111733333D01*
X152475295Y-111733333D02*
X152665771Y-111685714D01*
X152665771Y-111685714D02*
X152903866Y-111685714D01*
X152903866Y-111685714D02*
X153094342Y-111733333D01*
X153094342Y-111733333D02*
X153189580Y-111780952D01*
X153189580Y-111780952D02*
X153237200Y-111828571D01*
X153237200Y-111828571D02*
X153284819Y-111923809D01*
X153284819Y-111923809D02*
X153284819Y-112019047D01*
X153284819Y-112019047D02*
X153237200Y-112114285D01*
X153237200Y-112114285D02*
X153189580Y-112161904D01*
X153189580Y-112161904D02*
X153094342Y-112209523D01*
X153094342Y-112209523D02*
X152903866Y-112257142D01*
X152903866Y-112257142D02*
X152665771Y-112257142D01*
X152665771Y-112257142D02*
X152475295Y-112209523D01*
X152475295Y-112209523D02*
X152380057Y-112161904D01*
X152380057Y-112161904D02*
X152332438Y-112114285D01*
X152332438Y-112114285D02*
X152284819Y-112019047D01*
X153284819Y-110733333D02*
X153284819Y-111304761D01*
X153284819Y-111019047D02*
X152284819Y-111019047D01*
X152284819Y-111019047D02*
X152427676Y-111114285D01*
X152427676Y-111114285D02*
X152522914Y-111209523D01*
X152522914Y-111209523D02*
X152570533Y-111304761D01*
X192318819Y-91543047D02*
X191842628Y-91876380D01*
X192318819Y-92114475D02*
X191318819Y-92114475D01*
X191318819Y-92114475D02*
X191318819Y-91733523D01*
X191318819Y-91733523D02*
X191366438Y-91638285D01*
X191366438Y-91638285D02*
X191414057Y-91590666D01*
X191414057Y-91590666D02*
X191509295Y-91543047D01*
X191509295Y-91543047D02*
X191652152Y-91543047D01*
X191652152Y-91543047D02*
X191747390Y-91590666D01*
X191747390Y-91590666D02*
X191795009Y-91638285D01*
X191795009Y-91638285D02*
X191842628Y-91733523D01*
X191842628Y-91733523D02*
X191842628Y-92114475D01*
X191414057Y-91162094D02*
X191366438Y-91114475D01*
X191366438Y-91114475D02*
X191318819Y-91019237D01*
X191318819Y-91019237D02*
X191318819Y-90781142D01*
X191318819Y-90781142D02*
X191366438Y-90685904D01*
X191366438Y-90685904D02*
X191414057Y-90638285D01*
X191414057Y-90638285D02*
X191509295Y-90590666D01*
X191509295Y-90590666D02*
X191604533Y-90590666D01*
X191604533Y-90590666D02*
X191747390Y-90638285D01*
X191747390Y-90638285D02*
X192318819Y-91209713D01*
X192318819Y-91209713D02*
X192318819Y-90590666D01*
X191318819Y-89971618D02*
X191318819Y-89876380D01*
X191318819Y-89876380D02*
X191366438Y-89781142D01*
X191366438Y-89781142D02*
X191414057Y-89733523D01*
X191414057Y-89733523D02*
X191509295Y-89685904D01*
X191509295Y-89685904D02*
X191699771Y-89638285D01*
X191699771Y-89638285D02*
X191937866Y-89638285D01*
X191937866Y-89638285D02*
X192128342Y-89685904D01*
X192128342Y-89685904D02*
X192223580Y-89733523D01*
X192223580Y-89733523D02*
X192271200Y-89781142D01*
X192271200Y-89781142D02*
X192318819Y-89876380D01*
X192318819Y-89876380D02*
X192318819Y-89971618D01*
X192318819Y-89971618D02*
X192271200Y-90066856D01*
X192271200Y-90066856D02*
X192223580Y-90114475D01*
X192223580Y-90114475D02*
X192128342Y-90162094D01*
X192128342Y-90162094D02*
X191937866Y-90209713D01*
X191937866Y-90209713D02*
X191699771Y-90209713D01*
X191699771Y-90209713D02*
X191509295Y-90162094D01*
X191509295Y-90162094D02*
X191414057Y-90114475D01*
X191414057Y-90114475D02*
X191366438Y-90066856D01*
X191366438Y-90066856D02*
X191318819Y-89971618D01*
X191318819Y-89304951D02*
X191318819Y-88685904D01*
X191318819Y-88685904D02*
X191699771Y-89019237D01*
X191699771Y-89019237D02*
X191699771Y-88876380D01*
X191699771Y-88876380D02*
X191747390Y-88781142D01*
X191747390Y-88781142D02*
X191795009Y-88733523D01*
X191795009Y-88733523D02*
X191890247Y-88685904D01*
X191890247Y-88685904D02*
X192128342Y-88685904D01*
X192128342Y-88685904D02*
X192223580Y-88733523D01*
X192223580Y-88733523D02*
X192271200Y-88781142D01*
X192271200Y-88781142D02*
X192318819Y-88876380D01*
X192318819Y-88876380D02*
X192318819Y-89162094D01*
X192318819Y-89162094D02*
X192271200Y-89257332D01*
X192271200Y-89257332D02*
X192223580Y-89304951D01*
X128470819Y-135422047D02*
X127994628Y-135755380D01*
X128470819Y-135993475D02*
X127470819Y-135993475D01*
X127470819Y-135993475D02*
X127470819Y-135612523D01*
X127470819Y-135612523D02*
X127518438Y-135517285D01*
X127518438Y-135517285D02*
X127566057Y-135469666D01*
X127566057Y-135469666D02*
X127661295Y-135422047D01*
X127661295Y-135422047D02*
X127804152Y-135422047D01*
X127804152Y-135422047D02*
X127899390Y-135469666D01*
X127899390Y-135469666D02*
X127947009Y-135517285D01*
X127947009Y-135517285D02*
X127994628Y-135612523D01*
X127994628Y-135612523D02*
X127994628Y-135993475D01*
X127804152Y-134564904D02*
X128470819Y-134564904D01*
X127423200Y-134802999D02*
X128137485Y-135041094D01*
X128137485Y-135041094D02*
X128137485Y-134422047D01*
X127470819Y-133850618D02*
X127470819Y-133755380D01*
X127470819Y-133755380D02*
X127518438Y-133660142D01*
X127518438Y-133660142D02*
X127566057Y-133612523D01*
X127566057Y-133612523D02*
X127661295Y-133564904D01*
X127661295Y-133564904D02*
X127851771Y-133517285D01*
X127851771Y-133517285D02*
X128089866Y-133517285D01*
X128089866Y-133517285D02*
X128280342Y-133564904D01*
X128280342Y-133564904D02*
X128375580Y-133612523D01*
X128375580Y-133612523D02*
X128423200Y-133660142D01*
X128423200Y-133660142D02*
X128470819Y-133755380D01*
X128470819Y-133755380D02*
X128470819Y-133850618D01*
X128470819Y-133850618D02*
X128423200Y-133945856D01*
X128423200Y-133945856D02*
X128375580Y-133993475D01*
X128375580Y-133993475D02*
X128280342Y-134041094D01*
X128280342Y-134041094D02*
X128089866Y-134088713D01*
X128089866Y-134088713D02*
X127851771Y-134088713D01*
X127851771Y-134088713D02*
X127661295Y-134041094D01*
X127661295Y-134041094D02*
X127566057Y-133993475D01*
X127566057Y-133993475D02*
X127518438Y-133945856D01*
X127518438Y-133945856D02*
X127470819Y-133850618D01*
X128470819Y-133041094D02*
X128470819Y-132850618D01*
X128470819Y-132850618D02*
X128423200Y-132755380D01*
X128423200Y-132755380D02*
X128375580Y-132707761D01*
X128375580Y-132707761D02*
X128232723Y-132612523D01*
X128232723Y-132612523D02*
X128042247Y-132564904D01*
X128042247Y-132564904D02*
X127661295Y-132564904D01*
X127661295Y-132564904D02*
X127566057Y-132612523D01*
X127566057Y-132612523D02*
X127518438Y-132660142D01*
X127518438Y-132660142D02*
X127470819Y-132755380D01*
X127470819Y-132755380D02*
X127470819Y-132945856D01*
X127470819Y-132945856D02*
X127518438Y-133041094D01*
X127518438Y-133041094D02*
X127566057Y-133088713D01*
X127566057Y-133088713D02*
X127661295Y-133136332D01*
X127661295Y-133136332D02*
X127899390Y-133136332D01*
X127899390Y-133136332D02*
X127994628Y-133088713D01*
X127994628Y-133088713D02*
X128042247Y-133041094D01*
X128042247Y-133041094D02*
X128089866Y-132945856D01*
X128089866Y-132945856D02*
X128089866Y-132755380D01*
X128089866Y-132755380D02*
X128042247Y-132660142D01*
X128042247Y-132660142D02*
X127994628Y-132612523D01*
X127994628Y-132612523D02*
X127899390Y-132564904D01*
X192985580Y-123814047D02*
X193033200Y-123861666D01*
X193033200Y-123861666D02*
X193080819Y-124004523D01*
X193080819Y-124004523D02*
X193080819Y-124099761D01*
X193080819Y-124099761D02*
X193033200Y-124242618D01*
X193033200Y-124242618D02*
X192937961Y-124337856D01*
X192937961Y-124337856D02*
X192842723Y-124385475D01*
X192842723Y-124385475D02*
X192652247Y-124433094D01*
X192652247Y-124433094D02*
X192509390Y-124433094D01*
X192509390Y-124433094D02*
X192318914Y-124385475D01*
X192318914Y-124385475D02*
X192223676Y-124337856D01*
X192223676Y-124337856D02*
X192128438Y-124242618D01*
X192128438Y-124242618D02*
X192080819Y-124099761D01*
X192080819Y-124099761D02*
X192080819Y-124004523D01*
X192080819Y-124004523D02*
X192128438Y-123861666D01*
X192128438Y-123861666D02*
X192176057Y-123814047D01*
X192080819Y-122956904D02*
X192080819Y-123147380D01*
X192080819Y-123147380D02*
X192128438Y-123242618D01*
X192128438Y-123242618D02*
X192176057Y-123290237D01*
X192176057Y-123290237D02*
X192318914Y-123385475D01*
X192318914Y-123385475D02*
X192509390Y-123433094D01*
X192509390Y-123433094D02*
X192890342Y-123433094D01*
X192890342Y-123433094D02*
X192985580Y-123385475D01*
X192985580Y-123385475D02*
X193033200Y-123337856D01*
X193033200Y-123337856D02*
X193080819Y-123242618D01*
X193080819Y-123242618D02*
X193080819Y-123052142D01*
X193080819Y-123052142D02*
X193033200Y-122956904D01*
X193033200Y-122956904D02*
X192985580Y-122909285D01*
X192985580Y-122909285D02*
X192890342Y-122861666D01*
X192890342Y-122861666D02*
X192652247Y-122861666D01*
X192652247Y-122861666D02*
X192557009Y-122909285D01*
X192557009Y-122909285D02*
X192509390Y-122956904D01*
X192509390Y-122956904D02*
X192461771Y-123052142D01*
X192461771Y-123052142D02*
X192461771Y-123242618D01*
X192461771Y-123242618D02*
X192509390Y-123337856D01*
X192509390Y-123337856D02*
X192557009Y-123385475D01*
X192557009Y-123385475D02*
X192652247Y-123433094D01*
X192080819Y-122242618D02*
X192080819Y-122147380D01*
X192080819Y-122147380D02*
X192128438Y-122052142D01*
X192128438Y-122052142D02*
X192176057Y-122004523D01*
X192176057Y-122004523D02*
X192271295Y-121956904D01*
X192271295Y-121956904D02*
X192461771Y-121909285D01*
X192461771Y-121909285D02*
X192699866Y-121909285D01*
X192699866Y-121909285D02*
X192890342Y-121956904D01*
X192890342Y-121956904D02*
X192985580Y-122004523D01*
X192985580Y-122004523D02*
X193033200Y-122052142D01*
X193033200Y-122052142D02*
X193080819Y-122147380D01*
X193080819Y-122147380D02*
X193080819Y-122242618D01*
X193080819Y-122242618D02*
X193033200Y-122337856D01*
X193033200Y-122337856D02*
X192985580Y-122385475D01*
X192985580Y-122385475D02*
X192890342Y-122433094D01*
X192890342Y-122433094D02*
X192699866Y-122480713D01*
X192699866Y-122480713D02*
X192461771Y-122480713D01*
X192461771Y-122480713D02*
X192271295Y-122433094D01*
X192271295Y-122433094D02*
X192176057Y-122385475D01*
X192176057Y-122385475D02*
X192128438Y-122337856D01*
X192128438Y-122337856D02*
X192080819Y-122242618D01*
X192176057Y-121528332D02*
X192128438Y-121480713D01*
X192128438Y-121480713D02*
X192080819Y-121385475D01*
X192080819Y-121385475D02*
X192080819Y-121147380D01*
X192080819Y-121147380D02*
X192128438Y-121052142D01*
X192128438Y-121052142D02*
X192176057Y-121004523D01*
X192176057Y-121004523D02*
X192271295Y-120956904D01*
X192271295Y-120956904D02*
X192366533Y-120956904D01*
X192366533Y-120956904D02*
X192509390Y-121004523D01*
X192509390Y-121004523D02*
X193080819Y-121575951D01*
X193080819Y-121575951D02*
X193080819Y-120956904D01*
X167809524Y-151454819D02*
X167809524Y-150454819D01*
X167809524Y-150454819D02*
X168047619Y-150454819D01*
X168047619Y-150454819D02*
X168190476Y-150502438D01*
X168190476Y-150502438D02*
X168285714Y-150597676D01*
X168285714Y-150597676D02*
X168333333Y-150692914D01*
X168333333Y-150692914D02*
X168380952Y-150883390D01*
X168380952Y-150883390D02*
X168380952Y-151026247D01*
X168380952Y-151026247D02*
X168333333Y-151216723D01*
X168333333Y-151216723D02*
X168285714Y-151311961D01*
X168285714Y-151311961D02*
X168190476Y-151407200D01*
X168190476Y-151407200D02*
X168047619Y-151454819D01*
X168047619Y-151454819D02*
X167809524Y-151454819D01*
X169238095Y-150788152D02*
X169238095Y-151454819D01*
X169000000Y-150407200D02*
X168761905Y-151121485D01*
X168761905Y-151121485D02*
X169380952Y-151121485D01*
X169952381Y-150454819D02*
X170047619Y-150454819D01*
X170047619Y-150454819D02*
X170142857Y-150502438D01*
X170142857Y-150502438D02*
X170190476Y-150550057D01*
X170190476Y-150550057D02*
X170238095Y-150645295D01*
X170238095Y-150645295D02*
X170285714Y-150835771D01*
X170285714Y-150835771D02*
X170285714Y-151073866D01*
X170285714Y-151073866D02*
X170238095Y-151264342D01*
X170238095Y-151264342D02*
X170190476Y-151359580D01*
X170190476Y-151359580D02*
X170142857Y-151407200D01*
X170142857Y-151407200D02*
X170047619Y-151454819D01*
X170047619Y-151454819D02*
X169952381Y-151454819D01*
X169952381Y-151454819D02*
X169857143Y-151407200D01*
X169857143Y-151407200D02*
X169809524Y-151359580D01*
X169809524Y-151359580D02*
X169761905Y-151264342D01*
X169761905Y-151264342D02*
X169714286Y-151073866D01*
X169714286Y-151073866D02*
X169714286Y-150835771D01*
X169714286Y-150835771D02*
X169761905Y-150645295D01*
X169761905Y-150645295D02*
X169809524Y-150550057D01*
X169809524Y-150550057D02*
X169857143Y-150502438D01*
X169857143Y-150502438D02*
X169952381Y-150454819D01*
X171142857Y-150788152D02*
X171142857Y-151454819D01*
X170904762Y-150407200D02*
X170666667Y-151121485D01*
X170666667Y-151121485D02*
X171285714Y-151121485D01*
X166624819Y-113690475D02*
X165624819Y-113690475D01*
X165624819Y-113690475D02*
X165624819Y-113452380D01*
X165624819Y-113452380D02*
X165672438Y-113309523D01*
X165672438Y-113309523D02*
X165767676Y-113214285D01*
X165767676Y-113214285D02*
X165862914Y-113166666D01*
X165862914Y-113166666D02*
X166053390Y-113119047D01*
X166053390Y-113119047D02*
X166196247Y-113119047D01*
X166196247Y-113119047D02*
X166386723Y-113166666D01*
X166386723Y-113166666D02*
X166481961Y-113214285D01*
X166481961Y-113214285D02*
X166577200Y-113309523D01*
X166577200Y-113309523D02*
X166624819Y-113452380D01*
X166624819Y-113452380D02*
X166624819Y-113690475D01*
X165720057Y-112738094D02*
X165672438Y-112690475D01*
X165672438Y-112690475D02*
X165624819Y-112595237D01*
X165624819Y-112595237D02*
X165624819Y-112357142D01*
X165624819Y-112357142D02*
X165672438Y-112261904D01*
X165672438Y-112261904D02*
X165720057Y-112214285D01*
X165720057Y-112214285D02*
X165815295Y-112166666D01*
X165815295Y-112166666D02*
X165910533Y-112166666D01*
X165910533Y-112166666D02*
X166053390Y-112214285D01*
X166053390Y-112214285D02*
X166624819Y-112785713D01*
X166624819Y-112785713D02*
X166624819Y-112166666D01*
X165624819Y-111547618D02*
X165624819Y-111452380D01*
X165624819Y-111452380D02*
X165672438Y-111357142D01*
X165672438Y-111357142D02*
X165720057Y-111309523D01*
X165720057Y-111309523D02*
X165815295Y-111261904D01*
X165815295Y-111261904D02*
X166005771Y-111214285D01*
X166005771Y-111214285D02*
X166243866Y-111214285D01*
X166243866Y-111214285D02*
X166434342Y-111261904D01*
X166434342Y-111261904D02*
X166529580Y-111309523D01*
X166529580Y-111309523D02*
X166577200Y-111357142D01*
X166577200Y-111357142D02*
X166624819Y-111452380D01*
X166624819Y-111452380D02*
X166624819Y-111547618D01*
X166624819Y-111547618D02*
X166577200Y-111642856D01*
X166577200Y-111642856D02*
X166529580Y-111690475D01*
X166529580Y-111690475D02*
X166434342Y-111738094D01*
X166434342Y-111738094D02*
X166243866Y-111785713D01*
X166243866Y-111785713D02*
X166005771Y-111785713D01*
X166005771Y-111785713D02*
X165815295Y-111738094D01*
X165815295Y-111738094D02*
X165720057Y-111690475D01*
X165720057Y-111690475D02*
X165672438Y-111642856D01*
X165672438Y-111642856D02*
X165624819Y-111547618D01*
X166624819Y-110261904D02*
X166624819Y-110833332D01*
X166624819Y-110547618D02*
X165624819Y-110547618D01*
X165624819Y-110547618D02*
X165767676Y-110642856D01*
X165767676Y-110642856D02*
X165862914Y-110738094D01*
X165862914Y-110738094D02*
X165910533Y-110833332D01*
X171859580Y-125119047D02*
X171907200Y-125166666D01*
X171907200Y-125166666D02*
X171954819Y-125309523D01*
X171954819Y-125309523D02*
X171954819Y-125404761D01*
X171954819Y-125404761D02*
X171907200Y-125547618D01*
X171907200Y-125547618D02*
X171811961Y-125642856D01*
X171811961Y-125642856D02*
X171716723Y-125690475D01*
X171716723Y-125690475D02*
X171526247Y-125738094D01*
X171526247Y-125738094D02*
X171383390Y-125738094D01*
X171383390Y-125738094D02*
X171192914Y-125690475D01*
X171192914Y-125690475D02*
X171097676Y-125642856D01*
X171097676Y-125642856D02*
X171002438Y-125547618D01*
X171002438Y-125547618D02*
X170954819Y-125404761D01*
X170954819Y-125404761D02*
X170954819Y-125309523D01*
X170954819Y-125309523D02*
X171002438Y-125166666D01*
X171002438Y-125166666D02*
X171050057Y-125119047D01*
X171050057Y-124738094D02*
X171002438Y-124690475D01*
X171002438Y-124690475D02*
X170954819Y-124595237D01*
X170954819Y-124595237D02*
X170954819Y-124357142D01*
X170954819Y-124357142D02*
X171002438Y-124261904D01*
X171002438Y-124261904D02*
X171050057Y-124214285D01*
X171050057Y-124214285D02*
X171145295Y-124166666D01*
X171145295Y-124166666D02*
X171240533Y-124166666D01*
X171240533Y-124166666D02*
X171383390Y-124214285D01*
X171383390Y-124214285D02*
X171954819Y-124785713D01*
X171954819Y-124785713D02*
X171954819Y-124166666D01*
X170954819Y-123547618D02*
X170954819Y-123452380D01*
X170954819Y-123452380D02*
X171002438Y-123357142D01*
X171002438Y-123357142D02*
X171050057Y-123309523D01*
X171050057Y-123309523D02*
X171145295Y-123261904D01*
X171145295Y-123261904D02*
X171335771Y-123214285D01*
X171335771Y-123214285D02*
X171573866Y-123214285D01*
X171573866Y-123214285D02*
X171764342Y-123261904D01*
X171764342Y-123261904D02*
X171859580Y-123309523D01*
X171859580Y-123309523D02*
X171907200Y-123357142D01*
X171907200Y-123357142D02*
X171954819Y-123452380D01*
X171954819Y-123452380D02*
X171954819Y-123547618D01*
X171954819Y-123547618D02*
X171907200Y-123642856D01*
X171907200Y-123642856D02*
X171859580Y-123690475D01*
X171859580Y-123690475D02*
X171764342Y-123738094D01*
X171764342Y-123738094D02*
X171573866Y-123785713D01*
X171573866Y-123785713D02*
X171335771Y-123785713D01*
X171335771Y-123785713D02*
X171145295Y-123738094D01*
X171145295Y-123738094D02*
X171050057Y-123690475D01*
X171050057Y-123690475D02*
X171002438Y-123642856D01*
X171002438Y-123642856D02*
X170954819Y-123547618D01*
X171954819Y-122261904D02*
X171954819Y-122833332D01*
X171954819Y-122547618D02*
X170954819Y-122547618D01*
X170954819Y-122547618D02*
X171097676Y-122642856D01*
X171097676Y-122642856D02*
X171192914Y-122738094D01*
X171192914Y-122738094D02*
X171240533Y-122833332D01*
X198437714Y-98632819D02*
X198437714Y-99442342D01*
X198437714Y-99442342D02*
X198485333Y-99537580D01*
X198485333Y-99537580D02*
X198532952Y-99585200D01*
X198532952Y-99585200D02*
X198628190Y-99632819D01*
X198628190Y-99632819D02*
X198818666Y-99632819D01*
X198818666Y-99632819D02*
X198913904Y-99585200D01*
X198913904Y-99585200D02*
X198961523Y-99537580D01*
X198961523Y-99537580D02*
X199009142Y-99442342D01*
X199009142Y-99442342D02*
X199009142Y-98632819D01*
X199437714Y-98728057D02*
X199485333Y-98680438D01*
X199485333Y-98680438D02*
X199580571Y-98632819D01*
X199580571Y-98632819D02*
X199818666Y-98632819D01*
X199818666Y-98632819D02*
X199913904Y-98680438D01*
X199913904Y-98680438D02*
X199961523Y-98728057D01*
X199961523Y-98728057D02*
X200009142Y-98823295D01*
X200009142Y-98823295D02*
X200009142Y-98918533D01*
X200009142Y-98918533D02*
X199961523Y-99061390D01*
X199961523Y-99061390D02*
X199390095Y-99632819D01*
X199390095Y-99632819D02*
X200009142Y-99632819D01*
X200628190Y-98632819D02*
X200723428Y-98632819D01*
X200723428Y-98632819D02*
X200818666Y-98680438D01*
X200818666Y-98680438D02*
X200866285Y-98728057D01*
X200866285Y-98728057D02*
X200913904Y-98823295D01*
X200913904Y-98823295D02*
X200961523Y-99013771D01*
X200961523Y-99013771D02*
X200961523Y-99251866D01*
X200961523Y-99251866D02*
X200913904Y-99442342D01*
X200913904Y-99442342D02*
X200866285Y-99537580D01*
X200866285Y-99537580D02*
X200818666Y-99585200D01*
X200818666Y-99585200D02*
X200723428Y-99632819D01*
X200723428Y-99632819D02*
X200628190Y-99632819D01*
X200628190Y-99632819D02*
X200532952Y-99585200D01*
X200532952Y-99585200D02*
X200485333Y-99537580D01*
X200485333Y-99537580D02*
X200437714Y-99442342D01*
X200437714Y-99442342D02*
X200390095Y-99251866D01*
X200390095Y-99251866D02*
X200390095Y-99013771D01*
X200390095Y-99013771D02*
X200437714Y-98823295D01*
X200437714Y-98823295D02*
X200485333Y-98728057D01*
X200485333Y-98728057D02*
X200532952Y-98680438D01*
X200532952Y-98680438D02*
X200628190Y-98632819D01*
X201818666Y-98966152D02*
X201818666Y-99632819D01*
X201580571Y-98585200D02*
X201342476Y-99299485D01*
X201342476Y-99299485D02*
X201961523Y-99299485D01*
X149871580Y-74576047D02*
X149919200Y-74623666D01*
X149919200Y-74623666D02*
X149966819Y-74766523D01*
X149966819Y-74766523D02*
X149966819Y-74861761D01*
X149966819Y-74861761D02*
X149919200Y-75004618D01*
X149919200Y-75004618D02*
X149823961Y-75099856D01*
X149823961Y-75099856D02*
X149728723Y-75147475D01*
X149728723Y-75147475D02*
X149538247Y-75195094D01*
X149538247Y-75195094D02*
X149395390Y-75195094D01*
X149395390Y-75195094D02*
X149204914Y-75147475D01*
X149204914Y-75147475D02*
X149109676Y-75099856D01*
X149109676Y-75099856D02*
X149014438Y-75004618D01*
X149014438Y-75004618D02*
X148966819Y-74861761D01*
X148966819Y-74861761D02*
X148966819Y-74766523D01*
X148966819Y-74766523D02*
X149014438Y-74623666D01*
X149014438Y-74623666D02*
X149062057Y-74576047D01*
X148966819Y-74242713D02*
X148966819Y-73623666D01*
X148966819Y-73623666D02*
X149347771Y-73956999D01*
X149347771Y-73956999D02*
X149347771Y-73814142D01*
X149347771Y-73814142D02*
X149395390Y-73718904D01*
X149395390Y-73718904D02*
X149443009Y-73671285D01*
X149443009Y-73671285D02*
X149538247Y-73623666D01*
X149538247Y-73623666D02*
X149776342Y-73623666D01*
X149776342Y-73623666D02*
X149871580Y-73671285D01*
X149871580Y-73671285D02*
X149919200Y-73718904D01*
X149919200Y-73718904D02*
X149966819Y-73814142D01*
X149966819Y-73814142D02*
X149966819Y-74099856D01*
X149966819Y-74099856D02*
X149919200Y-74195094D01*
X149919200Y-74195094D02*
X149871580Y-74242713D01*
X148966819Y-73004618D02*
X148966819Y-72909380D01*
X148966819Y-72909380D02*
X149014438Y-72814142D01*
X149014438Y-72814142D02*
X149062057Y-72766523D01*
X149062057Y-72766523D02*
X149157295Y-72718904D01*
X149157295Y-72718904D02*
X149347771Y-72671285D01*
X149347771Y-72671285D02*
X149585866Y-72671285D01*
X149585866Y-72671285D02*
X149776342Y-72718904D01*
X149776342Y-72718904D02*
X149871580Y-72766523D01*
X149871580Y-72766523D02*
X149919200Y-72814142D01*
X149919200Y-72814142D02*
X149966819Y-72909380D01*
X149966819Y-72909380D02*
X149966819Y-73004618D01*
X149966819Y-73004618D02*
X149919200Y-73099856D01*
X149919200Y-73099856D02*
X149871580Y-73147475D01*
X149871580Y-73147475D02*
X149776342Y-73195094D01*
X149776342Y-73195094D02*
X149585866Y-73242713D01*
X149585866Y-73242713D02*
X149347771Y-73242713D01*
X149347771Y-73242713D02*
X149157295Y-73195094D01*
X149157295Y-73195094D02*
X149062057Y-73147475D01*
X149062057Y-73147475D02*
X149014438Y-73099856D01*
X149014438Y-73099856D02*
X148966819Y-73004618D01*
X149062057Y-72290332D02*
X149014438Y-72242713D01*
X149014438Y-72242713D02*
X148966819Y-72147475D01*
X148966819Y-72147475D02*
X148966819Y-71909380D01*
X148966819Y-71909380D02*
X149014438Y-71814142D01*
X149014438Y-71814142D02*
X149062057Y-71766523D01*
X149062057Y-71766523D02*
X149157295Y-71718904D01*
X149157295Y-71718904D02*
X149252533Y-71718904D01*
X149252533Y-71718904D02*
X149395390Y-71766523D01*
X149395390Y-71766523D02*
X149966819Y-72337951D01*
X149966819Y-72337951D02*
X149966819Y-71718904D01*
X199590819Y-96623047D02*
X199114628Y-96956380D01*
X199590819Y-97194475D02*
X198590819Y-97194475D01*
X198590819Y-97194475D02*
X198590819Y-96813523D01*
X198590819Y-96813523D02*
X198638438Y-96718285D01*
X198638438Y-96718285D02*
X198686057Y-96670666D01*
X198686057Y-96670666D02*
X198781295Y-96623047D01*
X198781295Y-96623047D02*
X198924152Y-96623047D01*
X198924152Y-96623047D02*
X199019390Y-96670666D01*
X199019390Y-96670666D02*
X199067009Y-96718285D01*
X199067009Y-96718285D02*
X199114628Y-96813523D01*
X199114628Y-96813523D02*
X199114628Y-97194475D01*
X198686057Y-96242094D02*
X198638438Y-96194475D01*
X198638438Y-96194475D02*
X198590819Y-96099237D01*
X198590819Y-96099237D02*
X198590819Y-95861142D01*
X198590819Y-95861142D02*
X198638438Y-95765904D01*
X198638438Y-95765904D02*
X198686057Y-95718285D01*
X198686057Y-95718285D02*
X198781295Y-95670666D01*
X198781295Y-95670666D02*
X198876533Y-95670666D01*
X198876533Y-95670666D02*
X199019390Y-95718285D01*
X199019390Y-95718285D02*
X199590819Y-96289713D01*
X199590819Y-96289713D02*
X199590819Y-95670666D01*
X198686057Y-95289713D02*
X198638438Y-95242094D01*
X198638438Y-95242094D02*
X198590819Y-95146856D01*
X198590819Y-95146856D02*
X198590819Y-94908761D01*
X198590819Y-94908761D02*
X198638438Y-94813523D01*
X198638438Y-94813523D02*
X198686057Y-94765904D01*
X198686057Y-94765904D02*
X198781295Y-94718285D01*
X198781295Y-94718285D02*
X198876533Y-94718285D01*
X198876533Y-94718285D02*
X199019390Y-94765904D01*
X199019390Y-94765904D02*
X199590819Y-95337332D01*
X199590819Y-95337332D02*
X199590819Y-94718285D01*
X198590819Y-94099237D02*
X198590819Y-94003999D01*
X198590819Y-94003999D02*
X198638438Y-93908761D01*
X198638438Y-93908761D02*
X198686057Y-93861142D01*
X198686057Y-93861142D02*
X198781295Y-93813523D01*
X198781295Y-93813523D02*
X198971771Y-93765904D01*
X198971771Y-93765904D02*
X199209866Y-93765904D01*
X199209866Y-93765904D02*
X199400342Y-93813523D01*
X199400342Y-93813523D02*
X199495580Y-93861142D01*
X199495580Y-93861142D02*
X199543200Y-93908761D01*
X199543200Y-93908761D02*
X199590819Y-94003999D01*
X199590819Y-94003999D02*
X199590819Y-94099237D01*
X199590819Y-94099237D02*
X199543200Y-94194475D01*
X199543200Y-94194475D02*
X199495580Y-94242094D01*
X199495580Y-94242094D02*
X199400342Y-94289713D01*
X199400342Y-94289713D02*
X199209866Y-94337332D01*
X199209866Y-94337332D02*
X198971771Y-94337332D01*
X198971771Y-94337332D02*
X198781295Y-94289713D01*
X198781295Y-94289713D02*
X198686057Y-94242094D01*
X198686057Y-94242094D02*
X198638438Y-94194475D01*
X198638438Y-94194475D02*
X198590819Y-94099237D01*
X163776819Y-81256047D02*
X163300628Y-81589380D01*
X163776819Y-81827475D02*
X162776819Y-81827475D01*
X162776819Y-81827475D02*
X162776819Y-81446523D01*
X162776819Y-81446523D02*
X162824438Y-81351285D01*
X162824438Y-81351285D02*
X162872057Y-81303666D01*
X162872057Y-81303666D02*
X162967295Y-81256047D01*
X162967295Y-81256047D02*
X163110152Y-81256047D01*
X163110152Y-81256047D02*
X163205390Y-81303666D01*
X163205390Y-81303666D02*
X163253009Y-81351285D01*
X163253009Y-81351285D02*
X163300628Y-81446523D01*
X163300628Y-81446523D02*
X163300628Y-81827475D01*
X163110152Y-80398904D02*
X163776819Y-80398904D01*
X162729200Y-80636999D02*
X163443485Y-80875094D01*
X163443485Y-80875094D02*
X163443485Y-80256047D01*
X162776819Y-79684618D02*
X162776819Y-79589380D01*
X162776819Y-79589380D02*
X162824438Y-79494142D01*
X162824438Y-79494142D02*
X162872057Y-79446523D01*
X162872057Y-79446523D02*
X162967295Y-79398904D01*
X162967295Y-79398904D02*
X163157771Y-79351285D01*
X163157771Y-79351285D02*
X163395866Y-79351285D01*
X163395866Y-79351285D02*
X163586342Y-79398904D01*
X163586342Y-79398904D02*
X163681580Y-79446523D01*
X163681580Y-79446523D02*
X163729200Y-79494142D01*
X163729200Y-79494142D02*
X163776819Y-79589380D01*
X163776819Y-79589380D02*
X163776819Y-79684618D01*
X163776819Y-79684618D02*
X163729200Y-79779856D01*
X163729200Y-79779856D02*
X163681580Y-79827475D01*
X163681580Y-79827475D02*
X163586342Y-79875094D01*
X163586342Y-79875094D02*
X163395866Y-79922713D01*
X163395866Y-79922713D02*
X163157771Y-79922713D01*
X163157771Y-79922713D02*
X162967295Y-79875094D01*
X162967295Y-79875094D02*
X162872057Y-79827475D01*
X162872057Y-79827475D02*
X162824438Y-79779856D01*
X162824438Y-79779856D02*
X162776819Y-79684618D01*
X163776819Y-78398904D02*
X163776819Y-78970332D01*
X163776819Y-78684618D02*
X162776819Y-78684618D01*
X162776819Y-78684618D02*
X162919676Y-78779856D01*
X162919676Y-78779856D02*
X163014914Y-78875094D01*
X163014914Y-78875094D02*
X163062533Y-78970332D01*
X163594819Y-95544285D02*
X164404342Y-95544285D01*
X164404342Y-95544285D02*
X164499580Y-95496666D01*
X164499580Y-95496666D02*
X164547200Y-95449047D01*
X164547200Y-95449047D02*
X164594819Y-95353809D01*
X164594819Y-95353809D02*
X164594819Y-95163333D01*
X164594819Y-95163333D02*
X164547200Y-95068095D01*
X164547200Y-95068095D02*
X164499580Y-95020476D01*
X164499580Y-95020476D02*
X164404342Y-94972857D01*
X164404342Y-94972857D02*
X163594819Y-94972857D01*
X163928152Y-94068095D02*
X164594819Y-94068095D01*
X163547200Y-94306190D02*
X164261485Y-94544285D01*
X164261485Y-94544285D02*
X164261485Y-93925238D01*
X163594819Y-93353809D02*
X163594819Y-93258571D01*
X163594819Y-93258571D02*
X163642438Y-93163333D01*
X163642438Y-93163333D02*
X163690057Y-93115714D01*
X163690057Y-93115714D02*
X163785295Y-93068095D01*
X163785295Y-93068095D02*
X163975771Y-93020476D01*
X163975771Y-93020476D02*
X164213866Y-93020476D01*
X164213866Y-93020476D02*
X164404342Y-93068095D01*
X164404342Y-93068095D02*
X164499580Y-93115714D01*
X164499580Y-93115714D02*
X164547200Y-93163333D01*
X164547200Y-93163333D02*
X164594819Y-93258571D01*
X164594819Y-93258571D02*
X164594819Y-93353809D01*
X164594819Y-93353809D02*
X164547200Y-93449047D01*
X164547200Y-93449047D02*
X164499580Y-93496666D01*
X164499580Y-93496666D02*
X164404342Y-93544285D01*
X164404342Y-93544285D02*
X164213866Y-93591904D01*
X164213866Y-93591904D02*
X163975771Y-93591904D01*
X163975771Y-93591904D02*
X163785295Y-93544285D01*
X163785295Y-93544285D02*
X163690057Y-93496666D01*
X163690057Y-93496666D02*
X163642438Y-93449047D01*
X163642438Y-93449047D02*
X163594819Y-93353809D01*
X164594819Y-92068095D02*
X164594819Y-92639523D01*
X164594819Y-92353809D02*
X163594819Y-92353809D01*
X163594819Y-92353809D02*
X163737676Y-92449047D01*
X163737676Y-92449047D02*
X163832914Y-92544285D01*
X163832914Y-92544285D02*
X163880533Y-92639523D01*
X165721024Y-109580819D02*
X165721024Y-108580819D01*
X165721024Y-108580819D02*
X165959119Y-108580819D01*
X165959119Y-108580819D02*
X166101976Y-108628438D01*
X166101976Y-108628438D02*
X166197214Y-108723676D01*
X166197214Y-108723676D02*
X166244833Y-108818914D01*
X166244833Y-108818914D02*
X166292452Y-109009390D01*
X166292452Y-109009390D02*
X166292452Y-109152247D01*
X166292452Y-109152247D02*
X166244833Y-109342723D01*
X166244833Y-109342723D02*
X166197214Y-109437961D01*
X166197214Y-109437961D02*
X166101976Y-109533200D01*
X166101976Y-109533200D02*
X165959119Y-109580819D01*
X165959119Y-109580819D02*
X165721024Y-109580819D01*
X166673405Y-108676057D02*
X166721024Y-108628438D01*
X166721024Y-108628438D02*
X166816262Y-108580819D01*
X166816262Y-108580819D02*
X167054357Y-108580819D01*
X167054357Y-108580819D02*
X167149595Y-108628438D01*
X167149595Y-108628438D02*
X167197214Y-108676057D01*
X167197214Y-108676057D02*
X167244833Y-108771295D01*
X167244833Y-108771295D02*
X167244833Y-108866533D01*
X167244833Y-108866533D02*
X167197214Y-109009390D01*
X167197214Y-109009390D02*
X166625786Y-109580819D01*
X166625786Y-109580819D02*
X167244833Y-109580819D01*
X167863881Y-108580819D02*
X167959119Y-108580819D01*
X167959119Y-108580819D02*
X168054357Y-108628438D01*
X168054357Y-108628438D02*
X168101976Y-108676057D01*
X168101976Y-108676057D02*
X168149595Y-108771295D01*
X168149595Y-108771295D02*
X168197214Y-108961771D01*
X168197214Y-108961771D02*
X168197214Y-109199866D01*
X168197214Y-109199866D02*
X168149595Y-109390342D01*
X168149595Y-109390342D02*
X168101976Y-109485580D01*
X168101976Y-109485580D02*
X168054357Y-109533200D01*
X168054357Y-109533200D02*
X167959119Y-109580819D01*
X167959119Y-109580819D02*
X167863881Y-109580819D01*
X167863881Y-109580819D02*
X167768643Y-109533200D01*
X167768643Y-109533200D02*
X167721024Y-109485580D01*
X167721024Y-109485580D02*
X167673405Y-109390342D01*
X167673405Y-109390342D02*
X167625786Y-109199866D01*
X167625786Y-109199866D02*
X167625786Y-108961771D01*
X167625786Y-108961771D02*
X167673405Y-108771295D01*
X167673405Y-108771295D02*
X167721024Y-108676057D01*
X167721024Y-108676057D02*
X167768643Y-108628438D01*
X167768643Y-108628438D02*
X167863881Y-108580819D01*
X168578167Y-108676057D02*
X168625786Y-108628438D01*
X168625786Y-108628438D02*
X168721024Y-108580819D01*
X168721024Y-108580819D02*
X168959119Y-108580819D01*
X168959119Y-108580819D02*
X169054357Y-108628438D01*
X169054357Y-108628438D02*
X169101976Y-108676057D01*
X169101976Y-108676057D02*
X169149595Y-108771295D01*
X169149595Y-108771295D02*
X169149595Y-108866533D01*
X169149595Y-108866533D02*
X169101976Y-109009390D01*
X169101976Y-109009390D02*
X168530548Y-109580819D01*
X168530548Y-109580819D02*
X169149595Y-109580819D01*
X210639819Y-112879047D02*
X210163628Y-113212380D01*
X210639819Y-113450475D02*
X209639819Y-113450475D01*
X209639819Y-113450475D02*
X209639819Y-113069523D01*
X209639819Y-113069523D02*
X209687438Y-112974285D01*
X209687438Y-112974285D02*
X209735057Y-112926666D01*
X209735057Y-112926666D02*
X209830295Y-112879047D01*
X209830295Y-112879047D02*
X209973152Y-112879047D01*
X209973152Y-112879047D02*
X210068390Y-112926666D01*
X210068390Y-112926666D02*
X210116009Y-112974285D01*
X210116009Y-112974285D02*
X210163628Y-113069523D01*
X210163628Y-113069523D02*
X210163628Y-113450475D01*
X209735057Y-112498094D02*
X209687438Y-112450475D01*
X209687438Y-112450475D02*
X209639819Y-112355237D01*
X209639819Y-112355237D02*
X209639819Y-112117142D01*
X209639819Y-112117142D02*
X209687438Y-112021904D01*
X209687438Y-112021904D02*
X209735057Y-111974285D01*
X209735057Y-111974285D02*
X209830295Y-111926666D01*
X209830295Y-111926666D02*
X209925533Y-111926666D01*
X209925533Y-111926666D02*
X210068390Y-111974285D01*
X210068390Y-111974285D02*
X210639819Y-112545713D01*
X210639819Y-112545713D02*
X210639819Y-111926666D01*
X210639819Y-110974285D02*
X210639819Y-111545713D01*
X210639819Y-111259999D02*
X209639819Y-111259999D01*
X209639819Y-111259999D02*
X209782676Y-111355237D01*
X209782676Y-111355237D02*
X209877914Y-111450475D01*
X209877914Y-111450475D02*
X209925533Y-111545713D01*
X209639819Y-110640951D02*
X209639819Y-109974285D01*
X209639819Y-109974285D02*
X210639819Y-110402856D01*
X186148819Y-148630714D02*
X186863104Y-148630714D01*
X186863104Y-148630714D02*
X187005961Y-148678333D01*
X187005961Y-148678333D02*
X187101200Y-148773571D01*
X187101200Y-148773571D02*
X187148819Y-148916428D01*
X187148819Y-148916428D02*
X187148819Y-149011666D01*
X186148819Y-147725952D02*
X186148819Y-147916428D01*
X186148819Y-147916428D02*
X186196438Y-148011666D01*
X186196438Y-148011666D02*
X186244057Y-148059285D01*
X186244057Y-148059285D02*
X186386914Y-148154523D01*
X186386914Y-148154523D02*
X186577390Y-148202142D01*
X186577390Y-148202142D02*
X186958342Y-148202142D01*
X186958342Y-148202142D02*
X187053580Y-148154523D01*
X187053580Y-148154523D02*
X187101200Y-148106904D01*
X187101200Y-148106904D02*
X187148819Y-148011666D01*
X187148819Y-148011666D02*
X187148819Y-147821190D01*
X187148819Y-147821190D02*
X187101200Y-147725952D01*
X187101200Y-147725952D02*
X187053580Y-147678333D01*
X187053580Y-147678333D02*
X186958342Y-147630714D01*
X186958342Y-147630714D02*
X186720247Y-147630714D01*
X186720247Y-147630714D02*
X186625009Y-147678333D01*
X186625009Y-147678333D02*
X186577390Y-147725952D01*
X186577390Y-147725952D02*
X186529771Y-147821190D01*
X186529771Y-147821190D02*
X186529771Y-148011666D01*
X186529771Y-148011666D02*
X186577390Y-148106904D01*
X186577390Y-148106904D02*
X186625009Y-148154523D01*
X186625009Y-148154523D02*
X186720247Y-148202142D01*
X186148819Y-147011666D02*
X186148819Y-146916428D01*
X186148819Y-146916428D02*
X186196438Y-146821190D01*
X186196438Y-146821190D02*
X186244057Y-146773571D01*
X186244057Y-146773571D02*
X186339295Y-146725952D01*
X186339295Y-146725952D02*
X186529771Y-146678333D01*
X186529771Y-146678333D02*
X186767866Y-146678333D01*
X186767866Y-146678333D02*
X186958342Y-146725952D01*
X186958342Y-146725952D02*
X187053580Y-146773571D01*
X187053580Y-146773571D02*
X187101200Y-146821190D01*
X187101200Y-146821190D02*
X187148819Y-146916428D01*
X187148819Y-146916428D02*
X187148819Y-147011666D01*
X187148819Y-147011666D02*
X187101200Y-147106904D01*
X187101200Y-147106904D02*
X187053580Y-147154523D01*
X187053580Y-147154523D02*
X186958342Y-147202142D01*
X186958342Y-147202142D02*
X186767866Y-147249761D01*
X186767866Y-147249761D02*
X186529771Y-147249761D01*
X186529771Y-147249761D02*
X186339295Y-147202142D01*
X186339295Y-147202142D02*
X186244057Y-147154523D01*
X186244057Y-147154523D02*
X186196438Y-147106904D01*
X186196438Y-147106904D02*
X186148819Y-147011666D01*
X186244057Y-146297380D02*
X186196438Y-146249761D01*
X186196438Y-146249761D02*
X186148819Y-146154523D01*
X186148819Y-146154523D02*
X186148819Y-145916428D01*
X186148819Y-145916428D02*
X186196438Y-145821190D01*
X186196438Y-145821190D02*
X186244057Y-145773571D01*
X186244057Y-145773571D02*
X186339295Y-145725952D01*
X186339295Y-145725952D02*
X186434533Y-145725952D01*
X186434533Y-145725952D02*
X186577390Y-145773571D01*
X186577390Y-145773571D02*
X187148819Y-146344999D01*
X187148819Y-146344999D02*
X187148819Y-145725952D01*
X162760819Y-146026047D02*
X162284628Y-146359380D01*
X162760819Y-146597475D02*
X161760819Y-146597475D01*
X161760819Y-146597475D02*
X161760819Y-146216523D01*
X161760819Y-146216523D02*
X161808438Y-146121285D01*
X161808438Y-146121285D02*
X161856057Y-146073666D01*
X161856057Y-146073666D02*
X161951295Y-146026047D01*
X161951295Y-146026047D02*
X162094152Y-146026047D01*
X162094152Y-146026047D02*
X162189390Y-146073666D01*
X162189390Y-146073666D02*
X162237009Y-146121285D01*
X162237009Y-146121285D02*
X162284628Y-146216523D01*
X162284628Y-146216523D02*
X162284628Y-146597475D01*
X162094152Y-145168904D02*
X162760819Y-145168904D01*
X161713200Y-145406999D02*
X162427485Y-145645094D01*
X162427485Y-145645094D02*
X162427485Y-145026047D01*
X162760819Y-144121285D02*
X162760819Y-144692713D01*
X162760819Y-144406999D02*
X161760819Y-144406999D01*
X161760819Y-144406999D02*
X161903676Y-144502237D01*
X161903676Y-144502237D02*
X161998914Y-144597475D01*
X161998914Y-144597475D02*
X162046533Y-144692713D01*
X162760819Y-143168904D02*
X162760819Y-143740332D01*
X162760819Y-143454618D02*
X161760819Y-143454618D01*
X161760819Y-143454618D02*
X161903676Y-143549856D01*
X161903676Y-143549856D02*
X161998914Y-143645094D01*
X161998914Y-143645094D02*
X162046533Y-143740332D01*
X169759952Y-106720819D02*
X169426619Y-106244628D01*
X169188524Y-106720819D02*
X169188524Y-105720819D01*
X169188524Y-105720819D02*
X169569476Y-105720819D01*
X169569476Y-105720819D02*
X169664714Y-105768438D01*
X169664714Y-105768438D02*
X169712333Y-105816057D01*
X169712333Y-105816057D02*
X169759952Y-105911295D01*
X169759952Y-105911295D02*
X169759952Y-106054152D01*
X169759952Y-106054152D02*
X169712333Y-106149390D01*
X169712333Y-106149390D02*
X169664714Y-106197009D01*
X169664714Y-106197009D02*
X169569476Y-106244628D01*
X169569476Y-106244628D02*
X169188524Y-106244628D01*
X170140905Y-105816057D02*
X170188524Y-105768438D01*
X170188524Y-105768438D02*
X170283762Y-105720819D01*
X170283762Y-105720819D02*
X170521857Y-105720819D01*
X170521857Y-105720819D02*
X170617095Y-105768438D01*
X170617095Y-105768438D02*
X170664714Y-105816057D01*
X170664714Y-105816057D02*
X170712333Y-105911295D01*
X170712333Y-105911295D02*
X170712333Y-106006533D01*
X170712333Y-106006533D02*
X170664714Y-106149390D01*
X170664714Y-106149390D02*
X170093286Y-106720819D01*
X170093286Y-106720819D02*
X170712333Y-106720819D01*
X171331381Y-105720819D02*
X171426619Y-105720819D01*
X171426619Y-105720819D02*
X171521857Y-105768438D01*
X171521857Y-105768438D02*
X171569476Y-105816057D01*
X171569476Y-105816057D02*
X171617095Y-105911295D01*
X171617095Y-105911295D02*
X171664714Y-106101771D01*
X171664714Y-106101771D02*
X171664714Y-106339866D01*
X171664714Y-106339866D02*
X171617095Y-106530342D01*
X171617095Y-106530342D02*
X171569476Y-106625580D01*
X171569476Y-106625580D02*
X171521857Y-106673200D01*
X171521857Y-106673200D02*
X171426619Y-106720819D01*
X171426619Y-106720819D02*
X171331381Y-106720819D01*
X171331381Y-106720819D02*
X171236143Y-106673200D01*
X171236143Y-106673200D02*
X171188524Y-106625580D01*
X171188524Y-106625580D02*
X171140905Y-106530342D01*
X171140905Y-106530342D02*
X171093286Y-106339866D01*
X171093286Y-106339866D02*
X171093286Y-106101771D01*
X171093286Y-106101771D02*
X171140905Y-105911295D01*
X171140905Y-105911295D02*
X171188524Y-105816057D01*
X171188524Y-105816057D02*
X171236143Y-105768438D01*
X171236143Y-105768438D02*
X171331381Y-105720819D01*
X172521857Y-106054152D02*
X172521857Y-106720819D01*
X172283762Y-105673200D02*
X172045667Y-106387485D01*
X172045667Y-106387485D02*
X172664714Y-106387485D01*
X138109319Y-69106285D02*
X138918842Y-69106285D01*
X138918842Y-69106285D02*
X139014080Y-69058666D01*
X139014080Y-69058666D02*
X139061700Y-69011047D01*
X139061700Y-69011047D02*
X139109319Y-68915809D01*
X139109319Y-68915809D02*
X139109319Y-68725333D01*
X139109319Y-68725333D02*
X139061700Y-68630095D01*
X139061700Y-68630095D02*
X139014080Y-68582476D01*
X139014080Y-68582476D02*
X138918842Y-68534857D01*
X138918842Y-68534857D02*
X138109319Y-68534857D01*
X138109319Y-68153904D02*
X138109319Y-67534857D01*
X138109319Y-67534857D02*
X138490271Y-67868190D01*
X138490271Y-67868190D02*
X138490271Y-67725333D01*
X138490271Y-67725333D02*
X138537890Y-67630095D01*
X138537890Y-67630095D02*
X138585509Y-67582476D01*
X138585509Y-67582476D02*
X138680747Y-67534857D01*
X138680747Y-67534857D02*
X138918842Y-67534857D01*
X138918842Y-67534857D02*
X139014080Y-67582476D01*
X139014080Y-67582476D02*
X139061700Y-67630095D01*
X139061700Y-67630095D02*
X139109319Y-67725333D01*
X139109319Y-67725333D02*
X139109319Y-68011047D01*
X139109319Y-68011047D02*
X139061700Y-68106285D01*
X139061700Y-68106285D02*
X139014080Y-68153904D01*
X138109319Y-66915809D02*
X138109319Y-66820571D01*
X138109319Y-66820571D02*
X138156938Y-66725333D01*
X138156938Y-66725333D02*
X138204557Y-66677714D01*
X138204557Y-66677714D02*
X138299795Y-66630095D01*
X138299795Y-66630095D02*
X138490271Y-66582476D01*
X138490271Y-66582476D02*
X138728366Y-66582476D01*
X138728366Y-66582476D02*
X138918842Y-66630095D01*
X138918842Y-66630095D02*
X139014080Y-66677714D01*
X139014080Y-66677714D02*
X139061700Y-66725333D01*
X139061700Y-66725333D02*
X139109319Y-66820571D01*
X139109319Y-66820571D02*
X139109319Y-66915809D01*
X139109319Y-66915809D02*
X139061700Y-67011047D01*
X139061700Y-67011047D02*
X139014080Y-67058666D01*
X139014080Y-67058666D02*
X138918842Y-67106285D01*
X138918842Y-67106285D02*
X138728366Y-67153904D01*
X138728366Y-67153904D02*
X138490271Y-67153904D01*
X138490271Y-67153904D02*
X138299795Y-67106285D01*
X138299795Y-67106285D02*
X138204557Y-67058666D01*
X138204557Y-67058666D02*
X138156938Y-67011047D01*
X138156938Y-67011047D02*
X138109319Y-66915809D01*
X139109319Y-65630095D02*
X139109319Y-66201523D01*
X139109319Y-65915809D02*
X138109319Y-65915809D01*
X138109319Y-65915809D02*
X138252176Y-66011047D01*
X138252176Y-66011047D02*
X138347414Y-66106285D01*
X138347414Y-66106285D02*
X138395033Y-66201523D01*
X150186819Y-80251047D02*
X149710628Y-80584380D01*
X150186819Y-80822475D02*
X149186819Y-80822475D01*
X149186819Y-80822475D02*
X149186819Y-80441523D01*
X149186819Y-80441523D02*
X149234438Y-80346285D01*
X149234438Y-80346285D02*
X149282057Y-80298666D01*
X149282057Y-80298666D02*
X149377295Y-80251047D01*
X149377295Y-80251047D02*
X149520152Y-80251047D01*
X149520152Y-80251047D02*
X149615390Y-80298666D01*
X149615390Y-80298666D02*
X149663009Y-80346285D01*
X149663009Y-80346285D02*
X149710628Y-80441523D01*
X149710628Y-80441523D02*
X149710628Y-80822475D01*
X149186819Y-79917713D02*
X149186819Y-79298666D01*
X149186819Y-79298666D02*
X149567771Y-79631999D01*
X149567771Y-79631999D02*
X149567771Y-79489142D01*
X149567771Y-79489142D02*
X149615390Y-79393904D01*
X149615390Y-79393904D02*
X149663009Y-79346285D01*
X149663009Y-79346285D02*
X149758247Y-79298666D01*
X149758247Y-79298666D02*
X149996342Y-79298666D01*
X149996342Y-79298666D02*
X150091580Y-79346285D01*
X150091580Y-79346285D02*
X150139200Y-79393904D01*
X150139200Y-79393904D02*
X150186819Y-79489142D01*
X150186819Y-79489142D02*
X150186819Y-79774856D01*
X150186819Y-79774856D02*
X150139200Y-79870094D01*
X150139200Y-79870094D02*
X150091580Y-79917713D01*
X149186819Y-78679618D02*
X149186819Y-78584380D01*
X149186819Y-78584380D02*
X149234438Y-78489142D01*
X149234438Y-78489142D02*
X149282057Y-78441523D01*
X149282057Y-78441523D02*
X149377295Y-78393904D01*
X149377295Y-78393904D02*
X149567771Y-78346285D01*
X149567771Y-78346285D02*
X149805866Y-78346285D01*
X149805866Y-78346285D02*
X149996342Y-78393904D01*
X149996342Y-78393904D02*
X150091580Y-78441523D01*
X150091580Y-78441523D02*
X150139200Y-78489142D01*
X150139200Y-78489142D02*
X150186819Y-78584380D01*
X150186819Y-78584380D02*
X150186819Y-78679618D01*
X150186819Y-78679618D02*
X150139200Y-78774856D01*
X150139200Y-78774856D02*
X150091580Y-78822475D01*
X150091580Y-78822475D02*
X149996342Y-78870094D01*
X149996342Y-78870094D02*
X149805866Y-78917713D01*
X149805866Y-78917713D02*
X149567771Y-78917713D01*
X149567771Y-78917713D02*
X149377295Y-78870094D01*
X149377295Y-78870094D02*
X149282057Y-78822475D01*
X149282057Y-78822475D02*
X149234438Y-78774856D01*
X149234438Y-78774856D02*
X149186819Y-78679618D01*
X150186819Y-77393904D02*
X150186819Y-77965332D01*
X150186819Y-77679618D02*
X149186819Y-77679618D01*
X149186819Y-77679618D02*
X149329676Y-77774856D01*
X149329676Y-77774856D02*
X149424914Y-77870094D01*
X149424914Y-77870094D02*
X149472533Y-77965332D01*
X192301952Y-97101819D02*
X191968619Y-96625628D01*
X191730524Y-97101819D02*
X191730524Y-96101819D01*
X191730524Y-96101819D02*
X192111476Y-96101819D01*
X192111476Y-96101819D02*
X192206714Y-96149438D01*
X192206714Y-96149438D02*
X192254333Y-96197057D01*
X192254333Y-96197057D02*
X192301952Y-96292295D01*
X192301952Y-96292295D02*
X192301952Y-96435152D01*
X192301952Y-96435152D02*
X192254333Y-96530390D01*
X192254333Y-96530390D02*
X192206714Y-96578009D01*
X192206714Y-96578009D02*
X192111476Y-96625628D01*
X192111476Y-96625628D02*
X191730524Y-96625628D01*
X192682905Y-96197057D02*
X192730524Y-96149438D01*
X192730524Y-96149438D02*
X192825762Y-96101819D01*
X192825762Y-96101819D02*
X193063857Y-96101819D01*
X193063857Y-96101819D02*
X193159095Y-96149438D01*
X193159095Y-96149438D02*
X193206714Y-96197057D01*
X193206714Y-96197057D02*
X193254333Y-96292295D01*
X193254333Y-96292295D02*
X193254333Y-96387533D01*
X193254333Y-96387533D02*
X193206714Y-96530390D01*
X193206714Y-96530390D02*
X192635286Y-97101819D01*
X192635286Y-97101819D02*
X193254333Y-97101819D01*
X194206714Y-97101819D02*
X193635286Y-97101819D01*
X193921000Y-97101819D02*
X193921000Y-96101819D01*
X193921000Y-96101819D02*
X193825762Y-96244676D01*
X193825762Y-96244676D02*
X193730524Y-96339914D01*
X193730524Y-96339914D02*
X193635286Y-96387533D01*
X195063857Y-96435152D02*
X195063857Y-97101819D01*
X194825762Y-96054200D02*
X194587667Y-96768485D01*
X194587667Y-96768485D02*
X195206714Y-96768485D01*
X151661952Y-136344819D02*
X151328619Y-135868628D01*
X151090524Y-136344819D02*
X151090524Y-135344819D01*
X151090524Y-135344819D02*
X151471476Y-135344819D01*
X151471476Y-135344819D02*
X151566714Y-135392438D01*
X151566714Y-135392438D02*
X151614333Y-135440057D01*
X151614333Y-135440057D02*
X151661952Y-135535295D01*
X151661952Y-135535295D02*
X151661952Y-135678152D01*
X151661952Y-135678152D02*
X151614333Y-135773390D01*
X151614333Y-135773390D02*
X151566714Y-135821009D01*
X151566714Y-135821009D02*
X151471476Y-135868628D01*
X151471476Y-135868628D02*
X151090524Y-135868628D01*
X152519095Y-135678152D02*
X152519095Y-136344819D01*
X152281000Y-135297200D02*
X152042905Y-136011485D01*
X152042905Y-136011485D02*
X152661952Y-136011485D01*
X153233381Y-135344819D02*
X153328619Y-135344819D01*
X153328619Y-135344819D02*
X153423857Y-135392438D01*
X153423857Y-135392438D02*
X153471476Y-135440057D01*
X153471476Y-135440057D02*
X153519095Y-135535295D01*
X153519095Y-135535295D02*
X153566714Y-135725771D01*
X153566714Y-135725771D02*
X153566714Y-135963866D01*
X153566714Y-135963866D02*
X153519095Y-136154342D01*
X153519095Y-136154342D02*
X153471476Y-136249580D01*
X153471476Y-136249580D02*
X153423857Y-136297200D01*
X153423857Y-136297200D02*
X153328619Y-136344819D01*
X153328619Y-136344819D02*
X153233381Y-136344819D01*
X153233381Y-136344819D02*
X153138143Y-136297200D01*
X153138143Y-136297200D02*
X153090524Y-136249580D01*
X153090524Y-136249580D02*
X153042905Y-136154342D01*
X153042905Y-136154342D02*
X152995286Y-135963866D01*
X152995286Y-135963866D02*
X152995286Y-135725771D01*
X152995286Y-135725771D02*
X153042905Y-135535295D01*
X153042905Y-135535295D02*
X153090524Y-135440057D01*
X153090524Y-135440057D02*
X153138143Y-135392438D01*
X153138143Y-135392438D02*
X153233381Y-135344819D01*
X154423857Y-135344819D02*
X154233381Y-135344819D01*
X154233381Y-135344819D02*
X154138143Y-135392438D01*
X154138143Y-135392438D02*
X154090524Y-135440057D01*
X154090524Y-135440057D02*
X153995286Y-135582914D01*
X153995286Y-135582914D02*
X153947667Y-135773390D01*
X153947667Y-135773390D02*
X153947667Y-136154342D01*
X153947667Y-136154342D02*
X153995286Y-136249580D01*
X153995286Y-136249580D02*
X154042905Y-136297200D01*
X154042905Y-136297200D02*
X154138143Y-136344819D01*
X154138143Y-136344819D02*
X154328619Y-136344819D01*
X154328619Y-136344819D02*
X154423857Y-136297200D01*
X154423857Y-136297200D02*
X154471476Y-136249580D01*
X154471476Y-136249580D02*
X154519095Y-136154342D01*
X154519095Y-136154342D02*
X154519095Y-135916247D01*
X154519095Y-135916247D02*
X154471476Y-135821009D01*
X154471476Y-135821009D02*
X154423857Y-135773390D01*
X154423857Y-135773390D02*
X154328619Y-135725771D01*
X154328619Y-135725771D02*
X154138143Y-135725771D01*
X154138143Y-135725771D02*
X154042905Y-135773390D01*
X154042905Y-135773390D02*
X153995286Y-135821009D01*
X153995286Y-135821009D02*
X153947667Y-135916247D01*
X223085819Y-68556047D02*
X222609628Y-68889380D01*
X223085819Y-69127475D02*
X222085819Y-69127475D01*
X222085819Y-69127475D02*
X222085819Y-68746523D01*
X222085819Y-68746523D02*
X222133438Y-68651285D01*
X222133438Y-68651285D02*
X222181057Y-68603666D01*
X222181057Y-68603666D02*
X222276295Y-68556047D01*
X222276295Y-68556047D02*
X222419152Y-68556047D01*
X222419152Y-68556047D02*
X222514390Y-68603666D01*
X222514390Y-68603666D02*
X222562009Y-68651285D01*
X222562009Y-68651285D02*
X222609628Y-68746523D01*
X222609628Y-68746523D02*
X222609628Y-69127475D01*
X222419152Y-67698904D02*
X223085819Y-67698904D01*
X222038200Y-67936999D02*
X222752485Y-68175094D01*
X222752485Y-68175094D02*
X222752485Y-67556047D01*
X223085819Y-66651285D02*
X223085819Y-67222713D01*
X223085819Y-66936999D02*
X222085819Y-66936999D01*
X222085819Y-66936999D02*
X222228676Y-67032237D01*
X222228676Y-67032237D02*
X222323914Y-67127475D01*
X222323914Y-67127475D02*
X222371533Y-67222713D01*
X222085819Y-66032237D02*
X222085819Y-65936999D01*
X222085819Y-65936999D02*
X222133438Y-65841761D01*
X222133438Y-65841761D02*
X222181057Y-65794142D01*
X222181057Y-65794142D02*
X222276295Y-65746523D01*
X222276295Y-65746523D02*
X222466771Y-65698904D01*
X222466771Y-65698904D02*
X222704866Y-65698904D01*
X222704866Y-65698904D02*
X222895342Y-65746523D01*
X222895342Y-65746523D02*
X222990580Y-65794142D01*
X222990580Y-65794142D02*
X223038200Y-65841761D01*
X223038200Y-65841761D02*
X223085819Y-65936999D01*
X223085819Y-65936999D02*
X223085819Y-66032237D01*
X223085819Y-66032237D02*
X223038200Y-66127475D01*
X223038200Y-66127475D02*
X222990580Y-66175094D01*
X222990580Y-66175094D02*
X222895342Y-66222713D01*
X222895342Y-66222713D02*
X222704866Y-66270332D01*
X222704866Y-66270332D02*
X222466771Y-66270332D01*
X222466771Y-66270332D02*
X222276295Y-66222713D01*
X222276295Y-66222713D02*
X222181057Y-66175094D01*
X222181057Y-66175094D02*
X222133438Y-66127475D01*
X222133438Y-66127475D02*
X222085819Y-66032237D01*
X160809524Y-151454819D02*
X160809524Y-150454819D01*
X160809524Y-150454819D02*
X161047619Y-150454819D01*
X161047619Y-150454819D02*
X161190476Y-150502438D01*
X161190476Y-150502438D02*
X161285714Y-150597676D01*
X161285714Y-150597676D02*
X161333333Y-150692914D01*
X161333333Y-150692914D02*
X161380952Y-150883390D01*
X161380952Y-150883390D02*
X161380952Y-151026247D01*
X161380952Y-151026247D02*
X161333333Y-151216723D01*
X161333333Y-151216723D02*
X161285714Y-151311961D01*
X161285714Y-151311961D02*
X161190476Y-151407200D01*
X161190476Y-151407200D02*
X161047619Y-151454819D01*
X161047619Y-151454819D02*
X160809524Y-151454819D01*
X162238095Y-150788152D02*
X162238095Y-151454819D01*
X162000000Y-150407200D02*
X161761905Y-151121485D01*
X161761905Y-151121485D02*
X162380952Y-151121485D01*
X162952381Y-150454819D02*
X163047619Y-150454819D01*
X163047619Y-150454819D02*
X163142857Y-150502438D01*
X163142857Y-150502438D02*
X163190476Y-150550057D01*
X163190476Y-150550057D02*
X163238095Y-150645295D01*
X163238095Y-150645295D02*
X163285714Y-150835771D01*
X163285714Y-150835771D02*
X163285714Y-151073866D01*
X163285714Y-151073866D02*
X163238095Y-151264342D01*
X163238095Y-151264342D02*
X163190476Y-151359580D01*
X163190476Y-151359580D02*
X163142857Y-151407200D01*
X163142857Y-151407200D02*
X163047619Y-151454819D01*
X163047619Y-151454819D02*
X162952381Y-151454819D01*
X162952381Y-151454819D02*
X162857143Y-151407200D01*
X162857143Y-151407200D02*
X162809524Y-151359580D01*
X162809524Y-151359580D02*
X162761905Y-151264342D01*
X162761905Y-151264342D02*
X162714286Y-151073866D01*
X162714286Y-151073866D02*
X162714286Y-150835771D01*
X162714286Y-150835771D02*
X162761905Y-150645295D01*
X162761905Y-150645295D02*
X162809524Y-150550057D01*
X162809524Y-150550057D02*
X162857143Y-150502438D01*
X162857143Y-150502438D02*
X162952381Y-150454819D01*
X163619048Y-150454819D02*
X164238095Y-150454819D01*
X164238095Y-150454819D02*
X163904762Y-150835771D01*
X163904762Y-150835771D02*
X164047619Y-150835771D01*
X164047619Y-150835771D02*
X164142857Y-150883390D01*
X164142857Y-150883390D02*
X164190476Y-150931009D01*
X164190476Y-150931009D02*
X164238095Y-151026247D01*
X164238095Y-151026247D02*
X164238095Y-151264342D01*
X164238095Y-151264342D02*
X164190476Y-151359580D01*
X164190476Y-151359580D02*
X164142857Y-151407200D01*
X164142857Y-151407200D02*
X164047619Y-151454819D01*
X164047619Y-151454819D02*
X163761905Y-151454819D01*
X163761905Y-151454819D02*
X163666667Y-151407200D01*
X163666667Y-151407200D02*
X163619048Y-151359580D01*
X206448819Y-94210047D02*
X205972628Y-94543380D01*
X206448819Y-94781475D02*
X205448819Y-94781475D01*
X205448819Y-94781475D02*
X205448819Y-94400523D01*
X205448819Y-94400523D02*
X205496438Y-94305285D01*
X205496438Y-94305285D02*
X205544057Y-94257666D01*
X205544057Y-94257666D02*
X205639295Y-94210047D01*
X205639295Y-94210047D02*
X205782152Y-94210047D01*
X205782152Y-94210047D02*
X205877390Y-94257666D01*
X205877390Y-94257666D02*
X205925009Y-94305285D01*
X205925009Y-94305285D02*
X205972628Y-94400523D01*
X205972628Y-94400523D02*
X205972628Y-94781475D01*
X205544057Y-93829094D02*
X205496438Y-93781475D01*
X205496438Y-93781475D02*
X205448819Y-93686237D01*
X205448819Y-93686237D02*
X205448819Y-93448142D01*
X205448819Y-93448142D02*
X205496438Y-93352904D01*
X205496438Y-93352904D02*
X205544057Y-93305285D01*
X205544057Y-93305285D02*
X205639295Y-93257666D01*
X205639295Y-93257666D02*
X205734533Y-93257666D01*
X205734533Y-93257666D02*
X205877390Y-93305285D01*
X205877390Y-93305285D02*
X206448819Y-93876713D01*
X206448819Y-93876713D02*
X206448819Y-93257666D01*
X205448819Y-92638618D02*
X205448819Y-92543380D01*
X205448819Y-92543380D02*
X205496438Y-92448142D01*
X205496438Y-92448142D02*
X205544057Y-92400523D01*
X205544057Y-92400523D02*
X205639295Y-92352904D01*
X205639295Y-92352904D02*
X205829771Y-92305285D01*
X205829771Y-92305285D02*
X206067866Y-92305285D01*
X206067866Y-92305285D02*
X206258342Y-92352904D01*
X206258342Y-92352904D02*
X206353580Y-92400523D01*
X206353580Y-92400523D02*
X206401200Y-92448142D01*
X206401200Y-92448142D02*
X206448819Y-92543380D01*
X206448819Y-92543380D02*
X206448819Y-92638618D01*
X206448819Y-92638618D02*
X206401200Y-92733856D01*
X206401200Y-92733856D02*
X206353580Y-92781475D01*
X206353580Y-92781475D02*
X206258342Y-92829094D01*
X206258342Y-92829094D02*
X206067866Y-92876713D01*
X206067866Y-92876713D02*
X205829771Y-92876713D01*
X205829771Y-92876713D02*
X205639295Y-92829094D01*
X205639295Y-92829094D02*
X205544057Y-92781475D01*
X205544057Y-92781475D02*
X205496438Y-92733856D01*
X205496438Y-92733856D02*
X205448819Y-92638618D01*
X206448819Y-91829094D02*
X206448819Y-91638618D01*
X206448819Y-91638618D02*
X206401200Y-91543380D01*
X206401200Y-91543380D02*
X206353580Y-91495761D01*
X206353580Y-91495761D02*
X206210723Y-91400523D01*
X206210723Y-91400523D02*
X206020247Y-91352904D01*
X206020247Y-91352904D02*
X205639295Y-91352904D01*
X205639295Y-91352904D02*
X205544057Y-91400523D01*
X205544057Y-91400523D02*
X205496438Y-91448142D01*
X205496438Y-91448142D02*
X205448819Y-91543380D01*
X205448819Y-91543380D02*
X205448819Y-91733856D01*
X205448819Y-91733856D02*
X205496438Y-91829094D01*
X205496438Y-91829094D02*
X205544057Y-91876713D01*
X205544057Y-91876713D02*
X205639295Y-91924332D01*
X205639295Y-91924332D02*
X205877390Y-91924332D01*
X205877390Y-91924332D02*
X205972628Y-91876713D01*
X205972628Y-91876713D02*
X206020247Y-91829094D01*
X206020247Y-91829094D02*
X206067866Y-91733856D01*
X206067866Y-91733856D02*
X206067866Y-91543380D01*
X206067866Y-91543380D02*
X206020247Y-91448142D01*
X206020247Y-91448142D02*
X205972628Y-91400523D01*
X205972628Y-91400523D02*
X205877390Y-91352904D01*
X174785714Y-103054819D02*
X174785714Y-103864342D01*
X174785714Y-103864342D02*
X174833333Y-103959580D01*
X174833333Y-103959580D02*
X174880952Y-104007200D01*
X174880952Y-104007200D02*
X174976190Y-104054819D01*
X174976190Y-104054819D02*
X175166666Y-104054819D01*
X175166666Y-104054819D02*
X175261904Y-104007200D01*
X175261904Y-104007200D02*
X175309523Y-103959580D01*
X175309523Y-103959580D02*
X175357142Y-103864342D01*
X175357142Y-103864342D02*
X175357142Y-103054819D01*
X175785714Y-103150057D02*
X175833333Y-103102438D01*
X175833333Y-103102438D02*
X175928571Y-103054819D01*
X175928571Y-103054819D02*
X176166666Y-103054819D01*
X176166666Y-103054819D02*
X176261904Y-103102438D01*
X176261904Y-103102438D02*
X176309523Y-103150057D01*
X176309523Y-103150057D02*
X176357142Y-103245295D01*
X176357142Y-103245295D02*
X176357142Y-103340533D01*
X176357142Y-103340533D02*
X176309523Y-103483390D01*
X176309523Y-103483390D02*
X175738095Y-104054819D01*
X175738095Y-104054819D02*
X176357142Y-104054819D01*
X176976190Y-103054819D02*
X177071428Y-103054819D01*
X177071428Y-103054819D02*
X177166666Y-103102438D01*
X177166666Y-103102438D02*
X177214285Y-103150057D01*
X177214285Y-103150057D02*
X177261904Y-103245295D01*
X177261904Y-103245295D02*
X177309523Y-103435771D01*
X177309523Y-103435771D02*
X177309523Y-103673866D01*
X177309523Y-103673866D02*
X177261904Y-103864342D01*
X177261904Y-103864342D02*
X177214285Y-103959580D01*
X177214285Y-103959580D02*
X177166666Y-104007200D01*
X177166666Y-104007200D02*
X177071428Y-104054819D01*
X177071428Y-104054819D02*
X176976190Y-104054819D01*
X176976190Y-104054819D02*
X176880952Y-104007200D01*
X176880952Y-104007200D02*
X176833333Y-103959580D01*
X176833333Y-103959580D02*
X176785714Y-103864342D01*
X176785714Y-103864342D02*
X176738095Y-103673866D01*
X176738095Y-103673866D02*
X176738095Y-103435771D01*
X176738095Y-103435771D02*
X176785714Y-103245295D01*
X176785714Y-103245295D02*
X176833333Y-103150057D01*
X176833333Y-103150057D02*
X176880952Y-103102438D01*
X176880952Y-103102438D02*
X176976190Y-103054819D01*
X178261904Y-104054819D02*
X177690476Y-104054819D01*
X177976190Y-104054819D02*
X177976190Y-103054819D01*
X177976190Y-103054819D02*
X177880952Y-103197676D01*
X177880952Y-103197676D02*
X177785714Y-103292914D01*
X177785714Y-103292914D02*
X177690476Y-103340533D01*
X157285714Y-102354819D02*
X157285714Y-103164342D01*
X157285714Y-103164342D02*
X157333333Y-103259580D01*
X157333333Y-103259580D02*
X157380952Y-103307200D01*
X157380952Y-103307200D02*
X157476190Y-103354819D01*
X157476190Y-103354819D02*
X157666666Y-103354819D01*
X157666666Y-103354819D02*
X157761904Y-103307200D01*
X157761904Y-103307200D02*
X157809523Y-103259580D01*
X157809523Y-103259580D02*
X157857142Y-103164342D01*
X157857142Y-103164342D02*
X157857142Y-102354819D01*
X158285714Y-102450057D02*
X158333333Y-102402438D01*
X158333333Y-102402438D02*
X158428571Y-102354819D01*
X158428571Y-102354819D02*
X158666666Y-102354819D01*
X158666666Y-102354819D02*
X158761904Y-102402438D01*
X158761904Y-102402438D02*
X158809523Y-102450057D01*
X158809523Y-102450057D02*
X158857142Y-102545295D01*
X158857142Y-102545295D02*
X158857142Y-102640533D01*
X158857142Y-102640533D02*
X158809523Y-102783390D01*
X158809523Y-102783390D02*
X158238095Y-103354819D01*
X158238095Y-103354819D02*
X158857142Y-103354819D01*
X159476190Y-102354819D02*
X159571428Y-102354819D01*
X159571428Y-102354819D02*
X159666666Y-102402438D01*
X159666666Y-102402438D02*
X159714285Y-102450057D01*
X159714285Y-102450057D02*
X159761904Y-102545295D01*
X159761904Y-102545295D02*
X159809523Y-102735771D01*
X159809523Y-102735771D02*
X159809523Y-102973866D01*
X159809523Y-102973866D02*
X159761904Y-103164342D01*
X159761904Y-103164342D02*
X159714285Y-103259580D01*
X159714285Y-103259580D02*
X159666666Y-103307200D01*
X159666666Y-103307200D02*
X159571428Y-103354819D01*
X159571428Y-103354819D02*
X159476190Y-103354819D01*
X159476190Y-103354819D02*
X159380952Y-103307200D01*
X159380952Y-103307200D02*
X159333333Y-103259580D01*
X159333333Y-103259580D02*
X159285714Y-103164342D01*
X159285714Y-103164342D02*
X159238095Y-102973866D01*
X159238095Y-102973866D02*
X159238095Y-102735771D01*
X159238095Y-102735771D02*
X159285714Y-102545295D01*
X159285714Y-102545295D02*
X159333333Y-102450057D01*
X159333333Y-102450057D02*
X159380952Y-102402438D01*
X159380952Y-102402438D02*
X159476190Y-102354819D01*
X160142857Y-102354819D02*
X160809523Y-102354819D01*
X160809523Y-102354819D02*
X160380952Y-103354819D01*
X192365952Y-102976819D02*
X192032619Y-102500628D01*
X191794524Y-102976819D02*
X191794524Y-101976819D01*
X191794524Y-101976819D02*
X192175476Y-101976819D01*
X192175476Y-101976819D02*
X192270714Y-102024438D01*
X192270714Y-102024438D02*
X192318333Y-102072057D01*
X192318333Y-102072057D02*
X192365952Y-102167295D01*
X192365952Y-102167295D02*
X192365952Y-102310152D01*
X192365952Y-102310152D02*
X192318333Y-102405390D01*
X192318333Y-102405390D02*
X192270714Y-102453009D01*
X192270714Y-102453009D02*
X192175476Y-102500628D01*
X192175476Y-102500628D02*
X191794524Y-102500628D01*
X192746905Y-102072057D02*
X192794524Y-102024438D01*
X192794524Y-102024438D02*
X192889762Y-101976819D01*
X192889762Y-101976819D02*
X193127857Y-101976819D01*
X193127857Y-101976819D02*
X193223095Y-102024438D01*
X193223095Y-102024438D02*
X193270714Y-102072057D01*
X193270714Y-102072057D02*
X193318333Y-102167295D01*
X193318333Y-102167295D02*
X193318333Y-102262533D01*
X193318333Y-102262533D02*
X193270714Y-102405390D01*
X193270714Y-102405390D02*
X192699286Y-102976819D01*
X192699286Y-102976819D02*
X193318333Y-102976819D01*
X194270714Y-102976819D02*
X193699286Y-102976819D01*
X193985000Y-102976819D02*
X193985000Y-101976819D01*
X193985000Y-101976819D02*
X193889762Y-102119676D01*
X193889762Y-102119676D02*
X193794524Y-102214914D01*
X193794524Y-102214914D02*
X193699286Y-102262533D01*
X194842143Y-102405390D02*
X194746905Y-102357771D01*
X194746905Y-102357771D02*
X194699286Y-102310152D01*
X194699286Y-102310152D02*
X194651667Y-102214914D01*
X194651667Y-102214914D02*
X194651667Y-102167295D01*
X194651667Y-102167295D02*
X194699286Y-102072057D01*
X194699286Y-102072057D02*
X194746905Y-102024438D01*
X194746905Y-102024438D02*
X194842143Y-101976819D01*
X194842143Y-101976819D02*
X195032619Y-101976819D01*
X195032619Y-101976819D02*
X195127857Y-102024438D01*
X195127857Y-102024438D02*
X195175476Y-102072057D01*
X195175476Y-102072057D02*
X195223095Y-102167295D01*
X195223095Y-102167295D02*
X195223095Y-102214914D01*
X195223095Y-102214914D02*
X195175476Y-102310152D01*
X195175476Y-102310152D02*
X195127857Y-102357771D01*
X195127857Y-102357771D02*
X195032619Y-102405390D01*
X195032619Y-102405390D02*
X194842143Y-102405390D01*
X194842143Y-102405390D02*
X194746905Y-102453009D01*
X194746905Y-102453009D02*
X194699286Y-102500628D01*
X194699286Y-102500628D02*
X194651667Y-102595866D01*
X194651667Y-102595866D02*
X194651667Y-102786342D01*
X194651667Y-102786342D02*
X194699286Y-102881580D01*
X194699286Y-102881580D02*
X194746905Y-102929200D01*
X194746905Y-102929200D02*
X194842143Y-102976819D01*
X194842143Y-102976819D02*
X195032619Y-102976819D01*
X195032619Y-102976819D02*
X195127857Y-102929200D01*
X195127857Y-102929200D02*
X195175476Y-102881580D01*
X195175476Y-102881580D02*
X195223095Y-102786342D01*
X195223095Y-102786342D02*
X195223095Y-102595866D01*
X195223095Y-102595866D02*
X195175476Y-102500628D01*
X195175476Y-102500628D02*
X195127857Y-102453009D01*
X195127857Y-102453009D02*
X195032619Y-102405390D01*
X151661952Y-137868819D02*
X151328619Y-137392628D01*
X151090524Y-137868819D02*
X151090524Y-136868819D01*
X151090524Y-136868819D02*
X151471476Y-136868819D01*
X151471476Y-136868819D02*
X151566714Y-136916438D01*
X151566714Y-136916438D02*
X151614333Y-136964057D01*
X151614333Y-136964057D02*
X151661952Y-137059295D01*
X151661952Y-137059295D02*
X151661952Y-137202152D01*
X151661952Y-137202152D02*
X151614333Y-137297390D01*
X151614333Y-137297390D02*
X151566714Y-137345009D01*
X151566714Y-137345009D02*
X151471476Y-137392628D01*
X151471476Y-137392628D02*
X151090524Y-137392628D01*
X152519095Y-137202152D02*
X152519095Y-137868819D01*
X152281000Y-136821200D02*
X152042905Y-137535485D01*
X152042905Y-137535485D02*
X152661952Y-137535485D01*
X153233381Y-136868819D02*
X153328619Y-136868819D01*
X153328619Y-136868819D02*
X153423857Y-136916438D01*
X153423857Y-136916438D02*
X153471476Y-136964057D01*
X153471476Y-136964057D02*
X153519095Y-137059295D01*
X153519095Y-137059295D02*
X153566714Y-137249771D01*
X153566714Y-137249771D02*
X153566714Y-137487866D01*
X153566714Y-137487866D02*
X153519095Y-137678342D01*
X153519095Y-137678342D02*
X153471476Y-137773580D01*
X153471476Y-137773580D02*
X153423857Y-137821200D01*
X153423857Y-137821200D02*
X153328619Y-137868819D01*
X153328619Y-137868819D02*
X153233381Y-137868819D01*
X153233381Y-137868819D02*
X153138143Y-137821200D01*
X153138143Y-137821200D02*
X153090524Y-137773580D01*
X153090524Y-137773580D02*
X153042905Y-137678342D01*
X153042905Y-137678342D02*
X152995286Y-137487866D01*
X152995286Y-137487866D02*
X152995286Y-137249771D01*
X152995286Y-137249771D02*
X153042905Y-137059295D01*
X153042905Y-137059295D02*
X153090524Y-136964057D01*
X153090524Y-136964057D02*
X153138143Y-136916438D01*
X153138143Y-136916438D02*
X153233381Y-136868819D01*
X154423857Y-137202152D02*
X154423857Y-137868819D01*
X154185762Y-136821200D02*
X153947667Y-137535485D01*
X153947667Y-137535485D02*
X154566714Y-137535485D01*
X188872952Y-100022819D02*
X188539619Y-99546628D01*
X188301524Y-100022819D02*
X188301524Y-99022819D01*
X188301524Y-99022819D02*
X188682476Y-99022819D01*
X188682476Y-99022819D02*
X188777714Y-99070438D01*
X188777714Y-99070438D02*
X188825333Y-99118057D01*
X188825333Y-99118057D02*
X188872952Y-99213295D01*
X188872952Y-99213295D02*
X188872952Y-99356152D01*
X188872952Y-99356152D02*
X188825333Y-99451390D01*
X188825333Y-99451390D02*
X188777714Y-99499009D01*
X188777714Y-99499009D02*
X188682476Y-99546628D01*
X188682476Y-99546628D02*
X188301524Y-99546628D01*
X189253905Y-99118057D02*
X189301524Y-99070438D01*
X189301524Y-99070438D02*
X189396762Y-99022819D01*
X189396762Y-99022819D02*
X189634857Y-99022819D01*
X189634857Y-99022819D02*
X189730095Y-99070438D01*
X189730095Y-99070438D02*
X189777714Y-99118057D01*
X189777714Y-99118057D02*
X189825333Y-99213295D01*
X189825333Y-99213295D02*
X189825333Y-99308533D01*
X189825333Y-99308533D02*
X189777714Y-99451390D01*
X189777714Y-99451390D02*
X189206286Y-100022819D01*
X189206286Y-100022819D02*
X189825333Y-100022819D01*
X190777714Y-100022819D02*
X190206286Y-100022819D01*
X190492000Y-100022819D02*
X190492000Y-99022819D01*
X190492000Y-99022819D02*
X190396762Y-99165676D01*
X190396762Y-99165676D02*
X190301524Y-99260914D01*
X190301524Y-99260914D02*
X190206286Y-99308533D01*
X191634857Y-99022819D02*
X191444381Y-99022819D01*
X191444381Y-99022819D02*
X191349143Y-99070438D01*
X191349143Y-99070438D02*
X191301524Y-99118057D01*
X191301524Y-99118057D02*
X191206286Y-99260914D01*
X191206286Y-99260914D02*
X191158667Y-99451390D01*
X191158667Y-99451390D02*
X191158667Y-99832342D01*
X191158667Y-99832342D02*
X191206286Y-99927580D01*
X191206286Y-99927580D02*
X191253905Y-99975200D01*
X191253905Y-99975200D02*
X191349143Y-100022819D01*
X191349143Y-100022819D02*
X191539619Y-100022819D01*
X191539619Y-100022819D02*
X191634857Y-99975200D01*
X191634857Y-99975200D02*
X191682476Y-99927580D01*
X191682476Y-99927580D02*
X191730095Y-99832342D01*
X191730095Y-99832342D02*
X191730095Y-99594247D01*
X191730095Y-99594247D02*
X191682476Y-99499009D01*
X191682476Y-99499009D02*
X191634857Y-99451390D01*
X191634857Y-99451390D02*
X191539619Y-99403771D01*
X191539619Y-99403771D02*
X191349143Y-99403771D01*
X191349143Y-99403771D02*
X191253905Y-99451390D01*
X191253905Y-99451390D02*
X191206286Y-99499009D01*
X191206286Y-99499009D02*
X191158667Y-99594247D01*
X169745819Y-146153047D02*
X169269628Y-146486380D01*
X169745819Y-146724475D02*
X168745819Y-146724475D01*
X168745819Y-146724475D02*
X168745819Y-146343523D01*
X168745819Y-146343523D02*
X168793438Y-146248285D01*
X168793438Y-146248285D02*
X168841057Y-146200666D01*
X168841057Y-146200666D02*
X168936295Y-146153047D01*
X168936295Y-146153047D02*
X169079152Y-146153047D01*
X169079152Y-146153047D02*
X169174390Y-146200666D01*
X169174390Y-146200666D02*
X169222009Y-146248285D01*
X169222009Y-146248285D02*
X169269628Y-146343523D01*
X169269628Y-146343523D02*
X169269628Y-146724475D01*
X169079152Y-145295904D02*
X169745819Y-145295904D01*
X168698200Y-145533999D02*
X169412485Y-145772094D01*
X169412485Y-145772094D02*
X169412485Y-145153047D01*
X169745819Y-144248285D02*
X169745819Y-144819713D01*
X169745819Y-144533999D02*
X168745819Y-144533999D01*
X168745819Y-144533999D02*
X168888676Y-144629237D01*
X168888676Y-144629237D02*
X168983914Y-144724475D01*
X168983914Y-144724475D02*
X169031533Y-144819713D01*
X168745819Y-143914951D02*
X168745819Y-143295904D01*
X168745819Y-143295904D02*
X169126771Y-143629237D01*
X169126771Y-143629237D02*
X169126771Y-143486380D01*
X169126771Y-143486380D02*
X169174390Y-143391142D01*
X169174390Y-143391142D02*
X169222009Y-143343523D01*
X169222009Y-143343523D02*
X169317247Y-143295904D01*
X169317247Y-143295904D02*
X169555342Y-143295904D01*
X169555342Y-143295904D02*
X169650580Y-143343523D01*
X169650580Y-143343523D02*
X169698200Y-143391142D01*
X169698200Y-143391142D02*
X169745819Y-143486380D01*
X169745819Y-143486380D02*
X169745819Y-143772094D01*
X169745819Y-143772094D02*
X169698200Y-143867332D01*
X169698200Y-143867332D02*
X169650580Y-143914951D01*
X207972819Y-94210047D02*
X207496628Y-94543380D01*
X207972819Y-94781475D02*
X206972819Y-94781475D01*
X206972819Y-94781475D02*
X206972819Y-94400523D01*
X206972819Y-94400523D02*
X207020438Y-94305285D01*
X207020438Y-94305285D02*
X207068057Y-94257666D01*
X207068057Y-94257666D02*
X207163295Y-94210047D01*
X207163295Y-94210047D02*
X207306152Y-94210047D01*
X207306152Y-94210047D02*
X207401390Y-94257666D01*
X207401390Y-94257666D02*
X207449009Y-94305285D01*
X207449009Y-94305285D02*
X207496628Y-94400523D01*
X207496628Y-94400523D02*
X207496628Y-94781475D01*
X207068057Y-93829094D02*
X207020438Y-93781475D01*
X207020438Y-93781475D02*
X206972819Y-93686237D01*
X206972819Y-93686237D02*
X206972819Y-93448142D01*
X206972819Y-93448142D02*
X207020438Y-93352904D01*
X207020438Y-93352904D02*
X207068057Y-93305285D01*
X207068057Y-93305285D02*
X207163295Y-93257666D01*
X207163295Y-93257666D02*
X207258533Y-93257666D01*
X207258533Y-93257666D02*
X207401390Y-93305285D01*
X207401390Y-93305285D02*
X207972819Y-93876713D01*
X207972819Y-93876713D02*
X207972819Y-93257666D01*
X207972819Y-92305285D02*
X207972819Y-92876713D01*
X207972819Y-92590999D02*
X206972819Y-92590999D01*
X206972819Y-92590999D02*
X207115676Y-92686237D01*
X207115676Y-92686237D02*
X207210914Y-92781475D01*
X207210914Y-92781475D02*
X207258533Y-92876713D01*
X207972819Y-91352904D02*
X207972819Y-91924332D01*
X207972819Y-91638618D02*
X206972819Y-91638618D01*
X206972819Y-91638618D02*
X207115676Y-91733856D01*
X207115676Y-91733856D02*
X207210914Y-91829094D01*
X207210914Y-91829094D02*
X207258533Y-91924332D01*
X164792819Y-146153047D02*
X164316628Y-146486380D01*
X164792819Y-146724475D02*
X163792819Y-146724475D01*
X163792819Y-146724475D02*
X163792819Y-146343523D01*
X163792819Y-146343523D02*
X163840438Y-146248285D01*
X163840438Y-146248285D02*
X163888057Y-146200666D01*
X163888057Y-146200666D02*
X163983295Y-146153047D01*
X163983295Y-146153047D02*
X164126152Y-146153047D01*
X164126152Y-146153047D02*
X164221390Y-146200666D01*
X164221390Y-146200666D02*
X164269009Y-146248285D01*
X164269009Y-146248285D02*
X164316628Y-146343523D01*
X164316628Y-146343523D02*
X164316628Y-146724475D01*
X164126152Y-145295904D02*
X164792819Y-145295904D01*
X163745200Y-145533999D02*
X164459485Y-145772094D01*
X164459485Y-145772094D02*
X164459485Y-145153047D01*
X164792819Y-144248285D02*
X164792819Y-144819713D01*
X164792819Y-144533999D02*
X163792819Y-144533999D01*
X163792819Y-144533999D02*
X163935676Y-144629237D01*
X163935676Y-144629237D02*
X164030914Y-144724475D01*
X164030914Y-144724475D02*
X164078533Y-144819713D01*
X163888057Y-143867332D02*
X163840438Y-143819713D01*
X163840438Y-143819713D02*
X163792819Y-143724475D01*
X163792819Y-143724475D02*
X163792819Y-143486380D01*
X163792819Y-143486380D02*
X163840438Y-143391142D01*
X163840438Y-143391142D02*
X163888057Y-143343523D01*
X163888057Y-143343523D02*
X163983295Y-143295904D01*
X163983295Y-143295904D02*
X164078533Y-143295904D01*
X164078533Y-143295904D02*
X164221390Y-143343523D01*
X164221390Y-143343523D02*
X164792819Y-143914951D01*
X164792819Y-143914951D02*
X164792819Y-143295904D01*
X133963580Y-124563047D02*
X134011200Y-124610666D01*
X134011200Y-124610666D02*
X134058819Y-124753523D01*
X134058819Y-124753523D02*
X134058819Y-124848761D01*
X134058819Y-124848761D02*
X134011200Y-124991618D01*
X134011200Y-124991618D02*
X133915961Y-125086856D01*
X133915961Y-125086856D02*
X133820723Y-125134475D01*
X133820723Y-125134475D02*
X133630247Y-125182094D01*
X133630247Y-125182094D02*
X133487390Y-125182094D01*
X133487390Y-125182094D02*
X133296914Y-125134475D01*
X133296914Y-125134475D02*
X133201676Y-125086856D01*
X133201676Y-125086856D02*
X133106438Y-124991618D01*
X133106438Y-124991618D02*
X133058819Y-124848761D01*
X133058819Y-124848761D02*
X133058819Y-124753523D01*
X133058819Y-124753523D02*
X133106438Y-124610666D01*
X133106438Y-124610666D02*
X133154057Y-124563047D01*
X133392152Y-123705904D02*
X134058819Y-123705904D01*
X133011200Y-123943999D02*
X133725485Y-124182094D01*
X133725485Y-124182094D02*
X133725485Y-123563047D01*
X133058819Y-122991618D02*
X133058819Y-122896380D01*
X133058819Y-122896380D02*
X133106438Y-122801142D01*
X133106438Y-122801142D02*
X133154057Y-122753523D01*
X133154057Y-122753523D02*
X133249295Y-122705904D01*
X133249295Y-122705904D02*
X133439771Y-122658285D01*
X133439771Y-122658285D02*
X133677866Y-122658285D01*
X133677866Y-122658285D02*
X133868342Y-122705904D01*
X133868342Y-122705904D02*
X133963580Y-122753523D01*
X133963580Y-122753523D02*
X134011200Y-122801142D01*
X134011200Y-122801142D02*
X134058819Y-122896380D01*
X134058819Y-122896380D02*
X134058819Y-122991618D01*
X134058819Y-122991618D02*
X134011200Y-123086856D01*
X134011200Y-123086856D02*
X133963580Y-123134475D01*
X133963580Y-123134475D02*
X133868342Y-123182094D01*
X133868342Y-123182094D02*
X133677866Y-123229713D01*
X133677866Y-123229713D02*
X133439771Y-123229713D01*
X133439771Y-123229713D02*
X133249295Y-123182094D01*
X133249295Y-123182094D02*
X133154057Y-123134475D01*
X133154057Y-123134475D02*
X133106438Y-123086856D01*
X133106438Y-123086856D02*
X133058819Y-122991618D01*
X133058819Y-121753523D02*
X133058819Y-122229713D01*
X133058819Y-122229713D02*
X133535009Y-122277332D01*
X133535009Y-122277332D02*
X133487390Y-122229713D01*
X133487390Y-122229713D02*
X133439771Y-122134475D01*
X133439771Y-122134475D02*
X133439771Y-121896380D01*
X133439771Y-121896380D02*
X133487390Y-121801142D01*
X133487390Y-121801142D02*
X133535009Y-121753523D01*
X133535009Y-121753523D02*
X133630247Y-121705904D01*
X133630247Y-121705904D02*
X133868342Y-121705904D01*
X133868342Y-121705904D02*
X133963580Y-121753523D01*
X133963580Y-121753523D02*
X134011200Y-121801142D01*
X134011200Y-121801142D02*
X134058819Y-121896380D01*
X134058819Y-121896380D02*
X134058819Y-122134475D01*
X134058819Y-122134475D02*
X134011200Y-122229713D01*
X134011200Y-122229713D02*
X133963580Y-122277332D01*
X187971580Y-97131047D02*
X188019200Y-97178666D01*
X188019200Y-97178666D02*
X188066819Y-97321523D01*
X188066819Y-97321523D02*
X188066819Y-97416761D01*
X188066819Y-97416761D02*
X188019200Y-97559618D01*
X188019200Y-97559618D02*
X187923961Y-97654856D01*
X187923961Y-97654856D02*
X187828723Y-97702475D01*
X187828723Y-97702475D02*
X187638247Y-97750094D01*
X187638247Y-97750094D02*
X187495390Y-97750094D01*
X187495390Y-97750094D02*
X187304914Y-97702475D01*
X187304914Y-97702475D02*
X187209676Y-97654856D01*
X187209676Y-97654856D02*
X187114438Y-97559618D01*
X187114438Y-97559618D02*
X187066819Y-97416761D01*
X187066819Y-97416761D02*
X187066819Y-97321523D01*
X187066819Y-97321523D02*
X187114438Y-97178666D01*
X187114438Y-97178666D02*
X187162057Y-97131047D01*
X187400152Y-96273904D02*
X188066819Y-96273904D01*
X187019200Y-96511999D02*
X187733485Y-96750094D01*
X187733485Y-96750094D02*
X187733485Y-96131047D01*
X187066819Y-95559618D02*
X187066819Y-95464380D01*
X187066819Y-95464380D02*
X187114438Y-95369142D01*
X187114438Y-95369142D02*
X187162057Y-95321523D01*
X187162057Y-95321523D02*
X187257295Y-95273904D01*
X187257295Y-95273904D02*
X187447771Y-95226285D01*
X187447771Y-95226285D02*
X187685866Y-95226285D01*
X187685866Y-95226285D02*
X187876342Y-95273904D01*
X187876342Y-95273904D02*
X187971580Y-95321523D01*
X187971580Y-95321523D02*
X188019200Y-95369142D01*
X188019200Y-95369142D02*
X188066819Y-95464380D01*
X188066819Y-95464380D02*
X188066819Y-95559618D01*
X188066819Y-95559618D02*
X188019200Y-95654856D01*
X188019200Y-95654856D02*
X187971580Y-95702475D01*
X187971580Y-95702475D02*
X187876342Y-95750094D01*
X187876342Y-95750094D02*
X187685866Y-95797713D01*
X187685866Y-95797713D02*
X187447771Y-95797713D01*
X187447771Y-95797713D02*
X187257295Y-95750094D01*
X187257295Y-95750094D02*
X187162057Y-95702475D01*
X187162057Y-95702475D02*
X187114438Y-95654856D01*
X187114438Y-95654856D02*
X187066819Y-95559618D01*
X187400152Y-94369142D02*
X188066819Y-94369142D01*
X187019200Y-94607237D02*
X187733485Y-94845332D01*
X187733485Y-94845332D02*
X187733485Y-94226285D01*
X150622286Y-145695200D02*
X150765143Y-145742819D01*
X150765143Y-145742819D02*
X151003238Y-145742819D01*
X151003238Y-145742819D02*
X151098476Y-145695200D01*
X151098476Y-145695200D02*
X151146095Y-145647580D01*
X151146095Y-145647580D02*
X151193714Y-145552342D01*
X151193714Y-145552342D02*
X151193714Y-145457104D01*
X151193714Y-145457104D02*
X151146095Y-145361866D01*
X151146095Y-145361866D02*
X151098476Y-145314247D01*
X151098476Y-145314247D02*
X151003238Y-145266628D01*
X151003238Y-145266628D02*
X150812762Y-145219009D01*
X150812762Y-145219009D02*
X150717524Y-145171390D01*
X150717524Y-145171390D02*
X150669905Y-145123771D01*
X150669905Y-145123771D02*
X150622286Y-145028533D01*
X150622286Y-145028533D02*
X150622286Y-144933295D01*
X150622286Y-144933295D02*
X150669905Y-144838057D01*
X150669905Y-144838057D02*
X150717524Y-144790438D01*
X150717524Y-144790438D02*
X150812762Y-144742819D01*
X150812762Y-144742819D02*
X151050857Y-144742819D01*
X151050857Y-144742819D02*
X151193714Y-144790438D01*
X151527048Y-144742819D02*
X151765143Y-145742819D01*
X151765143Y-145742819D02*
X151955619Y-145028533D01*
X151955619Y-145028533D02*
X152146095Y-145742819D01*
X152146095Y-145742819D02*
X152384191Y-144742819D01*
X153288952Y-145742819D02*
X152717524Y-145742819D01*
X153003238Y-145742819D02*
X153003238Y-144742819D01*
X153003238Y-144742819D02*
X152908000Y-144885676D01*
X152908000Y-144885676D02*
X152812762Y-144980914D01*
X152812762Y-144980914D02*
X152717524Y-145028533D01*
X153908000Y-144742819D02*
X154003238Y-144742819D01*
X154003238Y-144742819D02*
X154098476Y-144790438D01*
X154098476Y-144790438D02*
X154146095Y-144838057D01*
X154146095Y-144838057D02*
X154193714Y-144933295D01*
X154193714Y-144933295D02*
X154241333Y-145123771D01*
X154241333Y-145123771D02*
X154241333Y-145361866D01*
X154241333Y-145361866D02*
X154193714Y-145552342D01*
X154193714Y-145552342D02*
X154146095Y-145647580D01*
X154146095Y-145647580D02*
X154098476Y-145695200D01*
X154098476Y-145695200D02*
X154003238Y-145742819D01*
X154003238Y-145742819D02*
X153908000Y-145742819D01*
X153908000Y-145742819D02*
X153812762Y-145695200D01*
X153812762Y-145695200D02*
X153765143Y-145647580D01*
X153765143Y-145647580D02*
X153717524Y-145552342D01*
X153717524Y-145552342D02*
X153669905Y-145361866D01*
X153669905Y-145361866D02*
X153669905Y-145123771D01*
X153669905Y-145123771D02*
X153717524Y-144933295D01*
X153717524Y-144933295D02*
X153765143Y-144838057D01*
X153765143Y-144838057D02*
X153812762Y-144790438D01*
X153812762Y-144790438D02*
X153908000Y-144742819D01*
X154622286Y-144838057D02*
X154669905Y-144790438D01*
X154669905Y-144790438D02*
X154765143Y-144742819D01*
X154765143Y-144742819D02*
X155003238Y-144742819D01*
X155003238Y-144742819D02*
X155098476Y-144790438D01*
X155098476Y-144790438D02*
X155146095Y-144838057D01*
X155146095Y-144838057D02*
X155193714Y-144933295D01*
X155193714Y-144933295D02*
X155193714Y-145028533D01*
X155193714Y-145028533D02*
X155146095Y-145171390D01*
X155146095Y-145171390D02*
X154574667Y-145742819D01*
X154574667Y-145742819D02*
X155193714Y-145742819D01*
X157855952Y-83289580D02*
X157808333Y-83337200D01*
X157808333Y-83337200D02*
X157665476Y-83384819D01*
X157665476Y-83384819D02*
X157570238Y-83384819D01*
X157570238Y-83384819D02*
X157427381Y-83337200D01*
X157427381Y-83337200D02*
X157332143Y-83241961D01*
X157332143Y-83241961D02*
X157284524Y-83146723D01*
X157284524Y-83146723D02*
X157236905Y-82956247D01*
X157236905Y-82956247D02*
X157236905Y-82813390D01*
X157236905Y-82813390D02*
X157284524Y-82622914D01*
X157284524Y-82622914D02*
X157332143Y-82527676D01*
X157332143Y-82527676D02*
X157427381Y-82432438D01*
X157427381Y-82432438D02*
X157570238Y-82384819D01*
X157570238Y-82384819D02*
X157665476Y-82384819D01*
X157665476Y-82384819D02*
X157808333Y-82432438D01*
X157808333Y-82432438D02*
X157855952Y-82480057D01*
X158713095Y-82718152D02*
X158713095Y-83384819D01*
X158475000Y-82337200D02*
X158236905Y-83051485D01*
X158236905Y-83051485D02*
X158855952Y-83051485D01*
X159427381Y-82384819D02*
X159522619Y-82384819D01*
X159522619Y-82384819D02*
X159617857Y-82432438D01*
X159617857Y-82432438D02*
X159665476Y-82480057D01*
X159665476Y-82480057D02*
X159713095Y-82575295D01*
X159713095Y-82575295D02*
X159760714Y-82765771D01*
X159760714Y-82765771D02*
X159760714Y-83003866D01*
X159760714Y-83003866D02*
X159713095Y-83194342D01*
X159713095Y-83194342D02*
X159665476Y-83289580D01*
X159665476Y-83289580D02*
X159617857Y-83337200D01*
X159617857Y-83337200D02*
X159522619Y-83384819D01*
X159522619Y-83384819D02*
X159427381Y-83384819D01*
X159427381Y-83384819D02*
X159332143Y-83337200D01*
X159332143Y-83337200D02*
X159284524Y-83289580D01*
X159284524Y-83289580D02*
X159236905Y-83194342D01*
X159236905Y-83194342D02*
X159189286Y-83003866D01*
X159189286Y-83003866D02*
X159189286Y-82765771D01*
X159189286Y-82765771D02*
X159236905Y-82575295D01*
X159236905Y-82575295D02*
X159284524Y-82480057D01*
X159284524Y-82480057D02*
X159332143Y-82432438D01*
X159332143Y-82432438D02*
X159427381Y-82384819D01*
X160713095Y-83384819D02*
X160141667Y-83384819D01*
X160427381Y-83384819D02*
X160427381Y-82384819D01*
X160427381Y-82384819D02*
X160332143Y-82527676D01*
X160332143Y-82527676D02*
X160236905Y-82622914D01*
X160236905Y-82622914D02*
X160141667Y-82670533D01*
X156285714Y-111004819D02*
X156285714Y-111814342D01*
X156285714Y-111814342D02*
X156333333Y-111909580D01*
X156333333Y-111909580D02*
X156380952Y-111957200D01*
X156380952Y-111957200D02*
X156476190Y-112004819D01*
X156476190Y-112004819D02*
X156666666Y-112004819D01*
X156666666Y-112004819D02*
X156761904Y-111957200D01*
X156761904Y-111957200D02*
X156809523Y-111909580D01*
X156809523Y-111909580D02*
X156857142Y-111814342D01*
X156857142Y-111814342D02*
X156857142Y-111004819D01*
X157285714Y-111100057D02*
X157333333Y-111052438D01*
X157333333Y-111052438D02*
X157428571Y-111004819D01*
X157428571Y-111004819D02*
X157666666Y-111004819D01*
X157666666Y-111004819D02*
X157761904Y-111052438D01*
X157761904Y-111052438D02*
X157809523Y-111100057D01*
X157809523Y-111100057D02*
X157857142Y-111195295D01*
X157857142Y-111195295D02*
X157857142Y-111290533D01*
X157857142Y-111290533D02*
X157809523Y-111433390D01*
X157809523Y-111433390D02*
X157238095Y-112004819D01*
X157238095Y-112004819D02*
X157857142Y-112004819D01*
X158476190Y-111004819D02*
X158571428Y-111004819D01*
X158571428Y-111004819D02*
X158666666Y-111052438D01*
X158666666Y-111052438D02*
X158714285Y-111100057D01*
X158714285Y-111100057D02*
X158761904Y-111195295D01*
X158761904Y-111195295D02*
X158809523Y-111385771D01*
X158809523Y-111385771D02*
X158809523Y-111623866D01*
X158809523Y-111623866D02*
X158761904Y-111814342D01*
X158761904Y-111814342D02*
X158714285Y-111909580D01*
X158714285Y-111909580D02*
X158666666Y-111957200D01*
X158666666Y-111957200D02*
X158571428Y-112004819D01*
X158571428Y-112004819D02*
X158476190Y-112004819D01*
X158476190Y-112004819D02*
X158380952Y-111957200D01*
X158380952Y-111957200D02*
X158333333Y-111909580D01*
X158333333Y-111909580D02*
X158285714Y-111814342D01*
X158285714Y-111814342D02*
X158238095Y-111623866D01*
X158238095Y-111623866D02*
X158238095Y-111385771D01*
X158238095Y-111385771D02*
X158285714Y-111195295D01*
X158285714Y-111195295D02*
X158333333Y-111100057D01*
X158333333Y-111100057D02*
X158380952Y-111052438D01*
X158380952Y-111052438D02*
X158476190Y-111004819D01*
X159142857Y-111004819D02*
X159761904Y-111004819D01*
X159761904Y-111004819D02*
X159428571Y-111385771D01*
X159428571Y-111385771D02*
X159571428Y-111385771D01*
X159571428Y-111385771D02*
X159666666Y-111433390D01*
X159666666Y-111433390D02*
X159714285Y-111481009D01*
X159714285Y-111481009D02*
X159761904Y-111576247D01*
X159761904Y-111576247D02*
X159761904Y-111814342D01*
X159761904Y-111814342D02*
X159714285Y-111909580D01*
X159714285Y-111909580D02*
X159666666Y-111957200D01*
X159666666Y-111957200D02*
X159571428Y-112004819D01*
X159571428Y-112004819D02*
X159285714Y-112004819D01*
X159285714Y-112004819D02*
X159190476Y-111957200D01*
X159190476Y-111957200D02*
X159142857Y-111909580D01*
X149121952Y-118850580D02*
X149074333Y-118898200D01*
X149074333Y-118898200D02*
X148931476Y-118945819D01*
X148931476Y-118945819D02*
X148836238Y-118945819D01*
X148836238Y-118945819D02*
X148693381Y-118898200D01*
X148693381Y-118898200D02*
X148598143Y-118802961D01*
X148598143Y-118802961D02*
X148550524Y-118707723D01*
X148550524Y-118707723D02*
X148502905Y-118517247D01*
X148502905Y-118517247D02*
X148502905Y-118374390D01*
X148502905Y-118374390D02*
X148550524Y-118183914D01*
X148550524Y-118183914D02*
X148598143Y-118088676D01*
X148598143Y-118088676D02*
X148693381Y-117993438D01*
X148693381Y-117993438D02*
X148836238Y-117945819D01*
X148836238Y-117945819D02*
X148931476Y-117945819D01*
X148931476Y-117945819D02*
X149074333Y-117993438D01*
X149074333Y-117993438D02*
X149121952Y-118041057D01*
X149502905Y-118041057D02*
X149550524Y-117993438D01*
X149550524Y-117993438D02*
X149645762Y-117945819D01*
X149645762Y-117945819D02*
X149883857Y-117945819D01*
X149883857Y-117945819D02*
X149979095Y-117993438D01*
X149979095Y-117993438D02*
X150026714Y-118041057D01*
X150026714Y-118041057D02*
X150074333Y-118136295D01*
X150074333Y-118136295D02*
X150074333Y-118231533D01*
X150074333Y-118231533D02*
X150026714Y-118374390D01*
X150026714Y-118374390D02*
X149455286Y-118945819D01*
X149455286Y-118945819D02*
X150074333Y-118945819D01*
X150693381Y-117945819D02*
X150788619Y-117945819D01*
X150788619Y-117945819D02*
X150883857Y-117993438D01*
X150883857Y-117993438D02*
X150931476Y-118041057D01*
X150931476Y-118041057D02*
X150979095Y-118136295D01*
X150979095Y-118136295D02*
X151026714Y-118326771D01*
X151026714Y-118326771D02*
X151026714Y-118564866D01*
X151026714Y-118564866D02*
X150979095Y-118755342D01*
X150979095Y-118755342D02*
X150931476Y-118850580D01*
X150931476Y-118850580D02*
X150883857Y-118898200D01*
X150883857Y-118898200D02*
X150788619Y-118945819D01*
X150788619Y-118945819D02*
X150693381Y-118945819D01*
X150693381Y-118945819D02*
X150598143Y-118898200D01*
X150598143Y-118898200D02*
X150550524Y-118850580D01*
X150550524Y-118850580D02*
X150502905Y-118755342D01*
X150502905Y-118755342D02*
X150455286Y-118564866D01*
X150455286Y-118564866D02*
X150455286Y-118326771D01*
X150455286Y-118326771D02*
X150502905Y-118136295D01*
X150502905Y-118136295D02*
X150550524Y-118041057D01*
X150550524Y-118041057D02*
X150598143Y-117993438D01*
X150598143Y-117993438D02*
X150693381Y-117945819D01*
X151360048Y-117945819D02*
X151979095Y-117945819D01*
X151979095Y-117945819D02*
X151645762Y-118326771D01*
X151645762Y-118326771D02*
X151788619Y-118326771D01*
X151788619Y-118326771D02*
X151883857Y-118374390D01*
X151883857Y-118374390D02*
X151931476Y-118422009D01*
X151931476Y-118422009D02*
X151979095Y-118517247D01*
X151979095Y-118517247D02*
X151979095Y-118755342D01*
X151979095Y-118755342D02*
X151931476Y-118850580D01*
X151931476Y-118850580D02*
X151883857Y-118898200D01*
X151883857Y-118898200D02*
X151788619Y-118945819D01*
X151788619Y-118945819D02*
X151502905Y-118945819D01*
X151502905Y-118945819D02*
X151407667Y-118898200D01*
X151407667Y-118898200D02*
X151360048Y-118850580D01*
X200563214Y-119963819D02*
X200563214Y-120773342D01*
X200563214Y-120773342D02*
X200610833Y-120868580D01*
X200610833Y-120868580D02*
X200658452Y-120916200D01*
X200658452Y-120916200D02*
X200753690Y-120963819D01*
X200753690Y-120963819D02*
X200944166Y-120963819D01*
X200944166Y-120963819D02*
X201039404Y-120916200D01*
X201039404Y-120916200D02*
X201087023Y-120868580D01*
X201087023Y-120868580D02*
X201134642Y-120773342D01*
X201134642Y-120773342D02*
X201134642Y-119963819D01*
X202039404Y-119963819D02*
X201848928Y-119963819D01*
X201848928Y-119963819D02*
X201753690Y-120011438D01*
X201753690Y-120011438D02*
X201706071Y-120059057D01*
X201706071Y-120059057D02*
X201610833Y-120201914D01*
X201610833Y-120201914D02*
X201563214Y-120392390D01*
X201563214Y-120392390D02*
X201563214Y-120773342D01*
X201563214Y-120773342D02*
X201610833Y-120868580D01*
X201610833Y-120868580D02*
X201658452Y-120916200D01*
X201658452Y-120916200D02*
X201753690Y-120963819D01*
X201753690Y-120963819D02*
X201944166Y-120963819D01*
X201944166Y-120963819D02*
X202039404Y-120916200D01*
X202039404Y-120916200D02*
X202087023Y-120868580D01*
X202087023Y-120868580D02*
X202134642Y-120773342D01*
X202134642Y-120773342D02*
X202134642Y-120535247D01*
X202134642Y-120535247D02*
X202087023Y-120440009D01*
X202087023Y-120440009D02*
X202039404Y-120392390D01*
X202039404Y-120392390D02*
X201944166Y-120344771D01*
X201944166Y-120344771D02*
X201753690Y-120344771D01*
X201753690Y-120344771D02*
X201658452Y-120392390D01*
X201658452Y-120392390D02*
X201610833Y-120440009D01*
X201610833Y-120440009D02*
X201563214Y-120535247D01*
X202753690Y-119963819D02*
X202848928Y-119963819D01*
X202848928Y-119963819D02*
X202944166Y-120011438D01*
X202944166Y-120011438D02*
X202991785Y-120059057D01*
X202991785Y-120059057D02*
X203039404Y-120154295D01*
X203039404Y-120154295D02*
X203087023Y-120344771D01*
X203087023Y-120344771D02*
X203087023Y-120582866D01*
X203087023Y-120582866D02*
X203039404Y-120773342D01*
X203039404Y-120773342D02*
X202991785Y-120868580D01*
X202991785Y-120868580D02*
X202944166Y-120916200D01*
X202944166Y-120916200D02*
X202848928Y-120963819D01*
X202848928Y-120963819D02*
X202753690Y-120963819D01*
X202753690Y-120963819D02*
X202658452Y-120916200D01*
X202658452Y-120916200D02*
X202610833Y-120868580D01*
X202610833Y-120868580D02*
X202563214Y-120773342D01*
X202563214Y-120773342D02*
X202515595Y-120582866D01*
X202515595Y-120582866D02*
X202515595Y-120344771D01*
X202515595Y-120344771D02*
X202563214Y-120154295D01*
X202563214Y-120154295D02*
X202610833Y-120059057D01*
X202610833Y-120059057D02*
X202658452Y-120011438D01*
X202658452Y-120011438D02*
X202753690Y-119963819D01*
X204039404Y-120963819D02*
X203467976Y-120963819D01*
X203753690Y-120963819D02*
X203753690Y-119963819D01*
X203753690Y-119963819D02*
X203658452Y-120106676D01*
X203658452Y-120106676D02*
X203563214Y-120201914D01*
X203563214Y-120201914D02*
X203467976Y-120249533D01*
X182721380Y-136059057D02*
X182626142Y-136011438D01*
X182626142Y-136011438D02*
X182530904Y-135916200D01*
X182530904Y-135916200D02*
X182388047Y-135773342D01*
X182388047Y-135773342D02*
X182292809Y-135725723D01*
X182292809Y-135725723D02*
X182197571Y-135725723D01*
X182245190Y-135963819D02*
X182149952Y-135916200D01*
X182149952Y-135916200D02*
X182054714Y-135820961D01*
X182054714Y-135820961D02*
X182007095Y-135630485D01*
X182007095Y-135630485D02*
X182007095Y-135297152D01*
X182007095Y-135297152D02*
X182054714Y-135106676D01*
X182054714Y-135106676D02*
X182149952Y-135011438D01*
X182149952Y-135011438D02*
X182245190Y-134963819D01*
X182245190Y-134963819D02*
X182435666Y-134963819D01*
X182435666Y-134963819D02*
X182530904Y-135011438D01*
X182530904Y-135011438D02*
X182626142Y-135106676D01*
X182626142Y-135106676D02*
X182673761Y-135297152D01*
X182673761Y-135297152D02*
X182673761Y-135630485D01*
X182673761Y-135630485D02*
X182626142Y-135820961D01*
X182626142Y-135820961D02*
X182530904Y-135916200D01*
X182530904Y-135916200D02*
X182435666Y-135963819D01*
X182435666Y-135963819D02*
X182245190Y-135963819D01*
X183530904Y-134963819D02*
X183340428Y-134963819D01*
X183340428Y-134963819D02*
X183245190Y-135011438D01*
X183245190Y-135011438D02*
X183197571Y-135059057D01*
X183197571Y-135059057D02*
X183102333Y-135201914D01*
X183102333Y-135201914D02*
X183054714Y-135392390D01*
X183054714Y-135392390D02*
X183054714Y-135773342D01*
X183054714Y-135773342D02*
X183102333Y-135868580D01*
X183102333Y-135868580D02*
X183149952Y-135916200D01*
X183149952Y-135916200D02*
X183245190Y-135963819D01*
X183245190Y-135963819D02*
X183435666Y-135963819D01*
X183435666Y-135963819D02*
X183530904Y-135916200D01*
X183530904Y-135916200D02*
X183578523Y-135868580D01*
X183578523Y-135868580D02*
X183626142Y-135773342D01*
X183626142Y-135773342D02*
X183626142Y-135535247D01*
X183626142Y-135535247D02*
X183578523Y-135440009D01*
X183578523Y-135440009D02*
X183530904Y-135392390D01*
X183530904Y-135392390D02*
X183435666Y-135344771D01*
X183435666Y-135344771D02*
X183245190Y-135344771D01*
X183245190Y-135344771D02*
X183149952Y-135392390D01*
X183149952Y-135392390D02*
X183102333Y-135440009D01*
X183102333Y-135440009D02*
X183054714Y-135535247D01*
X184245190Y-134963819D02*
X184340428Y-134963819D01*
X184340428Y-134963819D02*
X184435666Y-135011438D01*
X184435666Y-135011438D02*
X184483285Y-135059057D01*
X184483285Y-135059057D02*
X184530904Y-135154295D01*
X184530904Y-135154295D02*
X184578523Y-135344771D01*
X184578523Y-135344771D02*
X184578523Y-135582866D01*
X184578523Y-135582866D02*
X184530904Y-135773342D01*
X184530904Y-135773342D02*
X184483285Y-135868580D01*
X184483285Y-135868580D02*
X184435666Y-135916200D01*
X184435666Y-135916200D02*
X184340428Y-135963819D01*
X184340428Y-135963819D02*
X184245190Y-135963819D01*
X184245190Y-135963819D02*
X184149952Y-135916200D01*
X184149952Y-135916200D02*
X184102333Y-135868580D01*
X184102333Y-135868580D02*
X184054714Y-135773342D01*
X184054714Y-135773342D02*
X184007095Y-135582866D01*
X184007095Y-135582866D02*
X184007095Y-135344771D01*
X184007095Y-135344771D02*
X184054714Y-135154295D01*
X184054714Y-135154295D02*
X184102333Y-135059057D01*
X184102333Y-135059057D02*
X184149952Y-135011438D01*
X184149952Y-135011438D02*
X184245190Y-134963819D01*
X184959476Y-135059057D02*
X185007095Y-135011438D01*
X185007095Y-135011438D02*
X185102333Y-134963819D01*
X185102333Y-134963819D02*
X185340428Y-134963819D01*
X185340428Y-134963819D02*
X185435666Y-135011438D01*
X185435666Y-135011438D02*
X185483285Y-135059057D01*
X185483285Y-135059057D02*
X185530904Y-135154295D01*
X185530904Y-135154295D02*
X185530904Y-135249533D01*
X185530904Y-135249533D02*
X185483285Y-135392390D01*
X185483285Y-135392390D02*
X184911857Y-135963819D01*
X184911857Y-135963819D02*
X185530904Y-135963819D01*
X214217380Y-133519057D02*
X214122142Y-133471438D01*
X214122142Y-133471438D02*
X214026904Y-133376200D01*
X214026904Y-133376200D02*
X213884047Y-133233342D01*
X213884047Y-133233342D02*
X213788809Y-133185723D01*
X213788809Y-133185723D02*
X213693571Y-133185723D01*
X213741190Y-133423819D02*
X213645952Y-133376200D01*
X213645952Y-133376200D02*
X213550714Y-133280961D01*
X213550714Y-133280961D02*
X213503095Y-133090485D01*
X213503095Y-133090485D02*
X213503095Y-132757152D01*
X213503095Y-132757152D02*
X213550714Y-132566676D01*
X213550714Y-132566676D02*
X213645952Y-132471438D01*
X213645952Y-132471438D02*
X213741190Y-132423819D01*
X213741190Y-132423819D02*
X213931666Y-132423819D01*
X213931666Y-132423819D02*
X214026904Y-132471438D01*
X214026904Y-132471438D02*
X214122142Y-132566676D01*
X214122142Y-132566676D02*
X214169761Y-132757152D01*
X214169761Y-132757152D02*
X214169761Y-133090485D01*
X214169761Y-133090485D02*
X214122142Y-133280961D01*
X214122142Y-133280961D02*
X214026904Y-133376200D01*
X214026904Y-133376200D02*
X213931666Y-133423819D01*
X213931666Y-133423819D02*
X213741190Y-133423819D01*
X215026904Y-132423819D02*
X214836428Y-132423819D01*
X214836428Y-132423819D02*
X214741190Y-132471438D01*
X214741190Y-132471438D02*
X214693571Y-132519057D01*
X214693571Y-132519057D02*
X214598333Y-132661914D01*
X214598333Y-132661914D02*
X214550714Y-132852390D01*
X214550714Y-132852390D02*
X214550714Y-133233342D01*
X214550714Y-133233342D02*
X214598333Y-133328580D01*
X214598333Y-133328580D02*
X214645952Y-133376200D01*
X214645952Y-133376200D02*
X214741190Y-133423819D01*
X214741190Y-133423819D02*
X214931666Y-133423819D01*
X214931666Y-133423819D02*
X215026904Y-133376200D01*
X215026904Y-133376200D02*
X215074523Y-133328580D01*
X215074523Y-133328580D02*
X215122142Y-133233342D01*
X215122142Y-133233342D02*
X215122142Y-132995247D01*
X215122142Y-132995247D02*
X215074523Y-132900009D01*
X215074523Y-132900009D02*
X215026904Y-132852390D01*
X215026904Y-132852390D02*
X214931666Y-132804771D01*
X214931666Y-132804771D02*
X214741190Y-132804771D01*
X214741190Y-132804771D02*
X214645952Y-132852390D01*
X214645952Y-132852390D02*
X214598333Y-132900009D01*
X214598333Y-132900009D02*
X214550714Y-132995247D01*
X215741190Y-132423819D02*
X215836428Y-132423819D01*
X215836428Y-132423819D02*
X215931666Y-132471438D01*
X215931666Y-132471438D02*
X215979285Y-132519057D01*
X215979285Y-132519057D02*
X216026904Y-132614295D01*
X216026904Y-132614295D02*
X216074523Y-132804771D01*
X216074523Y-132804771D02*
X216074523Y-133042866D01*
X216074523Y-133042866D02*
X216026904Y-133233342D01*
X216026904Y-133233342D02*
X215979285Y-133328580D01*
X215979285Y-133328580D02*
X215931666Y-133376200D01*
X215931666Y-133376200D02*
X215836428Y-133423819D01*
X215836428Y-133423819D02*
X215741190Y-133423819D01*
X215741190Y-133423819D02*
X215645952Y-133376200D01*
X215645952Y-133376200D02*
X215598333Y-133328580D01*
X215598333Y-133328580D02*
X215550714Y-133233342D01*
X215550714Y-133233342D02*
X215503095Y-133042866D01*
X215503095Y-133042866D02*
X215503095Y-132804771D01*
X215503095Y-132804771D02*
X215550714Y-132614295D01*
X215550714Y-132614295D02*
X215598333Y-132519057D01*
X215598333Y-132519057D02*
X215645952Y-132471438D01*
X215645952Y-132471438D02*
X215741190Y-132423819D01*
X217026904Y-133423819D02*
X216455476Y-133423819D01*
X216741190Y-133423819D02*
X216741190Y-132423819D01*
X216741190Y-132423819D02*
X216645952Y-132566676D01*
X216645952Y-132566676D02*
X216550714Y-132661914D01*
X216550714Y-132661914D02*
X216455476Y-132709533D01*
X203019819Y-88114047D02*
X202543628Y-88447380D01*
X203019819Y-88685475D02*
X202019819Y-88685475D01*
X202019819Y-88685475D02*
X202019819Y-88304523D01*
X202019819Y-88304523D02*
X202067438Y-88209285D01*
X202067438Y-88209285D02*
X202115057Y-88161666D01*
X202115057Y-88161666D02*
X202210295Y-88114047D01*
X202210295Y-88114047D02*
X202353152Y-88114047D01*
X202353152Y-88114047D02*
X202448390Y-88161666D01*
X202448390Y-88161666D02*
X202496009Y-88209285D01*
X202496009Y-88209285D02*
X202543628Y-88304523D01*
X202543628Y-88304523D02*
X202543628Y-88685475D01*
X202115057Y-87733094D02*
X202067438Y-87685475D01*
X202067438Y-87685475D02*
X202019819Y-87590237D01*
X202019819Y-87590237D02*
X202019819Y-87352142D01*
X202019819Y-87352142D02*
X202067438Y-87256904D01*
X202067438Y-87256904D02*
X202115057Y-87209285D01*
X202115057Y-87209285D02*
X202210295Y-87161666D01*
X202210295Y-87161666D02*
X202305533Y-87161666D01*
X202305533Y-87161666D02*
X202448390Y-87209285D01*
X202448390Y-87209285D02*
X203019819Y-87780713D01*
X203019819Y-87780713D02*
X203019819Y-87161666D01*
X202019819Y-86542618D02*
X202019819Y-86447380D01*
X202019819Y-86447380D02*
X202067438Y-86352142D01*
X202067438Y-86352142D02*
X202115057Y-86304523D01*
X202115057Y-86304523D02*
X202210295Y-86256904D01*
X202210295Y-86256904D02*
X202400771Y-86209285D01*
X202400771Y-86209285D02*
X202638866Y-86209285D01*
X202638866Y-86209285D02*
X202829342Y-86256904D01*
X202829342Y-86256904D02*
X202924580Y-86304523D01*
X202924580Y-86304523D02*
X202972200Y-86352142D01*
X202972200Y-86352142D02*
X203019819Y-86447380D01*
X203019819Y-86447380D02*
X203019819Y-86542618D01*
X203019819Y-86542618D02*
X202972200Y-86637856D01*
X202972200Y-86637856D02*
X202924580Y-86685475D01*
X202924580Y-86685475D02*
X202829342Y-86733094D01*
X202829342Y-86733094D02*
X202638866Y-86780713D01*
X202638866Y-86780713D02*
X202400771Y-86780713D01*
X202400771Y-86780713D02*
X202210295Y-86733094D01*
X202210295Y-86733094D02*
X202115057Y-86685475D01*
X202115057Y-86685475D02*
X202067438Y-86637856D01*
X202067438Y-86637856D02*
X202019819Y-86542618D01*
X202019819Y-85352142D02*
X202019819Y-85542618D01*
X202019819Y-85542618D02*
X202067438Y-85637856D01*
X202067438Y-85637856D02*
X202115057Y-85685475D01*
X202115057Y-85685475D02*
X202257914Y-85780713D01*
X202257914Y-85780713D02*
X202448390Y-85828332D01*
X202448390Y-85828332D02*
X202829342Y-85828332D01*
X202829342Y-85828332D02*
X202924580Y-85780713D01*
X202924580Y-85780713D02*
X202972200Y-85733094D01*
X202972200Y-85733094D02*
X203019819Y-85637856D01*
X203019819Y-85637856D02*
X203019819Y-85447380D01*
X203019819Y-85447380D02*
X202972200Y-85352142D01*
X202972200Y-85352142D02*
X202924580Y-85304523D01*
X202924580Y-85304523D02*
X202829342Y-85256904D01*
X202829342Y-85256904D02*
X202591247Y-85256904D01*
X202591247Y-85256904D02*
X202496009Y-85304523D01*
X202496009Y-85304523D02*
X202448390Y-85352142D01*
X202448390Y-85352142D02*
X202400771Y-85447380D01*
X202400771Y-85447380D02*
X202400771Y-85637856D01*
X202400771Y-85637856D02*
X202448390Y-85733094D01*
X202448390Y-85733094D02*
X202496009Y-85780713D01*
X202496009Y-85780713D02*
X202591247Y-85828332D01*
X166884819Y-117794047D02*
X166408628Y-118127380D01*
X166884819Y-118365475D02*
X165884819Y-118365475D01*
X165884819Y-118365475D02*
X165884819Y-117984523D01*
X165884819Y-117984523D02*
X165932438Y-117889285D01*
X165932438Y-117889285D02*
X165980057Y-117841666D01*
X165980057Y-117841666D02*
X166075295Y-117794047D01*
X166075295Y-117794047D02*
X166218152Y-117794047D01*
X166218152Y-117794047D02*
X166313390Y-117841666D01*
X166313390Y-117841666D02*
X166361009Y-117889285D01*
X166361009Y-117889285D02*
X166408628Y-117984523D01*
X166408628Y-117984523D02*
X166408628Y-118365475D01*
X165980057Y-117413094D02*
X165932438Y-117365475D01*
X165932438Y-117365475D02*
X165884819Y-117270237D01*
X165884819Y-117270237D02*
X165884819Y-117032142D01*
X165884819Y-117032142D02*
X165932438Y-116936904D01*
X165932438Y-116936904D02*
X165980057Y-116889285D01*
X165980057Y-116889285D02*
X166075295Y-116841666D01*
X166075295Y-116841666D02*
X166170533Y-116841666D01*
X166170533Y-116841666D02*
X166313390Y-116889285D01*
X166313390Y-116889285D02*
X166884819Y-117460713D01*
X166884819Y-117460713D02*
X166884819Y-116841666D01*
X165884819Y-116222618D02*
X165884819Y-116127380D01*
X165884819Y-116127380D02*
X165932438Y-116032142D01*
X165932438Y-116032142D02*
X165980057Y-115984523D01*
X165980057Y-115984523D02*
X166075295Y-115936904D01*
X166075295Y-115936904D02*
X166265771Y-115889285D01*
X166265771Y-115889285D02*
X166503866Y-115889285D01*
X166503866Y-115889285D02*
X166694342Y-115936904D01*
X166694342Y-115936904D02*
X166789580Y-115984523D01*
X166789580Y-115984523D02*
X166837200Y-116032142D01*
X166837200Y-116032142D02*
X166884819Y-116127380D01*
X166884819Y-116127380D02*
X166884819Y-116222618D01*
X166884819Y-116222618D02*
X166837200Y-116317856D01*
X166837200Y-116317856D02*
X166789580Y-116365475D01*
X166789580Y-116365475D02*
X166694342Y-116413094D01*
X166694342Y-116413094D02*
X166503866Y-116460713D01*
X166503866Y-116460713D02*
X166265771Y-116460713D01*
X166265771Y-116460713D02*
X166075295Y-116413094D01*
X166075295Y-116413094D02*
X165980057Y-116365475D01*
X165980057Y-116365475D02*
X165932438Y-116317856D01*
X165932438Y-116317856D02*
X165884819Y-116222618D01*
X166884819Y-114936904D02*
X166884819Y-115508332D01*
X166884819Y-115222618D02*
X165884819Y-115222618D01*
X165884819Y-115222618D02*
X166027676Y-115317856D01*
X166027676Y-115317856D02*
X166122914Y-115413094D01*
X166122914Y-115413094D02*
X166170533Y-115508332D01*
X183989200Y-108367713D02*
X184036819Y-108224856D01*
X184036819Y-108224856D02*
X184036819Y-107986761D01*
X184036819Y-107986761D02*
X183989200Y-107891523D01*
X183989200Y-107891523D02*
X183941580Y-107843904D01*
X183941580Y-107843904D02*
X183846342Y-107796285D01*
X183846342Y-107796285D02*
X183751104Y-107796285D01*
X183751104Y-107796285D02*
X183655866Y-107843904D01*
X183655866Y-107843904D02*
X183608247Y-107891523D01*
X183608247Y-107891523D02*
X183560628Y-107986761D01*
X183560628Y-107986761D02*
X183513009Y-108177237D01*
X183513009Y-108177237D02*
X183465390Y-108272475D01*
X183465390Y-108272475D02*
X183417771Y-108320094D01*
X183417771Y-108320094D02*
X183322533Y-108367713D01*
X183322533Y-108367713D02*
X183227295Y-108367713D01*
X183227295Y-108367713D02*
X183132057Y-108320094D01*
X183132057Y-108320094D02*
X183084438Y-108272475D01*
X183084438Y-108272475D02*
X183036819Y-108177237D01*
X183036819Y-108177237D02*
X183036819Y-107939142D01*
X183036819Y-107939142D02*
X183084438Y-107796285D01*
X183036819Y-107462951D02*
X184036819Y-107224856D01*
X184036819Y-107224856D02*
X183322533Y-107034380D01*
X183322533Y-107034380D02*
X184036819Y-106843904D01*
X184036819Y-106843904D02*
X183036819Y-106605809D01*
X184036819Y-105701047D02*
X184036819Y-106272475D01*
X184036819Y-105986761D02*
X183036819Y-105986761D01*
X183036819Y-105986761D02*
X183179676Y-106081999D01*
X183179676Y-106081999D02*
X183274914Y-106177237D01*
X183274914Y-106177237D02*
X183322533Y-106272475D01*
X183036819Y-105081999D02*
X183036819Y-104986761D01*
X183036819Y-104986761D02*
X183084438Y-104891523D01*
X183084438Y-104891523D02*
X183132057Y-104843904D01*
X183132057Y-104843904D02*
X183227295Y-104796285D01*
X183227295Y-104796285D02*
X183417771Y-104748666D01*
X183417771Y-104748666D02*
X183655866Y-104748666D01*
X183655866Y-104748666D02*
X183846342Y-104796285D01*
X183846342Y-104796285D02*
X183941580Y-104843904D01*
X183941580Y-104843904D02*
X183989200Y-104891523D01*
X183989200Y-104891523D02*
X184036819Y-104986761D01*
X184036819Y-104986761D02*
X184036819Y-105081999D01*
X184036819Y-105081999D02*
X183989200Y-105177237D01*
X183989200Y-105177237D02*
X183941580Y-105224856D01*
X183941580Y-105224856D02*
X183846342Y-105272475D01*
X183846342Y-105272475D02*
X183655866Y-105320094D01*
X183655866Y-105320094D02*
X183417771Y-105320094D01*
X183417771Y-105320094D02*
X183227295Y-105272475D01*
X183227295Y-105272475D02*
X183132057Y-105224856D01*
X183132057Y-105224856D02*
X183084438Y-105177237D01*
X183084438Y-105177237D02*
X183036819Y-105081999D01*
X184036819Y-103796285D02*
X184036819Y-104367713D01*
X184036819Y-104081999D02*
X183036819Y-104081999D01*
X183036819Y-104081999D02*
X183179676Y-104177237D01*
X183179676Y-104177237D02*
X183274914Y-104272475D01*
X183274914Y-104272475D02*
X183322533Y-104367713D01*
X138314285Y-142531819D02*
X138314285Y-143246104D01*
X138314285Y-143246104D02*
X138266666Y-143388961D01*
X138266666Y-143388961D02*
X138171428Y-143484200D01*
X138171428Y-143484200D02*
X138028571Y-143531819D01*
X138028571Y-143531819D02*
X137933333Y-143531819D01*
X139314285Y-143531819D02*
X138742857Y-143531819D01*
X139028571Y-143531819D02*
X139028571Y-142531819D01*
X139028571Y-142531819D02*
X138933333Y-142674676D01*
X138933333Y-142674676D02*
X138838095Y-142769914D01*
X138838095Y-142769914D02*
X138742857Y-142817533D01*
X139933333Y-142531819D02*
X140028571Y-142531819D01*
X140028571Y-142531819D02*
X140123809Y-142579438D01*
X140123809Y-142579438D02*
X140171428Y-142627057D01*
X140171428Y-142627057D02*
X140219047Y-142722295D01*
X140219047Y-142722295D02*
X140266666Y-142912771D01*
X140266666Y-142912771D02*
X140266666Y-143150866D01*
X140266666Y-143150866D02*
X140219047Y-143341342D01*
X140219047Y-143341342D02*
X140171428Y-143436580D01*
X140171428Y-143436580D02*
X140123809Y-143484200D01*
X140123809Y-143484200D02*
X140028571Y-143531819D01*
X140028571Y-143531819D02*
X139933333Y-143531819D01*
X139933333Y-143531819D02*
X139838095Y-143484200D01*
X139838095Y-143484200D02*
X139790476Y-143436580D01*
X139790476Y-143436580D02*
X139742857Y-143341342D01*
X139742857Y-143341342D02*
X139695238Y-143150866D01*
X139695238Y-143150866D02*
X139695238Y-142912771D01*
X139695238Y-142912771D02*
X139742857Y-142722295D01*
X139742857Y-142722295D02*
X139790476Y-142627057D01*
X139790476Y-142627057D02*
X139838095Y-142579438D01*
X139838095Y-142579438D02*
X139933333Y-142531819D01*
X141219047Y-143531819D02*
X140647619Y-143531819D01*
X140933333Y-143531819D02*
X140933333Y-142531819D01*
X140933333Y-142531819D02*
X140838095Y-142674676D01*
X140838095Y-142674676D02*
X140742857Y-142769914D01*
X140742857Y-142769914D02*
X140647619Y-142817533D01*
X130071952Y-144726819D02*
X129595762Y-144726819D01*
X129595762Y-144726819D02*
X129595762Y-143726819D01*
X130833857Y-144060152D02*
X130833857Y-144726819D01*
X130595762Y-143679200D02*
X130357667Y-144393485D01*
X130357667Y-144393485D02*
X130976714Y-144393485D01*
X131548143Y-143726819D02*
X131643381Y-143726819D01*
X131643381Y-143726819D02*
X131738619Y-143774438D01*
X131738619Y-143774438D02*
X131786238Y-143822057D01*
X131786238Y-143822057D02*
X131833857Y-143917295D01*
X131833857Y-143917295D02*
X131881476Y-144107771D01*
X131881476Y-144107771D02*
X131881476Y-144345866D01*
X131881476Y-144345866D02*
X131833857Y-144536342D01*
X131833857Y-144536342D02*
X131786238Y-144631580D01*
X131786238Y-144631580D02*
X131738619Y-144679200D01*
X131738619Y-144679200D02*
X131643381Y-144726819D01*
X131643381Y-144726819D02*
X131548143Y-144726819D01*
X131548143Y-144726819D02*
X131452905Y-144679200D01*
X131452905Y-144679200D02*
X131405286Y-144631580D01*
X131405286Y-144631580D02*
X131357667Y-144536342D01*
X131357667Y-144536342D02*
X131310048Y-144345866D01*
X131310048Y-144345866D02*
X131310048Y-144107771D01*
X131310048Y-144107771D02*
X131357667Y-143917295D01*
X131357667Y-143917295D02*
X131405286Y-143822057D01*
X131405286Y-143822057D02*
X131452905Y-143774438D01*
X131452905Y-143774438D02*
X131548143Y-143726819D01*
X132833857Y-144726819D02*
X132262429Y-144726819D01*
X132548143Y-144726819D02*
X132548143Y-143726819D01*
X132548143Y-143726819D02*
X132452905Y-143869676D01*
X132452905Y-143869676D02*
X132357667Y-143964914D01*
X132357667Y-143964914D02*
X132262429Y-144012533D01*
X139922952Y-80941580D02*
X139875333Y-80989200D01*
X139875333Y-80989200D02*
X139732476Y-81036819D01*
X139732476Y-81036819D02*
X139637238Y-81036819D01*
X139637238Y-81036819D02*
X139494381Y-80989200D01*
X139494381Y-80989200D02*
X139399143Y-80893961D01*
X139399143Y-80893961D02*
X139351524Y-80798723D01*
X139351524Y-80798723D02*
X139303905Y-80608247D01*
X139303905Y-80608247D02*
X139303905Y-80465390D01*
X139303905Y-80465390D02*
X139351524Y-80274914D01*
X139351524Y-80274914D02*
X139399143Y-80179676D01*
X139399143Y-80179676D02*
X139494381Y-80084438D01*
X139494381Y-80084438D02*
X139637238Y-80036819D01*
X139637238Y-80036819D02*
X139732476Y-80036819D01*
X139732476Y-80036819D02*
X139875333Y-80084438D01*
X139875333Y-80084438D02*
X139922952Y-80132057D01*
X140256286Y-80036819D02*
X140875333Y-80036819D01*
X140875333Y-80036819D02*
X140542000Y-80417771D01*
X140542000Y-80417771D02*
X140684857Y-80417771D01*
X140684857Y-80417771D02*
X140780095Y-80465390D01*
X140780095Y-80465390D02*
X140827714Y-80513009D01*
X140827714Y-80513009D02*
X140875333Y-80608247D01*
X140875333Y-80608247D02*
X140875333Y-80846342D01*
X140875333Y-80846342D02*
X140827714Y-80941580D01*
X140827714Y-80941580D02*
X140780095Y-80989200D01*
X140780095Y-80989200D02*
X140684857Y-81036819D01*
X140684857Y-81036819D02*
X140399143Y-81036819D01*
X140399143Y-81036819D02*
X140303905Y-80989200D01*
X140303905Y-80989200D02*
X140256286Y-80941580D01*
X141494381Y-80036819D02*
X141589619Y-80036819D01*
X141589619Y-80036819D02*
X141684857Y-80084438D01*
X141684857Y-80084438D02*
X141732476Y-80132057D01*
X141732476Y-80132057D02*
X141780095Y-80227295D01*
X141780095Y-80227295D02*
X141827714Y-80417771D01*
X141827714Y-80417771D02*
X141827714Y-80655866D01*
X141827714Y-80655866D02*
X141780095Y-80846342D01*
X141780095Y-80846342D02*
X141732476Y-80941580D01*
X141732476Y-80941580D02*
X141684857Y-80989200D01*
X141684857Y-80989200D02*
X141589619Y-81036819D01*
X141589619Y-81036819D02*
X141494381Y-81036819D01*
X141494381Y-81036819D02*
X141399143Y-80989200D01*
X141399143Y-80989200D02*
X141351524Y-80941580D01*
X141351524Y-80941580D02*
X141303905Y-80846342D01*
X141303905Y-80846342D02*
X141256286Y-80655866D01*
X141256286Y-80655866D02*
X141256286Y-80417771D01*
X141256286Y-80417771D02*
X141303905Y-80227295D01*
X141303905Y-80227295D02*
X141351524Y-80132057D01*
X141351524Y-80132057D02*
X141399143Y-80084438D01*
X141399143Y-80084438D02*
X141494381Y-80036819D01*
X142684857Y-80370152D02*
X142684857Y-81036819D01*
X142446762Y-79989200D02*
X142208667Y-80703485D01*
X142208667Y-80703485D02*
X142827714Y-80703485D01*
X209115819Y-112752047D02*
X208639628Y-113085380D01*
X209115819Y-113323475D02*
X208115819Y-113323475D01*
X208115819Y-113323475D02*
X208115819Y-112942523D01*
X208115819Y-112942523D02*
X208163438Y-112847285D01*
X208163438Y-112847285D02*
X208211057Y-112799666D01*
X208211057Y-112799666D02*
X208306295Y-112752047D01*
X208306295Y-112752047D02*
X208449152Y-112752047D01*
X208449152Y-112752047D02*
X208544390Y-112799666D01*
X208544390Y-112799666D02*
X208592009Y-112847285D01*
X208592009Y-112847285D02*
X208639628Y-112942523D01*
X208639628Y-112942523D02*
X208639628Y-113323475D01*
X208211057Y-112371094D02*
X208163438Y-112323475D01*
X208163438Y-112323475D02*
X208115819Y-112228237D01*
X208115819Y-112228237D02*
X208115819Y-111990142D01*
X208115819Y-111990142D02*
X208163438Y-111894904D01*
X208163438Y-111894904D02*
X208211057Y-111847285D01*
X208211057Y-111847285D02*
X208306295Y-111799666D01*
X208306295Y-111799666D02*
X208401533Y-111799666D01*
X208401533Y-111799666D02*
X208544390Y-111847285D01*
X208544390Y-111847285D02*
X209115819Y-112418713D01*
X209115819Y-112418713D02*
X209115819Y-111799666D01*
X209115819Y-110847285D02*
X209115819Y-111418713D01*
X209115819Y-111132999D02*
X208115819Y-111132999D01*
X208115819Y-111132999D02*
X208258676Y-111228237D01*
X208258676Y-111228237D02*
X208353914Y-111323475D01*
X208353914Y-111323475D02*
X208401533Y-111418713D01*
X208115819Y-109942523D02*
X208115819Y-110418713D01*
X208115819Y-110418713D02*
X208592009Y-110466332D01*
X208592009Y-110466332D02*
X208544390Y-110418713D01*
X208544390Y-110418713D02*
X208496771Y-110323475D01*
X208496771Y-110323475D02*
X208496771Y-110085380D01*
X208496771Y-110085380D02*
X208544390Y-109990142D01*
X208544390Y-109990142D02*
X208592009Y-109942523D01*
X208592009Y-109942523D02*
X208687247Y-109894904D01*
X208687247Y-109894904D02*
X208925342Y-109894904D01*
X208925342Y-109894904D02*
X209020580Y-109942523D01*
X209020580Y-109942523D02*
X209068200Y-109990142D01*
X209068200Y-109990142D02*
X209115819Y-110085380D01*
X209115819Y-110085380D02*
X209115819Y-110323475D01*
X209115819Y-110323475D02*
X209068200Y-110418713D01*
X209068200Y-110418713D02*
X209020580Y-110466332D01*
X171859580Y-137619047D02*
X171907200Y-137666666D01*
X171907200Y-137666666D02*
X171954819Y-137809523D01*
X171954819Y-137809523D02*
X171954819Y-137904761D01*
X171954819Y-137904761D02*
X171907200Y-138047618D01*
X171907200Y-138047618D02*
X171811961Y-138142856D01*
X171811961Y-138142856D02*
X171716723Y-138190475D01*
X171716723Y-138190475D02*
X171526247Y-138238094D01*
X171526247Y-138238094D02*
X171383390Y-138238094D01*
X171383390Y-138238094D02*
X171192914Y-138190475D01*
X171192914Y-138190475D02*
X171097676Y-138142856D01*
X171097676Y-138142856D02*
X171002438Y-138047618D01*
X171002438Y-138047618D02*
X170954819Y-137904761D01*
X170954819Y-137904761D02*
X170954819Y-137809523D01*
X170954819Y-137809523D02*
X171002438Y-137666666D01*
X171002438Y-137666666D02*
X171050057Y-137619047D01*
X171050057Y-137238094D02*
X171002438Y-137190475D01*
X171002438Y-137190475D02*
X170954819Y-137095237D01*
X170954819Y-137095237D02*
X170954819Y-136857142D01*
X170954819Y-136857142D02*
X171002438Y-136761904D01*
X171002438Y-136761904D02*
X171050057Y-136714285D01*
X171050057Y-136714285D02*
X171145295Y-136666666D01*
X171145295Y-136666666D02*
X171240533Y-136666666D01*
X171240533Y-136666666D02*
X171383390Y-136714285D01*
X171383390Y-136714285D02*
X171954819Y-137285713D01*
X171954819Y-137285713D02*
X171954819Y-136666666D01*
X170954819Y-136047618D02*
X170954819Y-135952380D01*
X170954819Y-135952380D02*
X171002438Y-135857142D01*
X171002438Y-135857142D02*
X171050057Y-135809523D01*
X171050057Y-135809523D02*
X171145295Y-135761904D01*
X171145295Y-135761904D02*
X171335771Y-135714285D01*
X171335771Y-135714285D02*
X171573866Y-135714285D01*
X171573866Y-135714285D02*
X171764342Y-135761904D01*
X171764342Y-135761904D02*
X171859580Y-135809523D01*
X171859580Y-135809523D02*
X171907200Y-135857142D01*
X171907200Y-135857142D02*
X171954819Y-135952380D01*
X171954819Y-135952380D02*
X171954819Y-136047618D01*
X171954819Y-136047618D02*
X171907200Y-136142856D01*
X171907200Y-136142856D02*
X171859580Y-136190475D01*
X171859580Y-136190475D02*
X171764342Y-136238094D01*
X171764342Y-136238094D02*
X171573866Y-136285713D01*
X171573866Y-136285713D02*
X171335771Y-136285713D01*
X171335771Y-136285713D02*
X171145295Y-136238094D01*
X171145295Y-136238094D02*
X171050057Y-136190475D01*
X171050057Y-136190475D02*
X171002438Y-136142856D01*
X171002438Y-136142856D02*
X170954819Y-136047618D01*
X171050057Y-135333332D02*
X171002438Y-135285713D01*
X171002438Y-135285713D02*
X170954819Y-135190475D01*
X170954819Y-135190475D02*
X170954819Y-134952380D01*
X170954819Y-134952380D02*
X171002438Y-134857142D01*
X171002438Y-134857142D02*
X171050057Y-134809523D01*
X171050057Y-134809523D02*
X171145295Y-134761904D01*
X171145295Y-134761904D02*
X171240533Y-134761904D01*
X171240533Y-134761904D02*
X171383390Y-134809523D01*
X171383390Y-134809523D02*
X171954819Y-135380951D01*
X171954819Y-135380951D02*
X171954819Y-134761904D01*
X151661952Y-139392819D02*
X151328619Y-138916628D01*
X151090524Y-139392819D02*
X151090524Y-138392819D01*
X151090524Y-138392819D02*
X151471476Y-138392819D01*
X151471476Y-138392819D02*
X151566714Y-138440438D01*
X151566714Y-138440438D02*
X151614333Y-138488057D01*
X151614333Y-138488057D02*
X151661952Y-138583295D01*
X151661952Y-138583295D02*
X151661952Y-138726152D01*
X151661952Y-138726152D02*
X151614333Y-138821390D01*
X151614333Y-138821390D02*
X151566714Y-138869009D01*
X151566714Y-138869009D02*
X151471476Y-138916628D01*
X151471476Y-138916628D02*
X151090524Y-138916628D01*
X152519095Y-138726152D02*
X152519095Y-139392819D01*
X152281000Y-138345200D02*
X152042905Y-139059485D01*
X152042905Y-139059485D02*
X152661952Y-139059485D01*
X153233381Y-138392819D02*
X153328619Y-138392819D01*
X153328619Y-138392819D02*
X153423857Y-138440438D01*
X153423857Y-138440438D02*
X153471476Y-138488057D01*
X153471476Y-138488057D02*
X153519095Y-138583295D01*
X153519095Y-138583295D02*
X153566714Y-138773771D01*
X153566714Y-138773771D02*
X153566714Y-139011866D01*
X153566714Y-139011866D02*
X153519095Y-139202342D01*
X153519095Y-139202342D02*
X153471476Y-139297580D01*
X153471476Y-139297580D02*
X153423857Y-139345200D01*
X153423857Y-139345200D02*
X153328619Y-139392819D01*
X153328619Y-139392819D02*
X153233381Y-139392819D01*
X153233381Y-139392819D02*
X153138143Y-139345200D01*
X153138143Y-139345200D02*
X153090524Y-139297580D01*
X153090524Y-139297580D02*
X153042905Y-139202342D01*
X153042905Y-139202342D02*
X152995286Y-139011866D01*
X152995286Y-139011866D02*
X152995286Y-138773771D01*
X152995286Y-138773771D02*
X153042905Y-138583295D01*
X153042905Y-138583295D02*
X153090524Y-138488057D01*
X153090524Y-138488057D02*
X153138143Y-138440438D01*
X153138143Y-138440438D02*
X153233381Y-138392819D01*
X154471476Y-138392819D02*
X153995286Y-138392819D01*
X153995286Y-138392819D02*
X153947667Y-138869009D01*
X153947667Y-138869009D02*
X153995286Y-138821390D01*
X153995286Y-138821390D02*
X154090524Y-138773771D01*
X154090524Y-138773771D02*
X154328619Y-138773771D01*
X154328619Y-138773771D02*
X154423857Y-138821390D01*
X154423857Y-138821390D02*
X154471476Y-138869009D01*
X154471476Y-138869009D02*
X154519095Y-138964247D01*
X154519095Y-138964247D02*
X154519095Y-139202342D01*
X154519095Y-139202342D02*
X154471476Y-139297580D01*
X154471476Y-139297580D02*
X154423857Y-139345200D01*
X154423857Y-139345200D02*
X154328619Y-139392819D01*
X154328619Y-139392819D02*
X154090524Y-139392819D01*
X154090524Y-139392819D02*
X153995286Y-139345200D01*
X153995286Y-139345200D02*
X153947667Y-139297580D01*
X138537714Y-141321819D02*
X138537714Y-142131342D01*
X138537714Y-142131342D02*
X138585333Y-142226580D01*
X138585333Y-142226580D02*
X138632952Y-142274200D01*
X138632952Y-142274200D02*
X138728190Y-142321819D01*
X138728190Y-142321819D02*
X138918666Y-142321819D01*
X138918666Y-142321819D02*
X139013904Y-142274200D01*
X139013904Y-142274200D02*
X139061523Y-142226580D01*
X139061523Y-142226580D02*
X139109142Y-142131342D01*
X139109142Y-142131342D02*
X139109142Y-141321819D01*
X140013904Y-141655152D02*
X140013904Y-142321819D01*
X139775809Y-141274200D02*
X139537714Y-141988485D01*
X139537714Y-141988485D02*
X140156761Y-141988485D01*
X140728190Y-141321819D02*
X140823428Y-141321819D01*
X140823428Y-141321819D02*
X140918666Y-141369438D01*
X140918666Y-141369438D02*
X140966285Y-141417057D01*
X140966285Y-141417057D02*
X141013904Y-141512295D01*
X141013904Y-141512295D02*
X141061523Y-141702771D01*
X141061523Y-141702771D02*
X141061523Y-141940866D01*
X141061523Y-141940866D02*
X141013904Y-142131342D01*
X141013904Y-142131342D02*
X140966285Y-142226580D01*
X140966285Y-142226580D02*
X140918666Y-142274200D01*
X140918666Y-142274200D02*
X140823428Y-142321819D01*
X140823428Y-142321819D02*
X140728190Y-142321819D01*
X140728190Y-142321819D02*
X140632952Y-142274200D01*
X140632952Y-142274200D02*
X140585333Y-142226580D01*
X140585333Y-142226580D02*
X140537714Y-142131342D01*
X140537714Y-142131342D02*
X140490095Y-141940866D01*
X140490095Y-141940866D02*
X140490095Y-141702771D01*
X140490095Y-141702771D02*
X140537714Y-141512295D01*
X140537714Y-141512295D02*
X140585333Y-141417057D01*
X140585333Y-141417057D02*
X140632952Y-141369438D01*
X140632952Y-141369438D02*
X140728190Y-141321819D01*
X141442476Y-141417057D02*
X141490095Y-141369438D01*
X141490095Y-141369438D02*
X141585333Y-141321819D01*
X141585333Y-141321819D02*
X141823428Y-141321819D01*
X141823428Y-141321819D02*
X141918666Y-141369438D01*
X141918666Y-141369438D02*
X141966285Y-141417057D01*
X141966285Y-141417057D02*
X142013904Y-141512295D01*
X142013904Y-141512295D02*
X142013904Y-141607533D01*
X142013904Y-141607533D02*
X141966285Y-141750390D01*
X141966285Y-141750390D02*
X141394857Y-142321819D01*
X141394857Y-142321819D02*
X142013904Y-142321819D01*
X144726819Y-91861047D02*
X144250628Y-92194380D01*
X144726819Y-92432475D02*
X143726819Y-92432475D01*
X143726819Y-92432475D02*
X143726819Y-92051523D01*
X143726819Y-92051523D02*
X143774438Y-91956285D01*
X143774438Y-91956285D02*
X143822057Y-91908666D01*
X143822057Y-91908666D02*
X143917295Y-91861047D01*
X143917295Y-91861047D02*
X144060152Y-91861047D01*
X144060152Y-91861047D02*
X144155390Y-91908666D01*
X144155390Y-91908666D02*
X144203009Y-91956285D01*
X144203009Y-91956285D02*
X144250628Y-92051523D01*
X144250628Y-92051523D02*
X144250628Y-92432475D01*
X143822057Y-91480094D02*
X143774438Y-91432475D01*
X143774438Y-91432475D02*
X143726819Y-91337237D01*
X143726819Y-91337237D02*
X143726819Y-91099142D01*
X143726819Y-91099142D02*
X143774438Y-91003904D01*
X143774438Y-91003904D02*
X143822057Y-90956285D01*
X143822057Y-90956285D02*
X143917295Y-90908666D01*
X143917295Y-90908666D02*
X144012533Y-90908666D01*
X144012533Y-90908666D02*
X144155390Y-90956285D01*
X144155390Y-90956285D02*
X144726819Y-91527713D01*
X144726819Y-91527713D02*
X144726819Y-90908666D01*
X144726819Y-89956285D02*
X144726819Y-90527713D01*
X144726819Y-90241999D02*
X143726819Y-90241999D01*
X143726819Y-90241999D02*
X143869676Y-90337237D01*
X143869676Y-90337237D02*
X143964914Y-90432475D01*
X143964914Y-90432475D02*
X144012533Y-90527713D01*
X143822057Y-89575332D02*
X143774438Y-89527713D01*
X143774438Y-89527713D02*
X143726819Y-89432475D01*
X143726819Y-89432475D02*
X143726819Y-89194380D01*
X143726819Y-89194380D02*
X143774438Y-89099142D01*
X143774438Y-89099142D02*
X143822057Y-89051523D01*
X143822057Y-89051523D02*
X143917295Y-89003904D01*
X143917295Y-89003904D02*
X144012533Y-89003904D01*
X144012533Y-89003904D02*
X144155390Y-89051523D01*
X144155390Y-89051523D02*
X144726819Y-89622951D01*
X144726819Y-89622951D02*
X144726819Y-89003904D01*
X145610452Y-76841580D02*
X145562833Y-76889200D01*
X145562833Y-76889200D02*
X145419976Y-76936819D01*
X145419976Y-76936819D02*
X145324738Y-76936819D01*
X145324738Y-76936819D02*
X145181881Y-76889200D01*
X145181881Y-76889200D02*
X145086643Y-76793961D01*
X145086643Y-76793961D02*
X145039024Y-76698723D01*
X145039024Y-76698723D02*
X144991405Y-76508247D01*
X144991405Y-76508247D02*
X144991405Y-76365390D01*
X144991405Y-76365390D02*
X145039024Y-76174914D01*
X145039024Y-76174914D02*
X145086643Y-76079676D01*
X145086643Y-76079676D02*
X145181881Y-75984438D01*
X145181881Y-75984438D02*
X145324738Y-75936819D01*
X145324738Y-75936819D02*
X145419976Y-75936819D01*
X145419976Y-75936819D02*
X145562833Y-75984438D01*
X145562833Y-75984438D02*
X145610452Y-76032057D01*
X145943786Y-75936819D02*
X146562833Y-75936819D01*
X146562833Y-75936819D02*
X146229500Y-76317771D01*
X146229500Y-76317771D02*
X146372357Y-76317771D01*
X146372357Y-76317771D02*
X146467595Y-76365390D01*
X146467595Y-76365390D02*
X146515214Y-76413009D01*
X146515214Y-76413009D02*
X146562833Y-76508247D01*
X146562833Y-76508247D02*
X146562833Y-76746342D01*
X146562833Y-76746342D02*
X146515214Y-76841580D01*
X146515214Y-76841580D02*
X146467595Y-76889200D01*
X146467595Y-76889200D02*
X146372357Y-76936819D01*
X146372357Y-76936819D02*
X146086643Y-76936819D01*
X146086643Y-76936819D02*
X145991405Y-76889200D01*
X145991405Y-76889200D02*
X145943786Y-76841580D01*
X147181881Y-75936819D02*
X147277119Y-75936819D01*
X147277119Y-75936819D02*
X147372357Y-75984438D01*
X147372357Y-75984438D02*
X147419976Y-76032057D01*
X147419976Y-76032057D02*
X147467595Y-76127295D01*
X147467595Y-76127295D02*
X147515214Y-76317771D01*
X147515214Y-76317771D02*
X147515214Y-76555866D01*
X147515214Y-76555866D02*
X147467595Y-76746342D01*
X147467595Y-76746342D02*
X147419976Y-76841580D01*
X147419976Y-76841580D02*
X147372357Y-76889200D01*
X147372357Y-76889200D02*
X147277119Y-76936819D01*
X147277119Y-76936819D02*
X147181881Y-76936819D01*
X147181881Y-76936819D02*
X147086643Y-76889200D01*
X147086643Y-76889200D02*
X147039024Y-76841580D01*
X147039024Y-76841580D02*
X146991405Y-76746342D01*
X146991405Y-76746342D02*
X146943786Y-76555866D01*
X146943786Y-76555866D02*
X146943786Y-76317771D01*
X146943786Y-76317771D02*
X146991405Y-76127295D01*
X146991405Y-76127295D02*
X147039024Y-76032057D01*
X147039024Y-76032057D02*
X147086643Y-75984438D01*
X147086643Y-75984438D02*
X147181881Y-75936819D01*
X148467595Y-76936819D02*
X147896167Y-76936819D01*
X148181881Y-76936819D02*
X148181881Y-75936819D01*
X148181881Y-75936819D02*
X148086643Y-76079676D01*
X148086643Y-76079676D02*
X147991405Y-76174914D01*
X147991405Y-76174914D02*
X147896167Y-76222533D01*
X147891714Y-102732819D02*
X147891714Y-103542342D01*
X147891714Y-103542342D02*
X147939333Y-103637580D01*
X147939333Y-103637580D02*
X147986952Y-103685200D01*
X147986952Y-103685200D02*
X148082190Y-103732819D01*
X148082190Y-103732819D02*
X148272666Y-103732819D01*
X148272666Y-103732819D02*
X148367904Y-103685200D01*
X148367904Y-103685200D02*
X148415523Y-103637580D01*
X148415523Y-103637580D02*
X148463142Y-103542342D01*
X148463142Y-103542342D02*
X148463142Y-102732819D01*
X148891714Y-102828057D02*
X148939333Y-102780438D01*
X148939333Y-102780438D02*
X149034571Y-102732819D01*
X149034571Y-102732819D02*
X149272666Y-102732819D01*
X149272666Y-102732819D02*
X149367904Y-102780438D01*
X149367904Y-102780438D02*
X149415523Y-102828057D01*
X149415523Y-102828057D02*
X149463142Y-102923295D01*
X149463142Y-102923295D02*
X149463142Y-103018533D01*
X149463142Y-103018533D02*
X149415523Y-103161390D01*
X149415523Y-103161390D02*
X148844095Y-103732819D01*
X148844095Y-103732819D02*
X149463142Y-103732819D01*
X150082190Y-102732819D02*
X150177428Y-102732819D01*
X150177428Y-102732819D02*
X150272666Y-102780438D01*
X150272666Y-102780438D02*
X150320285Y-102828057D01*
X150320285Y-102828057D02*
X150367904Y-102923295D01*
X150367904Y-102923295D02*
X150415523Y-103113771D01*
X150415523Y-103113771D02*
X150415523Y-103351866D01*
X150415523Y-103351866D02*
X150367904Y-103542342D01*
X150367904Y-103542342D02*
X150320285Y-103637580D01*
X150320285Y-103637580D02*
X150272666Y-103685200D01*
X150272666Y-103685200D02*
X150177428Y-103732819D01*
X150177428Y-103732819D02*
X150082190Y-103732819D01*
X150082190Y-103732819D02*
X149986952Y-103685200D01*
X149986952Y-103685200D02*
X149939333Y-103637580D01*
X149939333Y-103637580D02*
X149891714Y-103542342D01*
X149891714Y-103542342D02*
X149844095Y-103351866D01*
X149844095Y-103351866D02*
X149844095Y-103113771D01*
X149844095Y-103113771D02*
X149891714Y-102923295D01*
X149891714Y-102923295D02*
X149939333Y-102828057D01*
X149939333Y-102828057D02*
X149986952Y-102780438D01*
X149986952Y-102780438D02*
X150082190Y-102732819D01*
X151320285Y-102732819D02*
X150844095Y-102732819D01*
X150844095Y-102732819D02*
X150796476Y-103209009D01*
X150796476Y-103209009D02*
X150844095Y-103161390D01*
X150844095Y-103161390D02*
X150939333Y-103113771D01*
X150939333Y-103113771D02*
X151177428Y-103113771D01*
X151177428Y-103113771D02*
X151272666Y-103161390D01*
X151272666Y-103161390D02*
X151320285Y-103209009D01*
X151320285Y-103209009D02*
X151367904Y-103304247D01*
X151367904Y-103304247D02*
X151367904Y-103542342D01*
X151367904Y-103542342D02*
X151320285Y-103637580D01*
X151320285Y-103637580D02*
X151272666Y-103685200D01*
X151272666Y-103685200D02*
X151177428Y-103732819D01*
X151177428Y-103732819D02*
X150939333Y-103732819D01*
X150939333Y-103732819D02*
X150844095Y-103685200D01*
X150844095Y-103685200D02*
X150796476Y-103637580D01*
X205295714Y-63110819D02*
X205295714Y-63920342D01*
X205295714Y-63920342D02*
X205343333Y-64015580D01*
X205343333Y-64015580D02*
X205390952Y-64063200D01*
X205390952Y-64063200D02*
X205486190Y-64110819D01*
X205486190Y-64110819D02*
X205676666Y-64110819D01*
X205676666Y-64110819D02*
X205771904Y-64063200D01*
X205771904Y-64063200D02*
X205819523Y-64015580D01*
X205819523Y-64015580D02*
X205867142Y-63920342D01*
X205867142Y-63920342D02*
X205867142Y-63110819D01*
X206771904Y-63444152D02*
X206771904Y-64110819D01*
X206533809Y-63063200D02*
X206295714Y-63777485D01*
X206295714Y-63777485D02*
X206914761Y-63777485D01*
X207486190Y-63110819D02*
X207581428Y-63110819D01*
X207581428Y-63110819D02*
X207676666Y-63158438D01*
X207676666Y-63158438D02*
X207724285Y-63206057D01*
X207724285Y-63206057D02*
X207771904Y-63301295D01*
X207771904Y-63301295D02*
X207819523Y-63491771D01*
X207819523Y-63491771D02*
X207819523Y-63729866D01*
X207819523Y-63729866D02*
X207771904Y-63920342D01*
X207771904Y-63920342D02*
X207724285Y-64015580D01*
X207724285Y-64015580D02*
X207676666Y-64063200D01*
X207676666Y-64063200D02*
X207581428Y-64110819D01*
X207581428Y-64110819D02*
X207486190Y-64110819D01*
X207486190Y-64110819D02*
X207390952Y-64063200D01*
X207390952Y-64063200D02*
X207343333Y-64015580D01*
X207343333Y-64015580D02*
X207295714Y-63920342D01*
X207295714Y-63920342D02*
X207248095Y-63729866D01*
X207248095Y-63729866D02*
X207248095Y-63491771D01*
X207248095Y-63491771D02*
X207295714Y-63301295D01*
X207295714Y-63301295D02*
X207343333Y-63206057D01*
X207343333Y-63206057D02*
X207390952Y-63158438D01*
X207390952Y-63158438D02*
X207486190Y-63110819D01*
X208152857Y-63110819D02*
X208771904Y-63110819D01*
X208771904Y-63110819D02*
X208438571Y-63491771D01*
X208438571Y-63491771D02*
X208581428Y-63491771D01*
X208581428Y-63491771D02*
X208676666Y-63539390D01*
X208676666Y-63539390D02*
X208724285Y-63587009D01*
X208724285Y-63587009D02*
X208771904Y-63682247D01*
X208771904Y-63682247D02*
X208771904Y-63920342D01*
X208771904Y-63920342D02*
X208724285Y-64015580D01*
X208724285Y-64015580D02*
X208676666Y-64063200D01*
X208676666Y-64063200D02*
X208581428Y-64110819D01*
X208581428Y-64110819D02*
X208295714Y-64110819D01*
X208295714Y-64110819D02*
X208200476Y-64063200D01*
X208200476Y-64063200D02*
X208152857Y-64015580D01*
X131201952Y-129993580D02*
X131154333Y-130041200D01*
X131154333Y-130041200D02*
X131011476Y-130088819D01*
X131011476Y-130088819D02*
X130916238Y-130088819D01*
X130916238Y-130088819D02*
X130773381Y-130041200D01*
X130773381Y-130041200D02*
X130678143Y-129945961D01*
X130678143Y-129945961D02*
X130630524Y-129850723D01*
X130630524Y-129850723D02*
X130582905Y-129660247D01*
X130582905Y-129660247D02*
X130582905Y-129517390D01*
X130582905Y-129517390D02*
X130630524Y-129326914D01*
X130630524Y-129326914D02*
X130678143Y-129231676D01*
X130678143Y-129231676D02*
X130773381Y-129136438D01*
X130773381Y-129136438D02*
X130916238Y-129088819D01*
X130916238Y-129088819D02*
X131011476Y-129088819D01*
X131011476Y-129088819D02*
X131154333Y-129136438D01*
X131154333Y-129136438D02*
X131201952Y-129184057D01*
X132059095Y-129422152D02*
X132059095Y-130088819D01*
X131821000Y-129041200D02*
X131582905Y-129755485D01*
X131582905Y-129755485D02*
X132201952Y-129755485D01*
X132773381Y-129088819D02*
X132868619Y-129088819D01*
X132868619Y-129088819D02*
X132963857Y-129136438D01*
X132963857Y-129136438D02*
X133011476Y-129184057D01*
X133011476Y-129184057D02*
X133059095Y-129279295D01*
X133059095Y-129279295D02*
X133106714Y-129469771D01*
X133106714Y-129469771D02*
X133106714Y-129707866D01*
X133106714Y-129707866D02*
X133059095Y-129898342D01*
X133059095Y-129898342D02*
X133011476Y-129993580D01*
X133011476Y-129993580D02*
X132963857Y-130041200D01*
X132963857Y-130041200D02*
X132868619Y-130088819D01*
X132868619Y-130088819D02*
X132773381Y-130088819D01*
X132773381Y-130088819D02*
X132678143Y-130041200D01*
X132678143Y-130041200D02*
X132630524Y-129993580D01*
X132630524Y-129993580D02*
X132582905Y-129898342D01*
X132582905Y-129898342D02*
X132535286Y-129707866D01*
X132535286Y-129707866D02*
X132535286Y-129469771D01*
X132535286Y-129469771D02*
X132582905Y-129279295D01*
X132582905Y-129279295D02*
X132630524Y-129184057D01*
X132630524Y-129184057D02*
X132678143Y-129136438D01*
X132678143Y-129136438D02*
X132773381Y-129088819D01*
X133678143Y-129517390D02*
X133582905Y-129469771D01*
X133582905Y-129469771D02*
X133535286Y-129422152D01*
X133535286Y-129422152D02*
X133487667Y-129326914D01*
X133487667Y-129326914D02*
X133487667Y-129279295D01*
X133487667Y-129279295D02*
X133535286Y-129184057D01*
X133535286Y-129184057D02*
X133582905Y-129136438D01*
X133582905Y-129136438D02*
X133678143Y-129088819D01*
X133678143Y-129088819D02*
X133868619Y-129088819D01*
X133868619Y-129088819D02*
X133963857Y-129136438D01*
X133963857Y-129136438D02*
X134011476Y-129184057D01*
X134011476Y-129184057D02*
X134059095Y-129279295D01*
X134059095Y-129279295D02*
X134059095Y-129326914D01*
X134059095Y-129326914D02*
X134011476Y-129422152D01*
X134011476Y-129422152D02*
X133963857Y-129469771D01*
X133963857Y-129469771D02*
X133868619Y-129517390D01*
X133868619Y-129517390D02*
X133678143Y-129517390D01*
X133678143Y-129517390D02*
X133582905Y-129565009D01*
X133582905Y-129565009D02*
X133535286Y-129612628D01*
X133535286Y-129612628D02*
X133487667Y-129707866D01*
X133487667Y-129707866D02*
X133487667Y-129898342D01*
X133487667Y-129898342D02*
X133535286Y-129993580D01*
X133535286Y-129993580D02*
X133582905Y-130041200D01*
X133582905Y-130041200D02*
X133678143Y-130088819D01*
X133678143Y-130088819D02*
X133868619Y-130088819D01*
X133868619Y-130088819D02*
X133963857Y-130041200D01*
X133963857Y-130041200D02*
X134011476Y-129993580D01*
X134011476Y-129993580D02*
X134059095Y-129898342D01*
X134059095Y-129898342D02*
X134059095Y-129707866D01*
X134059095Y-129707866D02*
X134011476Y-129612628D01*
X134011476Y-129612628D02*
X133963857Y-129565009D01*
X133963857Y-129565009D02*
X133868619Y-129517390D01*
X178673285Y-146684819D02*
X178673285Y-147399104D01*
X178673285Y-147399104D02*
X178625666Y-147541961D01*
X178625666Y-147541961D02*
X178530428Y-147637200D01*
X178530428Y-147637200D02*
X178387571Y-147684819D01*
X178387571Y-147684819D02*
X178292333Y-147684819D01*
X179673285Y-147684819D02*
X179101857Y-147684819D01*
X179387571Y-147684819D02*
X179387571Y-146684819D01*
X179387571Y-146684819D02*
X179292333Y-146827676D01*
X179292333Y-146827676D02*
X179197095Y-146922914D01*
X179197095Y-146922914D02*
X179101857Y-146970533D01*
X180292333Y-146684819D02*
X180387571Y-146684819D01*
X180387571Y-146684819D02*
X180482809Y-146732438D01*
X180482809Y-146732438D02*
X180530428Y-146780057D01*
X180530428Y-146780057D02*
X180578047Y-146875295D01*
X180578047Y-146875295D02*
X180625666Y-147065771D01*
X180625666Y-147065771D02*
X180625666Y-147303866D01*
X180625666Y-147303866D02*
X180578047Y-147494342D01*
X180578047Y-147494342D02*
X180530428Y-147589580D01*
X180530428Y-147589580D02*
X180482809Y-147637200D01*
X180482809Y-147637200D02*
X180387571Y-147684819D01*
X180387571Y-147684819D02*
X180292333Y-147684819D01*
X180292333Y-147684819D02*
X180197095Y-147637200D01*
X180197095Y-147637200D02*
X180149476Y-147589580D01*
X180149476Y-147589580D02*
X180101857Y-147494342D01*
X180101857Y-147494342D02*
X180054238Y-147303866D01*
X180054238Y-147303866D02*
X180054238Y-147065771D01*
X180054238Y-147065771D02*
X180101857Y-146875295D01*
X180101857Y-146875295D02*
X180149476Y-146780057D01*
X180149476Y-146780057D02*
X180197095Y-146732438D01*
X180197095Y-146732438D02*
X180292333Y-146684819D01*
X181006619Y-146780057D02*
X181054238Y-146732438D01*
X181054238Y-146732438D02*
X181149476Y-146684819D01*
X181149476Y-146684819D02*
X181387571Y-146684819D01*
X181387571Y-146684819D02*
X181482809Y-146732438D01*
X181482809Y-146732438D02*
X181530428Y-146780057D01*
X181530428Y-146780057D02*
X181578047Y-146875295D01*
X181578047Y-146875295D02*
X181578047Y-146970533D01*
X181578047Y-146970533D02*
X181530428Y-147113390D01*
X181530428Y-147113390D02*
X180959000Y-147684819D01*
X180959000Y-147684819D02*
X181578047Y-147684819D01*
X196913714Y-85134819D02*
X196913714Y-85944342D01*
X196913714Y-85944342D02*
X196961333Y-86039580D01*
X196961333Y-86039580D02*
X197008952Y-86087200D01*
X197008952Y-86087200D02*
X197104190Y-86134819D01*
X197104190Y-86134819D02*
X197294666Y-86134819D01*
X197294666Y-86134819D02*
X197389904Y-86087200D01*
X197389904Y-86087200D02*
X197437523Y-86039580D01*
X197437523Y-86039580D02*
X197485142Y-85944342D01*
X197485142Y-85944342D02*
X197485142Y-85134819D01*
X197913714Y-85230057D02*
X197961333Y-85182438D01*
X197961333Y-85182438D02*
X198056571Y-85134819D01*
X198056571Y-85134819D02*
X198294666Y-85134819D01*
X198294666Y-85134819D02*
X198389904Y-85182438D01*
X198389904Y-85182438D02*
X198437523Y-85230057D01*
X198437523Y-85230057D02*
X198485142Y-85325295D01*
X198485142Y-85325295D02*
X198485142Y-85420533D01*
X198485142Y-85420533D02*
X198437523Y-85563390D01*
X198437523Y-85563390D02*
X197866095Y-86134819D01*
X197866095Y-86134819D02*
X198485142Y-86134819D01*
X199104190Y-85134819D02*
X199199428Y-85134819D01*
X199199428Y-85134819D02*
X199294666Y-85182438D01*
X199294666Y-85182438D02*
X199342285Y-85230057D01*
X199342285Y-85230057D02*
X199389904Y-85325295D01*
X199389904Y-85325295D02*
X199437523Y-85515771D01*
X199437523Y-85515771D02*
X199437523Y-85753866D01*
X199437523Y-85753866D02*
X199389904Y-85944342D01*
X199389904Y-85944342D02*
X199342285Y-86039580D01*
X199342285Y-86039580D02*
X199294666Y-86087200D01*
X199294666Y-86087200D02*
X199199428Y-86134819D01*
X199199428Y-86134819D02*
X199104190Y-86134819D01*
X199104190Y-86134819D02*
X199008952Y-86087200D01*
X199008952Y-86087200D02*
X198961333Y-86039580D01*
X198961333Y-86039580D02*
X198913714Y-85944342D01*
X198913714Y-85944342D02*
X198866095Y-85753866D01*
X198866095Y-85753866D02*
X198866095Y-85515771D01*
X198866095Y-85515771D02*
X198913714Y-85325295D01*
X198913714Y-85325295D02*
X198961333Y-85230057D01*
X198961333Y-85230057D02*
X199008952Y-85182438D01*
X199008952Y-85182438D02*
X199104190Y-85134819D01*
X199818476Y-85230057D02*
X199866095Y-85182438D01*
X199866095Y-85182438D02*
X199961333Y-85134819D01*
X199961333Y-85134819D02*
X200199428Y-85134819D01*
X200199428Y-85134819D02*
X200294666Y-85182438D01*
X200294666Y-85182438D02*
X200342285Y-85230057D01*
X200342285Y-85230057D02*
X200389904Y-85325295D01*
X200389904Y-85325295D02*
X200389904Y-85420533D01*
X200389904Y-85420533D02*
X200342285Y-85563390D01*
X200342285Y-85563390D02*
X199770857Y-86134819D01*
X199770857Y-86134819D02*
X200389904Y-86134819D01*
X138470819Y-91924047D02*
X137994628Y-92257380D01*
X138470819Y-92495475D02*
X137470819Y-92495475D01*
X137470819Y-92495475D02*
X137470819Y-92114523D01*
X137470819Y-92114523D02*
X137518438Y-92019285D01*
X137518438Y-92019285D02*
X137566057Y-91971666D01*
X137566057Y-91971666D02*
X137661295Y-91924047D01*
X137661295Y-91924047D02*
X137804152Y-91924047D01*
X137804152Y-91924047D02*
X137899390Y-91971666D01*
X137899390Y-91971666D02*
X137947009Y-92019285D01*
X137947009Y-92019285D02*
X137994628Y-92114523D01*
X137994628Y-92114523D02*
X137994628Y-92495475D01*
X137566057Y-91543094D02*
X137518438Y-91495475D01*
X137518438Y-91495475D02*
X137470819Y-91400237D01*
X137470819Y-91400237D02*
X137470819Y-91162142D01*
X137470819Y-91162142D02*
X137518438Y-91066904D01*
X137518438Y-91066904D02*
X137566057Y-91019285D01*
X137566057Y-91019285D02*
X137661295Y-90971666D01*
X137661295Y-90971666D02*
X137756533Y-90971666D01*
X137756533Y-90971666D02*
X137899390Y-91019285D01*
X137899390Y-91019285D02*
X138470819Y-91590713D01*
X138470819Y-91590713D02*
X138470819Y-90971666D01*
X137470819Y-90352618D02*
X137470819Y-90257380D01*
X137470819Y-90257380D02*
X137518438Y-90162142D01*
X137518438Y-90162142D02*
X137566057Y-90114523D01*
X137566057Y-90114523D02*
X137661295Y-90066904D01*
X137661295Y-90066904D02*
X137851771Y-90019285D01*
X137851771Y-90019285D02*
X138089866Y-90019285D01*
X138089866Y-90019285D02*
X138280342Y-90066904D01*
X138280342Y-90066904D02*
X138375580Y-90114523D01*
X138375580Y-90114523D02*
X138423200Y-90162142D01*
X138423200Y-90162142D02*
X138470819Y-90257380D01*
X138470819Y-90257380D02*
X138470819Y-90352618D01*
X138470819Y-90352618D02*
X138423200Y-90447856D01*
X138423200Y-90447856D02*
X138375580Y-90495475D01*
X138375580Y-90495475D02*
X138280342Y-90543094D01*
X138280342Y-90543094D02*
X138089866Y-90590713D01*
X138089866Y-90590713D02*
X137851771Y-90590713D01*
X137851771Y-90590713D02*
X137661295Y-90543094D01*
X137661295Y-90543094D02*
X137566057Y-90495475D01*
X137566057Y-90495475D02*
X137518438Y-90447856D01*
X137518438Y-90447856D02*
X137470819Y-90352618D01*
X137470819Y-89685951D02*
X137470819Y-89019285D01*
X137470819Y-89019285D02*
X138470819Y-89447856D01*
X132185580Y-124563047D02*
X132233200Y-124610666D01*
X132233200Y-124610666D02*
X132280819Y-124753523D01*
X132280819Y-124753523D02*
X132280819Y-124848761D01*
X132280819Y-124848761D02*
X132233200Y-124991618D01*
X132233200Y-124991618D02*
X132137961Y-125086856D01*
X132137961Y-125086856D02*
X132042723Y-125134475D01*
X132042723Y-125134475D02*
X131852247Y-125182094D01*
X131852247Y-125182094D02*
X131709390Y-125182094D01*
X131709390Y-125182094D02*
X131518914Y-125134475D01*
X131518914Y-125134475D02*
X131423676Y-125086856D01*
X131423676Y-125086856D02*
X131328438Y-124991618D01*
X131328438Y-124991618D02*
X131280819Y-124848761D01*
X131280819Y-124848761D02*
X131280819Y-124753523D01*
X131280819Y-124753523D02*
X131328438Y-124610666D01*
X131328438Y-124610666D02*
X131376057Y-124563047D01*
X131614152Y-123705904D02*
X132280819Y-123705904D01*
X131233200Y-123943999D02*
X131947485Y-124182094D01*
X131947485Y-124182094D02*
X131947485Y-123563047D01*
X131280819Y-122991618D02*
X131280819Y-122896380D01*
X131280819Y-122896380D02*
X131328438Y-122801142D01*
X131328438Y-122801142D02*
X131376057Y-122753523D01*
X131376057Y-122753523D02*
X131471295Y-122705904D01*
X131471295Y-122705904D02*
X131661771Y-122658285D01*
X131661771Y-122658285D02*
X131899866Y-122658285D01*
X131899866Y-122658285D02*
X132090342Y-122705904D01*
X132090342Y-122705904D02*
X132185580Y-122753523D01*
X132185580Y-122753523D02*
X132233200Y-122801142D01*
X132233200Y-122801142D02*
X132280819Y-122896380D01*
X132280819Y-122896380D02*
X132280819Y-122991618D01*
X132280819Y-122991618D02*
X132233200Y-123086856D01*
X132233200Y-123086856D02*
X132185580Y-123134475D01*
X132185580Y-123134475D02*
X132090342Y-123182094D01*
X132090342Y-123182094D02*
X131899866Y-123229713D01*
X131899866Y-123229713D02*
X131661771Y-123229713D01*
X131661771Y-123229713D02*
X131471295Y-123182094D01*
X131471295Y-123182094D02*
X131376057Y-123134475D01*
X131376057Y-123134475D02*
X131328438Y-123086856D01*
X131328438Y-123086856D02*
X131280819Y-122991618D01*
X131280819Y-121801142D02*
X131280819Y-121991618D01*
X131280819Y-121991618D02*
X131328438Y-122086856D01*
X131328438Y-122086856D02*
X131376057Y-122134475D01*
X131376057Y-122134475D02*
X131518914Y-122229713D01*
X131518914Y-122229713D02*
X131709390Y-122277332D01*
X131709390Y-122277332D02*
X132090342Y-122277332D01*
X132090342Y-122277332D02*
X132185580Y-122229713D01*
X132185580Y-122229713D02*
X132233200Y-122182094D01*
X132233200Y-122182094D02*
X132280819Y-122086856D01*
X132280819Y-122086856D02*
X132280819Y-121896380D01*
X132280819Y-121896380D02*
X132233200Y-121801142D01*
X132233200Y-121801142D02*
X132185580Y-121753523D01*
X132185580Y-121753523D02*
X132090342Y-121705904D01*
X132090342Y-121705904D02*
X131852247Y-121705904D01*
X131852247Y-121705904D02*
X131757009Y-121753523D01*
X131757009Y-121753523D02*
X131709390Y-121801142D01*
X131709390Y-121801142D02*
X131661771Y-121896380D01*
X131661771Y-121896380D02*
X131661771Y-122086856D01*
X131661771Y-122086856D02*
X131709390Y-122182094D01*
X131709390Y-122182094D02*
X131757009Y-122229713D01*
X131757009Y-122229713D02*
X131852247Y-122277332D01*
X147515452Y-128784580D02*
X147467833Y-128832200D01*
X147467833Y-128832200D02*
X147324976Y-128879819D01*
X147324976Y-128879819D02*
X147229738Y-128879819D01*
X147229738Y-128879819D02*
X147086881Y-128832200D01*
X147086881Y-128832200D02*
X146991643Y-128736961D01*
X146991643Y-128736961D02*
X146944024Y-128641723D01*
X146944024Y-128641723D02*
X146896405Y-128451247D01*
X146896405Y-128451247D02*
X146896405Y-128308390D01*
X146896405Y-128308390D02*
X146944024Y-128117914D01*
X146944024Y-128117914D02*
X146991643Y-128022676D01*
X146991643Y-128022676D02*
X147086881Y-127927438D01*
X147086881Y-127927438D02*
X147229738Y-127879819D01*
X147229738Y-127879819D02*
X147324976Y-127879819D01*
X147324976Y-127879819D02*
X147467833Y-127927438D01*
X147467833Y-127927438D02*
X147515452Y-127975057D01*
X148372595Y-128213152D02*
X148372595Y-128879819D01*
X148134500Y-127832200D02*
X147896405Y-128546485D01*
X147896405Y-128546485D02*
X148515452Y-128546485D01*
X149086881Y-127879819D02*
X149182119Y-127879819D01*
X149182119Y-127879819D02*
X149277357Y-127927438D01*
X149277357Y-127927438D02*
X149324976Y-127975057D01*
X149324976Y-127975057D02*
X149372595Y-128070295D01*
X149372595Y-128070295D02*
X149420214Y-128260771D01*
X149420214Y-128260771D02*
X149420214Y-128498866D01*
X149420214Y-128498866D02*
X149372595Y-128689342D01*
X149372595Y-128689342D02*
X149324976Y-128784580D01*
X149324976Y-128784580D02*
X149277357Y-128832200D01*
X149277357Y-128832200D02*
X149182119Y-128879819D01*
X149182119Y-128879819D02*
X149086881Y-128879819D01*
X149086881Y-128879819D02*
X148991643Y-128832200D01*
X148991643Y-128832200D02*
X148944024Y-128784580D01*
X148944024Y-128784580D02*
X148896405Y-128689342D01*
X148896405Y-128689342D02*
X148848786Y-128498866D01*
X148848786Y-128498866D02*
X148848786Y-128260771D01*
X148848786Y-128260771D02*
X148896405Y-128070295D01*
X148896405Y-128070295D02*
X148944024Y-127975057D01*
X148944024Y-127975057D02*
X148991643Y-127927438D01*
X148991643Y-127927438D02*
X149086881Y-127879819D01*
X149753548Y-127879819D02*
X150420214Y-127879819D01*
X150420214Y-127879819D02*
X149991643Y-128879819D01*
X171650819Y-146026047D02*
X171174628Y-146359380D01*
X171650819Y-146597475D02*
X170650819Y-146597475D01*
X170650819Y-146597475D02*
X170650819Y-146216523D01*
X170650819Y-146216523D02*
X170698438Y-146121285D01*
X170698438Y-146121285D02*
X170746057Y-146073666D01*
X170746057Y-146073666D02*
X170841295Y-146026047D01*
X170841295Y-146026047D02*
X170984152Y-146026047D01*
X170984152Y-146026047D02*
X171079390Y-146073666D01*
X171079390Y-146073666D02*
X171127009Y-146121285D01*
X171127009Y-146121285D02*
X171174628Y-146216523D01*
X171174628Y-146216523D02*
X171174628Y-146597475D01*
X170984152Y-145168904D02*
X171650819Y-145168904D01*
X170603200Y-145406999D02*
X171317485Y-145645094D01*
X171317485Y-145645094D02*
X171317485Y-145026047D01*
X171650819Y-144121285D02*
X171650819Y-144692713D01*
X171650819Y-144406999D02*
X170650819Y-144406999D01*
X170650819Y-144406999D02*
X170793676Y-144502237D01*
X170793676Y-144502237D02*
X170888914Y-144597475D01*
X170888914Y-144597475D02*
X170936533Y-144692713D01*
X170984152Y-143264142D02*
X171650819Y-143264142D01*
X170603200Y-143502237D02*
X171317485Y-143740332D01*
X171317485Y-143740332D02*
X171317485Y-143121285D01*
X132484285Y-58684819D02*
X132484285Y-59399104D01*
X132484285Y-59399104D02*
X132436666Y-59541961D01*
X132436666Y-59541961D02*
X132341428Y-59637200D01*
X132341428Y-59637200D02*
X132198571Y-59684819D01*
X132198571Y-59684819D02*
X132103333Y-59684819D01*
X133436666Y-58684819D02*
X132960476Y-58684819D01*
X132960476Y-58684819D02*
X132912857Y-59161009D01*
X132912857Y-59161009D02*
X132960476Y-59113390D01*
X132960476Y-59113390D02*
X133055714Y-59065771D01*
X133055714Y-59065771D02*
X133293809Y-59065771D01*
X133293809Y-59065771D02*
X133389047Y-59113390D01*
X133389047Y-59113390D02*
X133436666Y-59161009D01*
X133436666Y-59161009D02*
X133484285Y-59256247D01*
X133484285Y-59256247D02*
X133484285Y-59494342D01*
X133484285Y-59494342D02*
X133436666Y-59589580D01*
X133436666Y-59589580D02*
X133389047Y-59637200D01*
X133389047Y-59637200D02*
X133293809Y-59684819D01*
X133293809Y-59684819D02*
X133055714Y-59684819D01*
X133055714Y-59684819D02*
X132960476Y-59637200D01*
X132960476Y-59637200D02*
X132912857Y-59589580D01*
X134103333Y-58684819D02*
X134198571Y-58684819D01*
X134198571Y-58684819D02*
X134293809Y-58732438D01*
X134293809Y-58732438D02*
X134341428Y-58780057D01*
X134341428Y-58780057D02*
X134389047Y-58875295D01*
X134389047Y-58875295D02*
X134436666Y-59065771D01*
X134436666Y-59065771D02*
X134436666Y-59303866D01*
X134436666Y-59303866D02*
X134389047Y-59494342D01*
X134389047Y-59494342D02*
X134341428Y-59589580D01*
X134341428Y-59589580D02*
X134293809Y-59637200D01*
X134293809Y-59637200D02*
X134198571Y-59684819D01*
X134198571Y-59684819D02*
X134103333Y-59684819D01*
X134103333Y-59684819D02*
X134008095Y-59637200D01*
X134008095Y-59637200D02*
X133960476Y-59589580D01*
X133960476Y-59589580D02*
X133912857Y-59494342D01*
X133912857Y-59494342D02*
X133865238Y-59303866D01*
X133865238Y-59303866D02*
X133865238Y-59065771D01*
X133865238Y-59065771D02*
X133912857Y-58875295D01*
X133912857Y-58875295D02*
X133960476Y-58780057D01*
X133960476Y-58780057D02*
X134008095Y-58732438D01*
X134008095Y-58732438D02*
X134103333Y-58684819D01*
X135389047Y-59684819D02*
X134817619Y-59684819D01*
X135103333Y-59684819D02*
X135103333Y-58684819D01*
X135103333Y-58684819D02*
X135008095Y-58827676D01*
X135008095Y-58827676D02*
X134912857Y-58922914D01*
X134912857Y-58922914D02*
X134817619Y-58970533D01*
X128343819Y-139041047D02*
X127867628Y-139374380D01*
X128343819Y-139612475D02*
X127343819Y-139612475D01*
X127343819Y-139612475D02*
X127343819Y-139231523D01*
X127343819Y-139231523D02*
X127391438Y-139136285D01*
X127391438Y-139136285D02*
X127439057Y-139088666D01*
X127439057Y-139088666D02*
X127534295Y-139041047D01*
X127534295Y-139041047D02*
X127677152Y-139041047D01*
X127677152Y-139041047D02*
X127772390Y-139088666D01*
X127772390Y-139088666D02*
X127820009Y-139136285D01*
X127820009Y-139136285D02*
X127867628Y-139231523D01*
X127867628Y-139231523D02*
X127867628Y-139612475D01*
X127677152Y-138183904D02*
X128343819Y-138183904D01*
X127296200Y-138421999D02*
X128010485Y-138660094D01*
X128010485Y-138660094D02*
X128010485Y-138041047D01*
X127343819Y-137469618D02*
X127343819Y-137374380D01*
X127343819Y-137374380D02*
X127391438Y-137279142D01*
X127391438Y-137279142D02*
X127439057Y-137231523D01*
X127439057Y-137231523D02*
X127534295Y-137183904D01*
X127534295Y-137183904D02*
X127724771Y-137136285D01*
X127724771Y-137136285D02*
X127962866Y-137136285D01*
X127962866Y-137136285D02*
X128153342Y-137183904D01*
X128153342Y-137183904D02*
X128248580Y-137231523D01*
X128248580Y-137231523D02*
X128296200Y-137279142D01*
X128296200Y-137279142D02*
X128343819Y-137374380D01*
X128343819Y-137374380D02*
X128343819Y-137469618D01*
X128343819Y-137469618D02*
X128296200Y-137564856D01*
X128296200Y-137564856D02*
X128248580Y-137612475D01*
X128248580Y-137612475D02*
X128153342Y-137660094D01*
X128153342Y-137660094D02*
X127962866Y-137707713D01*
X127962866Y-137707713D02*
X127724771Y-137707713D01*
X127724771Y-137707713D02*
X127534295Y-137660094D01*
X127534295Y-137660094D02*
X127439057Y-137612475D01*
X127439057Y-137612475D02*
X127391438Y-137564856D01*
X127391438Y-137564856D02*
X127343819Y-137469618D01*
X127772390Y-136564856D02*
X127724771Y-136660094D01*
X127724771Y-136660094D02*
X127677152Y-136707713D01*
X127677152Y-136707713D02*
X127581914Y-136755332D01*
X127581914Y-136755332D02*
X127534295Y-136755332D01*
X127534295Y-136755332D02*
X127439057Y-136707713D01*
X127439057Y-136707713D02*
X127391438Y-136660094D01*
X127391438Y-136660094D02*
X127343819Y-136564856D01*
X127343819Y-136564856D02*
X127343819Y-136374380D01*
X127343819Y-136374380D02*
X127391438Y-136279142D01*
X127391438Y-136279142D02*
X127439057Y-136231523D01*
X127439057Y-136231523D02*
X127534295Y-136183904D01*
X127534295Y-136183904D02*
X127581914Y-136183904D01*
X127581914Y-136183904D02*
X127677152Y-136231523D01*
X127677152Y-136231523D02*
X127724771Y-136279142D01*
X127724771Y-136279142D02*
X127772390Y-136374380D01*
X127772390Y-136374380D02*
X127772390Y-136564856D01*
X127772390Y-136564856D02*
X127820009Y-136660094D01*
X127820009Y-136660094D02*
X127867628Y-136707713D01*
X127867628Y-136707713D02*
X127962866Y-136755332D01*
X127962866Y-136755332D02*
X128153342Y-136755332D01*
X128153342Y-136755332D02*
X128248580Y-136707713D01*
X128248580Y-136707713D02*
X128296200Y-136660094D01*
X128296200Y-136660094D02*
X128343819Y-136564856D01*
X128343819Y-136564856D02*
X128343819Y-136374380D01*
X128343819Y-136374380D02*
X128296200Y-136279142D01*
X128296200Y-136279142D02*
X128248580Y-136231523D01*
X128248580Y-136231523D02*
X128153342Y-136183904D01*
X128153342Y-136183904D02*
X127962866Y-136183904D01*
X127962866Y-136183904D02*
X127867628Y-136231523D01*
X127867628Y-136231523D02*
X127820009Y-136279142D01*
X127820009Y-136279142D02*
X127772390Y-136374380D01*
X209496819Y-94210047D02*
X209020628Y-94543380D01*
X209496819Y-94781475D02*
X208496819Y-94781475D01*
X208496819Y-94781475D02*
X208496819Y-94400523D01*
X208496819Y-94400523D02*
X208544438Y-94305285D01*
X208544438Y-94305285D02*
X208592057Y-94257666D01*
X208592057Y-94257666D02*
X208687295Y-94210047D01*
X208687295Y-94210047D02*
X208830152Y-94210047D01*
X208830152Y-94210047D02*
X208925390Y-94257666D01*
X208925390Y-94257666D02*
X208973009Y-94305285D01*
X208973009Y-94305285D02*
X209020628Y-94400523D01*
X209020628Y-94400523D02*
X209020628Y-94781475D01*
X208592057Y-93829094D02*
X208544438Y-93781475D01*
X208544438Y-93781475D02*
X208496819Y-93686237D01*
X208496819Y-93686237D02*
X208496819Y-93448142D01*
X208496819Y-93448142D02*
X208544438Y-93352904D01*
X208544438Y-93352904D02*
X208592057Y-93305285D01*
X208592057Y-93305285D02*
X208687295Y-93257666D01*
X208687295Y-93257666D02*
X208782533Y-93257666D01*
X208782533Y-93257666D02*
X208925390Y-93305285D01*
X208925390Y-93305285D02*
X209496819Y-93876713D01*
X209496819Y-93876713D02*
X209496819Y-93257666D01*
X209496819Y-92305285D02*
X209496819Y-92876713D01*
X209496819Y-92590999D02*
X208496819Y-92590999D01*
X208496819Y-92590999D02*
X208639676Y-92686237D01*
X208639676Y-92686237D02*
X208734914Y-92781475D01*
X208734914Y-92781475D02*
X208782533Y-92876713D01*
X208496819Y-91971951D02*
X208496819Y-91352904D01*
X208496819Y-91352904D02*
X208877771Y-91686237D01*
X208877771Y-91686237D02*
X208877771Y-91543380D01*
X208877771Y-91543380D02*
X208925390Y-91448142D01*
X208925390Y-91448142D02*
X208973009Y-91400523D01*
X208973009Y-91400523D02*
X209068247Y-91352904D01*
X209068247Y-91352904D02*
X209306342Y-91352904D01*
X209306342Y-91352904D02*
X209401580Y-91400523D01*
X209401580Y-91400523D02*
X209449200Y-91448142D01*
X209449200Y-91448142D02*
X209496819Y-91543380D01*
X209496819Y-91543380D02*
X209496819Y-91829094D01*
X209496819Y-91829094D02*
X209449200Y-91924332D01*
X209449200Y-91924332D02*
X209401580Y-91971951D01*
X201388819Y-148630714D02*
X202103104Y-148630714D01*
X202103104Y-148630714D02*
X202245961Y-148678333D01*
X202245961Y-148678333D02*
X202341200Y-148773571D01*
X202341200Y-148773571D02*
X202388819Y-148916428D01*
X202388819Y-148916428D02*
X202388819Y-149011666D01*
X201388819Y-147725952D02*
X201388819Y-147916428D01*
X201388819Y-147916428D02*
X201436438Y-148011666D01*
X201436438Y-148011666D02*
X201484057Y-148059285D01*
X201484057Y-148059285D02*
X201626914Y-148154523D01*
X201626914Y-148154523D02*
X201817390Y-148202142D01*
X201817390Y-148202142D02*
X202198342Y-148202142D01*
X202198342Y-148202142D02*
X202293580Y-148154523D01*
X202293580Y-148154523D02*
X202341200Y-148106904D01*
X202341200Y-148106904D02*
X202388819Y-148011666D01*
X202388819Y-148011666D02*
X202388819Y-147821190D01*
X202388819Y-147821190D02*
X202341200Y-147725952D01*
X202341200Y-147725952D02*
X202293580Y-147678333D01*
X202293580Y-147678333D02*
X202198342Y-147630714D01*
X202198342Y-147630714D02*
X201960247Y-147630714D01*
X201960247Y-147630714D02*
X201865009Y-147678333D01*
X201865009Y-147678333D02*
X201817390Y-147725952D01*
X201817390Y-147725952D02*
X201769771Y-147821190D01*
X201769771Y-147821190D02*
X201769771Y-148011666D01*
X201769771Y-148011666D02*
X201817390Y-148106904D01*
X201817390Y-148106904D02*
X201865009Y-148154523D01*
X201865009Y-148154523D02*
X201960247Y-148202142D01*
X201388819Y-147011666D02*
X201388819Y-146916428D01*
X201388819Y-146916428D02*
X201436438Y-146821190D01*
X201436438Y-146821190D02*
X201484057Y-146773571D01*
X201484057Y-146773571D02*
X201579295Y-146725952D01*
X201579295Y-146725952D02*
X201769771Y-146678333D01*
X201769771Y-146678333D02*
X202007866Y-146678333D01*
X202007866Y-146678333D02*
X202198342Y-146725952D01*
X202198342Y-146725952D02*
X202293580Y-146773571D01*
X202293580Y-146773571D02*
X202341200Y-146821190D01*
X202341200Y-146821190D02*
X202388819Y-146916428D01*
X202388819Y-146916428D02*
X202388819Y-147011666D01*
X202388819Y-147011666D02*
X202341200Y-147106904D01*
X202341200Y-147106904D02*
X202293580Y-147154523D01*
X202293580Y-147154523D02*
X202198342Y-147202142D01*
X202198342Y-147202142D02*
X202007866Y-147249761D01*
X202007866Y-147249761D02*
X201769771Y-147249761D01*
X201769771Y-147249761D02*
X201579295Y-147202142D01*
X201579295Y-147202142D02*
X201484057Y-147154523D01*
X201484057Y-147154523D02*
X201436438Y-147106904D01*
X201436438Y-147106904D02*
X201388819Y-147011666D01*
X202388819Y-145725952D02*
X202388819Y-146297380D01*
X202388819Y-146011666D02*
X201388819Y-146011666D01*
X201388819Y-146011666D02*
X201531676Y-146106904D01*
X201531676Y-146106904D02*
X201626914Y-146202142D01*
X201626914Y-146202142D02*
X201674533Y-146297380D01*
X195399819Y-94972047D02*
X194923628Y-95305380D01*
X195399819Y-95543475D02*
X194399819Y-95543475D01*
X194399819Y-95543475D02*
X194399819Y-95162523D01*
X194399819Y-95162523D02*
X194447438Y-95067285D01*
X194447438Y-95067285D02*
X194495057Y-95019666D01*
X194495057Y-95019666D02*
X194590295Y-94972047D01*
X194590295Y-94972047D02*
X194733152Y-94972047D01*
X194733152Y-94972047D02*
X194828390Y-95019666D01*
X194828390Y-95019666D02*
X194876009Y-95067285D01*
X194876009Y-95067285D02*
X194923628Y-95162523D01*
X194923628Y-95162523D02*
X194923628Y-95543475D01*
X194495057Y-94591094D02*
X194447438Y-94543475D01*
X194447438Y-94543475D02*
X194399819Y-94448237D01*
X194399819Y-94448237D02*
X194399819Y-94210142D01*
X194399819Y-94210142D02*
X194447438Y-94114904D01*
X194447438Y-94114904D02*
X194495057Y-94067285D01*
X194495057Y-94067285D02*
X194590295Y-94019666D01*
X194590295Y-94019666D02*
X194685533Y-94019666D01*
X194685533Y-94019666D02*
X194828390Y-94067285D01*
X194828390Y-94067285D02*
X195399819Y-94638713D01*
X195399819Y-94638713D02*
X195399819Y-94019666D01*
X194399819Y-93400618D02*
X194399819Y-93305380D01*
X194399819Y-93305380D02*
X194447438Y-93210142D01*
X194447438Y-93210142D02*
X194495057Y-93162523D01*
X194495057Y-93162523D02*
X194590295Y-93114904D01*
X194590295Y-93114904D02*
X194780771Y-93067285D01*
X194780771Y-93067285D02*
X195018866Y-93067285D01*
X195018866Y-93067285D02*
X195209342Y-93114904D01*
X195209342Y-93114904D02*
X195304580Y-93162523D01*
X195304580Y-93162523D02*
X195352200Y-93210142D01*
X195352200Y-93210142D02*
X195399819Y-93305380D01*
X195399819Y-93305380D02*
X195399819Y-93400618D01*
X195399819Y-93400618D02*
X195352200Y-93495856D01*
X195352200Y-93495856D02*
X195304580Y-93543475D01*
X195304580Y-93543475D02*
X195209342Y-93591094D01*
X195209342Y-93591094D02*
X195018866Y-93638713D01*
X195018866Y-93638713D02*
X194780771Y-93638713D01*
X194780771Y-93638713D02*
X194590295Y-93591094D01*
X194590295Y-93591094D02*
X194495057Y-93543475D01*
X194495057Y-93543475D02*
X194447438Y-93495856D01*
X194447438Y-93495856D02*
X194399819Y-93400618D01*
X194495057Y-92686332D02*
X194447438Y-92638713D01*
X194447438Y-92638713D02*
X194399819Y-92543475D01*
X194399819Y-92543475D02*
X194399819Y-92305380D01*
X194399819Y-92305380D02*
X194447438Y-92210142D01*
X194447438Y-92210142D02*
X194495057Y-92162523D01*
X194495057Y-92162523D02*
X194590295Y-92114904D01*
X194590295Y-92114904D02*
X194685533Y-92114904D01*
X194685533Y-92114904D02*
X194828390Y-92162523D01*
X194828390Y-92162523D02*
X195399819Y-92733951D01*
X195399819Y-92733951D02*
X195399819Y-92114904D01*
X204416819Y-88114047D02*
X203940628Y-88447380D01*
X204416819Y-88685475D02*
X203416819Y-88685475D01*
X203416819Y-88685475D02*
X203416819Y-88304523D01*
X203416819Y-88304523D02*
X203464438Y-88209285D01*
X203464438Y-88209285D02*
X203512057Y-88161666D01*
X203512057Y-88161666D02*
X203607295Y-88114047D01*
X203607295Y-88114047D02*
X203750152Y-88114047D01*
X203750152Y-88114047D02*
X203845390Y-88161666D01*
X203845390Y-88161666D02*
X203893009Y-88209285D01*
X203893009Y-88209285D02*
X203940628Y-88304523D01*
X203940628Y-88304523D02*
X203940628Y-88685475D01*
X203512057Y-87733094D02*
X203464438Y-87685475D01*
X203464438Y-87685475D02*
X203416819Y-87590237D01*
X203416819Y-87590237D02*
X203416819Y-87352142D01*
X203416819Y-87352142D02*
X203464438Y-87256904D01*
X203464438Y-87256904D02*
X203512057Y-87209285D01*
X203512057Y-87209285D02*
X203607295Y-87161666D01*
X203607295Y-87161666D02*
X203702533Y-87161666D01*
X203702533Y-87161666D02*
X203845390Y-87209285D01*
X203845390Y-87209285D02*
X204416819Y-87780713D01*
X204416819Y-87780713D02*
X204416819Y-87161666D01*
X203416819Y-86542618D02*
X203416819Y-86447380D01*
X203416819Y-86447380D02*
X203464438Y-86352142D01*
X203464438Y-86352142D02*
X203512057Y-86304523D01*
X203512057Y-86304523D02*
X203607295Y-86256904D01*
X203607295Y-86256904D02*
X203797771Y-86209285D01*
X203797771Y-86209285D02*
X204035866Y-86209285D01*
X204035866Y-86209285D02*
X204226342Y-86256904D01*
X204226342Y-86256904D02*
X204321580Y-86304523D01*
X204321580Y-86304523D02*
X204369200Y-86352142D01*
X204369200Y-86352142D02*
X204416819Y-86447380D01*
X204416819Y-86447380D02*
X204416819Y-86542618D01*
X204416819Y-86542618D02*
X204369200Y-86637856D01*
X204369200Y-86637856D02*
X204321580Y-86685475D01*
X204321580Y-86685475D02*
X204226342Y-86733094D01*
X204226342Y-86733094D02*
X204035866Y-86780713D01*
X204035866Y-86780713D02*
X203797771Y-86780713D01*
X203797771Y-86780713D02*
X203607295Y-86733094D01*
X203607295Y-86733094D02*
X203512057Y-86685475D01*
X203512057Y-86685475D02*
X203464438Y-86637856D01*
X203464438Y-86637856D02*
X203416819Y-86542618D01*
X203416819Y-85304523D02*
X203416819Y-85780713D01*
X203416819Y-85780713D02*
X203893009Y-85828332D01*
X203893009Y-85828332D02*
X203845390Y-85780713D01*
X203845390Y-85780713D02*
X203797771Y-85685475D01*
X203797771Y-85685475D02*
X203797771Y-85447380D01*
X203797771Y-85447380D02*
X203845390Y-85352142D01*
X203845390Y-85352142D02*
X203893009Y-85304523D01*
X203893009Y-85304523D02*
X203988247Y-85256904D01*
X203988247Y-85256904D02*
X204226342Y-85256904D01*
X204226342Y-85256904D02*
X204321580Y-85304523D01*
X204321580Y-85304523D02*
X204369200Y-85352142D01*
X204369200Y-85352142D02*
X204416819Y-85447380D01*
X204416819Y-85447380D02*
X204416819Y-85685475D01*
X204416819Y-85685475D02*
X204369200Y-85780713D01*
X204369200Y-85780713D02*
X204321580Y-85828332D01*
X214944285Y-58684819D02*
X214944285Y-59399104D01*
X214944285Y-59399104D02*
X214896666Y-59541961D01*
X214896666Y-59541961D02*
X214801428Y-59637200D01*
X214801428Y-59637200D02*
X214658571Y-59684819D01*
X214658571Y-59684819D02*
X214563333Y-59684819D01*
X215896666Y-58684819D02*
X215420476Y-58684819D01*
X215420476Y-58684819D02*
X215372857Y-59161009D01*
X215372857Y-59161009D02*
X215420476Y-59113390D01*
X215420476Y-59113390D02*
X215515714Y-59065771D01*
X215515714Y-59065771D02*
X215753809Y-59065771D01*
X215753809Y-59065771D02*
X215849047Y-59113390D01*
X215849047Y-59113390D02*
X215896666Y-59161009D01*
X215896666Y-59161009D02*
X215944285Y-59256247D01*
X215944285Y-59256247D02*
X215944285Y-59494342D01*
X215944285Y-59494342D02*
X215896666Y-59589580D01*
X215896666Y-59589580D02*
X215849047Y-59637200D01*
X215849047Y-59637200D02*
X215753809Y-59684819D01*
X215753809Y-59684819D02*
X215515714Y-59684819D01*
X215515714Y-59684819D02*
X215420476Y-59637200D01*
X215420476Y-59637200D02*
X215372857Y-59589580D01*
X216563333Y-58684819D02*
X216658571Y-58684819D01*
X216658571Y-58684819D02*
X216753809Y-58732438D01*
X216753809Y-58732438D02*
X216801428Y-58780057D01*
X216801428Y-58780057D02*
X216849047Y-58875295D01*
X216849047Y-58875295D02*
X216896666Y-59065771D01*
X216896666Y-59065771D02*
X216896666Y-59303866D01*
X216896666Y-59303866D02*
X216849047Y-59494342D01*
X216849047Y-59494342D02*
X216801428Y-59589580D01*
X216801428Y-59589580D02*
X216753809Y-59637200D01*
X216753809Y-59637200D02*
X216658571Y-59684819D01*
X216658571Y-59684819D02*
X216563333Y-59684819D01*
X216563333Y-59684819D02*
X216468095Y-59637200D01*
X216468095Y-59637200D02*
X216420476Y-59589580D01*
X216420476Y-59589580D02*
X216372857Y-59494342D01*
X216372857Y-59494342D02*
X216325238Y-59303866D01*
X216325238Y-59303866D02*
X216325238Y-59065771D01*
X216325238Y-59065771D02*
X216372857Y-58875295D01*
X216372857Y-58875295D02*
X216420476Y-58780057D01*
X216420476Y-58780057D02*
X216468095Y-58732438D01*
X216468095Y-58732438D02*
X216563333Y-58684819D01*
X217277619Y-58780057D02*
X217325238Y-58732438D01*
X217325238Y-58732438D02*
X217420476Y-58684819D01*
X217420476Y-58684819D02*
X217658571Y-58684819D01*
X217658571Y-58684819D02*
X217753809Y-58732438D01*
X217753809Y-58732438D02*
X217801428Y-58780057D01*
X217801428Y-58780057D02*
X217849047Y-58875295D01*
X217849047Y-58875295D02*
X217849047Y-58970533D01*
X217849047Y-58970533D02*
X217801428Y-59113390D01*
X217801428Y-59113390D02*
X217230000Y-59684819D01*
X217230000Y-59684819D02*
X217849047Y-59684819D01*
X151661952Y-140916819D02*
X151328619Y-140440628D01*
X151090524Y-140916819D02*
X151090524Y-139916819D01*
X151090524Y-139916819D02*
X151471476Y-139916819D01*
X151471476Y-139916819D02*
X151566714Y-139964438D01*
X151566714Y-139964438D02*
X151614333Y-140012057D01*
X151614333Y-140012057D02*
X151661952Y-140107295D01*
X151661952Y-140107295D02*
X151661952Y-140250152D01*
X151661952Y-140250152D02*
X151614333Y-140345390D01*
X151614333Y-140345390D02*
X151566714Y-140393009D01*
X151566714Y-140393009D02*
X151471476Y-140440628D01*
X151471476Y-140440628D02*
X151090524Y-140440628D01*
X152519095Y-140250152D02*
X152519095Y-140916819D01*
X152281000Y-139869200D02*
X152042905Y-140583485D01*
X152042905Y-140583485D02*
X152661952Y-140583485D01*
X153233381Y-139916819D02*
X153328619Y-139916819D01*
X153328619Y-139916819D02*
X153423857Y-139964438D01*
X153423857Y-139964438D02*
X153471476Y-140012057D01*
X153471476Y-140012057D02*
X153519095Y-140107295D01*
X153519095Y-140107295D02*
X153566714Y-140297771D01*
X153566714Y-140297771D02*
X153566714Y-140535866D01*
X153566714Y-140535866D02*
X153519095Y-140726342D01*
X153519095Y-140726342D02*
X153471476Y-140821580D01*
X153471476Y-140821580D02*
X153423857Y-140869200D01*
X153423857Y-140869200D02*
X153328619Y-140916819D01*
X153328619Y-140916819D02*
X153233381Y-140916819D01*
X153233381Y-140916819D02*
X153138143Y-140869200D01*
X153138143Y-140869200D02*
X153090524Y-140821580D01*
X153090524Y-140821580D02*
X153042905Y-140726342D01*
X153042905Y-140726342D02*
X152995286Y-140535866D01*
X152995286Y-140535866D02*
X152995286Y-140297771D01*
X152995286Y-140297771D02*
X153042905Y-140107295D01*
X153042905Y-140107295D02*
X153090524Y-140012057D01*
X153090524Y-140012057D02*
X153138143Y-139964438D01*
X153138143Y-139964438D02*
X153233381Y-139916819D01*
X153900048Y-139916819D02*
X154566714Y-139916819D01*
X154566714Y-139916819D02*
X154138143Y-140916819D01*
D11*
%TO.C,C601*%
X217168000Y-130455580D02*
X217168000Y-130174420D01*
X218188000Y-130455580D02*
X218188000Y-130174420D01*
%TO.C,Y201*%
X143650000Y-110390000D02*
X144050000Y-110390000D01*
X143650000Y-114410000D02*
X143650000Y-110390000D01*
X143650000Y-114410000D02*
X144050000Y-114410000D01*
X149550000Y-110390000D02*
X145950000Y-110390000D01*
X149550000Y-110390000D02*
X149550000Y-109800000D01*
X149550000Y-114410000D02*
X145950000Y-114410000D01*
X151450000Y-109800000D02*
X151450000Y-110390000D01*
X151850000Y-110390000D02*
X151450000Y-110390000D01*
X151850000Y-114410000D02*
X151450000Y-114410000D01*
X151850000Y-114410000D02*
X151850000Y-110390000D01*
%TO.C,R203*%
X192771500Y-90661258D02*
X192771500Y-90186742D01*
X193816500Y-90661258D02*
X193816500Y-90186742D01*
%TO.C,R409*%
X128763500Y-134540258D02*
X128763500Y-134065742D01*
X129808500Y-134540258D02*
X129808500Y-134065742D01*
%TO.C,R219*%
X201661500Y-95804258D02*
X201661500Y-95329742D01*
X202706500Y-95804258D02*
X202706500Y-95329742D01*
%TO.C,C402*%
X156797500Y-79955000D02*
X160717500Y-79955000D01*
X160717500Y-78045000D02*
X156797500Y-78045000D01*
X160717500Y-79955000D02*
X160717500Y-78045000D01*
%TO.C,C602*%
X193546000Y-122835580D02*
X193546000Y-122554420D01*
X194566000Y-122835580D02*
X194566000Y-122554420D01*
%TO.C,D404*%
X168605000Y-151990000D02*
X167050000Y-151990000D01*
X172260000Y-151990000D02*
X170450000Y-151990000D01*
X172260000Y-152600000D02*
X172260000Y-151990000D01*
%TO.C,D201*%
X166865000Y-110400000D02*
X166865000Y-114285000D01*
X166865000Y-114285000D02*
X169135000Y-114285000D01*
X169135000Y-114285000D02*
X169135000Y-110400000D01*
%TO.C,C201*%
X168015000Y-118252867D02*
X168015000Y-119302867D01*
X168540000Y-118777867D02*
X167490000Y-118777867D01*
X170370000Y-124000000D02*
G75*
G02*
X159630000Y-124000000I-5370000J0D01*
G01*
X159630000Y-124000000D02*
G75*
G02*
X170370000Y-124000000I5370000J0D01*
G01*
%TO.C,U204*%
X200152000Y-99993000D02*
X197952000Y-99993000D01*
X200152000Y-99993000D02*
X202352000Y-99993000D01*
X200152000Y-106763000D02*
X197952000Y-106763000D01*
X200152000Y-106763000D02*
X202352000Y-106763000D01*
X196292000Y-100453000D02*
X195962000Y-100693000D01*
X195962000Y-100213000D01*
X196292000Y-100453000D01*
G36*
X196292000Y-100453000D02*
G01*
X195962000Y-100693000D01*
X195962000Y-100213000D01*
X196292000Y-100453000D01*
G37*
%TO.C,C302*%
X147572000Y-73316420D02*
X147572000Y-73597580D01*
X148592000Y-73316420D02*
X148592000Y-73597580D01*
%TO.C,R220*%
X200137500Y-95804258D02*
X200137500Y-95329742D01*
X201182500Y-95804258D02*
X201182500Y-95329742D01*
%TO.C,R401*%
X161227500Y-80562258D02*
X161227500Y-80087742D01*
X162272500Y-80562258D02*
X162272500Y-80087742D01*
%TO.C,U401*%
X165630000Y-69540000D02*
X165630000Y-75700000D01*
X165630000Y-69540000D02*
X183870000Y-69540000D01*
X165630000Y-94500000D02*
X165630000Y-95280000D01*
X165630000Y-95280000D02*
X166630000Y-95280000D01*
X183870000Y-69540000D02*
X183870000Y-75955000D01*
X183870000Y-94500000D02*
X183870000Y-95280000D01*
X183870000Y-95280000D02*
X182870000Y-95280000D01*
X165625000Y-76425000D02*
X165125000Y-76425000D01*
X165625000Y-75925000D01*
X165625000Y-76425000D01*
G36*
X165625000Y-76425000D02*
G01*
X165125000Y-76425000D01*
X165625000Y-75925000D01*
X165625000Y-76425000D01*
G37*
%TO.C,D202*%
X166611500Y-108431000D02*
X168896500Y-108431000D01*
X168896500Y-106961000D02*
X166611500Y-106961000D01*
X168896500Y-108431000D02*
X168896500Y-106961000D01*
%TO.C,R217*%
X209535500Y-108204724D02*
X209535500Y-107695276D01*
X210580500Y-108204724D02*
X210580500Y-107695276D01*
%TO.C,J602*%
X188134000Y-140585000D02*
X189464000Y-140585000D01*
X188134000Y-141695000D02*
X188134000Y-140585000D01*
X188134000Y-145695000D02*
X200954000Y-145695000D01*
X188134000Y-154325000D02*
X188134000Y-145695000D01*
X188134000Y-154325000D02*
X200954000Y-154325000D01*
X188254000Y-154325000D02*
X188254000Y-145695000D01*
X188372095Y-154325000D02*
X188372095Y-145695000D01*
X188490190Y-154325000D02*
X188490190Y-145695000D01*
X188608285Y-154325000D02*
X188608285Y-145695000D01*
X188726380Y-154325000D02*
X188726380Y-145695000D01*
X188844475Y-154325000D02*
X188844475Y-145695000D01*
X188962570Y-154325000D02*
X188962570Y-145695000D01*
X189080665Y-154325000D02*
X189080665Y-145695000D01*
X189104000Y-143185000D02*
X189104000Y-142805000D01*
X189104000Y-145695000D02*
X189104000Y-145285000D01*
X189198760Y-154325000D02*
X189198760Y-145695000D01*
X189316855Y-154325000D02*
X189316855Y-145695000D01*
X189434950Y-154325000D02*
X189434950Y-145695000D01*
X189553045Y-154325000D02*
X189553045Y-145695000D01*
X189671140Y-154325000D02*
X189671140Y-145695000D01*
X189789235Y-154325000D02*
X189789235Y-145695000D01*
X189824000Y-143185000D02*
X189824000Y-142805000D01*
X189824000Y-145695000D02*
X189824000Y-145285000D01*
X189907330Y-154325000D02*
X189907330Y-145695000D01*
X190025425Y-154325000D02*
X190025425Y-145695000D01*
X190143520Y-154325000D02*
X190143520Y-145695000D01*
X190261615Y-154325000D02*
X190261615Y-145695000D01*
X190379710Y-154325000D02*
X190379710Y-145695000D01*
X190497805Y-154325000D02*
X190497805Y-145695000D01*
X190615900Y-154325000D02*
X190615900Y-145695000D01*
X190734000Y-154325000D02*
X190734000Y-145695000D01*
X191644000Y-143185000D02*
X191644000Y-142745000D01*
X191644000Y-145695000D02*
X191644000Y-145285000D01*
X192364000Y-143185000D02*
X192364000Y-142745000D01*
X192364000Y-145695000D02*
X192364000Y-145285000D01*
X193274000Y-154325000D02*
X193274000Y-145695000D01*
X194184000Y-143185000D02*
X194184000Y-142745000D01*
X194184000Y-145695000D02*
X194184000Y-145285000D01*
X194904000Y-143185000D02*
X194904000Y-142745000D01*
X194904000Y-145695000D02*
X194904000Y-145285000D01*
X195814000Y-154325000D02*
X195814000Y-145695000D01*
X196724000Y-143185000D02*
X196724000Y-142745000D01*
X196724000Y-145695000D02*
X196724000Y-145285000D01*
X197444000Y-143185000D02*
X197444000Y-142745000D01*
X197444000Y-145695000D02*
X197444000Y-145285000D01*
X198354000Y-154325000D02*
X198354000Y-145695000D01*
X199264000Y-143185000D02*
X199264000Y-142745000D01*
X199264000Y-145695000D02*
X199264000Y-145285000D01*
X199984000Y-143185000D02*
X199984000Y-142745000D01*
X199984000Y-145695000D02*
X199984000Y-145285000D01*
X200954000Y-154325000D02*
X200954000Y-145695000D01*
%TO.C,R411*%
X161727500Y-148737258D02*
X161727500Y-148262742D01*
X162772500Y-148737258D02*
X162772500Y-148262742D01*
%TO.C,R204*%
X170641742Y-107173500D02*
X171116258Y-107173500D01*
X170641742Y-108218500D02*
X171116258Y-108218500D01*
%TO.C,U301*%
X139704500Y-64282000D02*
X139704500Y-70702000D01*
X139704500Y-70702000D02*
X139974500Y-70702000D01*
X146604500Y-64282000D02*
X146604500Y-70702000D01*
X146604500Y-70702000D02*
X146334500Y-70702000D01*
X140014500Y-72432000D02*
X139544500Y-72772000D01*
X139544500Y-72092000D01*
X140014500Y-72432000D01*
G36*
X140014500Y-72432000D02*
G01*
X139544500Y-72772000D01*
X139544500Y-72092000D01*
X140014500Y-72432000D01*
G37*
%TO.C,R301*%
X150639500Y-79369258D02*
X150639500Y-78894742D01*
X151684500Y-79369258D02*
X151684500Y-78894742D01*
%TO.C,R214*%
X193722258Y-97521500D02*
X193247742Y-97521500D01*
X193722258Y-98566500D02*
X193247742Y-98566500D01*
%TO.C,R406*%
X148797742Y-135367500D02*
X149272258Y-135367500D01*
X148797742Y-136412500D02*
X149272258Y-136412500D01*
%TO.C,R410*%
X219816000Y-68229564D02*
X219816000Y-66775436D01*
X221636000Y-68229564D02*
X221636000Y-66775436D01*
%TO.C,D403*%
X161605000Y-151990000D02*
X160050000Y-151990000D01*
X165260000Y-151990000D02*
X163450000Y-151990000D01*
X165260000Y-152600000D02*
X165260000Y-151990000D01*
%TO.C,D402*%
X128551000Y-130289500D02*
X128551000Y-132574500D01*
X128551000Y-132574500D02*
X130021000Y-132574500D01*
X130021000Y-132574500D02*
X130021000Y-130289500D01*
%TO.C,R209*%
X205471500Y-96368776D02*
X205471500Y-96878224D01*
X206516500Y-96368776D02*
X206516500Y-96878224D01*
%TO.C,U201*%
X176500000Y-104440000D02*
X174550000Y-104440000D01*
X176500000Y-104440000D02*
X178450000Y-104440000D01*
X176500000Y-109560000D02*
X174550000Y-109560000D01*
X176500000Y-109560000D02*
X178450000Y-109560000D01*
X173800000Y-104535000D02*
X173560000Y-104205000D01*
X174040000Y-104205000D01*
X173800000Y-104535000D01*
G36*
X173800000Y-104535000D02*
G01*
X173560000Y-104205000D01*
X174040000Y-104205000D01*
X173800000Y-104535000D01*
G37*
%TO.C,U207*%
X156240000Y-103740000D02*
X156240000Y-104010000D01*
X156240000Y-109260000D02*
X156240000Y-108990000D01*
X159000000Y-103740000D02*
X156240000Y-103740000D01*
X159000000Y-103740000D02*
X161760000Y-103740000D01*
X159000000Y-109260000D02*
X156240000Y-109260000D01*
X159000000Y-109260000D02*
X161760000Y-109260000D01*
X161760000Y-103740000D02*
X161760000Y-104010000D01*
X161760000Y-109260000D02*
X161760000Y-108990000D01*
X155475000Y-104010000D02*
X155235000Y-103680000D01*
X155715000Y-103680000D01*
X155475000Y-104010000D01*
G36*
X155475000Y-104010000D02*
G01*
X155235000Y-103680000D01*
X155715000Y-103680000D01*
X155475000Y-104010000D01*
G37*
%TO.C,R218*%
X193722258Y-100569500D02*
X193247742Y-100569500D01*
X193722258Y-101614500D02*
X193247742Y-101614500D01*
%TO.C,R404*%
X148797742Y-136891500D02*
X149272258Y-136891500D01*
X148797742Y-137936500D02*
X149272258Y-137936500D01*
%TO.C,R216*%
X193722258Y-99045500D02*
X193247742Y-99045500D01*
X193722258Y-100090500D02*
X193247742Y-100090500D01*
%TO.C,R413*%
X168727500Y-148737258D02*
X168727500Y-148262742D01*
X169772500Y-148737258D02*
X169772500Y-148262742D01*
%TO.C,R211*%
X206995500Y-96368776D02*
X206995500Y-96878224D01*
X208040500Y-96368776D02*
X208040500Y-96878224D01*
%TO.C,R412*%
X163727500Y-148737258D02*
X163727500Y-148262742D01*
X164772500Y-148737258D02*
X164772500Y-148262742D01*
%TO.C,C405*%
X133094000Y-127153580D02*
X133094000Y-126872420D01*
X134114000Y-127153580D02*
X134114000Y-126872420D01*
%TO.C,C404*%
X185672000Y-95871420D02*
X185672000Y-96152580D01*
X186692000Y-95871420D02*
X186692000Y-96152580D01*
%TO.C,SW102*%
X149130000Y-146955000D02*
X150020000Y-146955000D01*
X149130000Y-147255000D02*
X149130000Y-146955000D01*
X149130000Y-149895000D02*
X149130000Y-153745000D01*
X149130000Y-153745000D02*
X156870000Y-153745000D01*
X150020000Y-146955000D02*
X150020000Y-147305000D01*
X155490000Y-149505000D02*
X150510000Y-149505000D01*
X155980000Y-146955000D02*
X155980000Y-147305000D01*
X155980000Y-146955000D02*
X156870000Y-146955000D01*
X156870000Y-147255000D02*
X156870000Y-146955000D01*
X156870000Y-153745000D02*
X156870000Y-149895000D01*
%TO.C,C401*%
X159115580Y-80990000D02*
X158834420Y-80990000D01*
X159115580Y-82010000D02*
X158834420Y-82010000D01*
%TO.C,U203*%
X156390000Y-112390000D02*
X159610000Y-112390000D01*
X156390000Y-112565000D02*
X156390000Y-112390000D01*
X156390000Y-115610000D02*
X156390000Y-115435000D01*
X159610000Y-112390000D02*
X159610000Y-112565000D01*
X159610000Y-115435000D02*
X159610000Y-115610000D01*
X159610000Y-115610000D02*
X156390000Y-115610000D01*
X155840000Y-112560000D02*
X155600000Y-112230000D01*
X156080000Y-112230000D01*
X155840000Y-112560000D01*
G36*
X155840000Y-112560000D02*
G01*
X155600000Y-112230000D01*
X156080000Y-112230000D01*
X155840000Y-112560000D01*
G37*
%TO.C,C203*%
X151084420Y-116490000D02*
X151365580Y-116490000D01*
X151084420Y-117510000D02*
X151365580Y-117510000D01*
%TO.C,U601*%
X198417500Y-121349000D02*
X198417500Y-121639000D01*
X198417500Y-136969000D02*
X198417500Y-136679000D01*
X202277500Y-121349000D02*
X198417500Y-121349000D01*
X202277500Y-121349000D02*
X206137500Y-121349000D01*
X202277500Y-136969000D02*
X198417500Y-136969000D01*
X202277500Y-136969000D02*
X206137500Y-136969000D01*
X206137500Y-121349000D02*
X206137500Y-121639000D01*
X206137500Y-136969000D02*
X206137500Y-136679000D01*
X197577500Y-121639000D02*
X197237500Y-121169000D01*
X197917500Y-121169000D01*
X197577500Y-121639000D01*
G36*
X197577500Y-121639000D02*
G01*
X197237500Y-121169000D01*
X197917500Y-121169000D01*
X197577500Y-121639000D01*
G37*
%TO.C,D401*%
X128551000Y-139459500D02*
X128551000Y-141744500D01*
X130021000Y-139459500D02*
X128551000Y-139459500D01*
X130021000Y-141744500D02*
X130021000Y-139459500D01*
%TO.C,Q602*%
X188214000Y-134076000D02*
X187564000Y-134076000D01*
X188214000Y-134076000D02*
X188864000Y-134076000D01*
X188214000Y-137196000D02*
X187564000Y-137196000D01*
X188214000Y-137196000D02*
X188864000Y-137196000D01*
X187051500Y-134126000D02*
X186811500Y-133796000D01*
X187291500Y-133796000D01*
X187051500Y-134126000D01*
G36*
X187051500Y-134126000D02*
G01*
X186811500Y-133796000D01*
X187291500Y-133796000D01*
X187051500Y-134126000D01*
G37*
%TO.C,Q601*%
X215470500Y-134076000D02*
X214820500Y-134076000D01*
X215470500Y-134076000D02*
X216120500Y-134076000D01*
X215470500Y-137196000D02*
X214820500Y-137196000D01*
X215470500Y-137196000D02*
X216120500Y-137196000D01*
X214308000Y-134126000D02*
X214068000Y-133796000D01*
X214548000Y-133796000D01*
X214308000Y-134126000D01*
G36*
X214308000Y-134126000D02*
G01*
X214068000Y-133796000D01*
X214548000Y-133796000D01*
X214308000Y-134126000D01*
G37*
%TO.C,R206*%
X201915500Y-90661258D02*
X201915500Y-90186742D01*
X202960500Y-90661258D02*
X202960500Y-90186742D01*
%TO.C,C403*%
X158615580Y-76490000D02*
X158334420Y-76490000D01*
X158615580Y-77510000D02*
X158334420Y-77510000D01*
%TO.C,R201*%
X164477500Y-116437742D02*
X164477500Y-116912258D01*
X165522500Y-116437742D02*
X165522500Y-116912258D01*
%TO.C,SW101*%
X184332000Y-103022000D02*
X188032000Y-103022000D01*
X184332000Y-109142000D02*
X184332000Y-103022000D01*
X188032000Y-103022000D02*
X188032000Y-109142000D01*
X188032000Y-109142000D02*
X184332000Y-109142000D01*
%TO.C,D301*%
X152427000Y-78219500D02*
X152427000Y-80504500D01*
X152427000Y-80504500D02*
X153897000Y-80504500D01*
X153897000Y-80504500D02*
X153897000Y-78219500D01*
%TO.C,J101*%
X135640000Y-149777000D02*
X135640000Y-147177000D01*
X135640000Y-152677000D02*
X135640000Y-154337000D01*
X135640000Y-154337000D02*
X143560000Y-154337000D01*
X136400000Y-144867000D02*
X137550000Y-144867000D01*
X137550000Y-144277000D02*
X138250000Y-144277000D01*
X137550000Y-144867000D02*
X137550000Y-144277000D01*
X141650000Y-144867000D02*
X142800000Y-144867000D01*
X143560000Y-147177000D02*
X143560000Y-149777000D01*
X143560000Y-154337000D02*
X143560000Y-152677000D01*
%TO.C,L401*%
X132908252Y-140876000D02*
X132385748Y-140876000D01*
X132908252Y-143096000D02*
X132385748Y-143096000D01*
%TO.C,C304*%
X139292000Y-79742000D02*
X143512000Y-79742000D01*
X143512000Y-76722000D02*
X139292000Y-76722000D01*
X143512000Y-79742000D02*
X143512000Y-76722000D01*
%TO.C,R210*%
X140574500Y-91042258D02*
X140574500Y-90567742D01*
X141619500Y-91042258D02*
X141619500Y-90567742D01*
%TO.C,R215*%
X208011500Y-108204724D02*
X208011500Y-107695276D01*
X209056500Y-108204724D02*
X209056500Y-107695276D01*
%TO.C,C202*%
X168015000Y-130752867D02*
X168015000Y-131802867D01*
X168540000Y-131277867D02*
X167490000Y-131277867D01*
X170370000Y-136500000D02*
G75*
G02*
X159630000Y-136500000I-5370000J0D01*
G01*
X159630000Y-136500000D02*
G75*
G02*
X170370000Y-136500000I5370000J0D01*
G01*
%TO.C,R405*%
X148797742Y-138415500D02*
X149272258Y-138415500D01*
X148797742Y-139460500D02*
X149272258Y-139460500D01*
D10*
%TO.C,U402*%
X137377000Y-130867000D02*
X137377000Y-130292000D01*
X137377000Y-140942000D02*
X137377000Y-140367000D01*
X143127000Y-130292000D02*
X137377000Y-130292000D01*
X143127000Y-130867000D02*
X143127000Y-130292000D01*
X143127000Y-140942000D02*
X137377000Y-140942000D01*
X143127000Y-140942000D02*
X143127000Y-140367000D01*
D11*
X143867000Y-140697000D02*
X143387000Y-140697000D01*
X143627000Y-140367000D01*
X143867000Y-140697000D01*
G36*
X143867000Y-140697000D02*
G01*
X143387000Y-140697000D01*
X143627000Y-140367000D01*
X143867000Y-140697000D01*
G37*
%TO.C,R212*%
X142225500Y-91042258D02*
X142225500Y-90567742D01*
X143270500Y-91042258D02*
X143270500Y-90567742D01*
%TO.C,C301*%
X144409500Y-77277000D02*
X144409500Y-79187000D01*
X144409500Y-79187000D02*
X148329500Y-79187000D01*
X148329500Y-77277000D02*
X144409500Y-77277000D01*
%TO.C,R208*%
X203947500Y-96368776D02*
X203947500Y-96878224D01*
X204992500Y-96368776D02*
X204992500Y-96878224D01*
D10*
%TO.C,U205*%
X146731000Y-92278000D02*
X146731000Y-91703000D01*
X146731000Y-102353000D02*
X146731000Y-101778000D01*
X152481000Y-91703000D02*
X146731000Y-91703000D01*
X152481000Y-92278000D02*
X152481000Y-91703000D01*
X152481000Y-102353000D02*
X146731000Y-102353000D01*
X152481000Y-102353000D02*
X152481000Y-101778000D01*
D11*
X153221000Y-102108000D02*
X152741000Y-102108000D01*
X152981000Y-101778000D01*
X153221000Y-102108000D01*
G36*
X153221000Y-102108000D02*
G01*
X152741000Y-102108000D01*
X152981000Y-101778000D01*
X153221000Y-102108000D01*
G37*
%TO.C,U403*%
X207010000Y-64496000D02*
X205060000Y-64496000D01*
X207010000Y-64496000D02*
X208960000Y-64496000D01*
X207010000Y-69616000D02*
X205060000Y-69616000D01*
X207010000Y-69616000D02*
X208960000Y-69616000D01*
X204310000Y-64591000D02*
X204070000Y-64261000D01*
X204550000Y-64261000D01*
X204310000Y-64591000D01*
G36*
X204310000Y-64591000D02*
G01*
X204070000Y-64261000D01*
X204550000Y-64261000D01*
X204310000Y-64591000D01*
G37*
%TO.C,C408*%
X132180420Y-130554000D02*
X132461580Y-130554000D01*
X132180420Y-131574000D02*
X132461580Y-131574000D01*
%TO.C,J102*%
X175724000Y-149420000D02*
X177524000Y-149420000D01*
X175724000Y-150870000D02*
X175724000Y-149420000D01*
X176994000Y-153690000D02*
X182924000Y-153690000D01*
X177524000Y-149420000D02*
X177524000Y-148430000D01*
X184194000Y-149420000D02*
X182394000Y-149420000D01*
X184194000Y-150870000D02*
X184194000Y-149420000D01*
%TO.C,U202*%
X198628000Y-86445000D02*
X197478000Y-86445000D01*
X198628000Y-86445000D02*
X199778000Y-86445000D01*
X198628000Y-88815000D02*
X197478000Y-88815000D01*
X198628000Y-88815000D02*
X199778000Y-88815000D01*
X196343000Y-86880000D02*
X196013000Y-87120000D01*
X196013000Y-86640000D01*
X196343000Y-86880000D01*
G36*
X196343000Y-86880000D02*
G01*
X196013000Y-87120000D01*
X196013000Y-86640000D01*
X196343000Y-86880000D01*
G37*
%TO.C,R207*%
X138923500Y-91042258D02*
X138923500Y-90567742D01*
X139968500Y-91042258D02*
X139968500Y-90567742D01*
%TO.C,C406*%
X131316000Y-127153580D02*
X131316000Y-126872420D01*
X132336000Y-127153580D02*
X132336000Y-126872420D01*
%TO.C,C407*%
X146314500Y-129220000D02*
X146314500Y-131130000D01*
X146314500Y-131130000D02*
X150234500Y-131130000D01*
X150234500Y-129220000D02*
X146314500Y-129220000D01*
%TO.C,R414*%
X170727500Y-148737258D02*
X170727500Y-148262742D01*
X171772500Y-148737258D02*
X171772500Y-148262742D01*
%TO.C,J501*%
X131170000Y-60670000D02*
X131170000Y-111590000D01*
X131170000Y-60670000D02*
X133770000Y-60670000D01*
X131170000Y-111590000D02*
X136370000Y-111590000D01*
X133770000Y-60670000D02*
X133770000Y-63270000D01*
X133770000Y-63270000D02*
X136370000Y-63270000D01*
X135040000Y-60670000D02*
X136370000Y-60670000D01*
X136370000Y-60670000D02*
X136370000Y-62000000D01*
X136370000Y-63270000D02*
X136370000Y-111590000D01*
%TO.C,R408*%
X128763500Y-137493742D02*
X128763500Y-137968258D01*
X129808500Y-137493742D02*
X129808500Y-137968258D01*
%TO.C,R213*%
X208519500Y-96368776D02*
X208519500Y-96878224D01*
X209564500Y-96368776D02*
X209564500Y-96878224D01*
%TO.C,J601*%
X203374000Y-140585000D02*
X204704000Y-140585000D01*
X203374000Y-141695000D02*
X203374000Y-140585000D01*
X203374000Y-145695000D02*
X216194000Y-145695000D01*
X203374000Y-154325000D02*
X203374000Y-145695000D01*
X203374000Y-154325000D02*
X216194000Y-154325000D01*
X203494000Y-154325000D02*
X203494000Y-145695000D01*
X203612095Y-154325000D02*
X203612095Y-145695000D01*
X203730190Y-154325000D02*
X203730190Y-145695000D01*
X203848285Y-154325000D02*
X203848285Y-145695000D01*
X203966380Y-154325000D02*
X203966380Y-145695000D01*
X204084475Y-154325000D02*
X204084475Y-145695000D01*
X204202570Y-154325000D02*
X204202570Y-145695000D01*
X204320665Y-154325000D02*
X204320665Y-145695000D01*
X204344000Y-143185000D02*
X204344000Y-142805000D01*
X204344000Y-145695000D02*
X204344000Y-145285000D01*
X204438760Y-154325000D02*
X204438760Y-145695000D01*
X204556855Y-154325000D02*
X204556855Y-145695000D01*
X204674950Y-154325000D02*
X204674950Y-145695000D01*
X204793045Y-154325000D02*
X204793045Y-145695000D01*
X204911140Y-154325000D02*
X204911140Y-145695000D01*
X205029235Y-154325000D02*
X205029235Y-145695000D01*
X205064000Y-143185000D02*
X205064000Y-142805000D01*
X205064000Y-145695000D02*
X205064000Y-145285000D01*
X205147330Y-154325000D02*
X205147330Y-145695000D01*
X205265425Y-154325000D02*
X205265425Y-145695000D01*
X205383520Y-154325000D02*
X205383520Y-145695000D01*
X205501615Y-154325000D02*
X205501615Y-145695000D01*
X205619710Y-154325000D02*
X205619710Y-145695000D01*
X205737805Y-154325000D02*
X205737805Y-145695000D01*
X205855900Y-154325000D02*
X205855900Y-145695000D01*
X205974000Y-154325000D02*
X205974000Y-145695000D01*
X206884000Y-143185000D02*
X206884000Y-142745000D01*
X206884000Y-145695000D02*
X206884000Y-145285000D01*
X207604000Y-143185000D02*
X207604000Y-142745000D01*
X207604000Y-145695000D02*
X207604000Y-145285000D01*
X208514000Y-154325000D02*
X208514000Y-145695000D01*
X209424000Y-143185000D02*
X209424000Y-142745000D01*
X209424000Y-145695000D02*
X209424000Y-145285000D01*
X210144000Y-143185000D02*
X210144000Y-142745000D01*
X210144000Y-145695000D02*
X210144000Y-145285000D01*
X211054000Y-154325000D02*
X211054000Y-145695000D01*
X211964000Y-143185000D02*
X211964000Y-142745000D01*
X211964000Y-145695000D02*
X211964000Y-145285000D01*
X212684000Y-143185000D02*
X212684000Y-142745000D01*
X212684000Y-145695000D02*
X212684000Y-145285000D01*
X213594000Y-154325000D02*
X213594000Y-145695000D01*
X214504000Y-143185000D02*
X214504000Y-142745000D01*
X214504000Y-145695000D02*
X214504000Y-145285000D01*
X215224000Y-143185000D02*
X215224000Y-142745000D01*
X215224000Y-145695000D02*
X215224000Y-145285000D01*
X216194000Y-154325000D02*
X216194000Y-145695000D01*
%TO.C,R202*%
X194295500Y-90661258D02*
X194295500Y-90186742D01*
X195340500Y-90661258D02*
X195340500Y-90186742D01*
%TO.C,R403*%
X131049500Y-137968258D02*
X131049500Y-137493742D01*
X132094500Y-137968258D02*
X132094500Y-137493742D01*
%TO.C,R402*%
X131049500Y-134666258D02*
X131049500Y-134191742D01*
X132094500Y-134666258D02*
X132094500Y-134191742D01*
%TO.C,R205*%
X203439500Y-90661258D02*
X203439500Y-90186742D01*
X204484500Y-90661258D02*
X204484500Y-90186742D01*
%TO.C,J502*%
X213630000Y-60670000D02*
X213630000Y-111590000D01*
X213630000Y-60670000D02*
X216230000Y-60670000D01*
X213630000Y-111590000D02*
X218830000Y-111590000D01*
X216230000Y-60670000D02*
X216230000Y-63270000D01*
X216230000Y-63270000D02*
X218830000Y-63270000D01*
X217500000Y-60670000D02*
X218830000Y-60670000D01*
X218830000Y-60670000D02*
X218830000Y-62000000D01*
X218830000Y-63270000D02*
X218830000Y-111590000D01*
%TO.C,C303*%
X141447580Y-74722000D02*
X141166420Y-74722000D01*
X141447580Y-75742000D02*
X141166420Y-75742000D01*
%TO.C,R407*%
X148797742Y-139921500D02*
X149272258Y-139921500D01*
X148797742Y-140966500D02*
X149272258Y-140966500D01*
%TD*%
M02*
