M48
; DRILL file {KiCad 9.0.5-9.0.5~ubuntu25.04.1} date 2025-10-12T20:46:30+0200
; FORMAT={-:-/ absolute / metric / decimal}
; #@! TF.CreationDate,2025-10-12T20:46:30+02:00
; #@! TF.GenerationSoftware,Kicad,Pcbnew,9.0.5-9.0.5~ubuntu25.04.1
; #@! TF.FileFunction,Plated,1,2,PTH
FMAT,2
METRIC
; #@! TA.AperFunction,Plated,PTH,ComponentDrill
T1C0.200
; #@! TA.AperFunction,Plated,PTH,ViaDrill
T2C0.300
; #@! TA.AperFunction,Plated,PTH,ComponentDrill
T3C0.800
; #@! TA.AperFunction,Plated,PTH,ComponentDrill
T4C1.000
; #@! TA.AperFunction,Plated,PTH,ComponentDrill
T5C1.300
%
G90
G05
T1
X172.545Y-83.727
X172.545Y-85.252
X173.308Y-82.965
X173.308Y-84.49
X173.308Y-86.015
X174.07Y-83.727
X174.07Y-85.252
X174.832Y-82.965
X174.832Y-84.49
X174.832Y-86.015
X175.595Y-83.727
X175.595Y-85.252
T2
X128.016Y-135.128
X128.016Y-136.906
X130.429Y-147.447
X132.969Y-120.015
X134.62Y-135.802
X134.62Y-136.652
X138.176Y-127.762
X138.176Y-134.62
X138.684Y-143.002
X138.976Y-131.967
X139.573Y-72.517
X139.61Y-143.0
X139.7Y-131.318
X140.589Y-94.742
X143.764Y-75.184
X144.145Y-123.19
X146.939Y-75.819
X147.066Y-143.256
X148.362Y-83.159
X149.225Y-96.393
X149.225Y-97.536
X149.225Y-98.552
X149.225Y-99.695
X149.225Y-100.838
X149.225Y-103.124
X150.114Y-103.124
X150.622Y-87.376
X151.13Y-103.124
X151.384Y-85.852
X152.4Y-137.414
X152.4Y-143.256
X153.797Y-143.256
X155.448Y-123.317
X156.337Y-81.534
X158.5Y-117.5
X159.0Y-109.5
X159.75Y-94.742
X159.766Y-101.854
X160.655Y-83.185
X160.75Y-151.0
X160.782Y-100.584
X161.417Y-92.202
X161.5Y-77.5
X161.671Y-123.317
X162.179Y-145.542
X163.068Y-84.582
X163.068Y-86.614
X163.068Y-88.646
X163.068Y-89.916
X163.068Y-91.186
X163.068Y-92.456
X165.227Y-142.621
X165.481Y-109.855
X165.989Y-130.175
X166.0Y-104.5
X166.624Y-102.743
X167.0Y-105.5
X167.005Y-115.443
X167.64Y-81.026
X167.64Y-82.296
X167.75Y-151.0
X168.0Y-109.0
X168.275Y-143.383
X168.783Y-101.854
X169.291Y-142.621
X169.765Y-86.763
X169.765Y-88.519
X170.18Y-101.854
X170.905Y-106.634
X171.069Y-90.932
X171.45Y-105.095
X171.45Y-117.348
X173.228Y-118.073
X173.228Y-121.031
X173.228Y-127.762
X173.228Y-134.239
X175.26Y-79.756
X175.768Y-144.653
X176.95Y-96.93
X177.038Y-98.044
X177.8Y-139.0
X177.863Y-95.887
X178.084Y-146.304
X178.308Y-98.933
X178.816Y-140.462
X180.213Y-102.235
X180.596Y-97.48
X180.975Y-140.335
X181.229Y-105.156
X181.229Y-116.332
X181.229Y-124.079
X181.869Y-94.413
X182.118Y-101.473
X183.007Y-109.982
X183.007Y-121.92
X183.896Y-129.286
X184.277Y-96.774
X185.039Y-129.286
X186.944Y-149.987
X187.325Y-133.223
X187.668Y-89.405
X187.706Y-92.71
X187.96Y-128.524
X188.118Y-98.838
X188.438Y-93.535
X188.468Y-138.43
X188.877Y-88.16
X189.619Y-100.165
X189.791Y-99.007
X189.865Y-117.209
X190.119Y-89.154
X190.496Y-86.505
X190.754Y-117.983
X190.894Y-98.681
X191.389Y-101.092
X191.694Y-96.113
X191.697Y-86.274
X192.619Y-86.007
X192.958Y-88.682
X193.022Y-89.529
X193.496Y-85.885
X193.733Y-87.887
X193.802Y-109.855
X195.138Y-87.32
X195.168Y-128.62
X195.58Y-134.874
X195.834Y-91.44
X196.342Y-86.741
X196.373Y-95.043
X197.485Y-147.32
X198.882Y-102.616
X198.882Y-103.632
X199.263Y-92.71
X199.3Y-91.26
X199.644Y-125.984
X199.644Y-131.064
X200.66Y-65.278
X200.66Y-101.092
X200.785Y-93.96
X201.041Y-119.634
X201.422Y-69.088
X202.438Y-67.818
X202.438Y-86.958
X202.849Y-78.211
X203.018Y-77.143
X203.568Y-78.664
X203.794Y-119.04
X203.835Y-73.914
X203.835Y-114.173
X203.993Y-87.742
X203.999Y-89.042
X204.398Y-93.054
X204.56Y-72.136
X204.724Y-103.886
X204.724Y-107.696
X204.724Y-127.254
X205.064Y-80.865
X205.311Y-101.6
X205.574Y-107.696
X205.838Y-80.515
X205.994Y-99.314
X205.994Y-100.164
X206.121Y-111.633
X206.398Y-108.862
X206.579Y-103.336
X206.597Y-93.048
X206.629Y-90.805
X207.264Y-105.003
X207.264Y-106.68
X207.467Y-100.907
X207.518Y-98.552
X207.518Y-119.507
X207.824Y-102.511
X207.894Y-79.427
X207.894Y-80.243
X208.317Y-93.024
X208.444Y-75.691
X208.661Y-74.7
X208.788Y-125.984
X208.788Y-134.874
X208.788Y-136.144
X209.042Y-86.868
X209.042Y-95.123
X209.042Y-98.552
X209.042Y-103.866
X210.185Y-129.032
X210.439Y-88.773
X211.074Y-132.334
X211.328Y-87.757
X211.963Y-86.233
X213.36Y-134.874
X217.043Y-140.081
X217.678Y-135.636
X218.694Y-132.334
T3
X165.0Y-121.5
X165.0Y-126.5
X165.0Y-134.0
X165.0Y-139.0
T4
X132.5Y-62.0
X132.5Y-64.54
X132.5Y-67.08
X132.5Y-69.62
X132.5Y-72.16
X132.5Y-74.7
X132.5Y-77.24
X132.5Y-79.78
X132.5Y-82.32
X132.5Y-84.86
X132.5Y-87.4
X132.5Y-89.94
X132.5Y-92.48
X132.5Y-95.02
X132.5Y-97.56
X132.5Y-100.1
X132.5Y-102.64
X132.5Y-105.18
X132.5Y-107.72
X132.5Y-110.26
X135.04Y-62.0
X135.04Y-64.54
X135.04Y-67.08
X135.04Y-69.62
X135.04Y-72.16
X135.04Y-74.7
X135.04Y-77.24
X135.04Y-79.78
X135.04Y-82.32
X135.04Y-84.86
X135.04Y-87.4
X135.04Y-89.94
X135.04Y-92.48
X135.04Y-95.02
X135.04Y-97.56
X135.04Y-100.1
X135.04Y-102.64
X135.04Y-105.18
X135.04Y-107.72
X135.04Y-110.26
X150.75Y-151.075
X155.25Y-151.075
X189.464Y-141.695
X189.464Y-144.235
X192.004Y-141.695
X192.004Y-144.235
X194.544Y-141.695
X194.544Y-144.235
X197.084Y-141.695
X197.084Y-144.235
X199.624Y-141.695
X199.624Y-144.235
X204.704Y-141.695
X204.704Y-144.235
X207.244Y-141.695
X207.244Y-144.235
X209.784Y-141.695
X209.784Y-144.235
X212.324Y-141.695
X212.324Y-144.235
X214.864Y-141.695
X214.864Y-144.235
X214.96Y-62.0
X214.96Y-64.54
X214.96Y-67.08
X214.96Y-69.62
X214.96Y-72.16
X214.96Y-74.7
X214.96Y-77.24
X214.96Y-79.78
X214.96Y-82.32
X214.96Y-84.86
X214.96Y-87.4
X214.96Y-89.94
X214.96Y-92.48
X214.96Y-95.02
X214.96Y-97.56
X214.96Y-100.1
X214.96Y-102.64
X214.96Y-105.18
X214.96Y-107.72
X214.96Y-110.26
X217.5Y-62.0
X217.5Y-64.54
X217.5Y-67.08
X217.5Y-69.62
X217.5Y-72.16
X217.5Y-74.7
X217.5Y-77.24
X217.5Y-79.78
X217.5Y-82.32
X217.5Y-84.86
X217.5Y-87.4
X217.5Y-89.94
X217.5Y-92.48
X217.5Y-95.02
X217.5Y-97.56
X217.5Y-100.1
X217.5Y-102.64
X217.5Y-105.18
X217.5Y-107.72
X217.5Y-110.26
T5
X149.5Y-148.575
X156.5Y-148.575
M30
