%TF.GenerationSoftware,KiCad,Pcbnew,9.0.5-9.0.5~ubuntu25.04.1*%
%TF.CreationDate,2025-10-12T20:46:55+02:00*%
%TF.ProjectId,CPU,4350552e-6b69-4636-9164-5f7063625858,rev?*%
%TF.SameCoordinates,Original*%
%TF.FileFunction,Drillmap*%
%TF.FilePolarity,Positive*%
%FSLAX45Y45*%
G04 Gerber Fmt 4.5, Leading zero omitted, Abs format (unit mm)*
G04 Created by KiCad (PCBNEW 9.0.5-9.0.5~ubuntu25.04.1) date 2025-10-12 20:46:55*
%MOMM*%
%LPD*%
G01*
G04 APERTURE LIST*
%ADD10C,0.050000*%
%ADD11C,0.200000*%
%ADD12C,0.100000*%
%ADD13C,0.130000*%
G04 APERTURE END LIST*
D10*
X12500000Y-5450000D02*
X22500000Y-5450000D01*
X22500000Y-5450000D02*
X22500000Y-15450000D01*
X12500000Y-15450000D02*
X12500000Y-5450000D01*
X22500000Y-15450000D02*
X12500000Y-15450000D01*
D11*
D12*
X17244500Y-8362750D02*
X17264500Y-8382750D01*
X17264500Y-8362750D02*
X17244500Y-8382750D01*
X17244500Y-8515250D02*
X17264500Y-8535250D01*
X17264500Y-8515250D02*
X17244500Y-8535250D01*
X17320750Y-8286500D02*
X17340750Y-8306500D01*
X17340750Y-8286500D02*
X17320750Y-8306500D01*
X17320750Y-8439000D02*
X17340750Y-8459000D01*
X17340750Y-8439000D02*
X17320750Y-8459000D01*
X17320750Y-8591500D02*
X17340750Y-8611500D01*
X17340750Y-8591500D02*
X17320750Y-8611500D01*
X17397000Y-8362750D02*
X17417000Y-8382750D01*
X17417000Y-8362750D02*
X17397000Y-8382750D01*
X17397000Y-8515250D02*
X17417000Y-8535250D01*
X17417000Y-8515250D02*
X17397000Y-8535250D01*
X17473250Y-8286500D02*
X17493250Y-8306500D01*
X17493250Y-8286500D02*
X17473250Y-8306500D01*
X17473250Y-8439000D02*
X17493250Y-8459000D01*
X17493250Y-8439000D02*
X17473250Y-8459000D01*
X17473250Y-8591500D02*
X17493250Y-8611500D01*
X17493250Y-8591500D02*
X17473250Y-8611500D01*
X17549500Y-8362750D02*
X17569500Y-8382750D01*
X17569500Y-8362750D02*
X17549500Y-8382750D01*
X17549500Y-8515250D02*
X17569500Y-8535250D01*
X17569500Y-8515250D02*
X17549500Y-8535250D01*
X12816600Y-13512800D02*
G75*
G02*
X12786600Y-13512800I-15000J0D01*
G01*
X12786600Y-13512800D02*
G75*
G02*
X12816600Y-13512800I15000J0D01*
G01*
X12816600Y-13690600D02*
G75*
G02*
X12786600Y-13690600I-15000J0D01*
G01*
X12786600Y-13690600D02*
G75*
G02*
X12816600Y-13690600I15000J0D01*
G01*
X13057900Y-14744700D02*
G75*
G02*
X13027900Y-14744700I-15000J0D01*
G01*
X13027900Y-14744700D02*
G75*
G02*
X13057900Y-14744700I15000J0D01*
G01*
X13311900Y-12001500D02*
G75*
G02*
X13281900Y-12001500I-15000J0D01*
G01*
X13281900Y-12001500D02*
G75*
G02*
X13311900Y-12001500I15000J0D01*
G01*
X13477000Y-13580200D02*
G75*
G02*
X13447000Y-13580200I-15000J0D01*
G01*
X13447000Y-13580200D02*
G75*
G02*
X13477000Y-13580200I15000J0D01*
G01*
X13477000Y-13665200D02*
G75*
G02*
X13447000Y-13665200I-15000J0D01*
G01*
X13447000Y-13665200D02*
G75*
G02*
X13477000Y-13665200I15000J0D01*
G01*
X13832600Y-12776200D02*
G75*
G02*
X13802600Y-12776200I-15000J0D01*
G01*
X13802600Y-12776200D02*
G75*
G02*
X13832600Y-12776200I15000J0D01*
G01*
X13832600Y-13462000D02*
G75*
G02*
X13802600Y-13462000I-15000J0D01*
G01*
X13802600Y-13462000D02*
G75*
G02*
X13832600Y-13462000I15000J0D01*
G01*
X13883400Y-14300200D02*
G75*
G02*
X13853400Y-14300200I-15000J0D01*
G01*
X13853400Y-14300200D02*
G75*
G02*
X13883400Y-14300200I15000J0D01*
G01*
X13912600Y-13196700D02*
G75*
G02*
X13882600Y-13196700I-15000J0D01*
G01*
X13882600Y-13196700D02*
G75*
G02*
X13912600Y-13196700I15000J0D01*
G01*
X13972300Y-7251700D02*
G75*
G02*
X13942300Y-7251700I-15000J0D01*
G01*
X13942300Y-7251700D02*
G75*
G02*
X13972300Y-7251700I15000J0D01*
G01*
X13976000Y-14299976D02*
G75*
G02*
X13946000Y-14299976I-15000J0D01*
G01*
X13946000Y-14299976D02*
G75*
G02*
X13976000Y-14299976I15000J0D01*
G01*
X13985000Y-13131800D02*
G75*
G02*
X13955000Y-13131800I-15000J0D01*
G01*
X13955000Y-13131800D02*
G75*
G02*
X13985000Y-13131800I15000J0D01*
G01*
X14073900Y-9474200D02*
G75*
G02*
X14043900Y-9474200I-15000J0D01*
G01*
X14043900Y-9474200D02*
G75*
G02*
X14073900Y-9474200I15000J0D01*
G01*
X14391400Y-7518400D02*
G75*
G02*
X14361400Y-7518400I-15000J0D01*
G01*
X14361400Y-7518400D02*
G75*
G02*
X14391400Y-7518400I15000J0D01*
G01*
X14429500Y-12319000D02*
G75*
G02*
X14399500Y-12319000I-15000J0D01*
G01*
X14399500Y-12319000D02*
G75*
G02*
X14429500Y-12319000I15000J0D01*
G01*
X14708900Y-7581900D02*
G75*
G02*
X14678900Y-7581900I-15000J0D01*
G01*
X14678900Y-7581900D02*
G75*
G02*
X14708900Y-7581900I15000J0D01*
G01*
X14721600Y-14325600D02*
G75*
G02*
X14691600Y-14325600I-15000J0D01*
G01*
X14691600Y-14325600D02*
G75*
G02*
X14721600Y-14325600I15000J0D01*
G01*
X14851150Y-8315950D02*
G75*
G02*
X14821150Y-8315950I-15000J0D01*
G01*
X14821150Y-8315950D02*
G75*
G02*
X14851150Y-8315950I15000J0D01*
G01*
X14937500Y-9639300D02*
G75*
G02*
X14907500Y-9639300I-15000J0D01*
G01*
X14907500Y-9639300D02*
G75*
G02*
X14937500Y-9639300I15000J0D01*
G01*
X14937500Y-9753600D02*
G75*
G02*
X14907500Y-9753600I-15000J0D01*
G01*
X14907500Y-9753600D02*
G75*
G02*
X14937500Y-9753600I15000J0D01*
G01*
X14937500Y-9855200D02*
G75*
G02*
X14907500Y-9855200I-15000J0D01*
G01*
X14907500Y-9855200D02*
G75*
G02*
X14937500Y-9855200I15000J0D01*
G01*
X14937500Y-9969500D02*
G75*
G02*
X14907500Y-9969500I-15000J0D01*
G01*
X14907500Y-9969500D02*
G75*
G02*
X14937500Y-9969500I15000J0D01*
G01*
X14937500Y-10083800D02*
G75*
G02*
X14907500Y-10083800I-15000J0D01*
G01*
X14907500Y-10083800D02*
G75*
G02*
X14937500Y-10083800I15000J0D01*
G01*
X14937500Y-10312400D02*
G75*
G02*
X14907500Y-10312400I-15000J0D01*
G01*
X14907500Y-10312400D02*
G75*
G02*
X14937500Y-10312400I15000J0D01*
G01*
X15026400Y-10312400D02*
G75*
G02*
X14996400Y-10312400I-15000J0D01*
G01*
X14996400Y-10312400D02*
G75*
G02*
X15026400Y-10312400I15000J0D01*
G01*
X15077200Y-8737600D02*
G75*
G02*
X15047200Y-8737600I-15000J0D01*
G01*
X15047200Y-8737600D02*
G75*
G02*
X15077200Y-8737600I15000J0D01*
G01*
X15128000Y-10312400D02*
G75*
G02*
X15098000Y-10312400I-15000J0D01*
G01*
X15098000Y-10312400D02*
G75*
G02*
X15128000Y-10312400I15000J0D01*
G01*
X15153400Y-8585200D02*
G75*
G02*
X15123400Y-8585200I-15000J0D01*
G01*
X15123400Y-8585200D02*
G75*
G02*
X15153400Y-8585200I15000J0D01*
G01*
X15255000Y-13741400D02*
G75*
G02*
X15225000Y-13741400I-15000J0D01*
G01*
X15225000Y-13741400D02*
G75*
G02*
X15255000Y-13741400I15000J0D01*
G01*
X15255000Y-14325600D02*
G75*
G02*
X15225000Y-14325600I-15000J0D01*
G01*
X15225000Y-14325600D02*
G75*
G02*
X15255000Y-14325600I15000J0D01*
G01*
X15394700Y-14325600D02*
G75*
G02*
X15364700Y-14325600I-15000J0D01*
G01*
X15364700Y-14325600D02*
G75*
G02*
X15394700Y-14325600I15000J0D01*
G01*
X15559800Y-12331700D02*
G75*
G02*
X15529800Y-12331700I-15000J0D01*
G01*
X15529800Y-12331700D02*
G75*
G02*
X15559800Y-12331700I15000J0D01*
G01*
X15648700Y-8153400D02*
G75*
G02*
X15618700Y-8153400I-15000J0D01*
G01*
X15618700Y-8153400D02*
G75*
G02*
X15648700Y-8153400I15000J0D01*
G01*
X15865000Y-11750000D02*
G75*
G02*
X15835000Y-11750000I-15000J0D01*
G01*
X15835000Y-11750000D02*
G75*
G02*
X15865000Y-11750000I15000J0D01*
G01*
X15915000Y-10950000D02*
G75*
G02*
X15885000Y-10950000I-15000J0D01*
G01*
X15885000Y-10950000D02*
G75*
G02*
X15915000Y-10950000I15000J0D01*
G01*
X15990000Y-9474200D02*
G75*
G02*
X15960000Y-9474200I-15000J0D01*
G01*
X15960000Y-9474200D02*
G75*
G02*
X15990000Y-9474200I15000J0D01*
G01*
X15991600Y-10185400D02*
G75*
G02*
X15961600Y-10185400I-15000J0D01*
G01*
X15961600Y-10185400D02*
G75*
G02*
X15991600Y-10185400I15000J0D01*
G01*
X16080500Y-8318500D02*
G75*
G02*
X16050500Y-8318500I-15000J0D01*
G01*
X16050500Y-8318500D02*
G75*
G02*
X16080500Y-8318500I15000J0D01*
G01*
X16090000Y-15100000D02*
G75*
G02*
X16060000Y-15100000I-15000J0D01*
G01*
X16060000Y-15100000D02*
G75*
G02*
X16090000Y-15100000I15000J0D01*
G01*
X16093200Y-10058400D02*
G75*
G02*
X16063200Y-10058400I-15000J0D01*
G01*
X16063200Y-10058400D02*
G75*
G02*
X16093200Y-10058400I15000J0D01*
G01*
X16156700Y-9220200D02*
G75*
G02*
X16126700Y-9220200I-15000J0D01*
G01*
X16126700Y-9220200D02*
G75*
G02*
X16156700Y-9220200I15000J0D01*
G01*
X16165000Y-7750000D02*
G75*
G02*
X16135000Y-7750000I-15000J0D01*
G01*
X16135000Y-7750000D02*
G75*
G02*
X16165000Y-7750000I15000J0D01*
G01*
X16182100Y-12331700D02*
G75*
G02*
X16152100Y-12331700I-15000J0D01*
G01*
X16152100Y-12331700D02*
G75*
G02*
X16182100Y-12331700I15000J0D01*
G01*
X16232900Y-14554200D02*
G75*
G02*
X16202900Y-14554200I-15000J0D01*
G01*
X16202900Y-14554200D02*
G75*
G02*
X16232900Y-14554200I15000J0D01*
G01*
X16321800Y-8458200D02*
G75*
G02*
X16291800Y-8458200I-15000J0D01*
G01*
X16291800Y-8458200D02*
G75*
G02*
X16321800Y-8458200I15000J0D01*
G01*
X16321800Y-8661400D02*
G75*
G02*
X16291800Y-8661400I-15000J0D01*
G01*
X16291800Y-8661400D02*
G75*
G02*
X16321800Y-8661400I15000J0D01*
G01*
X16321800Y-8864600D02*
G75*
G02*
X16291800Y-8864600I-15000J0D01*
G01*
X16291800Y-8864600D02*
G75*
G02*
X16321800Y-8864600I15000J0D01*
G01*
X16321800Y-8991600D02*
G75*
G02*
X16291800Y-8991600I-15000J0D01*
G01*
X16291800Y-8991600D02*
G75*
G02*
X16321800Y-8991600I15000J0D01*
G01*
X16321800Y-9118600D02*
G75*
G02*
X16291800Y-9118600I-15000J0D01*
G01*
X16291800Y-9118600D02*
G75*
G02*
X16321800Y-9118600I15000J0D01*
G01*
X16321800Y-9245600D02*
G75*
G02*
X16291800Y-9245600I-15000J0D01*
G01*
X16291800Y-9245600D02*
G75*
G02*
X16321800Y-9245600I15000J0D01*
G01*
X16537700Y-14262100D02*
G75*
G02*
X16507700Y-14262100I-15000J0D01*
G01*
X16507700Y-14262100D02*
G75*
G02*
X16537700Y-14262100I15000J0D01*
G01*
X16563100Y-10985500D02*
G75*
G02*
X16533100Y-10985500I-15000J0D01*
G01*
X16533100Y-10985500D02*
G75*
G02*
X16563100Y-10985500I15000J0D01*
G01*
X16613900Y-13017500D02*
G75*
G02*
X16583900Y-13017500I-15000J0D01*
G01*
X16583900Y-13017500D02*
G75*
G02*
X16613900Y-13017500I15000J0D01*
G01*
X16615000Y-10450000D02*
G75*
G02*
X16585000Y-10450000I-15000J0D01*
G01*
X16585000Y-10450000D02*
G75*
G02*
X16615000Y-10450000I15000J0D01*
G01*
X16677400Y-10274300D02*
G75*
G02*
X16647400Y-10274300I-15000J0D01*
G01*
X16647400Y-10274300D02*
G75*
G02*
X16677400Y-10274300I15000J0D01*
G01*
X16715000Y-10550000D02*
G75*
G02*
X16685000Y-10550000I-15000J0D01*
G01*
X16685000Y-10550000D02*
G75*
G02*
X16715000Y-10550000I15000J0D01*
G01*
X16715500Y-11544300D02*
G75*
G02*
X16685500Y-11544300I-15000J0D01*
G01*
X16685500Y-11544300D02*
G75*
G02*
X16715500Y-11544300I15000J0D01*
G01*
X16779000Y-8102600D02*
G75*
G02*
X16749000Y-8102600I-15000J0D01*
G01*
X16749000Y-8102600D02*
G75*
G02*
X16779000Y-8102600I15000J0D01*
G01*
X16779000Y-8229600D02*
G75*
G02*
X16749000Y-8229600I-15000J0D01*
G01*
X16749000Y-8229600D02*
G75*
G02*
X16779000Y-8229600I15000J0D01*
G01*
X16790000Y-15100000D02*
G75*
G02*
X16760000Y-15100000I-15000J0D01*
G01*
X16760000Y-15100000D02*
G75*
G02*
X16790000Y-15100000I15000J0D01*
G01*
X16815000Y-10900000D02*
G75*
G02*
X16785000Y-10900000I-15000J0D01*
G01*
X16785000Y-10900000D02*
G75*
G02*
X16815000Y-10900000I15000J0D01*
G01*
X16842500Y-14338300D02*
G75*
G02*
X16812500Y-14338300I-15000J0D01*
G01*
X16812500Y-14338300D02*
G75*
G02*
X16842500Y-14338300I15000J0D01*
G01*
X16893300Y-10185400D02*
G75*
G02*
X16863300Y-10185400I-15000J0D01*
G01*
X16863300Y-10185400D02*
G75*
G02*
X16893300Y-10185400I15000J0D01*
G01*
X16944100Y-14262100D02*
G75*
G02*
X16914100Y-14262100I-15000J0D01*
G01*
X16914100Y-14262100D02*
G75*
G02*
X16944100Y-14262100I15000J0D01*
G01*
X16991500Y-8676271D02*
G75*
G02*
X16961500Y-8676271I-15000J0D01*
G01*
X16961500Y-8676271D02*
G75*
G02*
X16991500Y-8676271I15000J0D01*
G01*
X16991500Y-8851900D02*
G75*
G02*
X16961500Y-8851900I-15000J0D01*
G01*
X16961500Y-8851900D02*
G75*
G02*
X16991500Y-8851900I15000J0D01*
G01*
X17033000Y-10185400D02*
G75*
G02*
X17003000Y-10185400I-15000J0D01*
G01*
X17003000Y-10185400D02*
G75*
G02*
X17033000Y-10185400I15000J0D01*
G01*
X17105500Y-10663365D02*
G75*
G02*
X17075500Y-10663365I-15000J0D01*
G01*
X17075500Y-10663365D02*
G75*
G02*
X17105500Y-10663365I15000J0D01*
G01*
X17121900Y-9093200D02*
G75*
G02*
X17091900Y-9093200I-15000J0D01*
G01*
X17091900Y-9093200D02*
G75*
G02*
X17121900Y-9093200I15000J0D01*
G01*
X17160000Y-10509500D02*
G75*
G02*
X17130000Y-10509500I-15000J0D01*
G01*
X17130000Y-10509500D02*
G75*
G02*
X17160000Y-10509500I15000J0D01*
G01*
X17160000Y-11734800D02*
G75*
G02*
X17130000Y-11734800I-15000J0D01*
G01*
X17130000Y-11734800D02*
G75*
G02*
X17160000Y-11734800I15000J0D01*
G01*
X17337800Y-11807300D02*
G75*
G02*
X17307800Y-11807300I-15000J0D01*
G01*
X17307800Y-11807300D02*
G75*
G02*
X17337800Y-11807300I15000J0D01*
G01*
X17337800Y-12103100D02*
G75*
G02*
X17307800Y-12103100I-15000J0D01*
G01*
X17307800Y-12103100D02*
G75*
G02*
X17337800Y-12103100I15000J0D01*
G01*
X17337800Y-12776200D02*
G75*
G02*
X17307800Y-12776200I-15000J0D01*
G01*
X17307800Y-12776200D02*
G75*
G02*
X17337800Y-12776200I15000J0D01*
G01*
X17337800Y-13423900D02*
G75*
G02*
X17307800Y-13423900I-15000J0D01*
G01*
X17307800Y-13423900D02*
G75*
G02*
X17337800Y-13423900I15000J0D01*
G01*
X17541000Y-7975600D02*
G75*
G02*
X17511000Y-7975600I-15000J0D01*
G01*
X17511000Y-7975600D02*
G75*
G02*
X17541000Y-7975600I15000J0D01*
G01*
X17591800Y-14465300D02*
G75*
G02*
X17561800Y-14465300I-15000J0D01*
G01*
X17561800Y-14465300D02*
G75*
G02*
X17591800Y-14465300I15000J0D01*
G01*
X17709965Y-9693034D02*
G75*
G02*
X17679965Y-9693034I-15000J0D01*
G01*
X17679965Y-9693034D02*
G75*
G02*
X17709965Y-9693034I15000J0D01*
G01*
X17718800Y-9804400D02*
G75*
G02*
X17688800Y-9804400I-15000J0D01*
G01*
X17688800Y-9804400D02*
G75*
G02*
X17718800Y-9804400I15000J0D01*
G01*
X17795000Y-13900000D02*
G75*
G02*
X17765000Y-13900000I-15000J0D01*
G01*
X17765000Y-13900000D02*
G75*
G02*
X17795000Y-13900000I15000J0D01*
G01*
X17801350Y-9588700D02*
G75*
G02*
X17771350Y-9588700I-15000J0D01*
G01*
X17771350Y-9588700D02*
G75*
G02*
X17801350Y-9588700I15000J0D01*
G01*
X17823400Y-14630400D02*
G75*
G02*
X17793400Y-14630400I-15000J0D01*
G01*
X17793400Y-14630400D02*
G75*
G02*
X17823400Y-14630400I15000J0D01*
G01*
X17845800Y-9893300D02*
G75*
G02*
X17815800Y-9893300I-15000J0D01*
G01*
X17815800Y-9893300D02*
G75*
G02*
X17845800Y-9893300I15000J0D01*
G01*
X17896600Y-14046200D02*
G75*
G02*
X17866600Y-14046200I-15000J0D01*
G01*
X17866600Y-14046200D02*
G75*
G02*
X17896600Y-14046200I15000J0D01*
G01*
X18036300Y-10223500D02*
G75*
G02*
X18006300Y-10223500I-15000J0D01*
G01*
X18006300Y-10223500D02*
G75*
G02*
X18036300Y-10223500I15000J0D01*
G01*
X18074567Y-9747991D02*
G75*
G02*
X18044567Y-9747991I-15000J0D01*
G01*
X18044567Y-9747991D02*
G75*
G02*
X18074567Y-9747991I15000J0D01*
G01*
X18112500Y-14033500D02*
G75*
G02*
X18082500Y-14033500I-15000J0D01*
G01*
X18082500Y-14033500D02*
G75*
G02*
X18112500Y-14033500I15000J0D01*
G01*
X18137900Y-10515600D02*
G75*
G02*
X18107900Y-10515600I-15000J0D01*
G01*
X18107900Y-10515600D02*
G75*
G02*
X18137900Y-10515600I15000J0D01*
G01*
X18137900Y-11633200D02*
G75*
G02*
X18107900Y-11633200I-15000J0D01*
G01*
X18107900Y-11633200D02*
G75*
G02*
X18137900Y-11633200I15000J0D01*
G01*
X18137900Y-12407900D02*
G75*
G02*
X18107900Y-12407900I-15000J0D01*
G01*
X18107900Y-12407900D02*
G75*
G02*
X18137900Y-12407900I15000J0D01*
G01*
X18201907Y-9441269D02*
G75*
G02*
X18171907Y-9441269I-15000J0D01*
G01*
X18171907Y-9441269D02*
G75*
G02*
X18201907Y-9441269I15000J0D01*
G01*
X18226800Y-10147300D02*
G75*
G02*
X18196800Y-10147300I-15000J0D01*
G01*
X18196800Y-10147300D02*
G75*
G02*
X18226800Y-10147300I15000J0D01*
G01*
X18315700Y-10998200D02*
G75*
G02*
X18285700Y-10998200I-15000J0D01*
G01*
X18285700Y-10998200D02*
G75*
G02*
X18315700Y-10998200I15000J0D01*
G01*
X18315700Y-12192000D02*
G75*
G02*
X18285700Y-12192000I-15000J0D01*
G01*
X18285700Y-12192000D02*
G75*
G02*
X18315700Y-12192000I15000J0D01*
G01*
X18404600Y-12928600D02*
G75*
G02*
X18374600Y-12928600I-15000J0D01*
G01*
X18374600Y-12928600D02*
G75*
G02*
X18404600Y-12928600I15000J0D01*
G01*
X18442700Y-9677400D02*
G75*
G02*
X18412700Y-9677400I-15000J0D01*
G01*
X18412700Y-9677400D02*
G75*
G02*
X18442700Y-9677400I15000J0D01*
G01*
X18518900Y-12928600D02*
G75*
G02*
X18488900Y-12928600I-15000J0D01*
G01*
X18488900Y-12928600D02*
G75*
G02*
X18518900Y-12928600I15000J0D01*
G01*
X18709400Y-14998700D02*
G75*
G02*
X18679400Y-14998700I-15000J0D01*
G01*
X18679400Y-14998700D02*
G75*
G02*
X18709400Y-14998700I15000J0D01*
G01*
X18747500Y-13322300D02*
G75*
G02*
X18717500Y-13322300I-15000J0D01*
G01*
X18717500Y-13322300D02*
G75*
G02*
X18747500Y-13322300I15000J0D01*
G01*
X18781800Y-8940469D02*
G75*
G02*
X18751800Y-8940469I-15000J0D01*
G01*
X18751800Y-8940469D02*
G75*
G02*
X18781800Y-8940469I15000J0D01*
G01*
X18785600Y-9271000D02*
G75*
G02*
X18755600Y-9271000I-15000J0D01*
G01*
X18755600Y-9271000D02*
G75*
G02*
X18785600Y-9271000I15000J0D01*
G01*
X18811000Y-12852400D02*
G75*
G02*
X18781000Y-12852400I-15000J0D01*
G01*
X18781000Y-12852400D02*
G75*
G02*
X18811000Y-12852400I15000J0D01*
G01*
X18826800Y-9883763D02*
G75*
G02*
X18796800Y-9883763I-15000J0D01*
G01*
X18796800Y-9883763D02*
G75*
G02*
X18826800Y-9883763I15000J0D01*
G01*
X18858846Y-9353452D02*
G75*
G02*
X18828846Y-9353452I-15000J0D01*
G01*
X18828846Y-9353452D02*
G75*
G02*
X18858846Y-9353452I15000J0D01*
G01*
X18861800Y-13843000D02*
G75*
G02*
X18831800Y-13843000I-15000J0D01*
G01*
X18831800Y-13843000D02*
G75*
G02*
X18861800Y-13843000I15000J0D01*
G01*
X18902663Y-8815968D02*
G75*
G02*
X18872663Y-8815968I-15000J0D01*
G01*
X18872663Y-8815968D02*
G75*
G02*
X18902663Y-8815968I15000J0D01*
G01*
X18976912Y-10016494D02*
G75*
G02*
X18946912Y-10016494I-15000J0D01*
G01*
X18946912Y-10016494D02*
G75*
G02*
X18976912Y-10016494I15000J0D01*
G01*
X18994052Y-9900655D02*
G75*
G02*
X18964052Y-9900655I-15000J0D01*
G01*
X18964052Y-9900655D02*
G75*
G02*
X18994052Y-9900655I15000J0D01*
G01*
X19001500Y-11720900D02*
G75*
G02*
X18971500Y-11720900I-15000J0D01*
G01*
X18971500Y-11720900D02*
G75*
G02*
X19001500Y-11720900I15000J0D01*
G01*
X19026900Y-8915400D02*
G75*
G02*
X18996900Y-8915400I-15000J0D01*
G01*
X18996900Y-8915400D02*
G75*
G02*
X19026900Y-8915400I15000J0D01*
G01*
X19064556Y-8650502D02*
G75*
G02*
X19034556Y-8650502I-15000J0D01*
G01*
X19034556Y-8650502D02*
G75*
G02*
X19064556Y-8650502I15000J0D01*
G01*
X19090400Y-11798300D02*
G75*
G02*
X19060400Y-11798300I-15000J0D01*
G01*
X19060400Y-11798300D02*
G75*
G02*
X19090400Y-11798300I15000J0D01*
G01*
X19104414Y-9868075D02*
G75*
G02*
X19074414Y-9868075I-15000J0D01*
G01*
X19074414Y-9868075D02*
G75*
G02*
X19104414Y-9868075I15000J0D01*
G01*
X19153900Y-10109200D02*
G75*
G02*
X19123900Y-10109200I-15000J0D01*
G01*
X19123900Y-10109200D02*
G75*
G02*
X19153900Y-10109200I15000J0D01*
G01*
X19184435Y-9611278D02*
G75*
G02*
X19154435Y-9611278I-15000J0D01*
G01*
X19154435Y-9611278D02*
G75*
G02*
X19184435Y-9611278I15000J0D01*
G01*
X19184745Y-8627378D02*
G75*
G02*
X19154745Y-8627378I-15000J0D01*
G01*
X19154745Y-8627378D02*
G75*
G02*
X19184745Y-8627378I15000J0D01*
G01*
X19276866Y-8600651D02*
G75*
G02*
X19246866Y-8600651I-15000J0D01*
G01*
X19246866Y-8600651D02*
G75*
G02*
X19276866Y-8600651I15000J0D01*
G01*
X19310757Y-8868164D02*
G75*
G02*
X19280757Y-8868164I-15000J0D01*
G01*
X19280757Y-8868164D02*
G75*
G02*
X19310757Y-8868164I15000J0D01*
G01*
X19317240Y-8952917D02*
G75*
G02*
X19287240Y-8952917I-15000J0D01*
G01*
X19287240Y-8952917D02*
G75*
G02*
X19317240Y-8952917I15000J0D01*
G01*
X19364599Y-8588452D02*
G75*
G02*
X19334599Y-8588452I-15000J0D01*
G01*
X19334599Y-8588452D02*
G75*
G02*
X19364599Y-8588452I15000J0D01*
G01*
X19388281Y-8788652D02*
G75*
G02*
X19358281Y-8788652I-15000J0D01*
G01*
X19358281Y-8788652D02*
G75*
G02*
X19388281Y-8788652I15000J0D01*
G01*
X19395200Y-10985500D02*
G75*
G02*
X19365200Y-10985500I-15000J0D01*
G01*
X19365200Y-10985500D02*
G75*
G02*
X19395200Y-10985500I15000J0D01*
G01*
X19528767Y-8731964D02*
G75*
G02*
X19498767Y-8731964I-15000J0D01*
G01*
X19498767Y-8731964D02*
G75*
G02*
X19528767Y-8731964I15000J0D01*
G01*
X19531830Y-12862030D02*
G75*
G02*
X19501830Y-12862030I-15000J0D01*
G01*
X19501830Y-12862030D02*
G75*
G02*
X19531830Y-12862030I15000J0D01*
G01*
X19573000Y-13487400D02*
G75*
G02*
X19543000Y-13487400I-15000J0D01*
G01*
X19543000Y-13487400D02*
G75*
G02*
X19573000Y-13487400I15000J0D01*
G01*
X19598400Y-9144000D02*
G75*
G02*
X19568400Y-9144000I-15000J0D01*
G01*
X19568400Y-9144000D02*
G75*
G02*
X19598400Y-9144000I15000J0D01*
G01*
X19649200Y-8674100D02*
G75*
G02*
X19619200Y-8674100I-15000J0D01*
G01*
X19619200Y-8674100D02*
G75*
G02*
X19649200Y-8674100I15000J0D01*
G01*
X19652259Y-9504300D02*
G75*
G02*
X19622259Y-9504300I-15000J0D01*
G01*
X19622259Y-9504300D02*
G75*
G02*
X19652259Y-9504300I15000J0D01*
G01*
X19763500Y-14732000D02*
G75*
G02*
X19733500Y-14732000I-15000J0D01*
G01*
X19733500Y-14732000D02*
G75*
G02*
X19763500Y-14732000I15000J0D01*
G01*
X19903200Y-10261600D02*
G75*
G02*
X19873200Y-10261600I-15000J0D01*
G01*
X19873200Y-10261600D02*
G75*
G02*
X19903200Y-10261600I15000J0D01*
G01*
X19903200Y-10363200D02*
G75*
G02*
X19873200Y-10363200I-15000J0D01*
G01*
X19873200Y-10363200D02*
G75*
G02*
X19903200Y-10363200I15000J0D01*
G01*
X19941300Y-9271000D02*
G75*
G02*
X19911300Y-9271000I-15000J0D01*
G01*
X19911300Y-9271000D02*
G75*
G02*
X19941300Y-9271000I15000J0D01*
G01*
X19945003Y-9126000D02*
G75*
G02*
X19915003Y-9126000I-15000J0D01*
G01*
X19915003Y-9126000D02*
G75*
G02*
X19945003Y-9126000I15000J0D01*
G01*
X19979400Y-12598400D02*
G75*
G02*
X19949400Y-12598400I-15000J0D01*
G01*
X19949400Y-12598400D02*
G75*
G02*
X19979400Y-12598400I15000J0D01*
G01*
X19979400Y-13106400D02*
G75*
G02*
X19949400Y-13106400I-15000J0D01*
G01*
X19949400Y-13106400D02*
G75*
G02*
X19979400Y-13106400I15000J0D01*
G01*
X20081000Y-6527800D02*
G75*
G02*
X20051000Y-6527800I-15000J0D01*
G01*
X20051000Y-6527800D02*
G75*
G02*
X20081000Y-6527800I15000J0D01*
G01*
X20081000Y-10109200D02*
G75*
G02*
X20051000Y-10109200I-15000J0D01*
G01*
X20051000Y-10109200D02*
G75*
G02*
X20081000Y-10109200I15000J0D01*
G01*
X20093481Y-9396011D02*
G75*
G02*
X20063481Y-9396011I-15000J0D01*
G01*
X20063481Y-9396011D02*
G75*
G02*
X20093481Y-9396011I15000J0D01*
G01*
X20119100Y-11963400D02*
G75*
G02*
X20089100Y-11963400I-15000J0D01*
G01*
X20089100Y-11963400D02*
G75*
G02*
X20119100Y-11963400I15000J0D01*
G01*
X20157200Y-6908800D02*
G75*
G02*
X20127200Y-6908800I-15000J0D01*
G01*
X20127200Y-6908800D02*
G75*
G02*
X20157200Y-6908800I15000J0D01*
G01*
X20258800Y-6781800D02*
G75*
G02*
X20228800Y-6781800I-15000J0D01*
G01*
X20228800Y-6781800D02*
G75*
G02*
X20258800Y-6781800I15000J0D01*
G01*
X20258800Y-8695800D02*
G75*
G02*
X20228800Y-8695800I-15000J0D01*
G01*
X20228800Y-8695800D02*
G75*
G02*
X20258800Y-8695800I15000J0D01*
G01*
X20299894Y-7821137D02*
G75*
G02*
X20269894Y-7821137I-15000J0D01*
G01*
X20269894Y-7821137D02*
G75*
G02*
X20299894Y-7821137I15000J0D01*
G01*
X20316800Y-7714300D02*
G75*
G02*
X20286800Y-7714300I-15000J0D01*
G01*
X20286800Y-7714300D02*
G75*
G02*
X20316800Y-7714300I15000J0D01*
G01*
X20371818Y-7866435D02*
G75*
G02*
X20341818Y-7866435I-15000J0D01*
G01*
X20341818Y-7866435D02*
G75*
G02*
X20371818Y-7866435I15000J0D01*
G01*
X20394375Y-11904025D02*
G75*
G02*
X20364375Y-11904025I-15000J0D01*
G01*
X20364375Y-11904025D02*
G75*
G02*
X20394375Y-11904025I15000J0D01*
G01*
X20398500Y-7391400D02*
G75*
G02*
X20368500Y-7391400I-15000J0D01*
G01*
X20368500Y-7391400D02*
G75*
G02*
X20398500Y-7391400I15000J0D01*
G01*
X20398500Y-11417300D02*
G75*
G02*
X20368500Y-11417300I-15000J0D01*
G01*
X20368500Y-11417300D02*
G75*
G02*
X20398500Y-11417300I15000J0D01*
G01*
X20414320Y-8774200D02*
G75*
G02*
X20384320Y-8774200I-15000J0D01*
G01*
X20384320Y-8774200D02*
G75*
G02*
X20414320Y-8774200I15000J0D01*
G01*
X20414869Y-8904200D02*
G75*
G02*
X20384869Y-8904200I-15000J0D01*
G01*
X20384869Y-8904200D02*
G75*
G02*
X20414869Y-8904200I15000J0D01*
G01*
X20454784Y-9305400D02*
G75*
G02*
X20424784Y-9305400I-15000J0D01*
G01*
X20424784Y-9305400D02*
G75*
G02*
X20454784Y-9305400I15000J0D01*
G01*
X20471000Y-7213600D02*
G75*
G02*
X20441000Y-7213600I-15000J0D01*
G01*
X20441000Y-7213600D02*
G75*
G02*
X20471000Y-7213600I15000J0D01*
G01*
X20487400Y-10388600D02*
G75*
G02*
X20457400Y-10388600I-15000J0D01*
G01*
X20457400Y-10388600D02*
G75*
G02*
X20487400Y-10388600I15000J0D01*
G01*
X20487400Y-10769600D02*
G75*
G02*
X20457400Y-10769600I-15000J0D01*
G01*
X20457400Y-10769600D02*
G75*
G02*
X20487400Y-10769600I15000J0D01*
G01*
X20487400Y-12725400D02*
G75*
G02*
X20457400Y-12725400I-15000J0D01*
G01*
X20457400Y-12725400D02*
G75*
G02*
X20487400Y-12725400I15000J0D01*
G01*
X20521388Y-8086465D02*
G75*
G02*
X20491388Y-8086465I-15000J0D01*
G01*
X20491388Y-8086465D02*
G75*
G02*
X20521388Y-8086465I15000J0D01*
G01*
X20546100Y-10160000D02*
G75*
G02*
X20516100Y-10160000I-15000J0D01*
G01*
X20516100Y-10160000D02*
G75*
G02*
X20546100Y-10160000I15000J0D01*
G01*
X20572400Y-10769600D02*
G75*
G02*
X20542400Y-10769600I-15000J0D01*
G01*
X20542400Y-10769600D02*
G75*
G02*
X20572400Y-10769600I15000J0D01*
G01*
X20598844Y-8051456D02*
G75*
G02*
X20568844Y-8051456I-15000J0D01*
G01*
X20568844Y-8051456D02*
G75*
G02*
X20598844Y-8051456I15000J0D01*
G01*
X20614400Y-9931400D02*
G75*
G02*
X20584400Y-9931400I-15000J0D01*
G01*
X20584400Y-9931400D02*
G75*
G02*
X20614400Y-9931400I15000J0D01*
G01*
X20614400Y-10016400D02*
G75*
G02*
X20584400Y-10016400I-15000J0D01*
G01*
X20584400Y-10016400D02*
G75*
G02*
X20614400Y-10016400I15000J0D01*
G01*
X20627100Y-11163300D02*
G75*
G02*
X20597100Y-11163300I-15000J0D01*
G01*
X20597100Y-11163300D02*
G75*
G02*
X20627100Y-11163300I15000J0D01*
G01*
X20654850Y-10886250D02*
G75*
G02*
X20624850Y-10886250I-15000J0D01*
G01*
X20624850Y-10886250D02*
G75*
G02*
X20654850Y-10886250I15000J0D01*
G01*
X20672874Y-10333569D02*
G75*
G02*
X20642874Y-10333569I-15000J0D01*
G01*
X20642874Y-10333569D02*
G75*
G02*
X20672874Y-10333569I15000J0D01*
G01*
X20674672Y-9304779D02*
G75*
G02*
X20644672Y-9304779I-15000J0D01*
G01*
X20644672Y-9304779D02*
G75*
G02*
X20674672Y-9304779I15000J0D01*
G01*
X20677900Y-9080500D02*
G75*
G02*
X20647900Y-9080500I-15000J0D01*
G01*
X20647900Y-9080500D02*
G75*
G02*
X20677900Y-9080500I15000J0D01*
G01*
X20741400Y-10500300D02*
G75*
G02*
X20711400Y-10500300I-15000J0D01*
G01*
X20711400Y-10500300D02*
G75*
G02*
X20741400Y-10500300I15000J0D01*
G01*
X20741400Y-10668000D02*
G75*
G02*
X20711400Y-10668000I-15000J0D01*
G01*
X20711400Y-10668000D02*
G75*
G02*
X20741400Y-10668000I15000J0D01*
G01*
X20761712Y-10090750D02*
G75*
G02*
X20731712Y-10090750I-15000J0D01*
G01*
X20731712Y-10090750D02*
G75*
G02*
X20761712Y-10090750I15000J0D01*
G01*
X20766800Y-9855200D02*
G75*
G02*
X20736800Y-9855200I-15000J0D01*
G01*
X20736800Y-9855200D02*
G75*
G02*
X20766800Y-9855200I15000J0D01*
G01*
X20766800Y-11950700D02*
G75*
G02*
X20736800Y-11950700I-15000J0D01*
G01*
X20736800Y-11950700D02*
G75*
G02*
X20766800Y-11950700I15000J0D01*
G01*
X20797445Y-10251075D02*
G75*
G02*
X20767445Y-10251075I-15000J0D01*
G01*
X20767445Y-10251075D02*
G75*
G02*
X20797445Y-10251075I15000J0D01*
G01*
X20804400Y-7942715D02*
G75*
G02*
X20774400Y-7942715I-15000J0D01*
G01*
X20774400Y-7942715D02*
G75*
G02*
X20804400Y-7942715I15000J0D01*
G01*
X20804400Y-8024254D02*
G75*
G02*
X20774400Y-8024254I-15000J0D01*
G01*
X20774400Y-8024254D02*
G75*
G02*
X20804400Y-8024254I15000J0D01*
G01*
X20846700Y-9302423D02*
G75*
G02*
X20816700Y-9302423I-15000J0D01*
G01*
X20816700Y-9302423D02*
G75*
G02*
X20846700Y-9302423I15000J0D01*
G01*
X20859400Y-7569077D02*
G75*
G02*
X20829400Y-7569077I-15000J0D01*
G01*
X20829400Y-7569077D02*
G75*
G02*
X20859400Y-7569077I15000J0D01*
G01*
X20881100Y-7470000D02*
G75*
G02*
X20851100Y-7470000I-15000J0D01*
G01*
X20851100Y-7470000D02*
G75*
G02*
X20881100Y-7470000I15000J0D01*
G01*
X20893800Y-12598400D02*
G75*
G02*
X20863800Y-12598400I-15000J0D01*
G01*
X20863800Y-12598400D02*
G75*
G02*
X20893800Y-12598400I15000J0D01*
G01*
X20893800Y-13487400D02*
G75*
G02*
X20863800Y-13487400I-15000J0D01*
G01*
X20863800Y-13487400D02*
G75*
G02*
X20893800Y-13487400I15000J0D01*
G01*
X20893800Y-13614400D02*
G75*
G02*
X20863800Y-13614400I-15000J0D01*
G01*
X20863800Y-13614400D02*
G75*
G02*
X20893800Y-13614400I15000J0D01*
G01*
X20919200Y-8686800D02*
G75*
G02*
X20889200Y-8686800I-15000J0D01*
G01*
X20889200Y-8686800D02*
G75*
G02*
X20919200Y-8686800I15000J0D01*
G01*
X20919200Y-9512300D02*
G75*
G02*
X20889200Y-9512300I-15000J0D01*
G01*
X20889200Y-9512300D02*
G75*
G02*
X20919200Y-9512300I15000J0D01*
G01*
X20919200Y-9855200D02*
G75*
G02*
X20889200Y-9855200I-15000J0D01*
G01*
X20889200Y-9855200D02*
G75*
G02*
X20919200Y-9855200I15000J0D01*
G01*
X20919200Y-10386600D02*
G75*
G02*
X20889200Y-10386600I-15000J0D01*
G01*
X20889200Y-10386600D02*
G75*
G02*
X20919200Y-10386600I15000J0D01*
G01*
X21033500Y-12903200D02*
G75*
G02*
X21003500Y-12903200I-15000J0D01*
G01*
X21003500Y-12903200D02*
G75*
G02*
X21033500Y-12903200I15000J0D01*
G01*
X21058900Y-8877300D02*
G75*
G02*
X21028900Y-8877300I-15000J0D01*
G01*
X21028900Y-8877300D02*
G75*
G02*
X21058900Y-8877300I15000J0D01*
G01*
X21122400Y-13233400D02*
G75*
G02*
X21092400Y-13233400I-15000J0D01*
G01*
X21092400Y-13233400D02*
G75*
G02*
X21122400Y-13233400I15000J0D01*
G01*
X21147800Y-8775700D02*
G75*
G02*
X21117800Y-8775700I-15000J0D01*
G01*
X21117800Y-8775700D02*
G75*
G02*
X21147800Y-8775700I15000J0D01*
G01*
X21211300Y-8623300D02*
G75*
G02*
X21181300Y-8623300I-15000J0D01*
G01*
X21181300Y-8623300D02*
G75*
G02*
X21211300Y-8623300I15000J0D01*
G01*
X21351000Y-13487400D02*
G75*
G02*
X21321000Y-13487400I-15000J0D01*
G01*
X21321000Y-13487400D02*
G75*
G02*
X21351000Y-13487400I15000J0D01*
G01*
X21719300Y-14008100D02*
G75*
G02*
X21689300Y-14008100I-15000J0D01*
G01*
X21689300Y-14008100D02*
G75*
G02*
X21719300Y-14008100I15000J0D01*
G01*
X21782800Y-13563600D02*
G75*
G02*
X21752800Y-13563600I-15000J0D01*
G01*
X21752800Y-13563600D02*
G75*
G02*
X21782800Y-13563600I15000J0D01*
G01*
X21884400Y-13233400D02*
G75*
G02*
X21854400Y-13233400I-15000J0D01*
G01*
X21854400Y-13233400D02*
G75*
G02*
X21884400Y-13233400I15000J0D01*
G01*
X16500000Y-12110000D02*
X16500000Y-12190000D01*
X16460000Y-12150000D02*
X16540000Y-12150000D01*
X16500000Y-12610000D02*
X16500000Y-12690000D01*
X16460000Y-12650000D02*
X16540000Y-12650000D01*
X16500000Y-13360000D02*
X16500000Y-13440000D01*
X16460000Y-13400000D02*
X16540000Y-13400000D01*
X16500000Y-13860000D02*
X16500000Y-13940000D01*
X16460000Y-13900000D02*
X16540000Y-13900000D01*
X13285356Y-6235356D02*
X13285356Y-6164644D01*
X13214644Y-6164644D01*
X13214644Y-6235356D01*
X13285356Y-6235356D01*
X13285356Y-6489356D02*
X13285356Y-6418644D01*
X13214644Y-6418644D01*
X13214644Y-6489356D01*
X13285356Y-6489356D01*
X13285356Y-6743356D02*
X13285356Y-6672644D01*
X13214644Y-6672644D01*
X13214644Y-6743356D01*
X13285356Y-6743356D01*
X13285356Y-6997356D02*
X13285356Y-6926644D01*
X13214644Y-6926644D01*
X13214644Y-6997356D01*
X13285356Y-6997356D01*
X13285356Y-7251356D02*
X13285356Y-7180644D01*
X13214644Y-7180644D01*
X13214644Y-7251356D01*
X13285356Y-7251356D01*
X13285356Y-7505356D02*
X13285356Y-7434644D01*
X13214644Y-7434644D01*
X13214644Y-7505356D01*
X13285356Y-7505356D01*
X13285356Y-7759356D02*
X13285356Y-7688644D01*
X13214644Y-7688644D01*
X13214644Y-7759356D01*
X13285356Y-7759356D01*
X13285356Y-8013356D02*
X13285356Y-7942644D01*
X13214644Y-7942644D01*
X13214644Y-8013356D01*
X13285356Y-8013356D01*
X13285356Y-8267356D02*
X13285356Y-8196644D01*
X13214644Y-8196644D01*
X13214644Y-8267356D01*
X13285356Y-8267356D01*
X13285356Y-8521356D02*
X13285356Y-8450644D01*
X13214644Y-8450644D01*
X13214644Y-8521356D01*
X13285356Y-8521356D01*
X13285356Y-8775356D02*
X13285356Y-8704644D01*
X13214644Y-8704644D01*
X13214644Y-8775356D01*
X13285356Y-8775356D01*
X13285356Y-9029356D02*
X13285356Y-8958644D01*
X13214644Y-8958644D01*
X13214644Y-9029356D01*
X13285356Y-9029356D01*
X13285356Y-9283356D02*
X13285356Y-9212644D01*
X13214644Y-9212644D01*
X13214644Y-9283356D01*
X13285356Y-9283356D01*
X13285356Y-9537356D02*
X13285356Y-9466644D01*
X13214644Y-9466644D01*
X13214644Y-9537356D01*
X13285356Y-9537356D01*
X13285356Y-9791356D02*
X13285356Y-9720644D01*
X13214644Y-9720644D01*
X13214644Y-9791356D01*
X13285356Y-9791356D01*
X13285356Y-10045356D02*
X13285356Y-9974644D01*
X13214644Y-9974644D01*
X13214644Y-10045356D01*
X13285356Y-10045356D01*
X13285356Y-10299356D02*
X13285356Y-10228644D01*
X13214644Y-10228644D01*
X13214644Y-10299356D01*
X13285356Y-10299356D01*
X13285356Y-10553356D02*
X13285356Y-10482644D01*
X13214644Y-10482644D01*
X13214644Y-10553356D01*
X13285356Y-10553356D01*
X13285356Y-10807356D02*
X13285356Y-10736644D01*
X13214644Y-10736644D01*
X13214644Y-10807356D01*
X13285356Y-10807356D01*
X13285356Y-11061356D02*
X13285356Y-10990644D01*
X13214644Y-10990644D01*
X13214644Y-11061356D01*
X13285356Y-11061356D01*
X13539356Y-6235356D02*
X13539356Y-6164644D01*
X13468644Y-6164644D01*
X13468644Y-6235356D01*
X13539356Y-6235356D01*
X13539356Y-6489356D02*
X13539356Y-6418644D01*
X13468644Y-6418644D01*
X13468644Y-6489356D01*
X13539356Y-6489356D01*
X13539356Y-6743356D02*
X13539356Y-6672644D01*
X13468644Y-6672644D01*
X13468644Y-6743356D01*
X13539356Y-6743356D01*
X13539356Y-6997356D02*
X13539356Y-6926644D01*
X13468644Y-6926644D01*
X13468644Y-6997356D01*
X13539356Y-6997356D01*
X13539356Y-7251356D02*
X13539356Y-7180644D01*
X13468644Y-7180644D01*
X13468644Y-7251356D01*
X13539356Y-7251356D01*
X13539356Y-7505356D02*
X13539356Y-7434644D01*
X13468644Y-7434644D01*
X13468644Y-7505356D01*
X13539356Y-7505356D01*
X13539356Y-7759356D02*
X13539356Y-7688644D01*
X13468644Y-7688644D01*
X13468644Y-7759356D01*
X13539356Y-7759356D01*
X13539356Y-8013356D02*
X13539356Y-7942644D01*
X13468644Y-7942644D01*
X13468644Y-8013356D01*
X13539356Y-8013356D01*
X13539356Y-8267356D02*
X13539356Y-8196644D01*
X13468644Y-8196644D01*
X13468644Y-8267356D01*
X13539356Y-8267356D01*
X13539356Y-8521356D02*
X13539356Y-8450644D01*
X13468644Y-8450644D01*
X13468644Y-8521356D01*
X13539356Y-8521356D01*
X13539356Y-8775356D02*
X13539356Y-8704644D01*
X13468644Y-8704644D01*
X13468644Y-8775356D01*
X13539356Y-8775356D01*
X13539356Y-9029356D02*
X13539356Y-8958644D01*
X13468644Y-8958644D01*
X13468644Y-9029356D01*
X13539356Y-9029356D01*
X13539356Y-9283356D02*
X13539356Y-9212644D01*
X13468644Y-9212644D01*
X13468644Y-9283356D01*
X13539356Y-9283356D01*
X13539356Y-9537356D02*
X13539356Y-9466644D01*
X13468644Y-9466644D01*
X13468644Y-9537356D01*
X13539356Y-9537356D01*
X13539356Y-9791356D02*
X13539356Y-9720644D01*
X13468644Y-9720644D01*
X13468644Y-9791356D01*
X13539356Y-9791356D01*
X13539356Y-10045356D02*
X13539356Y-9974644D01*
X13468644Y-9974644D01*
X13468644Y-10045356D01*
X13539356Y-10045356D01*
X13539356Y-10299356D02*
X13539356Y-10228644D01*
X13468644Y-10228644D01*
X13468644Y-10299356D01*
X13539356Y-10299356D01*
X13539356Y-10553356D02*
X13539356Y-10482644D01*
X13468644Y-10482644D01*
X13468644Y-10553356D01*
X13539356Y-10553356D01*
X13539356Y-10807356D02*
X13539356Y-10736644D01*
X13468644Y-10736644D01*
X13468644Y-10807356D01*
X13539356Y-10807356D01*
X13539356Y-11061356D02*
X13539356Y-10990644D01*
X13468644Y-10990644D01*
X13468644Y-11061356D01*
X13539356Y-11061356D01*
X15110356Y-15142856D02*
X15110356Y-15072144D01*
X15039644Y-15072144D01*
X15039644Y-15142856D01*
X15110356Y-15142856D01*
X15560356Y-15142856D02*
X15560356Y-15072144D01*
X15489644Y-15072144D01*
X15489644Y-15142856D01*
X15560356Y-15142856D01*
X18981756Y-14204856D02*
X18981756Y-14134144D01*
X18911044Y-14134144D01*
X18911044Y-14204856D01*
X18981756Y-14204856D01*
X18981756Y-14458856D02*
X18981756Y-14388144D01*
X18911044Y-14388144D01*
X18911044Y-14458856D01*
X18981756Y-14458856D01*
X19235756Y-14204856D02*
X19235756Y-14134144D01*
X19165044Y-14134144D01*
X19165044Y-14204856D01*
X19235756Y-14204856D01*
X19235756Y-14458856D02*
X19235756Y-14388144D01*
X19165044Y-14388144D01*
X19165044Y-14458856D01*
X19235756Y-14458856D01*
X19489756Y-14204856D02*
X19489756Y-14134144D01*
X19419044Y-14134144D01*
X19419044Y-14204856D01*
X19489756Y-14204856D01*
X19489756Y-14458856D02*
X19489756Y-14388144D01*
X19419044Y-14388144D01*
X19419044Y-14458856D01*
X19489756Y-14458856D01*
X19743756Y-14204856D02*
X19743756Y-14134144D01*
X19673044Y-14134144D01*
X19673044Y-14204856D01*
X19743756Y-14204856D01*
X19743756Y-14458856D02*
X19743756Y-14388144D01*
X19673044Y-14388144D01*
X19673044Y-14458856D01*
X19743756Y-14458856D01*
X19997756Y-14204856D02*
X19997756Y-14134144D01*
X19927044Y-14134144D01*
X19927044Y-14204856D01*
X19997756Y-14204856D01*
X19997756Y-14458856D02*
X19997756Y-14388144D01*
X19927044Y-14388144D01*
X19927044Y-14458856D01*
X19997756Y-14458856D01*
X20505756Y-14204856D02*
X20505756Y-14134144D01*
X20435044Y-14134144D01*
X20435044Y-14204856D01*
X20505756Y-14204856D01*
X20505756Y-14458856D02*
X20505756Y-14388144D01*
X20435044Y-14388144D01*
X20435044Y-14458856D01*
X20505756Y-14458856D01*
X20759756Y-14204856D02*
X20759756Y-14134144D01*
X20689044Y-14134144D01*
X20689044Y-14204856D01*
X20759756Y-14204856D01*
X20759756Y-14458856D02*
X20759756Y-14388144D01*
X20689044Y-14388144D01*
X20689044Y-14458856D01*
X20759756Y-14458856D01*
X21013756Y-14204856D02*
X21013756Y-14134144D01*
X20943044Y-14134144D01*
X20943044Y-14204856D01*
X21013756Y-14204856D01*
X21013756Y-14458856D02*
X21013756Y-14388144D01*
X20943044Y-14388144D01*
X20943044Y-14458856D01*
X21013756Y-14458856D01*
X21267756Y-14204856D02*
X21267756Y-14134144D01*
X21197044Y-14134144D01*
X21197044Y-14204856D01*
X21267756Y-14204856D01*
X21267756Y-14458856D02*
X21267756Y-14388144D01*
X21197044Y-14388144D01*
X21197044Y-14458856D01*
X21267756Y-14458856D01*
X21521756Y-14204856D02*
X21521756Y-14134144D01*
X21451044Y-14134144D01*
X21451044Y-14204856D01*
X21521756Y-14204856D01*
X21521756Y-14458856D02*
X21521756Y-14388144D01*
X21451044Y-14388144D01*
X21451044Y-14458856D01*
X21521756Y-14458856D01*
X21531356Y-6235356D02*
X21531356Y-6164644D01*
X21460644Y-6164644D01*
X21460644Y-6235356D01*
X21531356Y-6235356D01*
X21531356Y-6489356D02*
X21531356Y-6418644D01*
X21460644Y-6418644D01*
X21460644Y-6489356D01*
X21531356Y-6489356D01*
X21531356Y-6743356D02*
X21531356Y-6672644D01*
X21460644Y-6672644D01*
X21460644Y-6743356D01*
X21531356Y-6743356D01*
X21531356Y-6997356D02*
X21531356Y-6926644D01*
X21460644Y-6926644D01*
X21460644Y-6997356D01*
X21531356Y-6997356D01*
X21531356Y-7251356D02*
X21531356Y-7180644D01*
X21460644Y-7180644D01*
X21460644Y-7251356D01*
X21531356Y-7251356D01*
X21531356Y-7505356D02*
X21531356Y-7434644D01*
X21460644Y-7434644D01*
X21460644Y-7505356D01*
X21531356Y-7505356D01*
X21531356Y-7759356D02*
X21531356Y-7688644D01*
X21460644Y-7688644D01*
X21460644Y-7759356D01*
X21531356Y-7759356D01*
X21531356Y-8013356D02*
X21531356Y-7942644D01*
X21460644Y-7942644D01*
X21460644Y-8013356D01*
X21531356Y-8013356D01*
X21531356Y-8267356D02*
X21531356Y-8196644D01*
X21460644Y-8196644D01*
X21460644Y-8267356D01*
X21531356Y-8267356D01*
X21531356Y-8521356D02*
X21531356Y-8450644D01*
X21460644Y-8450644D01*
X21460644Y-8521356D01*
X21531356Y-8521356D01*
X21531356Y-8775356D02*
X21531356Y-8704644D01*
X21460644Y-8704644D01*
X21460644Y-8775356D01*
X21531356Y-8775356D01*
X21531356Y-9029356D02*
X21531356Y-8958644D01*
X21460644Y-8958644D01*
X21460644Y-9029356D01*
X21531356Y-9029356D01*
X21531356Y-9283356D02*
X21531356Y-9212644D01*
X21460644Y-9212644D01*
X21460644Y-9283356D01*
X21531356Y-9283356D01*
X21531356Y-9537356D02*
X21531356Y-9466644D01*
X21460644Y-9466644D01*
X21460644Y-9537356D01*
X21531356Y-9537356D01*
X21531356Y-9791356D02*
X21531356Y-9720644D01*
X21460644Y-9720644D01*
X21460644Y-9791356D01*
X21531356Y-9791356D01*
X21531356Y-10045356D02*
X21531356Y-9974644D01*
X21460644Y-9974644D01*
X21460644Y-10045356D01*
X21531356Y-10045356D01*
X21531356Y-10299356D02*
X21531356Y-10228644D01*
X21460644Y-10228644D01*
X21460644Y-10299356D01*
X21531356Y-10299356D01*
X21531356Y-10553356D02*
X21531356Y-10482644D01*
X21460644Y-10482644D01*
X21460644Y-10553356D01*
X21531356Y-10553356D01*
X21531356Y-10807356D02*
X21531356Y-10736644D01*
X21460644Y-10736644D01*
X21460644Y-10807356D01*
X21531356Y-10807356D01*
X21531356Y-11061356D02*
X21531356Y-10990644D01*
X21460644Y-10990644D01*
X21460644Y-11061356D01*
X21531356Y-11061356D01*
X21785356Y-6235356D02*
X21785356Y-6164644D01*
X21714644Y-6164644D01*
X21714644Y-6235356D01*
X21785356Y-6235356D01*
X21785356Y-6489356D02*
X21785356Y-6418644D01*
X21714644Y-6418644D01*
X21714644Y-6489356D01*
X21785356Y-6489356D01*
X21785356Y-6743356D02*
X21785356Y-6672644D01*
X21714644Y-6672644D01*
X21714644Y-6743356D01*
X21785356Y-6743356D01*
X21785356Y-6997356D02*
X21785356Y-6926644D01*
X21714644Y-6926644D01*
X21714644Y-6997356D01*
X21785356Y-6997356D01*
X21785356Y-7251356D02*
X21785356Y-7180644D01*
X21714644Y-7180644D01*
X21714644Y-7251356D01*
X21785356Y-7251356D01*
X21785356Y-7505356D02*
X21785356Y-7434644D01*
X21714644Y-7434644D01*
X21714644Y-7505356D01*
X21785356Y-7505356D01*
X21785356Y-7759356D02*
X21785356Y-7688644D01*
X21714644Y-7688644D01*
X21714644Y-7759356D01*
X21785356Y-7759356D01*
X21785356Y-8013356D02*
X21785356Y-7942644D01*
X21714644Y-7942644D01*
X21714644Y-8013356D01*
X21785356Y-8013356D01*
X21785356Y-8267356D02*
X21785356Y-8196644D01*
X21714644Y-8196644D01*
X21714644Y-8267356D01*
X21785356Y-8267356D01*
X21785356Y-8521356D02*
X21785356Y-8450644D01*
X21714644Y-8450644D01*
X21714644Y-8521356D01*
X21785356Y-8521356D01*
X21785356Y-8775356D02*
X21785356Y-8704644D01*
X21714644Y-8704644D01*
X21714644Y-8775356D01*
X21785356Y-8775356D01*
X21785356Y-9029356D02*
X21785356Y-8958644D01*
X21714644Y-8958644D01*
X21714644Y-9029356D01*
X21785356Y-9029356D01*
X21785356Y-9283356D02*
X21785356Y-9212644D01*
X21714644Y-9212644D01*
X21714644Y-9283356D01*
X21785356Y-9283356D01*
X21785356Y-9537356D02*
X21785356Y-9466644D01*
X21714644Y-9466644D01*
X21714644Y-9537356D01*
X21785356Y-9537356D01*
X21785356Y-9791356D02*
X21785356Y-9720644D01*
X21714644Y-9720644D01*
X21714644Y-9791356D01*
X21785356Y-9791356D01*
X21785356Y-10045356D02*
X21785356Y-9974644D01*
X21714644Y-9974644D01*
X21714644Y-10045356D01*
X21785356Y-10045356D01*
X21785356Y-10299356D02*
X21785356Y-10228644D01*
X21714644Y-10228644D01*
X21714644Y-10299356D01*
X21785356Y-10299356D01*
X21785356Y-10553356D02*
X21785356Y-10482644D01*
X21714644Y-10482644D01*
X21714644Y-10553356D01*
X21785356Y-10553356D01*
X21785356Y-10807356D02*
X21785356Y-10736644D01*
X21714644Y-10736644D01*
X21714644Y-10807356D01*
X21785356Y-10807356D01*
X21785356Y-11061356D02*
X21785356Y-10990644D01*
X21714644Y-10990644D01*
X21714644Y-11061356D01*
X21785356Y-11061356D01*
D13*
X14950000Y-14922500D02*
X15015000Y-14857500D01*
X14950000Y-14792500D01*
X14885000Y-14857500D01*
X14950000Y-14922500D01*
X15650000Y-14922500D02*
X15715000Y-14857500D01*
X15650000Y-14792500D01*
X15585000Y-14857500D01*
X15650000Y-14922500D01*
D11*
X12758277Y-15763984D02*
X12758277Y-15563984D01*
X12758277Y-15563984D02*
X12805896Y-15563984D01*
X12805896Y-15563984D02*
X12834467Y-15573508D01*
X12834467Y-15573508D02*
X12853515Y-15592555D01*
X12853515Y-15592555D02*
X12863039Y-15611603D01*
X12863039Y-15611603D02*
X12872562Y-15649698D01*
X12872562Y-15649698D02*
X12872562Y-15678269D01*
X12872562Y-15678269D02*
X12863039Y-15716365D01*
X12863039Y-15716365D02*
X12853515Y-15735412D01*
X12853515Y-15735412D02*
X12834467Y-15754460D01*
X12834467Y-15754460D02*
X12805896Y-15763984D01*
X12805896Y-15763984D02*
X12758277Y-15763984D01*
X12958277Y-15763984D02*
X12958277Y-15630650D01*
X12958277Y-15668746D02*
X12967801Y-15649698D01*
X12967801Y-15649698D02*
X12977324Y-15640174D01*
X12977324Y-15640174D02*
X12996372Y-15630650D01*
X12996372Y-15630650D02*
X13015420Y-15630650D01*
X13082086Y-15763984D02*
X13082086Y-15630650D01*
X13082086Y-15563984D02*
X13072562Y-15573508D01*
X13072562Y-15573508D02*
X13082086Y-15583031D01*
X13082086Y-15583031D02*
X13091610Y-15573508D01*
X13091610Y-15573508D02*
X13082086Y-15563984D01*
X13082086Y-15563984D02*
X13082086Y-15583031D01*
X13205896Y-15763984D02*
X13186848Y-15754460D01*
X13186848Y-15754460D02*
X13177324Y-15735412D01*
X13177324Y-15735412D02*
X13177324Y-15563984D01*
X13310658Y-15763984D02*
X13291610Y-15754460D01*
X13291610Y-15754460D02*
X13282086Y-15735412D01*
X13282086Y-15735412D02*
X13282086Y-15563984D01*
X13539229Y-15763984D02*
X13539229Y-15563984D01*
X13539229Y-15563984D02*
X13605896Y-15706841D01*
X13605896Y-15706841D02*
X13672562Y-15563984D01*
X13672562Y-15563984D02*
X13672562Y-15763984D01*
X13853515Y-15763984D02*
X13853515Y-15659222D01*
X13853515Y-15659222D02*
X13843991Y-15640174D01*
X13843991Y-15640174D02*
X13824943Y-15630650D01*
X13824943Y-15630650D02*
X13786848Y-15630650D01*
X13786848Y-15630650D02*
X13767801Y-15640174D01*
X13853515Y-15754460D02*
X13834467Y-15763984D01*
X13834467Y-15763984D02*
X13786848Y-15763984D01*
X13786848Y-15763984D02*
X13767801Y-15754460D01*
X13767801Y-15754460D02*
X13758277Y-15735412D01*
X13758277Y-15735412D02*
X13758277Y-15716365D01*
X13758277Y-15716365D02*
X13767801Y-15697317D01*
X13767801Y-15697317D02*
X13786848Y-15687793D01*
X13786848Y-15687793D02*
X13834467Y-15687793D01*
X13834467Y-15687793D02*
X13853515Y-15678269D01*
X13948753Y-15630650D02*
X13948753Y-15830650D01*
X13948753Y-15640174D02*
X13967801Y-15630650D01*
X13967801Y-15630650D02*
X14005896Y-15630650D01*
X14005896Y-15630650D02*
X14024943Y-15640174D01*
X14024943Y-15640174D02*
X14034467Y-15649698D01*
X14034467Y-15649698D02*
X14043991Y-15668746D01*
X14043991Y-15668746D02*
X14043991Y-15725888D01*
X14043991Y-15725888D02*
X14034467Y-15744936D01*
X14034467Y-15744936D02*
X14024943Y-15754460D01*
X14024943Y-15754460D02*
X14005896Y-15763984D01*
X14005896Y-15763984D02*
X13967801Y-15763984D01*
X13967801Y-15763984D02*
X13948753Y-15754460D01*
X14129705Y-15744936D02*
X14139229Y-15754460D01*
X14139229Y-15754460D02*
X14129705Y-15763984D01*
X14129705Y-15763984D02*
X14120182Y-15754460D01*
X14120182Y-15754460D02*
X14129705Y-15744936D01*
X14129705Y-15744936D02*
X14129705Y-15763984D01*
X14129705Y-15640174D02*
X14139229Y-15649698D01*
X14139229Y-15649698D02*
X14129705Y-15659222D01*
X14129705Y-15659222D02*
X14120182Y-15649698D01*
X14120182Y-15649698D02*
X14129705Y-15640174D01*
X14129705Y-15640174D02*
X14129705Y-15659222D01*
D12*
X12477500Y-16082500D02*
X12497500Y-16102500D01*
X12497500Y-16082500D02*
X12477500Y-16102500D01*
D11*
X12796372Y-15983984D02*
X12815420Y-15983984D01*
X12815420Y-15983984D02*
X12834467Y-15993508D01*
X12834467Y-15993508D02*
X12843991Y-16003031D01*
X12843991Y-16003031D02*
X12853515Y-16022079D01*
X12853515Y-16022079D02*
X12863039Y-16060174D01*
X12863039Y-16060174D02*
X12863039Y-16107793D01*
X12863039Y-16107793D02*
X12853515Y-16145888D01*
X12853515Y-16145888D02*
X12843991Y-16164936D01*
X12843991Y-16164936D02*
X12834467Y-16174460D01*
X12834467Y-16174460D02*
X12815420Y-16183984D01*
X12815420Y-16183984D02*
X12796372Y-16183984D01*
X12796372Y-16183984D02*
X12777324Y-16174460D01*
X12777324Y-16174460D02*
X12767801Y-16164936D01*
X12767801Y-16164936D02*
X12758277Y-16145888D01*
X12758277Y-16145888D02*
X12748753Y-16107793D01*
X12748753Y-16107793D02*
X12748753Y-16060174D01*
X12748753Y-16060174D02*
X12758277Y-16022079D01*
X12758277Y-16022079D02*
X12767801Y-16003031D01*
X12767801Y-16003031D02*
X12777324Y-15993508D01*
X12777324Y-15993508D02*
X12796372Y-15983984D01*
X12948753Y-16164936D02*
X12958277Y-16174460D01*
X12958277Y-16174460D02*
X12948753Y-16183984D01*
X12948753Y-16183984D02*
X12939229Y-16174460D01*
X12939229Y-16174460D02*
X12948753Y-16164936D01*
X12948753Y-16164936D02*
X12948753Y-16183984D01*
X13034467Y-16003031D02*
X13043991Y-15993508D01*
X13043991Y-15993508D02*
X13063039Y-15983984D01*
X13063039Y-15983984D02*
X13110658Y-15983984D01*
X13110658Y-15983984D02*
X13129705Y-15993508D01*
X13129705Y-15993508D02*
X13139229Y-16003031D01*
X13139229Y-16003031D02*
X13148753Y-16022079D01*
X13148753Y-16022079D02*
X13148753Y-16041127D01*
X13148753Y-16041127D02*
X13139229Y-16069698D01*
X13139229Y-16069698D02*
X13024943Y-16183984D01*
X13024943Y-16183984D02*
X13148753Y-16183984D01*
X13272562Y-15983984D02*
X13291610Y-15983984D01*
X13291610Y-15983984D02*
X13310658Y-15993508D01*
X13310658Y-15993508D02*
X13320182Y-16003031D01*
X13320182Y-16003031D02*
X13329705Y-16022079D01*
X13329705Y-16022079D02*
X13339229Y-16060174D01*
X13339229Y-16060174D02*
X13339229Y-16107793D01*
X13339229Y-16107793D02*
X13329705Y-16145888D01*
X13329705Y-16145888D02*
X13320182Y-16164936D01*
X13320182Y-16164936D02*
X13310658Y-16174460D01*
X13310658Y-16174460D02*
X13291610Y-16183984D01*
X13291610Y-16183984D02*
X13272562Y-16183984D01*
X13272562Y-16183984D02*
X13253515Y-16174460D01*
X13253515Y-16174460D02*
X13243991Y-16164936D01*
X13243991Y-16164936D02*
X13234467Y-16145888D01*
X13234467Y-16145888D02*
X13224943Y-16107793D01*
X13224943Y-16107793D02*
X13224943Y-16060174D01*
X13224943Y-16060174D02*
X13234467Y-16022079D01*
X13234467Y-16022079D02*
X13243991Y-16003031D01*
X13243991Y-16003031D02*
X13253515Y-15993508D01*
X13253515Y-15993508D02*
X13272562Y-15983984D01*
X13463039Y-15983984D02*
X13482086Y-15983984D01*
X13482086Y-15983984D02*
X13501134Y-15993508D01*
X13501134Y-15993508D02*
X13510658Y-16003031D01*
X13510658Y-16003031D02*
X13520182Y-16022079D01*
X13520182Y-16022079D02*
X13529705Y-16060174D01*
X13529705Y-16060174D02*
X13529705Y-16107793D01*
X13529705Y-16107793D02*
X13520182Y-16145888D01*
X13520182Y-16145888D02*
X13510658Y-16164936D01*
X13510658Y-16164936D02*
X13501134Y-16174460D01*
X13501134Y-16174460D02*
X13482086Y-16183984D01*
X13482086Y-16183984D02*
X13463039Y-16183984D01*
X13463039Y-16183984D02*
X13443991Y-16174460D01*
X13443991Y-16174460D02*
X13434467Y-16164936D01*
X13434467Y-16164936D02*
X13424943Y-16145888D01*
X13424943Y-16145888D02*
X13415420Y-16107793D01*
X13415420Y-16107793D02*
X13415420Y-16060174D01*
X13415420Y-16060174D02*
X13424943Y-16022079D01*
X13424943Y-16022079D02*
X13434467Y-16003031D01*
X13434467Y-16003031D02*
X13443991Y-15993508D01*
X13443991Y-15993508D02*
X13463039Y-15983984D01*
X13615420Y-16183984D02*
X13615420Y-16050650D01*
X13615420Y-16069698D02*
X13624943Y-16060174D01*
X13624943Y-16060174D02*
X13643991Y-16050650D01*
X13643991Y-16050650D02*
X13672563Y-16050650D01*
X13672563Y-16050650D02*
X13691610Y-16060174D01*
X13691610Y-16060174D02*
X13701134Y-16079222D01*
X13701134Y-16079222D02*
X13701134Y-16183984D01*
X13701134Y-16079222D02*
X13710658Y-16060174D01*
X13710658Y-16060174D02*
X13729705Y-16050650D01*
X13729705Y-16050650D02*
X13758277Y-16050650D01*
X13758277Y-16050650D02*
X13777324Y-16060174D01*
X13777324Y-16060174D02*
X13786848Y-16079222D01*
X13786848Y-16079222D02*
X13786848Y-16183984D01*
X13882086Y-16183984D02*
X13882086Y-16050650D01*
X13882086Y-16069698D02*
X13891610Y-16060174D01*
X13891610Y-16060174D02*
X13910658Y-16050650D01*
X13910658Y-16050650D02*
X13939229Y-16050650D01*
X13939229Y-16050650D02*
X13958277Y-16060174D01*
X13958277Y-16060174D02*
X13967801Y-16079222D01*
X13967801Y-16079222D02*
X13967801Y-16183984D01*
X13967801Y-16079222D02*
X13977324Y-16060174D01*
X13977324Y-16060174D02*
X13996372Y-16050650D01*
X13996372Y-16050650D02*
X14024943Y-16050650D01*
X14024943Y-16050650D02*
X14043991Y-16060174D01*
X14043991Y-16060174D02*
X14053515Y-16079222D01*
X14053515Y-16079222D02*
X14053515Y-16183984D01*
X14443991Y-15974460D02*
X14272563Y-16231603D01*
X14701134Y-15983984D02*
X14720182Y-15983984D01*
X14720182Y-15983984D02*
X14739229Y-15993508D01*
X14739229Y-15993508D02*
X14748753Y-16003031D01*
X14748753Y-16003031D02*
X14758277Y-16022079D01*
X14758277Y-16022079D02*
X14767801Y-16060174D01*
X14767801Y-16060174D02*
X14767801Y-16107793D01*
X14767801Y-16107793D02*
X14758277Y-16145888D01*
X14758277Y-16145888D02*
X14748753Y-16164936D01*
X14748753Y-16164936D02*
X14739229Y-16174460D01*
X14739229Y-16174460D02*
X14720182Y-16183984D01*
X14720182Y-16183984D02*
X14701134Y-16183984D01*
X14701134Y-16183984D02*
X14682086Y-16174460D01*
X14682086Y-16174460D02*
X14672563Y-16164936D01*
X14672563Y-16164936D02*
X14663039Y-16145888D01*
X14663039Y-16145888D02*
X14653515Y-16107793D01*
X14653515Y-16107793D02*
X14653515Y-16060174D01*
X14653515Y-16060174D02*
X14663039Y-16022079D01*
X14663039Y-16022079D02*
X14672563Y-16003031D01*
X14672563Y-16003031D02*
X14682086Y-15993508D01*
X14682086Y-15993508D02*
X14701134Y-15983984D01*
X14853515Y-16164936D02*
X14863039Y-16174460D01*
X14863039Y-16174460D02*
X14853515Y-16183984D01*
X14853515Y-16183984D02*
X14843991Y-16174460D01*
X14843991Y-16174460D02*
X14853515Y-16164936D01*
X14853515Y-16164936D02*
X14853515Y-16183984D01*
X14986848Y-15983984D02*
X15005896Y-15983984D01*
X15005896Y-15983984D02*
X15024944Y-15993508D01*
X15024944Y-15993508D02*
X15034467Y-16003031D01*
X15034467Y-16003031D02*
X15043991Y-16022079D01*
X15043991Y-16022079D02*
X15053515Y-16060174D01*
X15053515Y-16060174D02*
X15053515Y-16107793D01*
X15053515Y-16107793D02*
X15043991Y-16145888D01*
X15043991Y-16145888D02*
X15034467Y-16164936D01*
X15034467Y-16164936D02*
X15024944Y-16174460D01*
X15024944Y-16174460D02*
X15005896Y-16183984D01*
X15005896Y-16183984D02*
X14986848Y-16183984D01*
X14986848Y-16183984D02*
X14967801Y-16174460D01*
X14967801Y-16174460D02*
X14958277Y-16164936D01*
X14958277Y-16164936D02*
X14948753Y-16145888D01*
X14948753Y-16145888D02*
X14939229Y-16107793D01*
X14939229Y-16107793D02*
X14939229Y-16060174D01*
X14939229Y-16060174D02*
X14948753Y-16022079D01*
X14948753Y-16022079D02*
X14958277Y-16003031D01*
X14958277Y-16003031D02*
X14967801Y-15993508D01*
X14967801Y-15993508D02*
X14986848Y-15983984D01*
X15177325Y-15983984D02*
X15196372Y-15983984D01*
X15196372Y-15983984D02*
X15215420Y-15993508D01*
X15215420Y-15993508D02*
X15224944Y-16003031D01*
X15224944Y-16003031D02*
X15234467Y-16022079D01*
X15234467Y-16022079D02*
X15243991Y-16060174D01*
X15243991Y-16060174D02*
X15243991Y-16107793D01*
X15243991Y-16107793D02*
X15234467Y-16145888D01*
X15234467Y-16145888D02*
X15224944Y-16164936D01*
X15224944Y-16164936D02*
X15215420Y-16174460D01*
X15215420Y-16174460D02*
X15196372Y-16183984D01*
X15196372Y-16183984D02*
X15177325Y-16183984D01*
X15177325Y-16183984D02*
X15158277Y-16174460D01*
X15158277Y-16174460D02*
X15148753Y-16164936D01*
X15148753Y-16164936D02*
X15139229Y-16145888D01*
X15139229Y-16145888D02*
X15129706Y-16107793D01*
X15129706Y-16107793D02*
X15129706Y-16060174D01*
X15129706Y-16060174D02*
X15139229Y-16022079D01*
X15139229Y-16022079D02*
X15148753Y-16003031D01*
X15148753Y-16003031D02*
X15158277Y-15993508D01*
X15158277Y-15993508D02*
X15177325Y-15983984D01*
X15310658Y-15983984D02*
X15443991Y-15983984D01*
X15443991Y-15983984D02*
X15358277Y-16183984D01*
X15529706Y-16183984D02*
X15567801Y-16183984D01*
X15567801Y-16183984D02*
X15586848Y-16174460D01*
X15586848Y-16174460D02*
X15596372Y-16164936D01*
X15596372Y-16164936D02*
X15615420Y-16136365D01*
X15615420Y-16136365D02*
X15624944Y-16098269D01*
X15624944Y-16098269D02*
X15624944Y-16022079D01*
X15624944Y-16022079D02*
X15615420Y-16003031D01*
X15615420Y-16003031D02*
X15605896Y-15993508D01*
X15605896Y-15993508D02*
X15586848Y-15983984D01*
X15586848Y-15983984D02*
X15548753Y-15983984D01*
X15548753Y-15983984D02*
X15529706Y-15993508D01*
X15529706Y-15993508D02*
X15520182Y-16003031D01*
X15520182Y-16003031D02*
X15510658Y-16022079D01*
X15510658Y-16022079D02*
X15510658Y-16069698D01*
X15510658Y-16069698D02*
X15520182Y-16088746D01*
X15520182Y-16088746D02*
X15529706Y-16098269D01*
X15529706Y-16098269D02*
X15548753Y-16107793D01*
X15548753Y-16107793D02*
X15586848Y-16107793D01*
X15586848Y-16107793D02*
X15605896Y-16098269D01*
X15605896Y-16098269D02*
X15615420Y-16088746D01*
X15615420Y-16088746D02*
X15624944Y-16069698D01*
X15701134Y-15983984D02*
X15701134Y-16022079D01*
X15777325Y-15983984D02*
X15777325Y-16022079D01*
X16072563Y-16260174D02*
X16063039Y-16250650D01*
X16063039Y-16250650D02*
X16043991Y-16222079D01*
X16043991Y-16222079D02*
X16034468Y-16203031D01*
X16034468Y-16203031D02*
X16024944Y-16174460D01*
X16024944Y-16174460D02*
X16015420Y-16126841D01*
X16015420Y-16126841D02*
X16015420Y-16088746D01*
X16015420Y-16088746D02*
X16024944Y-16041127D01*
X16024944Y-16041127D02*
X16034468Y-16012555D01*
X16034468Y-16012555D02*
X16043991Y-15993508D01*
X16043991Y-15993508D02*
X16063039Y-15964936D01*
X16063039Y-15964936D02*
X16072563Y-15955412D01*
X16253515Y-16183984D02*
X16139229Y-16183984D01*
X16196372Y-16183984D02*
X16196372Y-15983984D01*
X16196372Y-15983984D02*
X16177325Y-16012555D01*
X16177325Y-16012555D02*
X16158277Y-16031603D01*
X16158277Y-16031603D02*
X16139229Y-16041127D01*
X16329706Y-16003031D02*
X16339229Y-15993508D01*
X16339229Y-15993508D02*
X16358277Y-15983984D01*
X16358277Y-15983984D02*
X16405896Y-15983984D01*
X16405896Y-15983984D02*
X16424944Y-15993508D01*
X16424944Y-15993508D02*
X16434468Y-16003031D01*
X16434468Y-16003031D02*
X16443991Y-16022079D01*
X16443991Y-16022079D02*
X16443991Y-16041127D01*
X16443991Y-16041127D02*
X16434468Y-16069698D01*
X16434468Y-16069698D02*
X16320182Y-16183984D01*
X16320182Y-16183984D02*
X16443991Y-16183984D01*
X16682087Y-16183984D02*
X16682087Y-15983984D01*
X16767801Y-16183984D02*
X16767801Y-16079222D01*
X16767801Y-16079222D02*
X16758277Y-16060174D01*
X16758277Y-16060174D02*
X16739230Y-16050650D01*
X16739230Y-16050650D02*
X16710658Y-16050650D01*
X16710658Y-16050650D02*
X16691610Y-16060174D01*
X16691610Y-16060174D02*
X16682087Y-16069698D01*
X16891611Y-16183984D02*
X16872563Y-16174460D01*
X16872563Y-16174460D02*
X16863039Y-16164936D01*
X16863039Y-16164936D02*
X16853515Y-16145888D01*
X16853515Y-16145888D02*
X16853515Y-16088746D01*
X16853515Y-16088746D02*
X16863039Y-16069698D01*
X16863039Y-16069698D02*
X16872563Y-16060174D01*
X16872563Y-16060174D02*
X16891611Y-16050650D01*
X16891611Y-16050650D02*
X16920182Y-16050650D01*
X16920182Y-16050650D02*
X16939230Y-16060174D01*
X16939230Y-16060174D02*
X16948753Y-16069698D01*
X16948753Y-16069698D02*
X16958277Y-16088746D01*
X16958277Y-16088746D02*
X16958277Y-16145888D01*
X16958277Y-16145888D02*
X16948753Y-16164936D01*
X16948753Y-16164936D02*
X16939230Y-16174460D01*
X16939230Y-16174460D02*
X16920182Y-16183984D01*
X16920182Y-16183984D02*
X16891611Y-16183984D01*
X17072563Y-16183984D02*
X17053515Y-16174460D01*
X17053515Y-16174460D02*
X17043992Y-16155412D01*
X17043992Y-16155412D02*
X17043992Y-15983984D01*
X17224944Y-16174460D02*
X17205896Y-16183984D01*
X17205896Y-16183984D02*
X17167801Y-16183984D01*
X17167801Y-16183984D02*
X17148753Y-16174460D01*
X17148753Y-16174460D02*
X17139230Y-16155412D01*
X17139230Y-16155412D02*
X17139230Y-16079222D01*
X17139230Y-16079222D02*
X17148753Y-16060174D01*
X17148753Y-16060174D02*
X17167801Y-16050650D01*
X17167801Y-16050650D02*
X17205896Y-16050650D01*
X17205896Y-16050650D02*
X17224944Y-16060174D01*
X17224944Y-16060174D02*
X17234468Y-16079222D01*
X17234468Y-16079222D02*
X17234468Y-16098269D01*
X17234468Y-16098269D02*
X17139230Y-16117317D01*
X17310658Y-16174460D02*
X17329706Y-16183984D01*
X17329706Y-16183984D02*
X17367801Y-16183984D01*
X17367801Y-16183984D02*
X17386849Y-16174460D01*
X17386849Y-16174460D02*
X17396373Y-16155412D01*
X17396373Y-16155412D02*
X17396373Y-16145888D01*
X17396373Y-16145888D02*
X17386849Y-16126841D01*
X17386849Y-16126841D02*
X17367801Y-16117317D01*
X17367801Y-16117317D02*
X17339230Y-16117317D01*
X17339230Y-16117317D02*
X17320182Y-16107793D01*
X17320182Y-16107793D02*
X17310658Y-16088746D01*
X17310658Y-16088746D02*
X17310658Y-16079222D01*
X17310658Y-16079222D02*
X17320182Y-16060174D01*
X17320182Y-16060174D02*
X17339230Y-16050650D01*
X17339230Y-16050650D02*
X17367801Y-16050650D01*
X17367801Y-16050650D02*
X17386849Y-16060174D01*
X17463039Y-16260174D02*
X17472563Y-16250650D01*
X17472563Y-16250650D02*
X17491611Y-16222079D01*
X17491611Y-16222079D02*
X17501134Y-16203031D01*
X17501134Y-16203031D02*
X17510658Y-16174460D01*
X17510658Y-16174460D02*
X17520182Y-16126841D01*
X17520182Y-16126841D02*
X17520182Y-16088746D01*
X17520182Y-16088746D02*
X17510658Y-16041127D01*
X17510658Y-16041127D02*
X17501134Y-16012555D01*
X17501134Y-16012555D02*
X17491611Y-15993508D01*
X17491611Y-15993508D02*
X17472563Y-15964936D01*
X17472563Y-15964936D02*
X17463039Y-15955412D01*
D12*
X12497500Y-16356500D02*
G75*
G02*
X12467500Y-16356500I-15000J0D01*
G01*
X12467500Y-16356500D02*
G75*
G02*
X12497500Y-16356500I15000J0D01*
G01*
D11*
X12796372Y-16247984D02*
X12815420Y-16247984D01*
X12815420Y-16247984D02*
X12834467Y-16257508D01*
X12834467Y-16257508D02*
X12843991Y-16267031D01*
X12843991Y-16267031D02*
X12853515Y-16286079D01*
X12853515Y-16286079D02*
X12863039Y-16324174D01*
X12863039Y-16324174D02*
X12863039Y-16371793D01*
X12863039Y-16371793D02*
X12853515Y-16409888D01*
X12853515Y-16409888D02*
X12843991Y-16428936D01*
X12843991Y-16428936D02*
X12834467Y-16438460D01*
X12834467Y-16438460D02*
X12815420Y-16447984D01*
X12815420Y-16447984D02*
X12796372Y-16447984D01*
X12796372Y-16447984D02*
X12777324Y-16438460D01*
X12777324Y-16438460D02*
X12767801Y-16428936D01*
X12767801Y-16428936D02*
X12758277Y-16409888D01*
X12758277Y-16409888D02*
X12748753Y-16371793D01*
X12748753Y-16371793D02*
X12748753Y-16324174D01*
X12748753Y-16324174D02*
X12758277Y-16286079D01*
X12758277Y-16286079D02*
X12767801Y-16267031D01*
X12767801Y-16267031D02*
X12777324Y-16257508D01*
X12777324Y-16257508D02*
X12796372Y-16247984D01*
X12948753Y-16428936D02*
X12958277Y-16438460D01*
X12958277Y-16438460D02*
X12948753Y-16447984D01*
X12948753Y-16447984D02*
X12939229Y-16438460D01*
X12939229Y-16438460D02*
X12948753Y-16428936D01*
X12948753Y-16428936D02*
X12948753Y-16447984D01*
X13024943Y-16247984D02*
X13148753Y-16247984D01*
X13148753Y-16247984D02*
X13082086Y-16324174D01*
X13082086Y-16324174D02*
X13110658Y-16324174D01*
X13110658Y-16324174D02*
X13129705Y-16333698D01*
X13129705Y-16333698D02*
X13139229Y-16343222D01*
X13139229Y-16343222D02*
X13148753Y-16362269D01*
X13148753Y-16362269D02*
X13148753Y-16409888D01*
X13148753Y-16409888D02*
X13139229Y-16428936D01*
X13139229Y-16428936D02*
X13129705Y-16438460D01*
X13129705Y-16438460D02*
X13110658Y-16447984D01*
X13110658Y-16447984D02*
X13053515Y-16447984D01*
X13053515Y-16447984D02*
X13034467Y-16438460D01*
X13034467Y-16438460D02*
X13024943Y-16428936D01*
X13272562Y-16247984D02*
X13291610Y-16247984D01*
X13291610Y-16247984D02*
X13310658Y-16257508D01*
X13310658Y-16257508D02*
X13320182Y-16267031D01*
X13320182Y-16267031D02*
X13329705Y-16286079D01*
X13329705Y-16286079D02*
X13339229Y-16324174D01*
X13339229Y-16324174D02*
X13339229Y-16371793D01*
X13339229Y-16371793D02*
X13329705Y-16409888D01*
X13329705Y-16409888D02*
X13320182Y-16428936D01*
X13320182Y-16428936D02*
X13310658Y-16438460D01*
X13310658Y-16438460D02*
X13291610Y-16447984D01*
X13291610Y-16447984D02*
X13272562Y-16447984D01*
X13272562Y-16447984D02*
X13253515Y-16438460D01*
X13253515Y-16438460D02*
X13243991Y-16428936D01*
X13243991Y-16428936D02*
X13234467Y-16409888D01*
X13234467Y-16409888D02*
X13224943Y-16371793D01*
X13224943Y-16371793D02*
X13224943Y-16324174D01*
X13224943Y-16324174D02*
X13234467Y-16286079D01*
X13234467Y-16286079D02*
X13243991Y-16267031D01*
X13243991Y-16267031D02*
X13253515Y-16257508D01*
X13253515Y-16257508D02*
X13272562Y-16247984D01*
X13463039Y-16247984D02*
X13482086Y-16247984D01*
X13482086Y-16247984D02*
X13501134Y-16257508D01*
X13501134Y-16257508D02*
X13510658Y-16267031D01*
X13510658Y-16267031D02*
X13520182Y-16286079D01*
X13520182Y-16286079D02*
X13529705Y-16324174D01*
X13529705Y-16324174D02*
X13529705Y-16371793D01*
X13529705Y-16371793D02*
X13520182Y-16409888D01*
X13520182Y-16409888D02*
X13510658Y-16428936D01*
X13510658Y-16428936D02*
X13501134Y-16438460D01*
X13501134Y-16438460D02*
X13482086Y-16447984D01*
X13482086Y-16447984D02*
X13463039Y-16447984D01*
X13463039Y-16447984D02*
X13443991Y-16438460D01*
X13443991Y-16438460D02*
X13434467Y-16428936D01*
X13434467Y-16428936D02*
X13424943Y-16409888D01*
X13424943Y-16409888D02*
X13415420Y-16371793D01*
X13415420Y-16371793D02*
X13415420Y-16324174D01*
X13415420Y-16324174D02*
X13424943Y-16286079D01*
X13424943Y-16286079D02*
X13434467Y-16267031D01*
X13434467Y-16267031D02*
X13443991Y-16257508D01*
X13443991Y-16257508D02*
X13463039Y-16247984D01*
X13615420Y-16447984D02*
X13615420Y-16314650D01*
X13615420Y-16333698D02*
X13624943Y-16324174D01*
X13624943Y-16324174D02*
X13643991Y-16314650D01*
X13643991Y-16314650D02*
X13672563Y-16314650D01*
X13672563Y-16314650D02*
X13691610Y-16324174D01*
X13691610Y-16324174D02*
X13701134Y-16343222D01*
X13701134Y-16343222D02*
X13701134Y-16447984D01*
X13701134Y-16343222D02*
X13710658Y-16324174D01*
X13710658Y-16324174D02*
X13729705Y-16314650D01*
X13729705Y-16314650D02*
X13758277Y-16314650D01*
X13758277Y-16314650D02*
X13777324Y-16324174D01*
X13777324Y-16324174D02*
X13786848Y-16343222D01*
X13786848Y-16343222D02*
X13786848Y-16447984D01*
X13882086Y-16447984D02*
X13882086Y-16314650D01*
X13882086Y-16333698D02*
X13891610Y-16324174D01*
X13891610Y-16324174D02*
X13910658Y-16314650D01*
X13910658Y-16314650D02*
X13939229Y-16314650D01*
X13939229Y-16314650D02*
X13958277Y-16324174D01*
X13958277Y-16324174D02*
X13967801Y-16343222D01*
X13967801Y-16343222D02*
X13967801Y-16447984D01*
X13967801Y-16343222D02*
X13977324Y-16324174D01*
X13977324Y-16324174D02*
X13996372Y-16314650D01*
X13996372Y-16314650D02*
X14024943Y-16314650D01*
X14024943Y-16314650D02*
X14043991Y-16324174D01*
X14043991Y-16324174D02*
X14053515Y-16343222D01*
X14053515Y-16343222D02*
X14053515Y-16447984D01*
X14443991Y-16238460D02*
X14272563Y-16495603D01*
X14701134Y-16247984D02*
X14720182Y-16247984D01*
X14720182Y-16247984D02*
X14739229Y-16257508D01*
X14739229Y-16257508D02*
X14748753Y-16267031D01*
X14748753Y-16267031D02*
X14758277Y-16286079D01*
X14758277Y-16286079D02*
X14767801Y-16324174D01*
X14767801Y-16324174D02*
X14767801Y-16371793D01*
X14767801Y-16371793D02*
X14758277Y-16409888D01*
X14758277Y-16409888D02*
X14748753Y-16428936D01*
X14748753Y-16428936D02*
X14739229Y-16438460D01*
X14739229Y-16438460D02*
X14720182Y-16447984D01*
X14720182Y-16447984D02*
X14701134Y-16447984D01*
X14701134Y-16447984D02*
X14682086Y-16438460D01*
X14682086Y-16438460D02*
X14672563Y-16428936D01*
X14672563Y-16428936D02*
X14663039Y-16409888D01*
X14663039Y-16409888D02*
X14653515Y-16371793D01*
X14653515Y-16371793D02*
X14653515Y-16324174D01*
X14653515Y-16324174D02*
X14663039Y-16286079D01*
X14663039Y-16286079D02*
X14672563Y-16267031D01*
X14672563Y-16267031D02*
X14682086Y-16257508D01*
X14682086Y-16257508D02*
X14701134Y-16247984D01*
X14853515Y-16428936D02*
X14863039Y-16438460D01*
X14863039Y-16438460D02*
X14853515Y-16447984D01*
X14853515Y-16447984D02*
X14843991Y-16438460D01*
X14843991Y-16438460D02*
X14853515Y-16428936D01*
X14853515Y-16428936D02*
X14853515Y-16447984D01*
X14986848Y-16247984D02*
X15005896Y-16247984D01*
X15005896Y-16247984D02*
X15024944Y-16257508D01*
X15024944Y-16257508D02*
X15034467Y-16267031D01*
X15034467Y-16267031D02*
X15043991Y-16286079D01*
X15043991Y-16286079D02*
X15053515Y-16324174D01*
X15053515Y-16324174D02*
X15053515Y-16371793D01*
X15053515Y-16371793D02*
X15043991Y-16409888D01*
X15043991Y-16409888D02*
X15034467Y-16428936D01*
X15034467Y-16428936D02*
X15024944Y-16438460D01*
X15024944Y-16438460D02*
X15005896Y-16447984D01*
X15005896Y-16447984D02*
X14986848Y-16447984D01*
X14986848Y-16447984D02*
X14967801Y-16438460D01*
X14967801Y-16438460D02*
X14958277Y-16428936D01*
X14958277Y-16428936D02*
X14948753Y-16409888D01*
X14948753Y-16409888D02*
X14939229Y-16371793D01*
X14939229Y-16371793D02*
X14939229Y-16324174D01*
X14939229Y-16324174D02*
X14948753Y-16286079D01*
X14948753Y-16286079D02*
X14958277Y-16267031D01*
X14958277Y-16267031D02*
X14967801Y-16257508D01*
X14967801Y-16257508D02*
X14986848Y-16247984D01*
X15243991Y-16447984D02*
X15129706Y-16447984D01*
X15186848Y-16447984D02*
X15186848Y-16247984D01*
X15186848Y-16247984D02*
X15167801Y-16276555D01*
X15167801Y-16276555D02*
X15148753Y-16295603D01*
X15148753Y-16295603D02*
X15129706Y-16305127D01*
X15434467Y-16447984D02*
X15320182Y-16447984D01*
X15377325Y-16447984D02*
X15377325Y-16247984D01*
X15377325Y-16247984D02*
X15358277Y-16276555D01*
X15358277Y-16276555D02*
X15339229Y-16295603D01*
X15339229Y-16295603D02*
X15320182Y-16305127D01*
X15548753Y-16333698D02*
X15529706Y-16324174D01*
X15529706Y-16324174D02*
X15520182Y-16314650D01*
X15520182Y-16314650D02*
X15510658Y-16295603D01*
X15510658Y-16295603D02*
X15510658Y-16286079D01*
X15510658Y-16286079D02*
X15520182Y-16267031D01*
X15520182Y-16267031D02*
X15529706Y-16257508D01*
X15529706Y-16257508D02*
X15548753Y-16247984D01*
X15548753Y-16247984D02*
X15586848Y-16247984D01*
X15586848Y-16247984D02*
X15605896Y-16257508D01*
X15605896Y-16257508D02*
X15615420Y-16267031D01*
X15615420Y-16267031D02*
X15624944Y-16286079D01*
X15624944Y-16286079D02*
X15624944Y-16295603D01*
X15624944Y-16295603D02*
X15615420Y-16314650D01*
X15615420Y-16314650D02*
X15605896Y-16324174D01*
X15605896Y-16324174D02*
X15586848Y-16333698D01*
X15586848Y-16333698D02*
X15548753Y-16333698D01*
X15548753Y-16333698D02*
X15529706Y-16343222D01*
X15529706Y-16343222D02*
X15520182Y-16352746D01*
X15520182Y-16352746D02*
X15510658Y-16371793D01*
X15510658Y-16371793D02*
X15510658Y-16409888D01*
X15510658Y-16409888D02*
X15520182Y-16428936D01*
X15520182Y-16428936D02*
X15529706Y-16438460D01*
X15529706Y-16438460D02*
X15548753Y-16447984D01*
X15548753Y-16447984D02*
X15586848Y-16447984D01*
X15586848Y-16447984D02*
X15605896Y-16438460D01*
X15605896Y-16438460D02*
X15615420Y-16428936D01*
X15615420Y-16428936D02*
X15624944Y-16409888D01*
X15624944Y-16409888D02*
X15624944Y-16371793D01*
X15624944Y-16371793D02*
X15615420Y-16352746D01*
X15615420Y-16352746D02*
X15605896Y-16343222D01*
X15605896Y-16343222D02*
X15586848Y-16333698D01*
X15701134Y-16247984D02*
X15701134Y-16286079D01*
X15777325Y-16247984D02*
X15777325Y-16286079D01*
X16072563Y-16524174D02*
X16063039Y-16514650D01*
X16063039Y-16514650D02*
X16043991Y-16486079D01*
X16043991Y-16486079D02*
X16034468Y-16467031D01*
X16034468Y-16467031D02*
X16024944Y-16438460D01*
X16024944Y-16438460D02*
X16015420Y-16390841D01*
X16015420Y-16390841D02*
X16015420Y-16352746D01*
X16015420Y-16352746D02*
X16024944Y-16305127D01*
X16024944Y-16305127D02*
X16034468Y-16276555D01*
X16034468Y-16276555D02*
X16043991Y-16257508D01*
X16043991Y-16257508D02*
X16063039Y-16228936D01*
X16063039Y-16228936D02*
X16072563Y-16219412D01*
X16253515Y-16447984D02*
X16139229Y-16447984D01*
X16196372Y-16447984D02*
X16196372Y-16247984D01*
X16196372Y-16247984D02*
X16177325Y-16276555D01*
X16177325Y-16276555D02*
X16158277Y-16295603D01*
X16158277Y-16295603D02*
X16139229Y-16305127D01*
X16348753Y-16447984D02*
X16386848Y-16447984D01*
X16386848Y-16447984D02*
X16405896Y-16438460D01*
X16405896Y-16438460D02*
X16415420Y-16428936D01*
X16415420Y-16428936D02*
X16434468Y-16400365D01*
X16434468Y-16400365D02*
X16443991Y-16362269D01*
X16443991Y-16362269D02*
X16443991Y-16286079D01*
X16443991Y-16286079D02*
X16434468Y-16267031D01*
X16434468Y-16267031D02*
X16424944Y-16257508D01*
X16424944Y-16257508D02*
X16405896Y-16247984D01*
X16405896Y-16247984D02*
X16367801Y-16247984D01*
X16367801Y-16247984D02*
X16348753Y-16257508D01*
X16348753Y-16257508D02*
X16339229Y-16267031D01*
X16339229Y-16267031D02*
X16329706Y-16286079D01*
X16329706Y-16286079D02*
X16329706Y-16333698D01*
X16329706Y-16333698D02*
X16339229Y-16352746D01*
X16339229Y-16352746D02*
X16348753Y-16362269D01*
X16348753Y-16362269D02*
X16367801Y-16371793D01*
X16367801Y-16371793D02*
X16405896Y-16371793D01*
X16405896Y-16371793D02*
X16424944Y-16362269D01*
X16424944Y-16362269D02*
X16434468Y-16352746D01*
X16434468Y-16352746D02*
X16443991Y-16333698D01*
X16615420Y-16314650D02*
X16615420Y-16447984D01*
X16567801Y-16238460D02*
X16520182Y-16381317D01*
X16520182Y-16381317D02*
X16643991Y-16381317D01*
X16872563Y-16447984D02*
X16872563Y-16247984D01*
X16958277Y-16447984D02*
X16958277Y-16343222D01*
X16958277Y-16343222D02*
X16948753Y-16324174D01*
X16948753Y-16324174D02*
X16929706Y-16314650D01*
X16929706Y-16314650D02*
X16901134Y-16314650D01*
X16901134Y-16314650D02*
X16882087Y-16324174D01*
X16882087Y-16324174D02*
X16872563Y-16333698D01*
X17082087Y-16447984D02*
X17063039Y-16438460D01*
X17063039Y-16438460D02*
X17053515Y-16428936D01*
X17053515Y-16428936D02*
X17043992Y-16409888D01*
X17043992Y-16409888D02*
X17043992Y-16352746D01*
X17043992Y-16352746D02*
X17053515Y-16333698D01*
X17053515Y-16333698D02*
X17063039Y-16324174D01*
X17063039Y-16324174D02*
X17082087Y-16314650D01*
X17082087Y-16314650D02*
X17110658Y-16314650D01*
X17110658Y-16314650D02*
X17129706Y-16324174D01*
X17129706Y-16324174D02*
X17139230Y-16333698D01*
X17139230Y-16333698D02*
X17148753Y-16352746D01*
X17148753Y-16352746D02*
X17148753Y-16409888D01*
X17148753Y-16409888D02*
X17139230Y-16428936D01*
X17139230Y-16428936D02*
X17129706Y-16438460D01*
X17129706Y-16438460D02*
X17110658Y-16447984D01*
X17110658Y-16447984D02*
X17082087Y-16447984D01*
X17263039Y-16447984D02*
X17243992Y-16438460D01*
X17243992Y-16438460D02*
X17234468Y-16419412D01*
X17234468Y-16419412D02*
X17234468Y-16247984D01*
X17415420Y-16438460D02*
X17396373Y-16447984D01*
X17396373Y-16447984D02*
X17358277Y-16447984D01*
X17358277Y-16447984D02*
X17339230Y-16438460D01*
X17339230Y-16438460D02*
X17329706Y-16419412D01*
X17329706Y-16419412D02*
X17329706Y-16343222D01*
X17329706Y-16343222D02*
X17339230Y-16324174D01*
X17339230Y-16324174D02*
X17358277Y-16314650D01*
X17358277Y-16314650D02*
X17396373Y-16314650D01*
X17396373Y-16314650D02*
X17415420Y-16324174D01*
X17415420Y-16324174D02*
X17424944Y-16343222D01*
X17424944Y-16343222D02*
X17424944Y-16362269D01*
X17424944Y-16362269D02*
X17329706Y-16381317D01*
X17501134Y-16438460D02*
X17520182Y-16447984D01*
X17520182Y-16447984D02*
X17558277Y-16447984D01*
X17558277Y-16447984D02*
X17577325Y-16438460D01*
X17577325Y-16438460D02*
X17586849Y-16419412D01*
X17586849Y-16419412D02*
X17586849Y-16409888D01*
X17586849Y-16409888D02*
X17577325Y-16390841D01*
X17577325Y-16390841D02*
X17558277Y-16381317D01*
X17558277Y-16381317D02*
X17529706Y-16381317D01*
X17529706Y-16381317D02*
X17510658Y-16371793D01*
X17510658Y-16371793D02*
X17501134Y-16352746D01*
X17501134Y-16352746D02*
X17501134Y-16343222D01*
X17501134Y-16343222D02*
X17510658Y-16324174D01*
X17510658Y-16324174D02*
X17529706Y-16314650D01*
X17529706Y-16314650D02*
X17558277Y-16314650D01*
X17558277Y-16314650D02*
X17577325Y-16324174D01*
X17653515Y-16524174D02*
X17663039Y-16514650D01*
X17663039Y-16514650D02*
X17682087Y-16486079D01*
X17682087Y-16486079D02*
X17691611Y-16467031D01*
X17691611Y-16467031D02*
X17701134Y-16438460D01*
X17701134Y-16438460D02*
X17710658Y-16390841D01*
X17710658Y-16390841D02*
X17710658Y-16352746D01*
X17710658Y-16352746D02*
X17701134Y-16305127D01*
X17701134Y-16305127D02*
X17691611Y-16276555D01*
X17691611Y-16276555D02*
X17682087Y-16257508D01*
X17682087Y-16257508D02*
X17663039Y-16228936D01*
X17663039Y-16228936D02*
X17653515Y-16219412D01*
D12*
X12457500Y-16580500D02*
X12457500Y-16660500D01*
X12417500Y-16620500D02*
X12497500Y-16620500D01*
D11*
X12796372Y-16511984D02*
X12815420Y-16511984D01*
X12815420Y-16511984D02*
X12834467Y-16521508D01*
X12834467Y-16521508D02*
X12843991Y-16531031D01*
X12843991Y-16531031D02*
X12853515Y-16550079D01*
X12853515Y-16550079D02*
X12863039Y-16588174D01*
X12863039Y-16588174D02*
X12863039Y-16635793D01*
X12863039Y-16635793D02*
X12853515Y-16673888D01*
X12853515Y-16673888D02*
X12843991Y-16692936D01*
X12843991Y-16692936D02*
X12834467Y-16702460D01*
X12834467Y-16702460D02*
X12815420Y-16711984D01*
X12815420Y-16711984D02*
X12796372Y-16711984D01*
X12796372Y-16711984D02*
X12777324Y-16702460D01*
X12777324Y-16702460D02*
X12767801Y-16692936D01*
X12767801Y-16692936D02*
X12758277Y-16673888D01*
X12758277Y-16673888D02*
X12748753Y-16635793D01*
X12748753Y-16635793D02*
X12748753Y-16588174D01*
X12748753Y-16588174D02*
X12758277Y-16550079D01*
X12758277Y-16550079D02*
X12767801Y-16531031D01*
X12767801Y-16531031D02*
X12777324Y-16521508D01*
X12777324Y-16521508D02*
X12796372Y-16511984D01*
X12948753Y-16692936D02*
X12958277Y-16702460D01*
X12958277Y-16702460D02*
X12948753Y-16711984D01*
X12948753Y-16711984D02*
X12939229Y-16702460D01*
X12939229Y-16702460D02*
X12948753Y-16692936D01*
X12948753Y-16692936D02*
X12948753Y-16711984D01*
X13072562Y-16597698D02*
X13053515Y-16588174D01*
X13053515Y-16588174D02*
X13043991Y-16578650D01*
X13043991Y-16578650D02*
X13034467Y-16559603D01*
X13034467Y-16559603D02*
X13034467Y-16550079D01*
X13034467Y-16550079D02*
X13043991Y-16531031D01*
X13043991Y-16531031D02*
X13053515Y-16521508D01*
X13053515Y-16521508D02*
X13072562Y-16511984D01*
X13072562Y-16511984D02*
X13110658Y-16511984D01*
X13110658Y-16511984D02*
X13129705Y-16521508D01*
X13129705Y-16521508D02*
X13139229Y-16531031D01*
X13139229Y-16531031D02*
X13148753Y-16550079D01*
X13148753Y-16550079D02*
X13148753Y-16559603D01*
X13148753Y-16559603D02*
X13139229Y-16578650D01*
X13139229Y-16578650D02*
X13129705Y-16588174D01*
X13129705Y-16588174D02*
X13110658Y-16597698D01*
X13110658Y-16597698D02*
X13072562Y-16597698D01*
X13072562Y-16597698D02*
X13053515Y-16607222D01*
X13053515Y-16607222D02*
X13043991Y-16616746D01*
X13043991Y-16616746D02*
X13034467Y-16635793D01*
X13034467Y-16635793D02*
X13034467Y-16673888D01*
X13034467Y-16673888D02*
X13043991Y-16692936D01*
X13043991Y-16692936D02*
X13053515Y-16702460D01*
X13053515Y-16702460D02*
X13072562Y-16711984D01*
X13072562Y-16711984D02*
X13110658Y-16711984D01*
X13110658Y-16711984D02*
X13129705Y-16702460D01*
X13129705Y-16702460D02*
X13139229Y-16692936D01*
X13139229Y-16692936D02*
X13148753Y-16673888D01*
X13148753Y-16673888D02*
X13148753Y-16635793D01*
X13148753Y-16635793D02*
X13139229Y-16616746D01*
X13139229Y-16616746D02*
X13129705Y-16607222D01*
X13129705Y-16607222D02*
X13110658Y-16597698D01*
X13272562Y-16511984D02*
X13291610Y-16511984D01*
X13291610Y-16511984D02*
X13310658Y-16521508D01*
X13310658Y-16521508D02*
X13320182Y-16531031D01*
X13320182Y-16531031D02*
X13329705Y-16550079D01*
X13329705Y-16550079D02*
X13339229Y-16588174D01*
X13339229Y-16588174D02*
X13339229Y-16635793D01*
X13339229Y-16635793D02*
X13329705Y-16673888D01*
X13329705Y-16673888D02*
X13320182Y-16692936D01*
X13320182Y-16692936D02*
X13310658Y-16702460D01*
X13310658Y-16702460D02*
X13291610Y-16711984D01*
X13291610Y-16711984D02*
X13272562Y-16711984D01*
X13272562Y-16711984D02*
X13253515Y-16702460D01*
X13253515Y-16702460D02*
X13243991Y-16692936D01*
X13243991Y-16692936D02*
X13234467Y-16673888D01*
X13234467Y-16673888D02*
X13224943Y-16635793D01*
X13224943Y-16635793D02*
X13224943Y-16588174D01*
X13224943Y-16588174D02*
X13234467Y-16550079D01*
X13234467Y-16550079D02*
X13243991Y-16531031D01*
X13243991Y-16531031D02*
X13253515Y-16521508D01*
X13253515Y-16521508D02*
X13272562Y-16511984D01*
X13463039Y-16511984D02*
X13482086Y-16511984D01*
X13482086Y-16511984D02*
X13501134Y-16521508D01*
X13501134Y-16521508D02*
X13510658Y-16531031D01*
X13510658Y-16531031D02*
X13520182Y-16550079D01*
X13520182Y-16550079D02*
X13529705Y-16588174D01*
X13529705Y-16588174D02*
X13529705Y-16635793D01*
X13529705Y-16635793D02*
X13520182Y-16673888D01*
X13520182Y-16673888D02*
X13510658Y-16692936D01*
X13510658Y-16692936D02*
X13501134Y-16702460D01*
X13501134Y-16702460D02*
X13482086Y-16711984D01*
X13482086Y-16711984D02*
X13463039Y-16711984D01*
X13463039Y-16711984D02*
X13443991Y-16702460D01*
X13443991Y-16702460D02*
X13434467Y-16692936D01*
X13434467Y-16692936D02*
X13424943Y-16673888D01*
X13424943Y-16673888D02*
X13415420Y-16635793D01*
X13415420Y-16635793D02*
X13415420Y-16588174D01*
X13415420Y-16588174D02*
X13424943Y-16550079D01*
X13424943Y-16550079D02*
X13434467Y-16531031D01*
X13434467Y-16531031D02*
X13443991Y-16521508D01*
X13443991Y-16521508D02*
X13463039Y-16511984D01*
X13615420Y-16711984D02*
X13615420Y-16578650D01*
X13615420Y-16597698D02*
X13624943Y-16588174D01*
X13624943Y-16588174D02*
X13643991Y-16578650D01*
X13643991Y-16578650D02*
X13672563Y-16578650D01*
X13672563Y-16578650D02*
X13691610Y-16588174D01*
X13691610Y-16588174D02*
X13701134Y-16607222D01*
X13701134Y-16607222D02*
X13701134Y-16711984D01*
X13701134Y-16607222D02*
X13710658Y-16588174D01*
X13710658Y-16588174D02*
X13729705Y-16578650D01*
X13729705Y-16578650D02*
X13758277Y-16578650D01*
X13758277Y-16578650D02*
X13777324Y-16588174D01*
X13777324Y-16588174D02*
X13786848Y-16607222D01*
X13786848Y-16607222D02*
X13786848Y-16711984D01*
X13882086Y-16711984D02*
X13882086Y-16578650D01*
X13882086Y-16597698D02*
X13891610Y-16588174D01*
X13891610Y-16588174D02*
X13910658Y-16578650D01*
X13910658Y-16578650D02*
X13939229Y-16578650D01*
X13939229Y-16578650D02*
X13958277Y-16588174D01*
X13958277Y-16588174D02*
X13967801Y-16607222D01*
X13967801Y-16607222D02*
X13967801Y-16711984D01*
X13967801Y-16607222D02*
X13977324Y-16588174D01*
X13977324Y-16588174D02*
X13996372Y-16578650D01*
X13996372Y-16578650D02*
X14024943Y-16578650D01*
X14024943Y-16578650D02*
X14043991Y-16588174D01*
X14043991Y-16588174D02*
X14053515Y-16607222D01*
X14053515Y-16607222D02*
X14053515Y-16711984D01*
X14443991Y-16502460D02*
X14272563Y-16759603D01*
X14701134Y-16511984D02*
X14720182Y-16511984D01*
X14720182Y-16511984D02*
X14739229Y-16521508D01*
X14739229Y-16521508D02*
X14748753Y-16531031D01*
X14748753Y-16531031D02*
X14758277Y-16550079D01*
X14758277Y-16550079D02*
X14767801Y-16588174D01*
X14767801Y-16588174D02*
X14767801Y-16635793D01*
X14767801Y-16635793D02*
X14758277Y-16673888D01*
X14758277Y-16673888D02*
X14748753Y-16692936D01*
X14748753Y-16692936D02*
X14739229Y-16702460D01*
X14739229Y-16702460D02*
X14720182Y-16711984D01*
X14720182Y-16711984D02*
X14701134Y-16711984D01*
X14701134Y-16711984D02*
X14682086Y-16702460D01*
X14682086Y-16702460D02*
X14672563Y-16692936D01*
X14672563Y-16692936D02*
X14663039Y-16673888D01*
X14663039Y-16673888D02*
X14653515Y-16635793D01*
X14653515Y-16635793D02*
X14653515Y-16588174D01*
X14653515Y-16588174D02*
X14663039Y-16550079D01*
X14663039Y-16550079D02*
X14672563Y-16531031D01*
X14672563Y-16531031D02*
X14682086Y-16521508D01*
X14682086Y-16521508D02*
X14701134Y-16511984D01*
X14853515Y-16692936D02*
X14863039Y-16702460D01*
X14863039Y-16702460D02*
X14853515Y-16711984D01*
X14853515Y-16711984D02*
X14843991Y-16702460D01*
X14843991Y-16702460D02*
X14853515Y-16692936D01*
X14853515Y-16692936D02*
X14853515Y-16711984D01*
X14986848Y-16511984D02*
X15005896Y-16511984D01*
X15005896Y-16511984D02*
X15024944Y-16521508D01*
X15024944Y-16521508D02*
X15034467Y-16531031D01*
X15034467Y-16531031D02*
X15043991Y-16550079D01*
X15043991Y-16550079D02*
X15053515Y-16588174D01*
X15053515Y-16588174D02*
X15053515Y-16635793D01*
X15053515Y-16635793D02*
X15043991Y-16673888D01*
X15043991Y-16673888D02*
X15034467Y-16692936D01*
X15034467Y-16692936D02*
X15024944Y-16702460D01*
X15024944Y-16702460D02*
X15005896Y-16711984D01*
X15005896Y-16711984D02*
X14986848Y-16711984D01*
X14986848Y-16711984D02*
X14967801Y-16702460D01*
X14967801Y-16702460D02*
X14958277Y-16692936D01*
X14958277Y-16692936D02*
X14948753Y-16673888D01*
X14948753Y-16673888D02*
X14939229Y-16635793D01*
X14939229Y-16635793D02*
X14939229Y-16588174D01*
X14939229Y-16588174D02*
X14948753Y-16550079D01*
X14948753Y-16550079D02*
X14958277Y-16531031D01*
X14958277Y-16531031D02*
X14967801Y-16521508D01*
X14967801Y-16521508D02*
X14986848Y-16511984D01*
X15120182Y-16511984D02*
X15243991Y-16511984D01*
X15243991Y-16511984D02*
X15177325Y-16588174D01*
X15177325Y-16588174D02*
X15205896Y-16588174D01*
X15205896Y-16588174D02*
X15224944Y-16597698D01*
X15224944Y-16597698D02*
X15234467Y-16607222D01*
X15234467Y-16607222D02*
X15243991Y-16626269D01*
X15243991Y-16626269D02*
X15243991Y-16673888D01*
X15243991Y-16673888D02*
X15234467Y-16692936D01*
X15234467Y-16692936D02*
X15224944Y-16702460D01*
X15224944Y-16702460D02*
X15205896Y-16711984D01*
X15205896Y-16711984D02*
X15148753Y-16711984D01*
X15148753Y-16711984D02*
X15129706Y-16702460D01*
X15129706Y-16702460D02*
X15120182Y-16692936D01*
X15434467Y-16711984D02*
X15320182Y-16711984D01*
X15377325Y-16711984D02*
X15377325Y-16511984D01*
X15377325Y-16511984D02*
X15358277Y-16540555D01*
X15358277Y-16540555D02*
X15339229Y-16559603D01*
X15339229Y-16559603D02*
X15320182Y-16569127D01*
X15615420Y-16511984D02*
X15520182Y-16511984D01*
X15520182Y-16511984D02*
X15510658Y-16607222D01*
X15510658Y-16607222D02*
X15520182Y-16597698D01*
X15520182Y-16597698D02*
X15539229Y-16588174D01*
X15539229Y-16588174D02*
X15586848Y-16588174D01*
X15586848Y-16588174D02*
X15605896Y-16597698D01*
X15605896Y-16597698D02*
X15615420Y-16607222D01*
X15615420Y-16607222D02*
X15624944Y-16626269D01*
X15624944Y-16626269D02*
X15624944Y-16673888D01*
X15624944Y-16673888D02*
X15615420Y-16692936D01*
X15615420Y-16692936D02*
X15605896Y-16702460D01*
X15605896Y-16702460D02*
X15586848Y-16711984D01*
X15586848Y-16711984D02*
X15539229Y-16711984D01*
X15539229Y-16711984D02*
X15520182Y-16702460D01*
X15520182Y-16702460D02*
X15510658Y-16692936D01*
X15701134Y-16511984D02*
X15701134Y-16550079D01*
X15777325Y-16511984D02*
X15777325Y-16550079D01*
X16072563Y-16788174D02*
X16063039Y-16778650D01*
X16063039Y-16778650D02*
X16043991Y-16750079D01*
X16043991Y-16750079D02*
X16034468Y-16731031D01*
X16034468Y-16731031D02*
X16024944Y-16702460D01*
X16024944Y-16702460D02*
X16015420Y-16654841D01*
X16015420Y-16654841D02*
X16015420Y-16616746D01*
X16015420Y-16616746D02*
X16024944Y-16569127D01*
X16024944Y-16569127D02*
X16034468Y-16540555D01*
X16034468Y-16540555D02*
X16043991Y-16521508D01*
X16043991Y-16521508D02*
X16063039Y-16492936D01*
X16063039Y-16492936D02*
X16072563Y-16483412D01*
X16234468Y-16578650D02*
X16234468Y-16711984D01*
X16186848Y-16502460D02*
X16139229Y-16645317D01*
X16139229Y-16645317D02*
X16263039Y-16645317D01*
X16491610Y-16711984D02*
X16491610Y-16511984D01*
X16577325Y-16711984D02*
X16577325Y-16607222D01*
X16577325Y-16607222D02*
X16567801Y-16588174D01*
X16567801Y-16588174D02*
X16548753Y-16578650D01*
X16548753Y-16578650D02*
X16520182Y-16578650D01*
X16520182Y-16578650D02*
X16501134Y-16588174D01*
X16501134Y-16588174D02*
X16491610Y-16597698D01*
X16701134Y-16711984D02*
X16682087Y-16702460D01*
X16682087Y-16702460D02*
X16672563Y-16692936D01*
X16672563Y-16692936D02*
X16663039Y-16673888D01*
X16663039Y-16673888D02*
X16663039Y-16616746D01*
X16663039Y-16616746D02*
X16672563Y-16597698D01*
X16672563Y-16597698D02*
X16682087Y-16588174D01*
X16682087Y-16588174D02*
X16701134Y-16578650D01*
X16701134Y-16578650D02*
X16729706Y-16578650D01*
X16729706Y-16578650D02*
X16748753Y-16588174D01*
X16748753Y-16588174D02*
X16758277Y-16597698D01*
X16758277Y-16597698D02*
X16767801Y-16616746D01*
X16767801Y-16616746D02*
X16767801Y-16673888D01*
X16767801Y-16673888D02*
X16758277Y-16692936D01*
X16758277Y-16692936D02*
X16748753Y-16702460D01*
X16748753Y-16702460D02*
X16729706Y-16711984D01*
X16729706Y-16711984D02*
X16701134Y-16711984D01*
X16882087Y-16711984D02*
X16863039Y-16702460D01*
X16863039Y-16702460D02*
X16853515Y-16683412D01*
X16853515Y-16683412D02*
X16853515Y-16511984D01*
X17034468Y-16702460D02*
X17015420Y-16711984D01*
X17015420Y-16711984D02*
X16977325Y-16711984D01*
X16977325Y-16711984D02*
X16958277Y-16702460D01*
X16958277Y-16702460D02*
X16948753Y-16683412D01*
X16948753Y-16683412D02*
X16948753Y-16607222D01*
X16948753Y-16607222D02*
X16958277Y-16588174D01*
X16958277Y-16588174D02*
X16977325Y-16578650D01*
X16977325Y-16578650D02*
X17015420Y-16578650D01*
X17015420Y-16578650D02*
X17034468Y-16588174D01*
X17034468Y-16588174D02*
X17043992Y-16607222D01*
X17043992Y-16607222D02*
X17043992Y-16626269D01*
X17043992Y-16626269D02*
X16948753Y-16645317D01*
X17120182Y-16702460D02*
X17139230Y-16711984D01*
X17139230Y-16711984D02*
X17177325Y-16711984D01*
X17177325Y-16711984D02*
X17196373Y-16702460D01*
X17196373Y-16702460D02*
X17205896Y-16683412D01*
X17205896Y-16683412D02*
X17205896Y-16673888D01*
X17205896Y-16673888D02*
X17196373Y-16654841D01*
X17196373Y-16654841D02*
X17177325Y-16645317D01*
X17177325Y-16645317D02*
X17148753Y-16645317D01*
X17148753Y-16645317D02*
X17129706Y-16635793D01*
X17129706Y-16635793D02*
X17120182Y-16616746D01*
X17120182Y-16616746D02*
X17120182Y-16607222D01*
X17120182Y-16607222D02*
X17129706Y-16588174D01*
X17129706Y-16588174D02*
X17148753Y-16578650D01*
X17148753Y-16578650D02*
X17177325Y-16578650D01*
X17177325Y-16578650D02*
X17196373Y-16588174D01*
X17272563Y-16788174D02*
X17282087Y-16778650D01*
X17282087Y-16778650D02*
X17301134Y-16750079D01*
X17301134Y-16750079D02*
X17310658Y-16731031D01*
X17310658Y-16731031D02*
X17320182Y-16702460D01*
X17320182Y-16702460D02*
X17329706Y-16654841D01*
X17329706Y-16654841D02*
X17329706Y-16616746D01*
X17329706Y-16616746D02*
X17320182Y-16569127D01*
X17320182Y-16569127D02*
X17310658Y-16540555D01*
X17310658Y-16540555D02*
X17301134Y-16521508D01*
X17301134Y-16521508D02*
X17282087Y-16492936D01*
X17282087Y-16492936D02*
X17272563Y-16483412D01*
D12*
X12482856Y-16919856D02*
X12482856Y-16849144D01*
X12412144Y-16849144D01*
X12412144Y-16919856D01*
X12482856Y-16919856D01*
D11*
X12863039Y-16975984D02*
X12748753Y-16975984D01*
X12805896Y-16975984D02*
X12805896Y-16775984D01*
X12805896Y-16775984D02*
X12786848Y-16804555D01*
X12786848Y-16804555D02*
X12767801Y-16823603D01*
X12767801Y-16823603D02*
X12748753Y-16833127D01*
X12948753Y-16956936D02*
X12958277Y-16966460D01*
X12958277Y-16966460D02*
X12948753Y-16975984D01*
X12948753Y-16975984D02*
X12939229Y-16966460D01*
X12939229Y-16966460D02*
X12948753Y-16956936D01*
X12948753Y-16956936D02*
X12948753Y-16975984D01*
X13082086Y-16775984D02*
X13101134Y-16775984D01*
X13101134Y-16775984D02*
X13120182Y-16785508D01*
X13120182Y-16785508D02*
X13129705Y-16795031D01*
X13129705Y-16795031D02*
X13139229Y-16814079D01*
X13139229Y-16814079D02*
X13148753Y-16852174D01*
X13148753Y-16852174D02*
X13148753Y-16899793D01*
X13148753Y-16899793D02*
X13139229Y-16937889D01*
X13139229Y-16937889D02*
X13129705Y-16956936D01*
X13129705Y-16956936D02*
X13120182Y-16966460D01*
X13120182Y-16966460D02*
X13101134Y-16975984D01*
X13101134Y-16975984D02*
X13082086Y-16975984D01*
X13082086Y-16975984D02*
X13063039Y-16966460D01*
X13063039Y-16966460D02*
X13053515Y-16956936D01*
X13053515Y-16956936D02*
X13043991Y-16937889D01*
X13043991Y-16937889D02*
X13034467Y-16899793D01*
X13034467Y-16899793D02*
X13034467Y-16852174D01*
X13034467Y-16852174D02*
X13043991Y-16814079D01*
X13043991Y-16814079D02*
X13053515Y-16795031D01*
X13053515Y-16795031D02*
X13063039Y-16785508D01*
X13063039Y-16785508D02*
X13082086Y-16775984D01*
X13272562Y-16775984D02*
X13291610Y-16775984D01*
X13291610Y-16775984D02*
X13310658Y-16785508D01*
X13310658Y-16785508D02*
X13320182Y-16795031D01*
X13320182Y-16795031D02*
X13329705Y-16814079D01*
X13329705Y-16814079D02*
X13339229Y-16852174D01*
X13339229Y-16852174D02*
X13339229Y-16899793D01*
X13339229Y-16899793D02*
X13329705Y-16937889D01*
X13329705Y-16937889D02*
X13320182Y-16956936D01*
X13320182Y-16956936D02*
X13310658Y-16966460D01*
X13310658Y-16966460D02*
X13291610Y-16975984D01*
X13291610Y-16975984D02*
X13272562Y-16975984D01*
X13272562Y-16975984D02*
X13253515Y-16966460D01*
X13253515Y-16966460D02*
X13243991Y-16956936D01*
X13243991Y-16956936D02*
X13234467Y-16937889D01*
X13234467Y-16937889D02*
X13224943Y-16899793D01*
X13224943Y-16899793D02*
X13224943Y-16852174D01*
X13224943Y-16852174D02*
X13234467Y-16814079D01*
X13234467Y-16814079D02*
X13243991Y-16795031D01*
X13243991Y-16795031D02*
X13253515Y-16785508D01*
X13253515Y-16785508D02*
X13272562Y-16775984D01*
X13463039Y-16775984D02*
X13482086Y-16775984D01*
X13482086Y-16775984D02*
X13501134Y-16785508D01*
X13501134Y-16785508D02*
X13510658Y-16795031D01*
X13510658Y-16795031D02*
X13520182Y-16814079D01*
X13520182Y-16814079D02*
X13529705Y-16852174D01*
X13529705Y-16852174D02*
X13529705Y-16899793D01*
X13529705Y-16899793D02*
X13520182Y-16937889D01*
X13520182Y-16937889D02*
X13510658Y-16956936D01*
X13510658Y-16956936D02*
X13501134Y-16966460D01*
X13501134Y-16966460D02*
X13482086Y-16975984D01*
X13482086Y-16975984D02*
X13463039Y-16975984D01*
X13463039Y-16975984D02*
X13443991Y-16966460D01*
X13443991Y-16966460D02*
X13434467Y-16956936D01*
X13434467Y-16956936D02*
X13424943Y-16937889D01*
X13424943Y-16937889D02*
X13415420Y-16899793D01*
X13415420Y-16899793D02*
X13415420Y-16852174D01*
X13415420Y-16852174D02*
X13424943Y-16814079D01*
X13424943Y-16814079D02*
X13434467Y-16795031D01*
X13434467Y-16795031D02*
X13443991Y-16785508D01*
X13443991Y-16785508D02*
X13463039Y-16775984D01*
X13615420Y-16975984D02*
X13615420Y-16842650D01*
X13615420Y-16861698D02*
X13624943Y-16852174D01*
X13624943Y-16852174D02*
X13643991Y-16842650D01*
X13643991Y-16842650D02*
X13672563Y-16842650D01*
X13672563Y-16842650D02*
X13691610Y-16852174D01*
X13691610Y-16852174D02*
X13701134Y-16871222D01*
X13701134Y-16871222D02*
X13701134Y-16975984D01*
X13701134Y-16871222D02*
X13710658Y-16852174D01*
X13710658Y-16852174D02*
X13729705Y-16842650D01*
X13729705Y-16842650D02*
X13758277Y-16842650D01*
X13758277Y-16842650D02*
X13777324Y-16852174D01*
X13777324Y-16852174D02*
X13786848Y-16871222D01*
X13786848Y-16871222D02*
X13786848Y-16975984D01*
X13882086Y-16975984D02*
X13882086Y-16842650D01*
X13882086Y-16861698D02*
X13891610Y-16852174D01*
X13891610Y-16852174D02*
X13910658Y-16842650D01*
X13910658Y-16842650D02*
X13939229Y-16842650D01*
X13939229Y-16842650D02*
X13958277Y-16852174D01*
X13958277Y-16852174D02*
X13967801Y-16871222D01*
X13967801Y-16871222D02*
X13967801Y-16975984D01*
X13967801Y-16871222D02*
X13977324Y-16852174D01*
X13977324Y-16852174D02*
X13996372Y-16842650D01*
X13996372Y-16842650D02*
X14024943Y-16842650D01*
X14024943Y-16842650D02*
X14043991Y-16852174D01*
X14043991Y-16852174D02*
X14053515Y-16871222D01*
X14053515Y-16871222D02*
X14053515Y-16975984D01*
X14443991Y-16766460D02*
X14272563Y-17023603D01*
X14701134Y-16775984D02*
X14720182Y-16775984D01*
X14720182Y-16775984D02*
X14739229Y-16785508D01*
X14739229Y-16785508D02*
X14748753Y-16795031D01*
X14748753Y-16795031D02*
X14758277Y-16814079D01*
X14758277Y-16814079D02*
X14767801Y-16852174D01*
X14767801Y-16852174D02*
X14767801Y-16899793D01*
X14767801Y-16899793D02*
X14758277Y-16937889D01*
X14758277Y-16937889D02*
X14748753Y-16956936D01*
X14748753Y-16956936D02*
X14739229Y-16966460D01*
X14739229Y-16966460D02*
X14720182Y-16975984D01*
X14720182Y-16975984D02*
X14701134Y-16975984D01*
X14701134Y-16975984D02*
X14682086Y-16966460D01*
X14682086Y-16966460D02*
X14672563Y-16956936D01*
X14672563Y-16956936D02*
X14663039Y-16937889D01*
X14663039Y-16937889D02*
X14653515Y-16899793D01*
X14653515Y-16899793D02*
X14653515Y-16852174D01*
X14653515Y-16852174D02*
X14663039Y-16814079D01*
X14663039Y-16814079D02*
X14672563Y-16795031D01*
X14672563Y-16795031D02*
X14682086Y-16785508D01*
X14682086Y-16785508D02*
X14701134Y-16775984D01*
X14853515Y-16956936D02*
X14863039Y-16966460D01*
X14863039Y-16966460D02*
X14853515Y-16975984D01*
X14853515Y-16975984D02*
X14843991Y-16966460D01*
X14843991Y-16966460D02*
X14853515Y-16956936D01*
X14853515Y-16956936D02*
X14853515Y-16975984D01*
X14986848Y-16775984D02*
X15005896Y-16775984D01*
X15005896Y-16775984D02*
X15024944Y-16785508D01*
X15024944Y-16785508D02*
X15034467Y-16795031D01*
X15034467Y-16795031D02*
X15043991Y-16814079D01*
X15043991Y-16814079D02*
X15053515Y-16852174D01*
X15053515Y-16852174D02*
X15053515Y-16899793D01*
X15053515Y-16899793D02*
X15043991Y-16937889D01*
X15043991Y-16937889D02*
X15034467Y-16956936D01*
X15034467Y-16956936D02*
X15024944Y-16966460D01*
X15024944Y-16966460D02*
X15005896Y-16975984D01*
X15005896Y-16975984D02*
X14986848Y-16975984D01*
X14986848Y-16975984D02*
X14967801Y-16966460D01*
X14967801Y-16966460D02*
X14958277Y-16956936D01*
X14958277Y-16956936D02*
X14948753Y-16937889D01*
X14948753Y-16937889D02*
X14939229Y-16899793D01*
X14939229Y-16899793D02*
X14939229Y-16852174D01*
X14939229Y-16852174D02*
X14948753Y-16814079D01*
X14948753Y-16814079D02*
X14958277Y-16795031D01*
X14958277Y-16795031D02*
X14967801Y-16785508D01*
X14967801Y-16785508D02*
X14986848Y-16775984D01*
X15120182Y-16775984D02*
X15243991Y-16775984D01*
X15243991Y-16775984D02*
X15177325Y-16852174D01*
X15177325Y-16852174D02*
X15205896Y-16852174D01*
X15205896Y-16852174D02*
X15224944Y-16861698D01*
X15224944Y-16861698D02*
X15234467Y-16871222D01*
X15234467Y-16871222D02*
X15243991Y-16890270D01*
X15243991Y-16890270D02*
X15243991Y-16937889D01*
X15243991Y-16937889D02*
X15234467Y-16956936D01*
X15234467Y-16956936D02*
X15224944Y-16966460D01*
X15224944Y-16966460D02*
X15205896Y-16975984D01*
X15205896Y-16975984D02*
X15148753Y-16975984D01*
X15148753Y-16975984D02*
X15129706Y-16966460D01*
X15129706Y-16966460D02*
X15120182Y-16956936D01*
X15339229Y-16975984D02*
X15377325Y-16975984D01*
X15377325Y-16975984D02*
X15396372Y-16966460D01*
X15396372Y-16966460D02*
X15405896Y-16956936D01*
X15405896Y-16956936D02*
X15424944Y-16928365D01*
X15424944Y-16928365D02*
X15434467Y-16890270D01*
X15434467Y-16890270D02*
X15434467Y-16814079D01*
X15434467Y-16814079D02*
X15424944Y-16795031D01*
X15424944Y-16795031D02*
X15415420Y-16785508D01*
X15415420Y-16785508D02*
X15396372Y-16775984D01*
X15396372Y-16775984D02*
X15358277Y-16775984D01*
X15358277Y-16775984D02*
X15339229Y-16785508D01*
X15339229Y-16785508D02*
X15329706Y-16795031D01*
X15329706Y-16795031D02*
X15320182Y-16814079D01*
X15320182Y-16814079D02*
X15320182Y-16861698D01*
X15320182Y-16861698D02*
X15329706Y-16880746D01*
X15329706Y-16880746D02*
X15339229Y-16890270D01*
X15339229Y-16890270D02*
X15358277Y-16899793D01*
X15358277Y-16899793D02*
X15396372Y-16899793D01*
X15396372Y-16899793D02*
X15415420Y-16890270D01*
X15415420Y-16890270D02*
X15424944Y-16880746D01*
X15424944Y-16880746D02*
X15434467Y-16861698D01*
X15605896Y-16842650D02*
X15605896Y-16975984D01*
X15558277Y-16766460D02*
X15510658Y-16909317D01*
X15510658Y-16909317D02*
X15634467Y-16909317D01*
X15701134Y-16775984D02*
X15701134Y-16814079D01*
X15777325Y-16775984D02*
X15777325Y-16814079D01*
X16072563Y-17052174D02*
X16063039Y-17042650D01*
X16063039Y-17042650D02*
X16043991Y-17014079D01*
X16043991Y-17014079D02*
X16034468Y-16995031D01*
X16034468Y-16995031D02*
X16024944Y-16966460D01*
X16024944Y-16966460D02*
X16015420Y-16918841D01*
X16015420Y-16918841D02*
X16015420Y-16880746D01*
X16015420Y-16880746D02*
X16024944Y-16833127D01*
X16024944Y-16833127D02*
X16034468Y-16804555D01*
X16034468Y-16804555D02*
X16043991Y-16785508D01*
X16043991Y-16785508D02*
X16063039Y-16756936D01*
X16063039Y-16756936D02*
X16072563Y-16747412D01*
X16253515Y-16975984D02*
X16139229Y-16975984D01*
X16196372Y-16975984D02*
X16196372Y-16775984D01*
X16196372Y-16775984D02*
X16177325Y-16804555D01*
X16177325Y-16804555D02*
X16158277Y-16823603D01*
X16158277Y-16823603D02*
X16139229Y-16833127D01*
X16377325Y-16775984D02*
X16396372Y-16775984D01*
X16396372Y-16775984D02*
X16415420Y-16785508D01*
X16415420Y-16785508D02*
X16424944Y-16795031D01*
X16424944Y-16795031D02*
X16434468Y-16814079D01*
X16434468Y-16814079D02*
X16443991Y-16852174D01*
X16443991Y-16852174D02*
X16443991Y-16899793D01*
X16443991Y-16899793D02*
X16434468Y-16937889D01*
X16434468Y-16937889D02*
X16424944Y-16956936D01*
X16424944Y-16956936D02*
X16415420Y-16966460D01*
X16415420Y-16966460D02*
X16396372Y-16975984D01*
X16396372Y-16975984D02*
X16377325Y-16975984D01*
X16377325Y-16975984D02*
X16358277Y-16966460D01*
X16358277Y-16966460D02*
X16348753Y-16956936D01*
X16348753Y-16956936D02*
X16339229Y-16937889D01*
X16339229Y-16937889D02*
X16329706Y-16899793D01*
X16329706Y-16899793D02*
X16329706Y-16852174D01*
X16329706Y-16852174D02*
X16339229Y-16814079D01*
X16339229Y-16814079D02*
X16348753Y-16795031D01*
X16348753Y-16795031D02*
X16358277Y-16785508D01*
X16358277Y-16785508D02*
X16377325Y-16775984D01*
X16520182Y-16795031D02*
X16529706Y-16785508D01*
X16529706Y-16785508D02*
X16548753Y-16775984D01*
X16548753Y-16775984D02*
X16596372Y-16775984D01*
X16596372Y-16775984D02*
X16615420Y-16785508D01*
X16615420Y-16785508D02*
X16624944Y-16795031D01*
X16624944Y-16795031D02*
X16634468Y-16814079D01*
X16634468Y-16814079D02*
X16634468Y-16833127D01*
X16634468Y-16833127D02*
X16624944Y-16861698D01*
X16624944Y-16861698D02*
X16510658Y-16975984D01*
X16510658Y-16975984D02*
X16634468Y-16975984D01*
X16872563Y-16975984D02*
X16872563Y-16775984D01*
X16958277Y-16975984D02*
X16958277Y-16871222D01*
X16958277Y-16871222D02*
X16948753Y-16852174D01*
X16948753Y-16852174D02*
X16929706Y-16842650D01*
X16929706Y-16842650D02*
X16901134Y-16842650D01*
X16901134Y-16842650D02*
X16882087Y-16852174D01*
X16882087Y-16852174D02*
X16872563Y-16861698D01*
X17082087Y-16975984D02*
X17063039Y-16966460D01*
X17063039Y-16966460D02*
X17053515Y-16956936D01*
X17053515Y-16956936D02*
X17043992Y-16937889D01*
X17043992Y-16937889D02*
X17043992Y-16880746D01*
X17043992Y-16880746D02*
X17053515Y-16861698D01*
X17053515Y-16861698D02*
X17063039Y-16852174D01*
X17063039Y-16852174D02*
X17082087Y-16842650D01*
X17082087Y-16842650D02*
X17110658Y-16842650D01*
X17110658Y-16842650D02*
X17129706Y-16852174D01*
X17129706Y-16852174D02*
X17139230Y-16861698D01*
X17139230Y-16861698D02*
X17148753Y-16880746D01*
X17148753Y-16880746D02*
X17148753Y-16937889D01*
X17148753Y-16937889D02*
X17139230Y-16956936D01*
X17139230Y-16956936D02*
X17129706Y-16966460D01*
X17129706Y-16966460D02*
X17110658Y-16975984D01*
X17110658Y-16975984D02*
X17082087Y-16975984D01*
X17263039Y-16975984D02*
X17243992Y-16966460D01*
X17243992Y-16966460D02*
X17234468Y-16947412D01*
X17234468Y-16947412D02*
X17234468Y-16775984D01*
X17415420Y-16966460D02*
X17396373Y-16975984D01*
X17396373Y-16975984D02*
X17358277Y-16975984D01*
X17358277Y-16975984D02*
X17339230Y-16966460D01*
X17339230Y-16966460D02*
X17329706Y-16947412D01*
X17329706Y-16947412D02*
X17329706Y-16871222D01*
X17329706Y-16871222D02*
X17339230Y-16852174D01*
X17339230Y-16852174D02*
X17358277Y-16842650D01*
X17358277Y-16842650D02*
X17396373Y-16842650D01*
X17396373Y-16842650D02*
X17415420Y-16852174D01*
X17415420Y-16852174D02*
X17424944Y-16871222D01*
X17424944Y-16871222D02*
X17424944Y-16890270D01*
X17424944Y-16890270D02*
X17329706Y-16909317D01*
X17501134Y-16966460D02*
X17520182Y-16975984D01*
X17520182Y-16975984D02*
X17558277Y-16975984D01*
X17558277Y-16975984D02*
X17577325Y-16966460D01*
X17577325Y-16966460D02*
X17586849Y-16947412D01*
X17586849Y-16947412D02*
X17586849Y-16937889D01*
X17586849Y-16937889D02*
X17577325Y-16918841D01*
X17577325Y-16918841D02*
X17558277Y-16909317D01*
X17558277Y-16909317D02*
X17529706Y-16909317D01*
X17529706Y-16909317D02*
X17510658Y-16899793D01*
X17510658Y-16899793D02*
X17501134Y-16880746D01*
X17501134Y-16880746D02*
X17501134Y-16871222D01*
X17501134Y-16871222D02*
X17510658Y-16852174D01*
X17510658Y-16852174D02*
X17529706Y-16842650D01*
X17529706Y-16842650D02*
X17558277Y-16842650D01*
X17558277Y-16842650D02*
X17577325Y-16852174D01*
X17653515Y-17052174D02*
X17663039Y-17042650D01*
X17663039Y-17042650D02*
X17682087Y-17014079D01*
X17682087Y-17014079D02*
X17691611Y-16995031D01*
X17691611Y-16995031D02*
X17701134Y-16966460D01*
X17701134Y-16966460D02*
X17710658Y-16918841D01*
X17710658Y-16918841D02*
X17710658Y-16880746D01*
X17710658Y-16880746D02*
X17701134Y-16833127D01*
X17701134Y-16833127D02*
X17691611Y-16804555D01*
X17691611Y-16804555D02*
X17682087Y-16785508D01*
X17682087Y-16785508D02*
X17663039Y-16756936D01*
X17663039Y-16756936D02*
X17653515Y-16747412D01*
D13*
X12432500Y-17213500D02*
X12497500Y-17148500D01*
X12432500Y-17083500D01*
X12367500Y-17148500D01*
X12432500Y-17213500D01*
D11*
X12863039Y-17239984D02*
X12748753Y-17239984D01*
X12805896Y-17239984D02*
X12805896Y-17039984D01*
X12805896Y-17039984D02*
X12786848Y-17068555D01*
X12786848Y-17068555D02*
X12767801Y-17087603D01*
X12767801Y-17087603D02*
X12748753Y-17097127D01*
X12948753Y-17220936D02*
X12958277Y-17230460D01*
X12958277Y-17230460D02*
X12948753Y-17239984D01*
X12948753Y-17239984D02*
X12939229Y-17230460D01*
X12939229Y-17230460D02*
X12948753Y-17220936D01*
X12948753Y-17220936D02*
X12948753Y-17239984D01*
X13024943Y-17039984D02*
X13148753Y-17039984D01*
X13148753Y-17039984D02*
X13082086Y-17116174D01*
X13082086Y-17116174D02*
X13110658Y-17116174D01*
X13110658Y-17116174D02*
X13129705Y-17125698D01*
X13129705Y-17125698D02*
X13139229Y-17135222D01*
X13139229Y-17135222D02*
X13148753Y-17154270D01*
X13148753Y-17154270D02*
X13148753Y-17201889D01*
X13148753Y-17201889D02*
X13139229Y-17220936D01*
X13139229Y-17220936D02*
X13129705Y-17230460D01*
X13129705Y-17230460D02*
X13110658Y-17239984D01*
X13110658Y-17239984D02*
X13053515Y-17239984D01*
X13053515Y-17239984D02*
X13034467Y-17230460D01*
X13034467Y-17230460D02*
X13024943Y-17220936D01*
X13272562Y-17039984D02*
X13291610Y-17039984D01*
X13291610Y-17039984D02*
X13310658Y-17049508D01*
X13310658Y-17049508D02*
X13320182Y-17059031D01*
X13320182Y-17059031D02*
X13329705Y-17078079D01*
X13329705Y-17078079D02*
X13339229Y-17116174D01*
X13339229Y-17116174D02*
X13339229Y-17163793D01*
X13339229Y-17163793D02*
X13329705Y-17201889D01*
X13329705Y-17201889D02*
X13320182Y-17220936D01*
X13320182Y-17220936D02*
X13310658Y-17230460D01*
X13310658Y-17230460D02*
X13291610Y-17239984D01*
X13291610Y-17239984D02*
X13272562Y-17239984D01*
X13272562Y-17239984D02*
X13253515Y-17230460D01*
X13253515Y-17230460D02*
X13243991Y-17220936D01*
X13243991Y-17220936D02*
X13234467Y-17201889D01*
X13234467Y-17201889D02*
X13224943Y-17163793D01*
X13224943Y-17163793D02*
X13224943Y-17116174D01*
X13224943Y-17116174D02*
X13234467Y-17078079D01*
X13234467Y-17078079D02*
X13243991Y-17059031D01*
X13243991Y-17059031D02*
X13253515Y-17049508D01*
X13253515Y-17049508D02*
X13272562Y-17039984D01*
X13463039Y-17039984D02*
X13482086Y-17039984D01*
X13482086Y-17039984D02*
X13501134Y-17049508D01*
X13501134Y-17049508D02*
X13510658Y-17059031D01*
X13510658Y-17059031D02*
X13520182Y-17078079D01*
X13520182Y-17078079D02*
X13529705Y-17116174D01*
X13529705Y-17116174D02*
X13529705Y-17163793D01*
X13529705Y-17163793D02*
X13520182Y-17201889D01*
X13520182Y-17201889D02*
X13510658Y-17220936D01*
X13510658Y-17220936D02*
X13501134Y-17230460D01*
X13501134Y-17230460D02*
X13482086Y-17239984D01*
X13482086Y-17239984D02*
X13463039Y-17239984D01*
X13463039Y-17239984D02*
X13443991Y-17230460D01*
X13443991Y-17230460D02*
X13434467Y-17220936D01*
X13434467Y-17220936D02*
X13424943Y-17201889D01*
X13424943Y-17201889D02*
X13415420Y-17163793D01*
X13415420Y-17163793D02*
X13415420Y-17116174D01*
X13415420Y-17116174D02*
X13424943Y-17078079D01*
X13424943Y-17078079D02*
X13434467Y-17059031D01*
X13434467Y-17059031D02*
X13443991Y-17049508D01*
X13443991Y-17049508D02*
X13463039Y-17039984D01*
X13615420Y-17239984D02*
X13615420Y-17106650D01*
X13615420Y-17125698D02*
X13624943Y-17116174D01*
X13624943Y-17116174D02*
X13643991Y-17106650D01*
X13643991Y-17106650D02*
X13672563Y-17106650D01*
X13672563Y-17106650D02*
X13691610Y-17116174D01*
X13691610Y-17116174D02*
X13701134Y-17135222D01*
X13701134Y-17135222D02*
X13701134Y-17239984D01*
X13701134Y-17135222D02*
X13710658Y-17116174D01*
X13710658Y-17116174D02*
X13729705Y-17106650D01*
X13729705Y-17106650D02*
X13758277Y-17106650D01*
X13758277Y-17106650D02*
X13777324Y-17116174D01*
X13777324Y-17116174D02*
X13786848Y-17135222D01*
X13786848Y-17135222D02*
X13786848Y-17239984D01*
X13882086Y-17239984D02*
X13882086Y-17106650D01*
X13882086Y-17125698D02*
X13891610Y-17116174D01*
X13891610Y-17116174D02*
X13910658Y-17106650D01*
X13910658Y-17106650D02*
X13939229Y-17106650D01*
X13939229Y-17106650D02*
X13958277Y-17116174D01*
X13958277Y-17116174D02*
X13967801Y-17135222D01*
X13967801Y-17135222D02*
X13967801Y-17239984D01*
X13967801Y-17135222D02*
X13977324Y-17116174D01*
X13977324Y-17116174D02*
X13996372Y-17106650D01*
X13996372Y-17106650D02*
X14024943Y-17106650D01*
X14024943Y-17106650D02*
X14043991Y-17116174D01*
X14043991Y-17116174D02*
X14053515Y-17135222D01*
X14053515Y-17135222D02*
X14053515Y-17239984D01*
X14443991Y-17030460D02*
X14272563Y-17287603D01*
X14701134Y-17039984D02*
X14720182Y-17039984D01*
X14720182Y-17039984D02*
X14739229Y-17049508D01*
X14739229Y-17049508D02*
X14748753Y-17059031D01*
X14748753Y-17059031D02*
X14758277Y-17078079D01*
X14758277Y-17078079D02*
X14767801Y-17116174D01*
X14767801Y-17116174D02*
X14767801Y-17163793D01*
X14767801Y-17163793D02*
X14758277Y-17201889D01*
X14758277Y-17201889D02*
X14748753Y-17220936D01*
X14748753Y-17220936D02*
X14739229Y-17230460D01*
X14739229Y-17230460D02*
X14720182Y-17239984D01*
X14720182Y-17239984D02*
X14701134Y-17239984D01*
X14701134Y-17239984D02*
X14682086Y-17230460D01*
X14682086Y-17230460D02*
X14672563Y-17220936D01*
X14672563Y-17220936D02*
X14663039Y-17201889D01*
X14663039Y-17201889D02*
X14653515Y-17163793D01*
X14653515Y-17163793D02*
X14653515Y-17116174D01*
X14653515Y-17116174D02*
X14663039Y-17078079D01*
X14663039Y-17078079D02*
X14672563Y-17059031D01*
X14672563Y-17059031D02*
X14682086Y-17049508D01*
X14682086Y-17049508D02*
X14701134Y-17039984D01*
X14853515Y-17220936D02*
X14863039Y-17230460D01*
X14863039Y-17230460D02*
X14853515Y-17239984D01*
X14853515Y-17239984D02*
X14843991Y-17230460D01*
X14843991Y-17230460D02*
X14853515Y-17220936D01*
X14853515Y-17220936D02*
X14853515Y-17239984D01*
X14986848Y-17039984D02*
X15005896Y-17039984D01*
X15005896Y-17039984D02*
X15024944Y-17049508D01*
X15024944Y-17049508D02*
X15034467Y-17059031D01*
X15034467Y-17059031D02*
X15043991Y-17078079D01*
X15043991Y-17078079D02*
X15053515Y-17116174D01*
X15053515Y-17116174D02*
X15053515Y-17163793D01*
X15053515Y-17163793D02*
X15043991Y-17201889D01*
X15043991Y-17201889D02*
X15034467Y-17220936D01*
X15034467Y-17220936D02*
X15024944Y-17230460D01*
X15024944Y-17230460D02*
X15005896Y-17239984D01*
X15005896Y-17239984D02*
X14986848Y-17239984D01*
X14986848Y-17239984D02*
X14967801Y-17230460D01*
X14967801Y-17230460D02*
X14958277Y-17220936D01*
X14958277Y-17220936D02*
X14948753Y-17201889D01*
X14948753Y-17201889D02*
X14939229Y-17163793D01*
X14939229Y-17163793D02*
X14939229Y-17116174D01*
X14939229Y-17116174D02*
X14948753Y-17078079D01*
X14948753Y-17078079D02*
X14958277Y-17059031D01*
X14958277Y-17059031D02*
X14967801Y-17049508D01*
X14967801Y-17049508D02*
X14986848Y-17039984D01*
X15234467Y-17039984D02*
X15139229Y-17039984D01*
X15139229Y-17039984D02*
X15129706Y-17135222D01*
X15129706Y-17135222D02*
X15139229Y-17125698D01*
X15139229Y-17125698D02*
X15158277Y-17116174D01*
X15158277Y-17116174D02*
X15205896Y-17116174D01*
X15205896Y-17116174D02*
X15224944Y-17125698D01*
X15224944Y-17125698D02*
X15234467Y-17135222D01*
X15234467Y-17135222D02*
X15243991Y-17154270D01*
X15243991Y-17154270D02*
X15243991Y-17201889D01*
X15243991Y-17201889D02*
X15234467Y-17220936D01*
X15234467Y-17220936D02*
X15224944Y-17230460D01*
X15224944Y-17230460D02*
X15205896Y-17239984D01*
X15205896Y-17239984D02*
X15158277Y-17239984D01*
X15158277Y-17239984D02*
X15139229Y-17230460D01*
X15139229Y-17230460D02*
X15129706Y-17220936D01*
X15434467Y-17239984D02*
X15320182Y-17239984D01*
X15377325Y-17239984D02*
X15377325Y-17039984D01*
X15377325Y-17039984D02*
X15358277Y-17068555D01*
X15358277Y-17068555D02*
X15339229Y-17087603D01*
X15339229Y-17087603D02*
X15320182Y-17097127D01*
X15510658Y-17059031D02*
X15520182Y-17049508D01*
X15520182Y-17049508D02*
X15539229Y-17039984D01*
X15539229Y-17039984D02*
X15586848Y-17039984D01*
X15586848Y-17039984D02*
X15605896Y-17049508D01*
X15605896Y-17049508D02*
X15615420Y-17059031D01*
X15615420Y-17059031D02*
X15624944Y-17078079D01*
X15624944Y-17078079D02*
X15624944Y-17097127D01*
X15624944Y-17097127D02*
X15615420Y-17125698D01*
X15615420Y-17125698D02*
X15501134Y-17239984D01*
X15501134Y-17239984D02*
X15624944Y-17239984D01*
X15701134Y-17039984D02*
X15701134Y-17078079D01*
X15777325Y-17039984D02*
X15777325Y-17078079D01*
X16072563Y-17316174D02*
X16063039Y-17306650D01*
X16063039Y-17306650D02*
X16043991Y-17278079D01*
X16043991Y-17278079D02*
X16034468Y-17259031D01*
X16034468Y-17259031D02*
X16024944Y-17230460D01*
X16024944Y-17230460D02*
X16015420Y-17182841D01*
X16015420Y-17182841D02*
X16015420Y-17144746D01*
X16015420Y-17144746D02*
X16024944Y-17097127D01*
X16024944Y-17097127D02*
X16034468Y-17068555D01*
X16034468Y-17068555D02*
X16043991Y-17049508D01*
X16043991Y-17049508D02*
X16063039Y-17020936D01*
X16063039Y-17020936D02*
X16072563Y-17011412D01*
X16139229Y-17059031D02*
X16148753Y-17049508D01*
X16148753Y-17049508D02*
X16167801Y-17039984D01*
X16167801Y-17039984D02*
X16215420Y-17039984D01*
X16215420Y-17039984D02*
X16234468Y-17049508D01*
X16234468Y-17049508D02*
X16243991Y-17059031D01*
X16243991Y-17059031D02*
X16253515Y-17078079D01*
X16253515Y-17078079D02*
X16253515Y-17097127D01*
X16253515Y-17097127D02*
X16243991Y-17125698D01*
X16243991Y-17125698D02*
X16129706Y-17239984D01*
X16129706Y-17239984D02*
X16253515Y-17239984D01*
X16491610Y-17239984D02*
X16491610Y-17039984D01*
X16577325Y-17239984D02*
X16577325Y-17135222D01*
X16577325Y-17135222D02*
X16567801Y-17116174D01*
X16567801Y-17116174D02*
X16548753Y-17106650D01*
X16548753Y-17106650D02*
X16520182Y-17106650D01*
X16520182Y-17106650D02*
X16501134Y-17116174D01*
X16501134Y-17116174D02*
X16491610Y-17125698D01*
X16701134Y-17239984D02*
X16682087Y-17230460D01*
X16682087Y-17230460D02*
X16672563Y-17220936D01*
X16672563Y-17220936D02*
X16663039Y-17201889D01*
X16663039Y-17201889D02*
X16663039Y-17144746D01*
X16663039Y-17144746D02*
X16672563Y-17125698D01*
X16672563Y-17125698D02*
X16682087Y-17116174D01*
X16682087Y-17116174D02*
X16701134Y-17106650D01*
X16701134Y-17106650D02*
X16729706Y-17106650D01*
X16729706Y-17106650D02*
X16748753Y-17116174D01*
X16748753Y-17116174D02*
X16758277Y-17125698D01*
X16758277Y-17125698D02*
X16767801Y-17144746D01*
X16767801Y-17144746D02*
X16767801Y-17201889D01*
X16767801Y-17201889D02*
X16758277Y-17220936D01*
X16758277Y-17220936D02*
X16748753Y-17230460D01*
X16748753Y-17230460D02*
X16729706Y-17239984D01*
X16729706Y-17239984D02*
X16701134Y-17239984D01*
X16882087Y-17239984D02*
X16863039Y-17230460D01*
X16863039Y-17230460D02*
X16853515Y-17211412D01*
X16853515Y-17211412D02*
X16853515Y-17039984D01*
X17034468Y-17230460D02*
X17015420Y-17239984D01*
X17015420Y-17239984D02*
X16977325Y-17239984D01*
X16977325Y-17239984D02*
X16958277Y-17230460D01*
X16958277Y-17230460D02*
X16948753Y-17211412D01*
X16948753Y-17211412D02*
X16948753Y-17135222D01*
X16948753Y-17135222D02*
X16958277Y-17116174D01*
X16958277Y-17116174D02*
X16977325Y-17106650D01*
X16977325Y-17106650D02*
X17015420Y-17106650D01*
X17015420Y-17106650D02*
X17034468Y-17116174D01*
X17034468Y-17116174D02*
X17043992Y-17135222D01*
X17043992Y-17135222D02*
X17043992Y-17154270D01*
X17043992Y-17154270D02*
X16948753Y-17173317D01*
X17120182Y-17230460D02*
X17139230Y-17239984D01*
X17139230Y-17239984D02*
X17177325Y-17239984D01*
X17177325Y-17239984D02*
X17196373Y-17230460D01*
X17196373Y-17230460D02*
X17205896Y-17211412D01*
X17205896Y-17211412D02*
X17205896Y-17201889D01*
X17205896Y-17201889D02*
X17196373Y-17182841D01*
X17196373Y-17182841D02*
X17177325Y-17173317D01*
X17177325Y-17173317D02*
X17148753Y-17173317D01*
X17148753Y-17173317D02*
X17129706Y-17163793D01*
X17129706Y-17163793D02*
X17120182Y-17144746D01*
X17120182Y-17144746D02*
X17120182Y-17135222D01*
X17120182Y-17135222D02*
X17129706Y-17116174D01*
X17129706Y-17116174D02*
X17148753Y-17106650D01*
X17148753Y-17106650D02*
X17177325Y-17106650D01*
X17177325Y-17106650D02*
X17196373Y-17116174D01*
X17272563Y-17316174D02*
X17282087Y-17306650D01*
X17282087Y-17306650D02*
X17301134Y-17278079D01*
X17301134Y-17278079D02*
X17310658Y-17259031D01*
X17310658Y-17259031D02*
X17320182Y-17230460D01*
X17320182Y-17230460D02*
X17329706Y-17182841D01*
X17329706Y-17182841D02*
X17329706Y-17144746D01*
X17329706Y-17144746D02*
X17320182Y-17097127D01*
X17320182Y-17097127D02*
X17310658Y-17068555D01*
X17310658Y-17068555D02*
X17301134Y-17049508D01*
X17301134Y-17049508D02*
X17282087Y-17020936D01*
X17282087Y-17020936D02*
X17272563Y-17011412D01*
M02*
