M48
; DRILL file {KiCad 9.0.7} date 2026-04-26T18:50:03+0200
; FORMAT={-:-/ absolute / metric / decimal}
; #@! TF.CreationDate,2026-04-26T18:50:03+02:00
; #@! TF.GenerationSoftware,Kicad,Pcbnew,9.0.7
; #@! TF.FileFunction,Plated,1,2,PTH
FMAT,2
METRIC
; #@! TA.AperFunction,Plated,PTH,ComponentDrill
T1C0.920
; #@! TA.AperFunction,Plated,PTH,ComponentDrill
T2C1.400
; #@! TA.AperFunction,Plated,PTH,ComponentDrill
T3C1.500
; #@! TA.AperFunction,Plated,PTH,ComponentDrill
T4C4.000
%
G90
G05
T1
X136.73Y-76.08
X136.73Y-85.73
X136.73Y-95.38
X136.73Y-105.03
X136.73Y-114.68
X138.73Y-76.08
X138.73Y-85.73
X138.73Y-95.38
X138.73Y-105.03
X138.73Y-114.68
X140.73Y-76.08
X140.73Y-85.73
X140.73Y-95.38
X140.73Y-105.03
X140.73Y-114.68
X142.73Y-76.08
X142.73Y-85.73
X142.73Y-95.38
X142.73Y-105.03
X142.73Y-114.68
T2
X150.7Y-85.6
X155.78Y-85.6
T3
X136.0Y-73.36
X136.0Y-78.8
X136.0Y-83.01
X136.0Y-88.45
X136.0Y-92.66
X136.0Y-98.1
X136.0Y-102.31
X136.0Y-107.75
X136.0Y-111.96
X136.0Y-117.4
X143.0Y-73.36
X143.0Y-78.8
X143.0Y-83.01
X143.0Y-88.45
X143.0Y-92.66
X143.0Y-98.1
X143.0Y-102.31
X143.0Y-107.75
X143.0Y-111.96
X143.0Y-117.4
T4
X154.4Y-114.1
X154.5Y-77.1
M30
