%TF.GenerationSoftware,KiCad,Pcbnew,9.0.7*%
%TF.CreationDate,2026-04-26T18:50:01+02:00*%
%TF.ProjectId,USB-HUBx5,5553422d-4855-4427-9835-2e6b69636164,rev?*%
%TF.SameCoordinates,Original*%
%TF.FileFunction,Legend,Top*%
%TF.FilePolarity,Positive*%
%FSLAX46Y46*%
G04 Gerber Fmt 4.6, Leading zero omitted, Abs format (unit mm)*
G04 Created by KiCad (PCBNEW 9.0.7) date 2026-04-26 18:50:01*
%MOMM*%
%LPD*%
G01*
G04 APERTURE LIST*
%ADD10C,0.100000*%
%ADD11C,0.150000*%
%ADD12C,0.120000*%
G04 APERTURE END LIST*
D10*
X151327580Y-99261027D02*
X150327580Y-99594360D01*
X150327580Y-99594360D02*
X151327580Y-99927693D01*
X150851390Y-100594360D02*
X150803771Y-100737217D01*
X150803771Y-100737217D02*
X150756152Y-100784836D01*
X150756152Y-100784836D02*
X150660914Y-100832455D01*
X150660914Y-100832455D02*
X150518057Y-100832455D01*
X150518057Y-100832455D02*
X150422819Y-100784836D01*
X150422819Y-100784836D02*
X150375200Y-100737217D01*
X150375200Y-100737217D02*
X150327580Y-100641979D01*
X150327580Y-100641979D02*
X150327580Y-100261027D01*
X150327580Y-100261027D02*
X151327580Y-100261027D01*
X151327580Y-100261027D02*
X151327580Y-100594360D01*
X151327580Y-100594360D02*
X151279961Y-100689598D01*
X151279961Y-100689598D02*
X151232342Y-100737217D01*
X151232342Y-100737217D02*
X151137104Y-100784836D01*
X151137104Y-100784836D02*
X151041866Y-100784836D01*
X151041866Y-100784836D02*
X150946628Y-100737217D01*
X150946628Y-100737217D02*
X150899009Y-100689598D01*
X150899009Y-100689598D02*
X150851390Y-100594360D01*
X150851390Y-100594360D02*
X150851390Y-100261027D01*
X151327580Y-101261027D02*
X150518057Y-101261027D01*
X150518057Y-101261027D02*
X150422819Y-101308646D01*
X150422819Y-101308646D02*
X150375200Y-101356265D01*
X150375200Y-101356265D02*
X150327580Y-101451503D01*
X150327580Y-101451503D02*
X150327580Y-101641979D01*
X150327580Y-101641979D02*
X150375200Y-101737217D01*
X150375200Y-101737217D02*
X150422819Y-101784836D01*
X150422819Y-101784836D02*
X150518057Y-101832455D01*
X150518057Y-101832455D02*
X151327580Y-101832455D01*
X150375200Y-102261027D02*
X150327580Y-102403884D01*
X150327580Y-102403884D02*
X150327580Y-102641979D01*
X150327580Y-102641979D02*
X150375200Y-102737217D01*
X150375200Y-102737217D02*
X150422819Y-102784836D01*
X150422819Y-102784836D02*
X150518057Y-102832455D01*
X150518057Y-102832455D02*
X150613295Y-102832455D01*
X150613295Y-102832455D02*
X150708533Y-102784836D01*
X150708533Y-102784836D02*
X150756152Y-102737217D01*
X150756152Y-102737217D02*
X150803771Y-102641979D01*
X150803771Y-102641979D02*
X150851390Y-102451503D01*
X150851390Y-102451503D02*
X150899009Y-102356265D01*
X150899009Y-102356265D02*
X150946628Y-102308646D01*
X150946628Y-102308646D02*
X151041866Y-102261027D01*
X151041866Y-102261027D02*
X151137104Y-102261027D01*
X151137104Y-102261027D02*
X151232342Y-102308646D01*
X151232342Y-102308646D02*
X151279961Y-102356265D01*
X151279961Y-102356265D02*
X151327580Y-102451503D01*
X151327580Y-102451503D02*
X151327580Y-102689598D01*
X151327580Y-102689598D02*
X151279961Y-102832455D01*
X155979961Y-99827693D02*
X156027580Y-99732455D01*
X156027580Y-99732455D02*
X156027580Y-99589598D01*
X156027580Y-99589598D02*
X155979961Y-99446741D01*
X155979961Y-99446741D02*
X155884723Y-99351503D01*
X155884723Y-99351503D02*
X155789485Y-99303884D01*
X155789485Y-99303884D02*
X155599009Y-99256265D01*
X155599009Y-99256265D02*
X155456152Y-99256265D01*
X155456152Y-99256265D02*
X155265676Y-99303884D01*
X155265676Y-99303884D02*
X155170438Y-99351503D01*
X155170438Y-99351503D02*
X155075200Y-99446741D01*
X155075200Y-99446741D02*
X155027580Y-99589598D01*
X155027580Y-99589598D02*
X155027580Y-99684836D01*
X155027580Y-99684836D02*
X155075200Y-99827693D01*
X155075200Y-99827693D02*
X155122819Y-99875312D01*
X155122819Y-99875312D02*
X155456152Y-99875312D01*
X155456152Y-99875312D02*
X155456152Y-99684836D01*
X155027580Y-100303884D02*
X156027580Y-100303884D01*
X156027580Y-100303884D02*
X155027580Y-100875312D01*
X155027580Y-100875312D02*
X156027580Y-100875312D01*
X155027580Y-101351503D02*
X156027580Y-101351503D01*
X156027580Y-101351503D02*
X156027580Y-101589598D01*
X156027580Y-101589598D02*
X155979961Y-101732455D01*
X155979961Y-101732455D02*
X155884723Y-101827693D01*
X155884723Y-101827693D02*
X155789485Y-101875312D01*
X155789485Y-101875312D02*
X155599009Y-101922931D01*
X155599009Y-101922931D02*
X155456152Y-101922931D01*
X155456152Y-101922931D02*
X155265676Y-101875312D01*
X155265676Y-101875312D02*
X155170438Y-101827693D01*
X155170438Y-101827693D02*
X155075200Y-101732455D01*
X155075200Y-101732455D02*
X155027580Y-101589598D01*
X155027580Y-101589598D02*
X155027580Y-101351503D01*
D11*
X154166666Y-78804819D02*
X154166666Y-79519104D01*
X154166666Y-79519104D02*
X154119047Y-79661961D01*
X154119047Y-79661961D02*
X154023809Y-79757200D01*
X154023809Y-79757200D02*
X153880952Y-79804819D01*
X153880952Y-79804819D02*
X153785714Y-79804819D01*
X154547619Y-78804819D02*
X155214285Y-78804819D01*
X155214285Y-78804819D02*
X154785714Y-79804819D01*
X136396666Y-109054819D02*
X136396666Y-109769104D01*
X136396666Y-109769104D02*
X136349047Y-109911961D01*
X136349047Y-109911961D02*
X136253809Y-110007200D01*
X136253809Y-110007200D02*
X136110952Y-110054819D01*
X136110952Y-110054819D02*
X136015714Y-110054819D01*
X137349047Y-109054819D02*
X136872857Y-109054819D01*
X136872857Y-109054819D02*
X136825238Y-109531009D01*
X136825238Y-109531009D02*
X136872857Y-109483390D01*
X136872857Y-109483390D02*
X136968095Y-109435771D01*
X136968095Y-109435771D02*
X137206190Y-109435771D01*
X137206190Y-109435771D02*
X137301428Y-109483390D01*
X137301428Y-109483390D02*
X137349047Y-109531009D01*
X137349047Y-109531009D02*
X137396666Y-109626247D01*
X137396666Y-109626247D02*
X137396666Y-109864342D01*
X137396666Y-109864342D02*
X137349047Y-109959580D01*
X137349047Y-109959580D02*
X137301428Y-110007200D01*
X137301428Y-110007200D02*
X137206190Y-110054819D01*
X137206190Y-110054819D02*
X136968095Y-110054819D01*
X136968095Y-110054819D02*
X136872857Y-110007200D01*
X136872857Y-110007200D02*
X136825238Y-109959580D01*
X136396666Y-80104819D02*
X136396666Y-80819104D01*
X136396666Y-80819104D02*
X136349047Y-80961961D01*
X136349047Y-80961961D02*
X136253809Y-81057200D01*
X136253809Y-81057200D02*
X136110952Y-81104819D01*
X136110952Y-81104819D02*
X136015714Y-81104819D01*
X136825238Y-80200057D02*
X136872857Y-80152438D01*
X136872857Y-80152438D02*
X136968095Y-80104819D01*
X136968095Y-80104819D02*
X137206190Y-80104819D01*
X137206190Y-80104819D02*
X137301428Y-80152438D01*
X137301428Y-80152438D02*
X137349047Y-80200057D01*
X137349047Y-80200057D02*
X137396666Y-80295295D01*
X137396666Y-80295295D02*
X137396666Y-80390533D01*
X137396666Y-80390533D02*
X137349047Y-80533390D01*
X137349047Y-80533390D02*
X136777619Y-81104819D01*
X136777619Y-81104819D02*
X137396666Y-81104819D01*
X136396666Y-99404819D02*
X136396666Y-100119104D01*
X136396666Y-100119104D02*
X136349047Y-100261961D01*
X136349047Y-100261961D02*
X136253809Y-100357200D01*
X136253809Y-100357200D02*
X136110952Y-100404819D01*
X136110952Y-100404819D02*
X136015714Y-100404819D01*
X137301428Y-99738152D02*
X137301428Y-100404819D01*
X137063333Y-99357200D02*
X136825238Y-100071485D01*
X136825238Y-100071485D02*
X137444285Y-100071485D01*
X136396666Y-89754819D02*
X136396666Y-90469104D01*
X136396666Y-90469104D02*
X136349047Y-90611961D01*
X136349047Y-90611961D02*
X136253809Y-90707200D01*
X136253809Y-90707200D02*
X136110952Y-90754819D01*
X136110952Y-90754819D02*
X136015714Y-90754819D01*
X136777619Y-89754819D02*
X137396666Y-89754819D01*
X137396666Y-89754819D02*
X137063333Y-90135771D01*
X137063333Y-90135771D02*
X137206190Y-90135771D01*
X137206190Y-90135771D02*
X137301428Y-90183390D01*
X137301428Y-90183390D02*
X137349047Y-90231009D01*
X137349047Y-90231009D02*
X137396666Y-90326247D01*
X137396666Y-90326247D02*
X137396666Y-90564342D01*
X137396666Y-90564342D02*
X137349047Y-90659580D01*
X137349047Y-90659580D02*
X137301428Y-90707200D01*
X137301428Y-90707200D02*
X137206190Y-90754819D01*
X137206190Y-90754819D02*
X136920476Y-90754819D01*
X136920476Y-90754819D02*
X136825238Y-90707200D01*
X136825238Y-90707200D02*
X136777619Y-90659580D01*
X152906666Y-81854819D02*
X152906666Y-82569104D01*
X152906666Y-82569104D02*
X152859047Y-82711961D01*
X152859047Y-82711961D02*
X152763809Y-82807200D01*
X152763809Y-82807200D02*
X152620952Y-82854819D01*
X152620952Y-82854819D02*
X152525714Y-82854819D01*
X153811428Y-81854819D02*
X153620952Y-81854819D01*
X153620952Y-81854819D02*
X153525714Y-81902438D01*
X153525714Y-81902438D02*
X153478095Y-81950057D01*
X153478095Y-81950057D02*
X153382857Y-82092914D01*
X153382857Y-82092914D02*
X153335238Y-82283390D01*
X153335238Y-82283390D02*
X153335238Y-82664342D01*
X153335238Y-82664342D02*
X153382857Y-82759580D01*
X153382857Y-82759580D02*
X153430476Y-82807200D01*
X153430476Y-82807200D02*
X153525714Y-82854819D01*
X153525714Y-82854819D02*
X153716190Y-82854819D01*
X153716190Y-82854819D02*
X153811428Y-82807200D01*
X153811428Y-82807200D02*
X153859047Y-82759580D01*
X153859047Y-82759580D02*
X153906666Y-82664342D01*
X153906666Y-82664342D02*
X153906666Y-82426247D01*
X153906666Y-82426247D02*
X153859047Y-82331009D01*
X153859047Y-82331009D02*
X153811428Y-82283390D01*
X153811428Y-82283390D02*
X153716190Y-82235771D01*
X153716190Y-82235771D02*
X153525714Y-82235771D01*
X153525714Y-82235771D02*
X153430476Y-82283390D01*
X153430476Y-82283390D02*
X153382857Y-82331009D01*
X153382857Y-82331009D02*
X153335238Y-82426247D01*
X154066666Y-115804819D02*
X154066666Y-116519104D01*
X154066666Y-116519104D02*
X154019047Y-116661961D01*
X154019047Y-116661961D02*
X153923809Y-116757200D01*
X153923809Y-116757200D02*
X153780952Y-116804819D01*
X153780952Y-116804819D02*
X153685714Y-116804819D01*
X154685714Y-116233390D02*
X154590476Y-116185771D01*
X154590476Y-116185771D02*
X154542857Y-116138152D01*
X154542857Y-116138152D02*
X154495238Y-116042914D01*
X154495238Y-116042914D02*
X154495238Y-115995295D01*
X154495238Y-115995295D02*
X154542857Y-115900057D01*
X154542857Y-115900057D02*
X154590476Y-115852438D01*
X154590476Y-115852438D02*
X154685714Y-115804819D01*
X154685714Y-115804819D02*
X154876190Y-115804819D01*
X154876190Y-115804819D02*
X154971428Y-115852438D01*
X154971428Y-115852438D02*
X155019047Y-115900057D01*
X155019047Y-115900057D02*
X155066666Y-115995295D01*
X155066666Y-115995295D02*
X155066666Y-116042914D01*
X155066666Y-116042914D02*
X155019047Y-116138152D01*
X155019047Y-116138152D02*
X154971428Y-116185771D01*
X154971428Y-116185771D02*
X154876190Y-116233390D01*
X154876190Y-116233390D02*
X154685714Y-116233390D01*
X154685714Y-116233390D02*
X154590476Y-116281009D01*
X154590476Y-116281009D02*
X154542857Y-116328628D01*
X154542857Y-116328628D02*
X154495238Y-116423866D01*
X154495238Y-116423866D02*
X154495238Y-116614342D01*
X154495238Y-116614342D02*
X154542857Y-116709580D01*
X154542857Y-116709580D02*
X154590476Y-116757200D01*
X154590476Y-116757200D02*
X154685714Y-116804819D01*
X154685714Y-116804819D02*
X154876190Y-116804819D01*
X154876190Y-116804819D02*
X154971428Y-116757200D01*
X154971428Y-116757200D02*
X155019047Y-116709580D01*
X155019047Y-116709580D02*
X155066666Y-116614342D01*
X155066666Y-116614342D02*
X155066666Y-116423866D01*
X155066666Y-116423866D02*
X155019047Y-116328628D01*
X155019047Y-116328628D02*
X154971428Y-116281009D01*
X154971428Y-116281009D02*
X154876190Y-116233390D01*
X136396666Y-70454819D02*
X136396666Y-71169104D01*
X136396666Y-71169104D02*
X136349047Y-71311961D01*
X136349047Y-71311961D02*
X136253809Y-71407200D01*
X136253809Y-71407200D02*
X136110952Y-71454819D01*
X136110952Y-71454819D02*
X136015714Y-71454819D01*
X137396666Y-71454819D02*
X136825238Y-71454819D01*
X137110952Y-71454819D02*
X137110952Y-70454819D01*
X137110952Y-70454819D02*
X137015714Y-70597676D01*
X137015714Y-70597676D02*
X136920476Y-70692914D01*
X136920476Y-70692914D02*
X136825238Y-70740533D01*
D12*
%TO.C,J7*%
X156000833Y-77100000D02*
G75*
G02*
X152999167Y-77100000I-1500833J0D01*
G01*
X152999167Y-77100000D02*
G75*
G02*
X156000833Y-77100000I1500833J0D01*
G01*
%TO.C,J5*%
X124300000Y-111030000D02*
X124300000Y-118330000D01*
X124300000Y-111030000D02*
X134750000Y-111030000D01*
X124300000Y-118330000D02*
X134750000Y-118330000D01*
X136230000Y-118710000D02*
X137230000Y-118710000D01*
X137250000Y-111030000D02*
X141750000Y-111030000D01*
X137250000Y-118330000D02*
X141750000Y-118330000D01*
X143800000Y-113180000D02*
X143800000Y-116180000D01*
%TO.C,J2*%
X124300000Y-82080000D02*
X124300000Y-89380000D01*
X124300000Y-82080000D02*
X134750000Y-82080000D01*
X124300000Y-89380000D02*
X134750000Y-89380000D01*
X136230000Y-89760000D02*
X137230000Y-89760000D01*
X137250000Y-82080000D02*
X141750000Y-82080000D01*
X137250000Y-89380000D02*
X141750000Y-89380000D01*
X143800000Y-84230000D02*
X143800000Y-87230000D01*
%TO.C,J4*%
X124300000Y-101380000D02*
X124300000Y-108680000D01*
X124300000Y-101380000D02*
X134750000Y-101380000D01*
X124300000Y-108680000D02*
X134750000Y-108680000D01*
X136230000Y-109060000D02*
X137230000Y-109060000D01*
X137250000Y-101380000D02*
X141750000Y-101380000D01*
X137250000Y-108680000D02*
X141750000Y-108680000D01*
X143800000Y-103530000D02*
X143800000Y-106530000D01*
%TO.C,J3*%
X124300000Y-91730000D02*
X124300000Y-99030000D01*
X124300000Y-91730000D02*
X134750000Y-91730000D01*
X124300000Y-99030000D02*
X134750000Y-99030000D01*
X136230000Y-99410000D02*
X137230000Y-99410000D01*
X137250000Y-91730000D02*
X141750000Y-91730000D01*
X137250000Y-99030000D02*
X141750000Y-99030000D01*
X143800000Y-93880000D02*
X143800000Y-96880000D01*
%TO.C,J6*%
X149700000Y-95710000D02*
X151700000Y-95710000D01*
X149950000Y-94210000D02*
X149700000Y-95710000D01*
X150400000Y-82690000D02*
X151000000Y-82690000D01*
X150700000Y-83290000D02*
X150400000Y-82690000D01*
X151000000Y-82690000D02*
X150700000Y-83290000D01*
X151450000Y-94210000D02*
X149950000Y-94210000D01*
X151700000Y-95710000D02*
X151450000Y-94210000D01*
X154780000Y-95710000D02*
X156780000Y-95710000D01*
X155030000Y-94210000D02*
X154780000Y-95710000D01*
X156530000Y-94210000D02*
X155030000Y-94210000D01*
X156780000Y-95710000D02*
X156530000Y-94210000D01*
X147050000Y-83490000D02*
X159430000Y-83490000D01*
X159430000Y-95710000D01*
X147050000Y-95710000D01*
X147050000Y-83490000D01*
X147050000Y-92410000D02*
X159430000Y-92410000D01*
X159430000Y-94210000D01*
X147050000Y-94210000D01*
X147050000Y-92410000D01*
%TO.C,J8*%
X155900833Y-114100000D02*
G75*
G02*
X152899167Y-114100000I-1500833J0D01*
G01*
X152899167Y-114100000D02*
G75*
G02*
X155900833Y-114100000I1500833J0D01*
G01*
%TO.C,J1*%
X124300000Y-72430000D02*
X124300000Y-79730000D01*
X124300000Y-72430000D02*
X134750000Y-72430000D01*
X124300000Y-79730000D02*
X134750000Y-79730000D01*
X136230000Y-80110000D02*
X137230000Y-80110000D01*
X137250000Y-72430000D02*
X141750000Y-72430000D01*
X137250000Y-79730000D02*
X141750000Y-79730000D01*
X143800000Y-74580000D02*
X143800000Y-77580000D01*
%TD*%
M02*
