%TF.GenerationSoftware,KiCad,Pcbnew,9.0.7*%
%TF.CreationDate,2026-04-26T18:50:01+02:00*%
%TF.ProjectId,USB-HUBx5,5553422d-4855-4427-9835-2e6b69636164,rev?*%
%TF.SameCoordinates,Original*%
%TF.FileFunction,Copper,L1,Top*%
%TF.FilePolarity,Positive*%
%FSLAX46Y46*%
G04 Gerber Fmt 4.6, Leading zero omitted, Abs format (unit mm)*
G04 Created by KiCad (PCBNEW 9.0.7) date 2026-04-26 18:50:01*
%MOMM*%
%LPD*%
G01*
G04 APERTURE LIST*
G04 Aperture macros list*
%AMRoundRect*
0 Rectangle with rounded corners*
0 $1 Rounding radius*
0 $2 $3 $4 $5 $6 $7 $8 $9 X,Y pos of 4 corners*
0 Add a 4 corners polygon primitive as box body*
4,1,4,$2,$3,$4,$5,$6,$7,$8,$9,$2,$3,0*
0 Add four circle primitives for the rounded corners*
1,1,$1+$1,$2,$3*
1,1,$1+$1,$4,$5*
1,1,$1+$1,$6,$7*
1,1,$1+$1,$8,$9*
0 Add four rect primitives between the rounded corners*
20,1,$1+$1,$2,$3,$4,$5,0*
20,1,$1+$1,$4,$5,$6,$7,0*
20,1,$1+$1,$6,$7,$8,$9,0*
20,1,$1+$1,$8,$9,$2,$3,0*%
G04 Aperture macros list end*
%TA.AperFunction,ComponentPad*%
%ADD10C,10.000000*%
%TD*%
%TA.AperFunction,ComponentPad*%
%ADD11R,1.600000X1.600000*%
%TD*%
%TA.AperFunction,ComponentPad*%
%ADD12C,1.600000*%
%TD*%
%TA.AperFunction,ComponentPad*%
%ADD13C,2.150000*%
%TD*%
%TA.AperFunction,ComponentPad*%
%ADD14RoundRect,0.249999X-0.790001X-1.550001X0.790001X-1.550001X0.790001X1.550001X-0.790001X1.550001X0*%
%TD*%
%TA.AperFunction,ComponentPad*%
%ADD15O,2.080000X3.600000*%
%TD*%
%TA.AperFunction,Conductor*%
%ADD16C,1.000000*%
%TD*%
%TA.AperFunction,Conductor*%
%ADD17C,1.500000*%
%TD*%
G04 APERTURE END LIST*
D10*
%TO.P,J7,1,Pin_1*%
%TO.N,unconnected-(J7-Pin_1-Pad1)*%
X154500000Y-77100000D03*
%TD*%
D11*
%TO.P,J5,1,VBUS*%
%TO.N,VBUS*%
X136730000Y-114680000D03*
D12*
%TO.P,J5,2,D-*%
%TO.N,unconnected-(J5-D--Pad2)*%
X138730000Y-114680000D03*
%TO.P,J5,3,D+*%
%TO.N,unconnected-(J5-D+-Pad3)*%
X140730000Y-114680000D03*
%TO.P,J5,4,GND*%
%TO.N,GND*%
X142730000Y-114680000D03*
D13*
%TO.P,J5,5,Shield*%
X136000000Y-111960000D03*
X136000000Y-117400000D03*
X143000000Y-111960000D03*
X143000000Y-117400000D03*
%TD*%
D11*
%TO.P,J2,1,VBUS*%
%TO.N,VBUS*%
X136730000Y-85730000D03*
D12*
%TO.P,J2,2,D-*%
%TO.N,unconnected-(J2-D--Pad2)*%
X138730000Y-85730000D03*
%TO.P,J2,3,D+*%
%TO.N,unconnected-(J2-D+-Pad3)*%
X140730000Y-85730000D03*
%TO.P,J2,4,GND*%
%TO.N,GND*%
X142730000Y-85730000D03*
D13*
%TO.P,J2,5,Shield*%
X136000000Y-83010000D03*
X136000000Y-88450000D03*
X143000000Y-83010000D03*
X143000000Y-88450000D03*
%TD*%
D11*
%TO.P,J4,1,VBUS*%
%TO.N,VBUS*%
X136730000Y-105030000D03*
D12*
%TO.P,J4,2,D-*%
%TO.N,unconnected-(J4-D--Pad2)*%
X138730000Y-105030000D03*
%TO.P,J4,3,D+*%
%TO.N,unconnected-(J4-D+-Pad3)*%
X140730000Y-105030000D03*
%TO.P,J4,4,GND*%
%TO.N,GND*%
X142730000Y-105030000D03*
D13*
%TO.P,J4,5,Shield*%
X136000000Y-102310000D03*
X136000000Y-107750000D03*
X143000000Y-102310000D03*
X143000000Y-107750000D03*
%TD*%
D11*
%TO.P,J3,1,VBUS*%
%TO.N,VBUS*%
X136730000Y-95380000D03*
D12*
%TO.P,J3,2,D-*%
%TO.N,unconnected-(J3-D--Pad2)*%
X138730000Y-95380000D03*
%TO.P,J3,3,D+*%
%TO.N,unconnected-(J3-D+-Pad3)*%
X140730000Y-95380000D03*
%TO.P,J3,4,GND*%
%TO.N,GND*%
X142730000Y-95380000D03*
D13*
%TO.P,J3,5,Shield*%
X136000000Y-92660000D03*
X136000000Y-98100000D03*
X143000000Y-92660000D03*
X143000000Y-98100000D03*
%TD*%
D14*
%TO.P,J6,1,Pin_1*%
%TO.N,VBUS*%
X150700000Y-85600000D03*
D15*
%TO.P,J6,2,Pin_2*%
%TO.N,GND*%
X155780000Y-85600000D03*
%TD*%
D10*
%TO.P,J8,1,Pin_1*%
%TO.N,unconnected-(J8-Pin_1-Pad1)*%
X154400000Y-114100000D03*
%TD*%
D11*
%TO.P,J1,1,VBUS*%
%TO.N,VBUS*%
X136730000Y-76080000D03*
D12*
%TO.P,J1,2,D-*%
%TO.N,unconnected-(J1-D--Pad2)*%
X138730000Y-76080000D03*
%TO.P,J1,3,D+*%
%TO.N,unconnected-(J1-D+-Pad3)*%
X140730000Y-76080000D03*
%TO.P,J1,4,GND*%
%TO.N,GND*%
X142730000Y-76080000D03*
D13*
%TO.P,J1,5,Shield*%
X136000000Y-73360000D03*
X136000000Y-78800000D03*
X143000000Y-73360000D03*
X143000000Y-78800000D03*
%TD*%
D16*
%TO.N,GND*%
X143000000Y-114410000D02*
X142730000Y-114680000D01*
X143000000Y-102310000D02*
X143000000Y-104760000D01*
X143000000Y-98100000D02*
X143000000Y-95650000D01*
X136000000Y-92660000D02*
X143000000Y-92660000D01*
D17*
X144980000Y-76080000D02*
X151749000Y-82849000D01*
X146270000Y-105030000D02*
X146300000Y-105000000D01*
X144320000Y-114680000D02*
X146300000Y-112700000D01*
D16*
X136000000Y-111960000D02*
X143000000Y-111960000D01*
X143000000Y-114950000D02*
X142730000Y-114680000D01*
X136000000Y-78800000D02*
X143000000Y-78800000D01*
X143000000Y-117400000D02*
X143000000Y-114950000D01*
X143000000Y-92660000D02*
X143000000Y-95110000D01*
X136000000Y-107750000D02*
X143000000Y-107750000D01*
X143000000Y-107750000D02*
X143000000Y-105300000D01*
D17*
X146300000Y-88200000D02*
X146300000Y-95400000D01*
X146280000Y-95380000D02*
X146300000Y-95400000D01*
D16*
X136000000Y-88450000D02*
X143000000Y-88450000D01*
D17*
X142730000Y-85730000D02*
X143830000Y-85730000D01*
X154745398Y-85600000D02*
X155780000Y-85600000D01*
D16*
X143000000Y-78800000D02*
X143000000Y-76350000D01*
D17*
X142730000Y-95380000D02*
X146280000Y-95380000D01*
D16*
X136000000Y-73360000D02*
X143000000Y-73360000D01*
D17*
X146300000Y-95400000D02*
X146300000Y-105000000D01*
D16*
X143000000Y-111960000D02*
X143000000Y-114410000D01*
X143000000Y-73360000D02*
X143000000Y-75810000D01*
X136000000Y-98100000D02*
X143000000Y-98100000D01*
X143000000Y-104760000D02*
X142730000Y-105030000D01*
D17*
X146300000Y-105000000D02*
X146300000Y-112700000D01*
X142730000Y-76080000D02*
X144980000Y-76080000D01*
D16*
X143000000Y-105300000D02*
X142730000Y-105030000D01*
D17*
X151994398Y-82849000D02*
X154745398Y-85600000D01*
D16*
X143000000Y-76350000D02*
X142730000Y-76080000D01*
D17*
X151749000Y-82849000D02*
X151994398Y-82849000D01*
D16*
X136000000Y-117400000D02*
X143000000Y-117400000D01*
X143000000Y-88450000D02*
X143000000Y-86000000D01*
X143000000Y-95650000D02*
X142730000Y-95380000D01*
D17*
X143830000Y-85730000D02*
X146300000Y-88200000D01*
D16*
X143000000Y-86000000D02*
X142730000Y-85730000D01*
X143000000Y-85460000D02*
X142730000Y-85730000D01*
X136000000Y-102310000D02*
X143000000Y-102310000D01*
D17*
X142730000Y-114680000D02*
X144320000Y-114680000D01*
D16*
X136000000Y-83010000D02*
X143000000Y-83010000D01*
X143000000Y-83010000D02*
X143000000Y-85460000D01*
D17*
X142730000Y-105030000D02*
X146270000Y-105030000D01*
D16*
X143000000Y-95110000D02*
X142730000Y-95380000D01*
X143000000Y-75810000D02*
X142730000Y-76080000D01*
D17*
%TO.N,VBUS*%
X133430000Y-85730000D02*
X133300000Y-85600000D01*
X146084000Y-80984000D02*
X150700000Y-85600000D01*
X133300000Y-95300000D02*
X133300000Y-105000000D01*
X136730000Y-85730000D02*
X133430000Y-85730000D01*
X136730000Y-105030000D02*
X133330000Y-105030000D01*
X134120000Y-76080000D02*
X133300000Y-76900000D01*
X136730000Y-95380000D02*
X133380000Y-95380000D01*
X133300000Y-113400000D02*
X133200000Y-113500000D01*
X133300000Y-105000000D02*
X133300000Y-113400000D01*
X134380000Y-114680000D02*
X136730000Y-114680000D01*
X133300000Y-76900000D02*
X133300000Y-81100000D01*
X133380000Y-95380000D02*
X133300000Y-95300000D01*
X133200000Y-113500000D02*
X134380000Y-114680000D01*
X133416000Y-80984000D02*
X146084000Y-80984000D01*
X133300000Y-81100000D02*
X133416000Y-80984000D01*
X136730000Y-76080000D02*
X134120000Y-76080000D01*
X133300000Y-85600000D02*
X133300000Y-95300000D01*
X133330000Y-105030000D02*
X133300000Y-105000000D01*
X133300000Y-81100000D02*
X133300000Y-85600000D01*
%TD*%
M02*
