%TF.GenerationSoftware,KiCad,Pcbnew,9.0.6-9.0.6~ubuntu25.04.1*%
%TF.CreationDate,2025-12-03T21:27:17+01:00*%
%TF.ProjectId,CPU,4350552e-6b69-4636-9164-5f7063625858,V0.4*%
%TF.SameCoordinates,Original*%
%TF.FileFunction,Soldermask,Bot*%
%TF.FilePolarity,Negative*%
%FSLAX46Y46*%
G04 Gerber Fmt 4.6, Leading zero omitted, Abs format (unit mm)*
G04 Created by KiCad (PCBNEW 9.0.6-9.0.6~ubuntu25.04.1) date 2025-12-03 21:27:17*
%MOMM*%
%LPD*%
G01*
G04 APERTURE LIST*
%ADD10R,1.600000X1.600000*%
%ADD11C,1.600000*%
%ADD12R,1.700000X1.700000*%
%ADD13C,1.700000*%
%ADD14O,0.890000X1.550000*%
%ADD15O,1.250000X0.950000*%
%ADD16C,2.200000*%
%ADD17C,0.610000*%
G04 APERTURE END LIST*
D10*
%TO.C,C201*%
X139950000Y-125741067D03*
D11*
X139950000Y-130741067D03*
%TD*%
D12*
%TO.C,J602*%
X150154000Y-144445000D03*
D13*
X150154000Y-146985000D03*
X152694000Y-144445000D03*
X152694000Y-146985000D03*
X155234000Y-144445000D03*
X155234000Y-146985000D03*
X157774000Y-144445000D03*
X157774000Y-146985000D03*
X160314000Y-144445000D03*
X160314000Y-146985000D03*
%TD*%
D14*
%TO.C,J101*%
X92552000Y-154109400D03*
D15*
X93552000Y-151409400D03*
X98552000Y-151409400D03*
D14*
X99552000Y-154109400D03*
%TD*%
D16*
%TO.C,SW102*%
X118174000Y-150990000D03*
X111174000Y-150990000D03*
D13*
X116924000Y-153490000D03*
X112424000Y-153490000D03*
%TD*%
D10*
%TO.C,C202*%
X139850000Y-137050000D03*
D11*
X139850000Y-142050000D03*
%TD*%
D17*
%TO.C,FL301*%
X94614700Y-141909800D03*
X92404700Y-141909800D03*
%TD*%
D12*
%TO.C,J501*%
X97984000Y-69620000D03*
D13*
X95444000Y-69620000D03*
X97984000Y-72160000D03*
X95444000Y-72160000D03*
X97984000Y-74700000D03*
X95444000Y-74700000D03*
X97984000Y-77240000D03*
X95444000Y-77240000D03*
X97984000Y-79780000D03*
X95444000Y-79780000D03*
X97984000Y-82320000D03*
X95444000Y-82320000D03*
X97984000Y-84860000D03*
X95444000Y-84860000D03*
X97984000Y-87400000D03*
X95444000Y-87400000D03*
X97984000Y-89940000D03*
X95444000Y-89940000D03*
X97984000Y-92480000D03*
X95444000Y-92480000D03*
X97984000Y-95020000D03*
X95444000Y-95020000D03*
X97984000Y-97560000D03*
X95444000Y-97560000D03*
X97984000Y-100100000D03*
X95444000Y-100100000D03*
X97984000Y-102640000D03*
X95444000Y-102640000D03*
X97984000Y-105180000D03*
X95444000Y-105180000D03*
X97984000Y-107720000D03*
X95444000Y-107720000D03*
X97984000Y-110260000D03*
X95444000Y-110260000D03*
X97984000Y-112800000D03*
X95444000Y-112800000D03*
X97984000Y-115340000D03*
X95444000Y-115340000D03*
X97984000Y-117880000D03*
X95444000Y-117880000D03*
%TD*%
D12*
%TO.C,J601*%
X165394000Y-144445000D03*
D13*
X165394000Y-146985000D03*
X167934000Y-144445000D03*
X167934000Y-146985000D03*
X170474000Y-144445000D03*
X170474000Y-146985000D03*
X173014000Y-144445000D03*
X173014000Y-146985000D03*
X175554000Y-144445000D03*
X175554000Y-146985000D03*
%TD*%
D12*
%TO.C,J502*%
X175344000Y-69620000D03*
D13*
X172804000Y-69620000D03*
X175344000Y-72160000D03*
X172804000Y-72160000D03*
X175344000Y-74700000D03*
X172804000Y-74700000D03*
X175344000Y-77240000D03*
X172804000Y-77240000D03*
X175344000Y-79780000D03*
X172804000Y-79780000D03*
X175344000Y-82320000D03*
X172804000Y-82320000D03*
X175344000Y-84860000D03*
X172804000Y-84860000D03*
X175344000Y-87400000D03*
X172804000Y-87400000D03*
X175344000Y-89940000D03*
X172804000Y-89940000D03*
X175344000Y-92480000D03*
X172804000Y-92480000D03*
X175344000Y-95020000D03*
X172804000Y-95020000D03*
X175344000Y-97560000D03*
X172804000Y-97560000D03*
X175344000Y-100100000D03*
X172804000Y-100100000D03*
X175344000Y-102640000D03*
X172804000Y-102640000D03*
X175344000Y-105180000D03*
X172804000Y-105180000D03*
X175344000Y-107720000D03*
X172804000Y-107720000D03*
X175344000Y-110260000D03*
X172804000Y-110260000D03*
X175344000Y-112800000D03*
X172804000Y-112800000D03*
X175344000Y-115340000D03*
X172804000Y-115340000D03*
X175344000Y-117880000D03*
X172804000Y-117880000D03*
%TD*%
M02*
