%TF.GenerationSoftware,KiCad,Pcbnew,9.0.6-9.0.6~ubuntu25.04.1*%
%TF.CreationDate,2025-12-03T21:27:21+01:00*%
%TF.ProjectId,CPU,4350552e-6b69-4636-9164-5f7063625858,V0.4*%
%TF.SameCoordinates,Original*%
%TF.FileFunction,Plated,1,2,PTH,Mixed*%
%TF.FilePolarity,Positive*%
%FSLAX46Y46*%
G04 Gerber Fmt 4.6, Leading zero omitted, Abs format (unit mm)*
G04 Created by KiCad (PCBNEW 9.0.6-9.0.6~ubuntu25.04.1) date 2025-12-03 21:27:21*
%MOMM*%
%LPD*%
G01*
G04 APERTURE LIST*
%TA.AperFunction,ComponentDrill*%
%ADD10C,0.200000*%
%TD*%
%TA.AperFunction,ViaDrill*%
%ADD11C,0.300000*%
%TD*%
%TA.AperFunction,ComponentDrill*%
%ADD12C,0.300000*%
%TD*%
G04 aperture for slot hole*
%TA.AperFunction,ComponentDrill*%
%ADD13C,0.500000*%
%TD*%
G04 aperture for slot hole*
%TA.AperFunction,ComponentDrill*%
%ADD14C,0.550000*%
%TD*%
%TA.AperFunction,ComponentDrill*%
%ADD15C,0.800000*%
%TD*%
%TA.AperFunction,ComponentDrill*%
%ADD16C,1.000000*%
%TD*%
%TA.AperFunction,ComponentDrill*%
%ADD17C,1.300000*%
%TD*%
G04 APERTURE END LIST*
D10*
%TO.C,U401*%
X130389000Y-91347500D03*
X130389000Y-92872500D03*
X131151500Y-90585000D03*
X131151500Y-92110000D03*
X131151500Y-93635000D03*
X131914000Y-91347500D03*
X131914000Y-92872500D03*
X132676500Y-90585000D03*
X132676500Y-92110000D03*
X132676500Y-93635000D03*
X133439000Y-91347500D03*
X133439000Y-92872500D03*
%TD*%
D11*
X90576400Y-135839200D03*
X97002600Y-136197950D03*
X97506600Y-134693950D03*
X98229769Y-135372950D03*
X101142800Y-141757400D03*
X101600000Y-66167000D03*
X101854000Y-128270000D03*
X102133400Y-67183000D03*
X102133400Y-141706600D03*
X102223800Y-126542800D03*
X102590600Y-66192400D03*
X102590600Y-125780800D03*
X102819200Y-128295400D03*
X103124000Y-67259200D03*
X103244000Y-103170000D03*
X103378000Y-66192400D03*
X103564000Y-86870000D03*
X103682800Y-125069600D03*
X104216200Y-67259200D03*
X104241600Y-66243200D03*
X104783000Y-83439000D03*
X104783000Y-83439000D03*
X105105200Y-66243200D03*
X105130600Y-140944600D03*
X105359200Y-110998000D03*
X105384600Y-67233800D03*
X105968800Y-66192400D03*
X106205500Y-90779500D03*
X106502200Y-67259200D03*
X106908600Y-66192400D03*
X108940600Y-128295400D03*
X110312200Y-140868400D03*
X110388400Y-133096000D03*
X110798807Y-110505432D03*
X110802000Y-104010000D03*
X110802000Y-105153000D03*
X110802000Y-106169000D03*
X110802000Y-107312000D03*
X110802000Y-108455000D03*
X111099600Y-127406400D03*
X111639028Y-110553600D03*
X111750000Y-118211600D03*
X111750000Y-128244600D03*
X112092167Y-140000500D03*
X112194000Y-95900000D03*
X112694000Y-110553600D03*
X112767167Y-135345800D03*
X112944000Y-93472000D03*
X113050000Y-139850000D03*
X114181000Y-89154000D03*
X115747800Y-134645400D03*
X116636962Y-133263000D03*
X116844000Y-117120000D03*
X117594000Y-102362000D03*
X117983149Y-123708800D03*
X118200000Y-143650000D03*
X118237000Y-137240147D03*
X118350000Y-139850000D03*
X118499000Y-90805000D03*
X119261000Y-99822000D03*
X119344000Y-85120000D03*
X120250000Y-94150000D03*
X120912000Y-96525000D03*
X120912000Y-97536000D03*
X120912000Y-98806000D03*
X120950000Y-94950000D03*
X121513600Y-102184200D03*
X121550000Y-91950000D03*
X122000000Y-142300000D03*
X122044000Y-154170000D03*
X123240800Y-137287000D03*
X123254659Y-123702746D03*
X123266200Y-128066800D03*
X123325000Y-117475000D03*
X123844000Y-112120000D03*
X124143200Y-143462165D03*
X124468000Y-110363000D03*
X124844000Y-113120000D03*
X124849000Y-123063000D03*
X125484000Y-88646000D03*
X125484000Y-89916000D03*
X125548800Y-116620000D03*
X125779966Y-124022000D03*
X127355600Y-149301200D03*
X127649600Y-110119605D03*
X127744000Y-95220000D03*
X128183652Y-109383065D03*
X128544000Y-154170000D03*
X128828800Y-149275800D03*
X128944000Y-96139000D03*
X129105200Y-114220597D03*
X129286000Y-125628400D03*
X129294000Y-112715000D03*
X129692400Y-138252200D03*
X130094000Y-149220000D03*
X130429000Y-125693000D03*
X131091400Y-128244600D03*
X131749800Y-131064000D03*
X131978400Y-106781600D03*
X132044000Y-149270000D03*
X132918200Y-108331000D03*
X133248400Y-106070400D03*
X134544000Y-105670000D03*
X134650000Y-143650000D03*
X135178800Y-107654525D03*
X135594000Y-104120000D03*
X135712200Y-134315200D03*
X136810500Y-128300000D03*
X138057000Y-109855000D03*
X139073000Y-112776000D03*
X139221447Y-122789400D03*
X139385031Y-106379525D03*
X140164449Y-106086229D03*
X140294000Y-148020000D03*
X140843000Y-110820200D03*
X141568000Y-109093000D03*
X141650000Y-117602000D03*
X141740000Y-136906000D03*
X142121000Y-104394000D03*
X142950000Y-136900000D03*
X143129000Y-98740000D03*
X143518000Y-121589800D03*
X144062074Y-98711126D03*
X144373600Y-136956800D03*
X144534000Y-120751600D03*
X145000000Y-97450000D03*
X145440400Y-150952200D03*
X145725000Y-100330000D03*
X145844000Y-136900000D03*
X146282463Y-98200000D03*
X146282463Y-101154515D03*
X146513035Y-97141011D03*
X146527558Y-106919599D03*
X147700000Y-123070000D03*
X147752823Y-94240288D03*
X147963000Y-96774000D03*
X148015000Y-135973000D03*
X148039389Y-108236197D03*
X148344012Y-106870912D03*
X148600000Y-123900000D03*
X149158000Y-141180000D03*
X149233000Y-108712000D03*
X149538345Y-103732778D03*
X149541454Y-93893775D03*
X149556782Y-106235624D03*
X149936200Y-120320000D03*
X150462657Y-93725000D03*
X150647400Y-126796800D03*
X150801573Y-96301644D03*
X150866398Y-97149171D03*
X151296218Y-93725000D03*
X151576811Y-95506523D03*
X151612600Y-126147200D03*
X152981669Y-94939636D03*
X153085800Y-113923000D03*
X153085800Y-124670000D03*
X153678000Y-99060000D03*
X154186000Y-94361000D03*
X154216585Y-102663000D03*
X155858298Y-131370298D03*
X156270000Y-137624000D03*
X156726000Y-110236000D03*
X156726000Y-111252000D03*
X157107000Y-100330000D03*
X157144032Y-98880000D03*
X158175000Y-150070000D03*
X158504000Y-72898000D03*
X158504000Y-108712000D03*
X158628810Y-101859000D03*
X159266000Y-76708000D03*
X160282000Y-75438000D03*
X160282000Y-94578000D03*
X160334000Y-128734000D03*
X160334000Y-133814000D03*
X160692938Y-85831368D03*
X160862000Y-84763000D03*
X161328320Y-101587520D03*
X161412179Y-86284353D03*
X161594000Y-124570000D03*
X161837200Y-95362000D03*
X161842689Y-96662000D03*
X162404000Y-79756000D03*
X162568000Y-111506000D03*
X162568000Y-115316000D03*
X162907880Y-88484652D03*
X163155000Y-109220000D03*
X163418003Y-115316000D03*
X163601400Y-83362800D03*
X163682438Y-88134562D03*
X163736000Y-124562000D03*
X163838000Y-106934000D03*
X163838000Y-107784003D03*
X164242500Y-116482500D03*
X164422737Y-110955691D03*
X164440716Y-100667787D03*
X164473000Y-98425000D03*
X165108000Y-112623000D03*
X165108000Y-114300000D03*
X165311119Y-108527496D03*
X165362000Y-106172000D03*
X165414000Y-130004000D03*
X165668449Y-110130748D03*
X165738000Y-87047153D03*
X165738000Y-87862540D03*
X166161000Y-100644231D03*
X166288000Y-83310772D03*
X166505000Y-82320000D03*
X166886000Y-94488000D03*
X166886000Y-102743000D03*
X166886000Y-106172000D03*
X166886000Y-111486000D03*
X168283000Y-96393000D03*
X169172000Y-95377000D03*
X169478000Y-137624000D03*
X169478000Y-138894000D03*
X169807000Y-93853000D03*
X170494000Y-128720000D03*
X171764000Y-135084000D03*
X171994000Y-140570000D03*
X174050000Y-137624000D03*
X178368000Y-138386000D03*
X179384000Y-135084000D03*
X181162000Y-142820000D03*
D12*
%TO.C,FL301*%
X92404700Y-141909800D03*
X94614700Y-141909800D03*
D13*
%TO.C,J101*%
X92552000Y-154434400D02*
X92552000Y-153784400D01*
X99552000Y-154434400D02*
X99552000Y-153784400D01*
D14*
X93702000Y-151409400D02*
X93402000Y-151409400D01*
X98702000Y-151409400D02*
X98402000Y-151409400D01*
D15*
%TO.C,C202*%
X139850000Y-137050000D03*
X139850000Y-142050000D03*
%TO.C,C201*%
X139950000Y-125741067D03*
X139950000Y-130741067D03*
D16*
%TO.C,J501*%
X95444000Y-69620000D03*
X95444000Y-72160000D03*
X95444000Y-74700000D03*
X95444000Y-77240000D03*
X95444000Y-79780000D03*
X95444000Y-82320000D03*
X95444000Y-84860000D03*
X95444000Y-87400000D03*
X95444000Y-89940000D03*
X95444000Y-92480000D03*
X95444000Y-95020000D03*
X95444000Y-97560000D03*
X95444000Y-100100000D03*
X95444000Y-102640000D03*
X95444000Y-105180000D03*
X95444000Y-107720000D03*
X95444000Y-110260000D03*
X95444000Y-112800000D03*
X95444000Y-115340000D03*
X95444000Y-117880000D03*
X97984000Y-69620000D03*
X97984000Y-72160000D03*
X97984000Y-74700000D03*
X97984000Y-77240000D03*
X97984000Y-79780000D03*
X97984000Y-82320000D03*
X97984000Y-84860000D03*
X97984000Y-87400000D03*
X97984000Y-89940000D03*
X97984000Y-92480000D03*
X97984000Y-95020000D03*
X97984000Y-97560000D03*
X97984000Y-100100000D03*
X97984000Y-102640000D03*
X97984000Y-105180000D03*
X97984000Y-107720000D03*
X97984000Y-110260000D03*
X97984000Y-112800000D03*
X97984000Y-115340000D03*
X97984000Y-117880000D03*
%TO.C,SW102*%
X112424000Y-153490000D03*
X116924000Y-153490000D03*
%TO.C,J602*%
X150154000Y-144445000D03*
X150154000Y-146985000D03*
X152694000Y-144445000D03*
X152694000Y-146985000D03*
X155234000Y-144445000D03*
X155234000Y-146985000D03*
X157774000Y-144445000D03*
X157774000Y-146985000D03*
X160314000Y-144445000D03*
X160314000Y-146985000D03*
%TO.C,J601*%
X165394000Y-144445000D03*
X165394000Y-146985000D03*
X167934000Y-144445000D03*
X167934000Y-146985000D03*
X170474000Y-144445000D03*
X170474000Y-146985000D03*
%TO.C,J502*%
X172804000Y-69620000D03*
X172804000Y-72160000D03*
X172804000Y-74700000D03*
X172804000Y-77240000D03*
X172804000Y-79780000D03*
X172804000Y-82320000D03*
X172804000Y-84860000D03*
X172804000Y-87400000D03*
X172804000Y-89940000D03*
X172804000Y-92480000D03*
X172804000Y-95020000D03*
X172804000Y-97560000D03*
X172804000Y-100100000D03*
X172804000Y-102640000D03*
X172804000Y-105180000D03*
X172804000Y-107720000D03*
X172804000Y-110260000D03*
X172804000Y-112800000D03*
X172804000Y-115340000D03*
X172804000Y-117880000D03*
%TO.C,J601*%
X173014000Y-144445000D03*
X173014000Y-146985000D03*
%TO.C,J502*%
X175344000Y-69620000D03*
X175344000Y-72160000D03*
X175344000Y-74700000D03*
X175344000Y-77240000D03*
X175344000Y-79780000D03*
X175344000Y-82320000D03*
X175344000Y-84860000D03*
X175344000Y-87400000D03*
X175344000Y-89940000D03*
X175344000Y-92480000D03*
X175344000Y-95020000D03*
X175344000Y-97560000D03*
X175344000Y-100100000D03*
X175344000Y-102640000D03*
X175344000Y-105180000D03*
X175344000Y-107720000D03*
X175344000Y-110260000D03*
X175344000Y-112800000D03*
X175344000Y-115340000D03*
X175344000Y-117880000D03*
%TO.C,J601*%
X175554000Y-144445000D03*
X175554000Y-146985000D03*
D17*
%TO.C,SW102*%
X111174000Y-150990000D03*
X118174000Y-150990000D03*
M02*
