%TF.GenerationSoftware,KiCad,Pcbnew,9.0.6-9.0.6~ubuntu25.04.1*%
%TF.CreationDate,2025-11-16T21:22:32+01:00*%
%TF.ProjectId,CPU,4350552e-6b69-4636-9164-5f7063625858,V0.2*%
%TF.SameCoordinates,Original*%
%TF.FileFunction,Soldermask,Bot*%
%TF.FilePolarity,Negative*%
%FSLAX46Y46*%
G04 Gerber Fmt 4.6, Leading zero omitted, Abs format (unit mm)*
G04 Created by KiCad (PCBNEW 9.0.6-9.0.6~ubuntu25.04.1) date 2025-11-16 21:22:32*
%MOMM*%
%LPD*%
G01*
G04 APERTURE LIST*
G04 Aperture macros list*
%AMRoundRect*
0 Rectangle with rounded corners*
0 $1 Rounding radius*
0 $2 $3 $4 $5 $6 $7 $8 $9 X,Y pos of 4 corners*
0 Add a 4 corners polygon primitive as box body*
4,1,4,$2,$3,$4,$5,$6,$7,$8,$9,$2,$3,0*
0 Add four circle primitives for the rounded corners*
1,1,$1+$1,$2,$3*
1,1,$1+$1,$4,$5*
1,1,$1+$1,$6,$7*
1,1,$1+$1,$8,$9*
0 Add four rect primitives between the rounded corners*
20,1,$1+$1,$2,$3,$4,$5,0*
20,1,$1+$1,$4,$5,$6,$7,0*
20,1,$1+$1,$6,$7,$8,$9,0*
20,1,$1+$1,$8,$9,$2,$3,0*%
G04 Aperture macros list end*
%ADD10R,1.600000X1.600000*%
%ADD11C,1.600000*%
%ADD12R,1.700000X1.700000*%
%ADD13C,1.700000*%
%ADD14O,0.890000X1.550000*%
%ADD15O,1.250000X0.950000*%
%ADD16C,2.200000*%
%ADD17RoundRect,0.237500X0.250000X0.237500X-0.250000X0.237500X-0.250000X-0.237500X0.250000X-0.237500X0*%
%ADD18RoundRect,0.162500X-0.650000X-0.162500X0.650000X-0.162500X0.650000X0.162500X-0.650000X0.162500X0*%
%ADD19RoundRect,0.250001X-1.399999X-0.519999X1.399999X-0.519999X1.399999X0.519999X-1.399999X0.519999X0*%
%ADD20RoundRect,0.150000X0.825000X0.150000X-0.825000X0.150000X-0.825000X-0.150000X0.825000X-0.150000X0*%
%ADD21RoundRect,0.250000X0.650000X2.450000X-0.650000X2.450000X-0.650000X-2.450000X0.650000X-2.450000X0*%
%ADD22RoundRect,0.250000X-0.545000X-0.445000X0.545000X-0.445000X0.545000X0.445000X-0.545000X0.445000X0*%
G04 APERTURE END LIST*
D10*
%TO.C,C201*%
X139950000Y-125741067D03*
D11*
X139950000Y-130741067D03*
%TD*%
D12*
%TO.C,J602*%
X150154000Y-144445000D03*
D13*
X150154000Y-146985000D03*
X152694000Y-144445000D03*
X152694000Y-146985000D03*
X155234000Y-144445000D03*
X155234000Y-146985000D03*
X157774000Y-144445000D03*
X157774000Y-146985000D03*
X160314000Y-144445000D03*
X160314000Y-146985000D03*
%TD*%
D14*
%TO.C,J101*%
X92552000Y-154109400D03*
D15*
X93552000Y-151409400D03*
X98552000Y-151409400D03*
D14*
X99552000Y-154109400D03*
%TD*%
D16*
%TO.C,SW102*%
X118174000Y-150990000D03*
X111174000Y-150990000D03*
D13*
X116924000Y-153490000D03*
X112424000Y-153490000D03*
%TD*%
D10*
%TO.C,C202*%
X139850000Y-137050000D03*
D11*
X139850000Y-142050000D03*
%TD*%
D12*
%TO.C,J501*%
X97984000Y-69620000D03*
D13*
X95444000Y-69620000D03*
X97984000Y-72160000D03*
X95444000Y-72160000D03*
X97984000Y-74700000D03*
X95444000Y-74700000D03*
X97984000Y-77240000D03*
X95444000Y-77240000D03*
X97984000Y-79780000D03*
X95444000Y-79780000D03*
X97984000Y-82320000D03*
X95444000Y-82320000D03*
X97984000Y-84860000D03*
X95444000Y-84860000D03*
X97984000Y-87400000D03*
X95444000Y-87400000D03*
X97984000Y-89940000D03*
X95444000Y-89940000D03*
X97984000Y-92480000D03*
X95444000Y-92480000D03*
X97984000Y-95020000D03*
X95444000Y-95020000D03*
X97984000Y-97560000D03*
X95444000Y-97560000D03*
X97984000Y-100100000D03*
X95444000Y-100100000D03*
X97984000Y-102640000D03*
X95444000Y-102640000D03*
X97984000Y-105180000D03*
X95444000Y-105180000D03*
X97984000Y-107720000D03*
X95444000Y-107720000D03*
X97984000Y-110260000D03*
X95444000Y-110260000D03*
X97984000Y-112800000D03*
X95444000Y-112800000D03*
X97984000Y-115340000D03*
X95444000Y-115340000D03*
X97984000Y-117880000D03*
X95444000Y-117880000D03*
%TD*%
D12*
%TO.C,J601*%
X165394000Y-144445000D03*
D13*
X165394000Y-146985000D03*
X167934000Y-144445000D03*
X167934000Y-146985000D03*
X170474000Y-144445000D03*
X170474000Y-146985000D03*
X173014000Y-144445000D03*
X173014000Y-146985000D03*
X175554000Y-144445000D03*
X175554000Y-146985000D03*
%TD*%
D12*
%TO.C,J502*%
X175344000Y-69620000D03*
D13*
X172804000Y-69620000D03*
X175344000Y-72160000D03*
X172804000Y-72160000D03*
X175344000Y-74700000D03*
X172804000Y-74700000D03*
X175344000Y-77240000D03*
X172804000Y-77240000D03*
X175344000Y-79780000D03*
X172804000Y-79780000D03*
X175344000Y-82320000D03*
X172804000Y-82320000D03*
X175344000Y-84860000D03*
X172804000Y-84860000D03*
X175344000Y-87400000D03*
X172804000Y-87400000D03*
X175344000Y-89940000D03*
X172804000Y-89940000D03*
X175344000Y-92480000D03*
X172804000Y-92480000D03*
X175344000Y-95020000D03*
X172804000Y-95020000D03*
X175344000Y-97560000D03*
X172804000Y-97560000D03*
X175344000Y-100100000D03*
X172804000Y-100100000D03*
X175344000Y-102640000D03*
X172804000Y-102640000D03*
X175344000Y-105180000D03*
X172804000Y-105180000D03*
X175344000Y-107720000D03*
X172804000Y-107720000D03*
X175344000Y-110260000D03*
X172804000Y-110260000D03*
X175344000Y-112800000D03*
X172804000Y-112800000D03*
X175344000Y-115340000D03*
X172804000Y-115340000D03*
X175344000Y-117880000D03*
X172804000Y-117880000D03*
%TD*%
D17*
%TO.C,R404*%
X95754200Y-134899400D03*
X93929200Y-134899400D03*
%TD*%
D18*
%TO.C,U404*%
X92139000Y-140919200D03*
X92139000Y-139649200D03*
X92139000Y-138379200D03*
X92139000Y-137109200D03*
X99314000Y-137109200D03*
X99314000Y-138379200D03*
X99314000Y-139649200D03*
X99314000Y-140919200D03*
%TD*%
D19*
%TO.C,Y401*%
X90737200Y-145593600D03*
X98137200Y-145593600D03*
X98137200Y-148233600D03*
X90737200Y-148233600D03*
%TD*%
D20*
%TO.C,U405*%
X95567250Y-124996300D03*
X95567250Y-126266300D03*
X95567250Y-127536300D03*
X95567250Y-128806300D03*
X95567250Y-130076300D03*
X95567250Y-131346300D03*
X95567250Y-132616300D03*
X90617250Y-132616300D03*
X90617250Y-131346300D03*
X90617250Y-130076300D03*
X90617250Y-128806300D03*
X90617250Y-127536300D03*
X90617250Y-126266300D03*
X90617250Y-124996300D03*
%TD*%
D21*
%TO.C,L401*%
X109458600Y-136880600D03*
X104358600Y-136880600D03*
%TD*%
%TO.C,L402*%
X109509400Y-143484600D03*
X104409400Y-143484600D03*
%TD*%
D17*
%TO.C,R402*%
X94462600Y-142976600D03*
X92637600Y-142976600D03*
%TD*%
D22*
%TO.C,C408*%
X105400200Y-132765800D03*
X108280200Y-132765800D03*
%TD*%
%TO.C,C409*%
X103352600Y-150723600D03*
X106232600Y-150723600D03*
%TD*%
M02*
