%TF.GenerationSoftware,KiCad,Pcbnew,9.0.6-9.0.6~ubuntu25.04.1*%
%TF.CreationDate,2025-11-16T21:21:57+01:00*%
%TF.ProjectId,CPU,4350552e-6b69-4636-9164-5f7063625858,V0.2*%
%TF.SameCoordinates,Original*%
%TF.FileFunction,Drillmap*%
%TF.FilePolarity,Positive*%
%FSLAX45Y45*%
G04 Gerber Fmt 4.5, Leading zero omitted, Abs format (unit mm)*
G04 Created by KiCad (PCBNEW 9.0.6-9.0.6~ubuntu25.04.1) date 2025-11-16 21:21:57*
%MOMM*%
%LPD*%
G01*
G04 APERTURE LIST*
%ADD10C,0.050000*%
%ADD11C,0.200000*%
%ADD12C,0.100000*%
%ADD13C,0.130000*%
G04 APERTURE END LIST*
D10*
X18284400Y-15737000D02*
X18284400Y-6212000D01*
X8764400Y-6212000D02*
X8759400Y-15737000D01*
X8759400Y-15737000D02*
X18284400Y-15737000D01*
X18284400Y-6212000D02*
X8764400Y-6212000D01*
D11*
D12*
X13028900Y-9124750D02*
X13048900Y-9144750D01*
X13048900Y-9124750D02*
X13028900Y-9144750D01*
X13028900Y-9277250D02*
X13048900Y-9297250D01*
X13048900Y-9277250D02*
X13028900Y-9297250D01*
X13105150Y-9048500D02*
X13125150Y-9068500D01*
X13125150Y-9048500D02*
X13105150Y-9068500D01*
X13105150Y-9201000D02*
X13125150Y-9221000D01*
X13125150Y-9201000D02*
X13105150Y-9221000D01*
X13105150Y-9353500D02*
X13125150Y-9373500D01*
X13125150Y-9353500D02*
X13105150Y-9373500D01*
X13181400Y-9124750D02*
X13201400Y-9144750D01*
X13201400Y-9124750D02*
X13181400Y-9144750D01*
X13181400Y-9277250D02*
X13201400Y-9297250D01*
X13201400Y-9277250D02*
X13181400Y-9297250D01*
X13257650Y-9048500D02*
X13277650Y-9068500D01*
X13277650Y-9048500D02*
X13257650Y-9068500D01*
X13257650Y-9201000D02*
X13277650Y-9221000D01*
X13277650Y-9201000D02*
X13257650Y-9221000D01*
X13257650Y-9353500D02*
X13277650Y-9373500D01*
X13277650Y-9353500D02*
X13257650Y-9373500D01*
X13333900Y-9124750D02*
X13353900Y-9144750D01*
X13353900Y-9124750D02*
X13333900Y-9144750D01*
X13333900Y-9277250D02*
X13353900Y-9297250D01*
X13353900Y-9277250D02*
X13333900Y-9297250D01*
X8993900Y-13492480D02*
G75*
G02*
X8963900Y-13492480I-15000J0D01*
G01*
X8963900Y-13492480D02*
G75*
G02*
X8993900Y-13492480I15000J0D01*
G01*
X9065020Y-13843000D02*
G75*
G02*
X9035020Y-13843000I-15000J0D01*
G01*
X9035020Y-13843000D02*
G75*
G02*
X9065020Y-13843000I15000J0D01*
G01*
X9067560Y-13959840D02*
G75*
G02*
X9037560Y-13959840I-15000J0D01*
G01*
X9037560Y-13959840D02*
G75*
G02*
X9067560Y-13959840I15000J0D01*
G01*
X9070100Y-14089380D02*
G75*
G02*
X9040100Y-14089380I-15000J0D01*
G01*
X9040100Y-14089380D02*
G75*
G02*
X9070100Y-14089380I15000J0D01*
G01*
X9232660Y-14632940D02*
G75*
G02*
X9202660Y-14632940I-15000J0D01*
G01*
X9202660Y-14632940D02*
G75*
G02*
X9232660Y-14632940I15000J0D01*
G01*
X9258060Y-13012420D02*
G75*
G02*
X9228060Y-13012420I-15000J0D01*
G01*
X9228060Y-13012420D02*
G75*
G02*
X9258060Y-13012420I15000J0D01*
G01*
X9387600Y-12278360D02*
G75*
G02*
X9357600Y-12278360I-15000J0D01*
G01*
X9357600Y-12278360D02*
G75*
G02*
X9387600Y-12278360I15000J0D01*
G01*
X9548180Y-13481056D02*
G75*
G02*
X9518180Y-13481056I-15000J0D01*
G01*
X9518180Y-13481056D02*
G75*
G02*
X9548180Y-13481056I15000J0D01*
G01*
X9724125Y-13007630D02*
G75*
G02*
X9694125Y-13007630I-15000J0D01*
G01*
X9694125Y-13007630D02*
G75*
G02*
X9724125Y-13007630I15000J0D01*
G01*
X9743200Y-12593320D02*
G75*
G02*
X9713200Y-12593320I-15000J0D01*
G01*
X9713200Y-12593320D02*
G75*
G02*
X9743200Y-12593320I15000J0D01*
G01*
X9921000Y-13101320D02*
G75*
G02*
X9891000Y-13101320I-15000J0D01*
G01*
X9891000Y-13101320D02*
G75*
G02*
X9921000Y-13101320I15000J0D01*
G01*
X9923540Y-12423140D02*
G75*
G02*
X9893540Y-12423140I-15000J0D01*
G01*
X9893540Y-12423140D02*
G75*
G02*
X9923540Y-12423140I15000J0D01*
G01*
X9923540Y-12819380D02*
G75*
G02*
X9893540Y-12819380I-15000J0D01*
G01*
X9893540Y-12819380D02*
G75*
G02*
X9923540Y-12819380I15000J0D01*
G01*
X9951480Y-13583920D02*
G75*
G02*
X9921480Y-13583920I-15000J0D01*
G01*
X9921480Y-13583920D02*
G75*
G02*
X9951480Y-13583920I15000J0D01*
G01*
X9968750Y-14574520D02*
G75*
G02*
X9938750Y-14574520I-15000J0D01*
G01*
X9938750Y-14574520D02*
G75*
G02*
X9968750Y-14574520I15000J0D01*
G01*
X10054713Y-14550786D02*
G75*
G02*
X10024713Y-14550786I-15000J0D01*
G01*
X10024713Y-14550786D02*
G75*
G02*
X10054713Y-14550786I15000J0D01*
G01*
X10096260Y-13835380D02*
G75*
G02*
X10066260Y-13835380I-15000J0D01*
G01*
X10066260Y-13835380D02*
G75*
G02*
X10096260Y-13835380I15000J0D01*
G01*
X10096260Y-14097000D02*
G75*
G02*
X10066260Y-14097000I-15000J0D01*
G01*
X10066260Y-14097000D02*
G75*
G02*
X10096260Y-14097000I15000J0D01*
G01*
X10121660Y-14245780D02*
G75*
G02*
X10091660Y-14245780I-15000J0D01*
G01*
X10091660Y-14245780D02*
G75*
G02*
X10121660Y-14245780I15000J0D01*
G01*
X10138020Y-15041880D02*
G75*
G02*
X10108020Y-15041880I-15000J0D01*
G01*
X10108020Y-15041880D02*
G75*
G02*
X10138020Y-15041880I15000J0D01*
G01*
X10175000Y-12931140D02*
G75*
G02*
X10145000Y-12931140I-15000J0D01*
G01*
X10145000Y-12931140D02*
G75*
G02*
X10175000Y-12931140I15000J0D01*
G01*
X10177540Y-12517120D02*
G75*
G02*
X10147540Y-12517120I-15000J0D01*
G01*
X10147540Y-12517120D02*
G75*
G02*
X10177540Y-12517120I15000J0D01*
G01*
X10210560Y-14003020D02*
G75*
G02*
X10180560Y-14003020I-15000J0D01*
G01*
X10180560Y-14003020D02*
G75*
G02*
X10210560Y-14003020I15000J0D01*
G01*
X10312071Y-14858170D02*
G75*
G02*
X10282071Y-14858170I-15000J0D01*
G01*
X10282071Y-14858170D02*
G75*
G02*
X10312071Y-14858170I15000J0D01*
G01*
X10339400Y-10317000D02*
G75*
G02*
X10309400Y-10317000I-15000J0D01*
G01*
X10309400Y-10317000D02*
G75*
G02*
X10339400Y-10317000I15000J0D01*
G01*
X10371400Y-8687000D02*
G75*
G02*
X10341400Y-8687000I-15000J0D01*
G01*
X10341400Y-8687000D02*
G75*
G02*
X10371400Y-8687000I15000J0D01*
G01*
X10445614Y-13069659D02*
G75*
G02*
X10415614Y-13069659I-15000J0D01*
G01*
X10415614Y-13069659D02*
G75*
G02*
X10445614Y-13069659I15000J0D01*
G01*
X10450780Y-14752320D02*
G75*
G02*
X10420780Y-14752320I-15000J0D01*
G01*
X10420780Y-14752320D02*
G75*
G02*
X10450780Y-14752320I15000J0D01*
G01*
X10461304Y-12796140D02*
G75*
G02*
X10431304Y-12796140I-15000J0D01*
G01*
X10431304Y-12796140D02*
G75*
G02*
X10461304Y-12796140I15000J0D01*
G01*
X10493300Y-8343900D02*
G75*
G02*
X10463300Y-8343900I-15000J0D01*
G01*
X10463300Y-8343900D02*
G75*
G02*
X10493300Y-8343900I15000J0D01*
G01*
X10493300Y-8343900D02*
G75*
G02*
X10463300Y-8343900I-15000J0D01*
G01*
X10463300Y-8343900D02*
G75*
G02*
X10493300Y-8343900I15000J0D01*
G01*
X10549929Y-12593640D02*
G75*
G02*
X10519929Y-12593640I-15000J0D01*
G01*
X10519929Y-12593640D02*
G75*
G02*
X10549929Y-12593640I15000J0D01*
G01*
X10550920Y-11099800D02*
G75*
G02*
X10520920Y-11099800I-15000J0D01*
G01*
X10520920Y-11099800D02*
G75*
G02*
X10550920Y-11099800I15000J0D01*
G01*
X10565892Y-12946111D02*
G75*
G02*
X10535892Y-12946111I-15000J0D01*
G01*
X10535892Y-12946111D02*
G75*
G02*
X10565892Y-12946111I15000J0D01*
G01*
X10635550Y-9077950D02*
G75*
G02*
X10605550Y-9077950I-15000J0D01*
G01*
X10605550Y-9077950D02*
G75*
G02*
X10635550Y-9077950I15000J0D01*
G01*
X10636250Y-14638020D02*
G75*
G02*
X10606250Y-14638020I-15000J0D01*
G01*
X10606250Y-14638020D02*
G75*
G02*
X10636250Y-14638020I15000J0D01*
G01*
X10658380Y-14780260D02*
G75*
G02*
X10628380Y-14780260I-15000J0D01*
G01*
X10628380Y-14780260D02*
G75*
G02*
X10658380Y-14780260I15000J0D01*
G01*
X10676131Y-12958340D02*
G75*
G02*
X10646131Y-12958340I-15000J0D01*
G01*
X10646131Y-12958340D02*
G75*
G02*
X10676131Y-12958340I15000J0D01*
G01*
X10688080Y-15539720D02*
G75*
G02*
X10658080Y-15539720I-15000J0D01*
G01*
X10658080Y-15539720D02*
G75*
G02*
X10688080Y-15539720I15000J0D01*
G01*
X10754120Y-13233400D02*
G75*
G02*
X10724120Y-13233400I-15000J0D01*
G01*
X10724120Y-13233400D02*
G75*
G02*
X10754120Y-13233400I15000J0D01*
G01*
X10774440Y-14991080D02*
G75*
G02*
X10744440Y-14991080I-15000J0D01*
G01*
X10744440Y-14991080D02*
G75*
G02*
X10774440Y-14991080I15000J0D01*
G01*
X10853180Y-15069820D02*
G75*
G02*
X10823180Y-15069820I-15000J0D01*
G01*
X10823180Y-15069820D02*
G75*
G02*
X10853180Y-15069820I15000J0D01*
G01*
X10858260Y-11226800D02*
G75*
G02*
X10828260Y-11226800I-15000J0D01*
G01*
X10828260Y-11226800D02*
G75*
G02*
X10858260Y-11226800I15000J0D01*
G01*
X10909060Y-13261340D02*
G75*
G02*
X10879060Y-13261340I-15000J0D01*
G01*
X10879060Y-13261340D02*
G75*
G02*
X10909060Y-13261340I15000J0D01*
G01*
X10914140Y-12796140D02*
G75*
G02*
X10884140Y-12796140I-15000J0D01*
G01*
X10884140Y-12796140D02*
G75*
G02*
X10914140Y-12796140I15000J0D01*
G01*
X10965940Y-14066520D02*
G75*
G02*
X10935940Y-14066520I-15000J0D01*
G01*
X10935940Y-14066520D02*
G75*
G02*
X10965940Y-14066520I15000J0D01*
G01*
X10971020Y-13500100D02*
G75*
G02*
X10941020Y-13500100I-15000J0D01*
G01*
X10941020Y-13500100D02*
G75*
G02*
X10971020Y-13500100I15000J0D01*
G01*
X11030980Y-13764260D02*
G75*
G02*
X11000980Y-13764260I-15000J0D01*
G01*
X11000980Y-13764260D02*
G75*
G02*
X11030980Y-13764260I15000J0D01*
G01*
X11033520Y-13058140D02*
G75*
G02*
X11003520Y-13058140I-15000J0D01*
G01*
X11003520Y-13058140D02*
G75*
G02*
X11033520Y-13058140I15000J0D01*
G01*
X11094881Y-11050543D02*
G75*
G02*
X11064881Y-11050543I-15000J0D01*
G01*
X11064881Y-11050543D02*
G75*
G02*
X11094881Y-11050543I15000J0D01*
G01*
X11095200Y-10401000D02*
G75*
G02*
X11065200Y-10401000I-15000J0D01*
G01*
X11065200Y-10401000D02*
G75*
G02*
X11095200Y-10401000I15000J0D01*
G01*
X11095200Y-10515300D02*
G75*
G02*
X11065200Y-10515300I-15000J0D01*
G01*
X11065200Y-10515300D02*
G75*
G02*
X11095200Y-10515300I15000J0D01*
G01*
X11095200Y-10616900D02*
G75*
G02*
X11065200Y-10616900I-15000J0D01*
G01*
X11065200Y-10616900D02*
G75*
G02*
X11095200Y-10616900I15000J0D01*
G01*
X11095200Y-10731200D02*
G75*
G02*
X11065200Y-10731200I-15000J0D01*
G01*
X11065200Y-10731200D02*
G75*
G02*
X11095200Y-10731200I15000J0D01*
G01*
X11095200Y-10845500D02*
G75*
G02*
X11065200Y-10845500I-15000J0D01*
G01*
X11065200Y-10845500D02*
G75*
G02*
X11095200Y-10845500I15000J0D01*
G01*
X11120960Y-13112919D02*
G75*
G02*
X11090960Y-13112919I-15000J0D01*
G01*
X11090960Y-13112919D02*
G75*
G02*
X11120960Y-13112919I15000J0D01*
G01*
X11178903Y-11055360D02*
G75*
G02*
X11148903Y-11055360I-15000J0D01*
G01*
X11148903Y-11055360D02*
G75*
G02*
X11178903Y-11055360I15000J0D01*
G01*
X11190000Y-11821160D02*
G75*
G02*
X11160000Y-11821160I-15000J0D01*
G01*
X11160000Y-11821160D02*
G75*
G02*
X11190000Y-11821160I15000J0D01*
G01*
X11190000Y-12605000D02*
G75*
G02*
X11160000Y-12605000I-15000J0D01*
G01*
X11160000Y-12605000D02*
G75*
G02*
X11190000Y-12605000I15000J0D01*
G01*
X11221480Y-14231620D02*
G75*
G02*
X11191480Y-14231620I-15000J0D01*
G01*
X11191480Y-14231620D02*
G75*
G02*
X11221480Y-14231620I15000J0D01*
G01*
X11234400Y-9590000D02*
G75*
G02*
X11204400Y-9590000I-15000J0D01*
G01*
X11204400Y-9590000D02*
G75*
G02*
X11234400Y-9590000I15000J0D01*
G01*
X11251960Y-13705840D02*
G75*
G02*
X11221960Y-13705840I-15000J0D01*
G01*
X11221960Y-13705840D02*
G75*
G02*
X11251960Y-13705840I15000J0D01*
G01*
X11284400Y-11055360D02*
G75*
G02*
X11254400Y-11055360I-15000J0D01*
G01*
X11254400Y-11055360D02*
G75*
G02*
X11284400Y-11055360I15000J0D01*
G01*
X11285563Y-12989540D02*
G75*
G02*
X11255563Y-12989540I-15000J0D01*
G01*
X11255563Y-12989540D02*
G75*
G02*
X11285563Y-12989540I15000J0D01*
G01*
X11288980Y-14163808D02*
G75*
G02*
X11258980Y-14163808I-15000J0D01*
G01*
X11258980Y-14163808D02*
G75*
G02*
X11288980Y-14163808I15000J0D01*
G01*
X11301680Y-13244300D02*
G75*
G02*
X11271680Y-13244300I-15000J0D01*
G01*
X11271680Y-13244300D02*
G75*
G02*
X11301680Y-13244300I15000J0D01*
G01*
X11309400Y-9347200D02*
G75*
G02*
X11279400Y-9347200I-15000J0D01*
G01*
X11279400Y-9347200D02*
G75*
G02*
X11309400Y-9347200I15000J0D01*
G01*
X11320000Y-13985000D02*
G75*
G02*
X11290000Y-13985000I-15000J0D01*
G01*
X11290000Y-13985000D02*
G75*
G02*
X11320000Y-13985000I15000J0D01*
G01*
X11336627Y-13713353D02*
G75*
G02*
X11306627Y-13713353I-15000J0D01*
G01*
X11306627Y-13713353D02*
G75*
G02*
X11336627Y-13713353I15000J0D01*
G01*
X11341921Y-12578716D02*
G75*
G02*
X11311921Y-12578716I-15000J0D01*
G01*
X11311921Y-12578716D02*
G75*
G02*
X11341921Y-12578716I15000J0D01*
G01*
X11416924Y-13724015D02*
G75*
G02*
X11386924Y-13724015I-15000J0D01*
G01*
X11386924Y-13724015D02*
G75*
G02*
X11416924Y-13724015I15000J0D01*
G01*
X11422400Y-14567100D02*
G75*
G02*
X11392400Y-14567100I-15000J0D01*
G01*
X11392400Y-14567100D02*
G75*
G02*
X11422400Y-14567100I15000J0D01*
G01*
X11433100Y-8915400D02*
G75*
G02*
X11403100Y-8915400I-15000J0D01*
G01*
X11403100Y-8915400D02*
G75*
G02*
X11433100Y-8915400I15000J0D01*
G01*
X11474427Y-12508716D02*
G75*
G02*
X11444427Y-12508716I-15000J0D01*
G01*
X11444427Y-12508716D02*
G75*
G02*
X11474427Y-12508716I15000J0D01*
G01*
X11699400Y-11712000D02*
G75*
G02*
X11669400Y-11712000I-15000J0D01*
G01*
X11669400Y-11712000D02*
G75*
G02*
X11699400Y-11712000I15000J0D01*
G01*
X11774400Y-10236200D02*
G75*
G02*
X11744400Y-10236200I-15000J0D01*
G01*
X11744400Y-10236200D02*
G75*
G02*
X11774400Y-10236200I15000J0D01*
G01*
X11813315Y-12370880D02*
G75*
G02*
X11783315Y-12370880I-15000J0D01*
G01*
X11783315Y-12370880D02*
G75*
G02*
X11813315Y-12370880I15000J0D01*
G01*
X11835000Y-14365000D02*
G75*
G02*
X11805000Y-14365000I-15000J0D01*
G01*
X11805000Y-14365000D02*
G75*
G02*
X11835000Y-14365000I15000J0D01*
G01*
X11838700Y-12700000D02*
G75*
G02*
X11808700Y-12700000I-15000J0D01*
G01*
X11808700Y-12700000D02*
G75*
G02*
X11838700Y-12700000I15000J0D01*
G01*
X11838700Y-12961620D02*
G75*
G02*
X11808700Y-12961620I-15000J0D01*
G01*
X11808700Y-12961620D02*
G75*
G02*
X11838700Y-12961620I15000J0D01*
G01*
X11850000Y-13985000D02*
G75*
G02*
X11820000Y-13985000I-15000J0D01*
G01*
X11820000Y-13985000D02*
G75*
G02*
X11850000Y-13985000I15000J0D01*
G01*
X11864900Y-9080500D02*
G75*
G02*
X11834900Y-9080500I-15000J0D01*
G01*
X11834900Y-9080500D02*
G75*
G02*
X11864900Y-9080500I15000J0D01*
G01*
X11941100Y-9982200D02*
G75*
G02*
X11911100Y-9982200I-15000J0D01*
G01*
X11911100Y-9982200D02*
G75*
G02*
X11941100Y-9982200I15000J0D01*
G01*
X11949400Y-8512000D02*
G75*
G02*
X11919400Y-8512000I-15000J0D01*
G01*
X11919400Y-8512000D02*
G75*
G02*
X11949400Y-8512000I15000J0D01*
G01*
X12040000Y-9415000D02*
G75*
G02*
X12010000Y-9415000I-15000J0D01*
G01*
X12010000Y-9415000D02*
G75*
G02*
X12040000Y-9415000I15000J0D01*
G01*
X12041900Y-10998200D02*
G75*
G02*
X12011900Y-10998200I-15000J0D01*
G01*
X12011900Y-10998200D02*
G75*
G02*
X12041900Y-10998200I15000J0D01*
G01*
X12082540Y-12738100D02*
G75*
G02*
X12052540Y-12738100I-15000J0D01*
G01*
X12052540Y-12738100D02*
G75*
G02*
X12082540Y-12738100I15000J0D01*
G01*
X12106200Y-9652500D02*
G75*
G02*
X12076200Y-9652500I-15000J0D01*
G01*
X12076200Y-9652500D02*
G75*
G02*
X12106200Y-9652500I15000J0D01*
G01*
X12106200Y-9753600D02*
G75*
G02*
X12076200Y-9753600I-15000J0D01*
G01*
X12076200Y-9753600D02*
G75*
G02*
X12106200Y-9753600I15000J0D01*
G01*
X12106200Y-9880600D02*
G75*
G02*
X12076200Y-9880600I-15000J0D01*
G01*
X12076200Y-9880600D02*
G75*
G02*
X12106200Y-9880600I15000J0D01*
G01*
X12110000Y-9495000D02*
G75*
G02*
X12080000Y-9495000I-15000J0D01*
G01*
X12080000Y-9495000D02*
G75*
G02*
X12110000Y-9495000I15000J0D01*
G01*
X12166360Y-10218420D02*
G75*
G02*
X12136360Y-10218420I-15000J0D01*
G01*
X12136360Y-10218420D02*
G75*
G02*
X12166360Y-10218420I15000J0D01*
G01*
X12170000Y-9195000D02*
G75*
G02*
X12140000Y-9195000I-15000J0D01*
G01*
X12140000Y-9195000D02*
G75*
G02*
X12170000Y-9195000I15000J0D01*
G01*
X12210000Y-12748120D02*
G75*
G02*
X12180000Y-12748120I-15000J0D01*
G01*
X12180000Y-12748120D02*
G75*
G02*
X12210000Y-12748120I15000J0D01*
G01*
X12215000Y-14230000D02*
G75*
G02*
X12185000Y-14230000I-15000J0D01*
G01*
X12185000Y-14230000D02*
G75*
G02*
X12215000Y-14230000I15000J0D01*
G01*
X12219400Y-15417000D02*
G75*
G02*
X12189400Y-15417000I-15000J0D01*
G01*
X12189400Y-15417000D02*
G75*
G02*
X12219400Y-15417000I15000J0D01*
G01*
X12295900Y-12829540D02*
G75*
G02*
X12265900Y-12829540I-15000J0D01*
G01*
X12265900Y-12829540D02*
G75*
G02*
X12295900Y-12829540I15000J0D01*
G01*
X12297215Y-13374300D02*
G75*
G02*
X12267215Y-13374300I-15000J0D01*
G01*
X12267215Y-13374300D02*
G75*
G02*
X12297215Y-13374300I15000J0D01*
G01*
X12304866Y-13239300D02*
G75*
G02*
X12274866Y-13239300I-15000J0D01*
G01*
X12274866Y-13239300D02*
G75*
G02*
X12304866Y-13239300I15000J0D01*
G01*
X12340466Y-12370275D02*
G75*
G02*
X12310466Y-12370275I-15000J0D01*
G01*
X12310466Y-12370275D02*
G75*
G02*
X12340466Y-12370275I15000J0D01*
G01*
X12347500Y-11747500D02*
G75*
G02*
X12317500Y-11747500I-15000J0D01*
G01*
X12317500Y-11747500D02*
G75*
G02*
X12347500Y-11747500I15000J0D01*
G01*
X12356860Y-13532040D02*
G75*
G02*
X12326860Y-13532040I-15000J0D01*
G01*
X12326860Y-13532040D02*
G75*
G02*
X12356860Y-13532040I15000J0D01*
G01*
X12395000Y-14365000D02*
G75*
G02*
X12365000Y-14365000I-15000J0D01*
G01*
X12365000Y-14365000D02*
G75*
G02*
X12395000Y-14365000I15000J0D01*
G01*
X12399400Y-11212000D02*
G75*
G02*
X12369400Y-11212000I-15000J0D01*
G01*
X12369400Y-11212000D02*
G75*
G02*
X12399400Y-11212000I15000J0D01*
G01*
X12409050Y-13599132D02*
G75*
G02*
X12379050Y-13599132I-15000J0D01*
G01*
X12379050Y-13599132D02*
G75*
G02*
X12409050Y-13599132I15000J0D01*
G01*
X12425440Y-13039300D02*
G75*
G02*
X12395440Y-13039300I-15000J0D01*
G01*
X12395440Y-13039300D02*
G75*
G02*
X12425440Y-13039300I15000J0D01*
G01*
X12434021Y-13183865D02*
G75*
G02*
X12404021Y-13183865I-15000J0D01*
G01*
X12404021Y-13183865D02*
G75*
G02*
X12434021Y-13183865I15000J0D01*
G01*
X12461800Y-11036300D02*
G75*
G02*
X12431800Y-11036300I-15000J0D01*
G01*
X12431800Y-11036300D02*
G75*
G02*
X12461800Y-11036300I15000J0D01*
G01*
X12471160Y-12839700D02*
G75*
G02*
X12441160Y-12839700I-15000J0D01*
G01*
X12441160Y-12839700D02*
G75*
G02*
X12471160Y-12839700I15000J0D01*
G01*
X12499400Y-11312000D02*
G75*
G02*
X12469400Y-11312000I-15000J0D01*
G01*
X12469400Y-11312000D02*
G75*
G02*
X12499400Y-11312000I15000J0D01*
G01*
X12499900Y-12306300D02*
G75*
G02*
X12469900Y-12306300I-15000J0D01*
G01*
X12469900Y-12306300D02*
G75*
G02*
X12499900Y-12306300I15000J0D01*
G01*
X12563400Y-8864600D02*
G75*
G02*
X12533400Y-8864600I-15000J0D01*
G01*
X12533400Y-8864600D02*
G75*
G02*
X12563400Y-8864600I15000J0D01*
G01*
X12563400Y-8991600D02*
G75*
G02*
X12533400Y-8991600I-15000J0D01*
G01*
X12533400Y-8991600D02*
G75*
G02*
X12563400Y-8991600I15000J0D01*
G01*
X12569880Y-11662000D02*
G75*
G02*
X12539880Y-11662000I-15000J0D01*
G01*
X12539880Y-11662000D02*
G75*
G02*
X12569880Y-11662000I15000J0D01*
G01*
X12580380Y-12448540D02*
G75*
G02*
X12550380Y-12448540I-15000J0D01*
G01*
X12550380Y-12448540D02*
G75*
G02*
X12580380Y-12448540I15000J0D01*
G01*
X12750560Y-14930120D02*
G75*
G02*
X12720560Y-14930120I-15000J0D01*
G01*
X12720560Y-14930120D02*
G75*
G02*
X12750560Y-14930120I15000J0D01*
G01*
X12779960Y-11011961D02*
G75*
G02*
X12749960Y-11011961I-15000J0D01*
G01*
X12749960Y-11011961D02*
G75*
G02*
X12779960Y-11011961I15000J0D01*
G01*
X12789400Y-9522000D02*
G75*
G02*
X12759400Y-9522000I-15000J0D01*
G01*
X12759400Y-9522000D02*
G75*
G02*
X12789400Y-9522000I15000J0D01*
G01*
X12833365Y-10938307D02*
G75*
G02*
X12803365Y-10938307I-15000J0D01*
G01*
X12803365Y-10938307D02*
G75*
G02*
X12833365Y-10938307I15000J0D01*
G01*
X12869400Y-15417000D02*
G75*
G02*
X12839400Y-15417000I-15000J0D01*
G01*
X12839400Y-15417000D02*
G75*
G02*
X12869400Y-15417000I15000J0D01*
G01*
X12897880Y-14927580D02*
G75*
G02*
X12867880Y-14927580I-15000J0D01*
G01*
X12867880Y-14927580D02*
G75*
G02*
X12897880Y-14927580I15000J0D01*
G01*
X12909400Y-9613900D02*
G75*
G02*
X12879400Y-9613900I-15000J0D01*
G01*
X12879400Y-9613900D02*
G75*
G02*
X12909400Y-9613900I15000J0D01*
G01*
X12925520Y-11422060D02*
G75*
G02*
X12895520Y-11422060I-15000J0D01*
G01*
X12895520Y-11422060D02*
G75*
G02*
X12925520Y-11422060I15000J0D01*
G01*
X12943600Y-12562840D02*
G75*
G02*
X12913600Y-12562840I-15000J0D01*
G01*
X12913600Y-12562840D02*
G75*
G02*
X12943600Y-12562840I15000J0D01*
G01*
X12944400Y-11271500D02*
G75*
G02*
X12914400Y-11271500I-15000J0D01*
G01*
X12914400Y-11271500D02*
G75*
G02*
X12944400Y-11271500I15000J0D01*
G01*
X13024400Y-14922000D02*
G75*
G02*
X12994400Y-14922000I-15000J0D01*
G01*
X12994400Y-14922000D02*
G75*
G02*
X13024400Y-14922000I15000J0D01*
G01*
X13042660Y-13911580D02*
G75*
G02*
X13012660Y-13911580I-15000J0D01*
G01*
X13012660Y-13911580D02*
G75*
G02*
X13042660Y-13911580I15000J0D01*
G01*
X13057900Y-12569300D02*
G75*
G02*
X13027900Y-12569300I-15000J0D01*
G01*
X13027900Y-12569300D02*
G75*
G02*
X13057900Y-12569300I15000J0D01*
G01*
X13123940Y-13208000D02*
G75*
G02*
X13093940Y-13208000I-15000J0D01*
G01*
X13093940Y-13208000D02*
G75*
G02*
X13123940Y-13208000I15000J0D01*
G01*
X13189980Y-13106400D02*
G75*
G02*
X13159980Y-13106400I-15000J0D01*
G01*
X13159980Y-13106400D02*
G75*
G02*
X13189980Y-13106400I15000J0D01*
G01*
X13212840Y-10678160D02*
G75*
G02*
X13182840Y-10678160I-15000J0D01*
G01*
X13182840Y-10678160D02*
G75*
G02*
X13212840Y-10678160I15000J0D01*
G01*
X13219400Y-14927000D02*
G75*
G02*
X13189400Y-14927000I-15000J0D01*
G01*
X13189400Y-14927000D02*
G75*
G02*
X13219400Y-14927000I15000J0D01*
G01*
X13306820Y-10833100D02*
G75*
G02*
X13276820Y-10833100I-15000J0D01*
G01*
X13276820Y-10833100D02*
G75*
G02*
X13306820Y-10833100I15000J0D01*
G01*
X13339840Y-10607040D02*
G75*
G02*
X13309840Y-10607040I-15000J0D01*
G01*
X13309840Y-10607040D02*
G75*
G02*
X13339840Y-10607040I15000J0D01*
G01*
X13413500Y-13464540D02*
G75*
G02*
X13383500Y-13464540I-15000J0D01*
G01*
X13383500Y-13464540D02*
G75*
G02*
X13413500Y-13464540I15000J0D01*
G01*
X13418580Y-13243560D02*
G75*
G02*
X13388580Y-13243560I-15000J0D01*
G01*
X13388580Y-13243560D02*
G75*
G02*
X13418580Y-13243560I15000J0D01*
G01*
X13469400Y-10567000D02*
G75*
G02*
X13439400Y-10567000I-15000J0D01*
G01*
X13439400Y-10567000D02*
G75*
G02*
X13469400Y-10567000I15000J0D01*
G01*
X13480000Y-14365000D02*
G75*
G02*
X13450000Y-14365000I-15000J0D01*
G01*
X13450000Y-14365000D02*
G75*
G02*
X13480000Y-14365000I15000J0D01*
G01*
X13532880Y-10765453D02*
G75*
G02*
X13502880Y-10765453I-15000J0D01*
G01*
X13502880Y-10765453D02*
G75*
G02*
X13532880Y-10765453I15000J0D01*
G01*
X13574400Y-10412000D02*
G75*
G02*
X13544400Y-10412000I-15000J0D01*
G01*
X13544400Y-10412000D02*
G75*
G02*
X13574400Y-10412000I15000J0D01*
G01*
X13586220Y-13431520D02*
G75*
G02*
X13556220Y-13431520I-15000J0D01*
G01*
X13556220Y-13431520D02*
G75*
G02*
X13586220Y-13431520I15000J0D01*
G01*
X13696050Y-12830000D02*
G75*
G02*
X13666050Y-12830000I-15000J0D01*
G01*
X13666050Y-12830000D02*
G75*
G02*
X13696050Y-12830000I15000J0D01*
G01*
X13786340Y-13006800D02*
G75*
G02*
X13756340Y-13006800I-15000J0D01*
G01*
X13756340Y-13006800D02*
G75*
G02*
X13786340Y-13006800I15000J0D01*
G01*
X13820700Y-10985500D02*
G75*
G02*
X13790700Y-10985500I-15000J0D01*
G01*
X13790700Y-10985500D02*
G75*
G02*
X13820700Y-10985500I15000J0D01*
G01*
X13922300Y-11277600D02*
G75*
G02*
X13892300Y-11277600I-15000J0D01*
G01*
X13892300Y-11277600D02*
G75*
G02*
X13922300Y-11277600I15000J0D01*
G01*
X13922300Y-12227000D02*
G75*
G02*
X13892300Y-12227000I-15000J0D01*
G01*
X13892300Y-12227000D02*
G75*
G02*
X13922300Y-12227000I15000J0D01*
G01*
X13953503Y-10637953D02*
G75*
G02*
X13923503Y-10637953I-15000J0D01*
G01*
X13923503Y-10637953D02*
G75*
G02*
X13953503Y-10637953I15000J0D01*
G01*
X14031445Y-10608623D02*
G75*
G02*
X14001445Y-10608623I-15000J0D01*
G01*
X14001445Y-10608623D02*
G75*
G02*
X14031445Y-10608623I15000J0D01*
G01*
X14044400Y-14802000D02*
G75*
G02*
X14014400Y-14802000I-15000J0D01*
G01*
X14014400Y-14802000D02*
G75*
G02*
X14044400Y-14802000I15000J0D01*
G01*
X14099300Y-11082020D02*
G75*
G02*
X14069300Y-11082020I-15000J0D01*
G01*
X14069300Y-11082020D02*
G75*
G02*
X14099300Y-11082020I15000J0D01*
G01*
X14171800Y-10909300D02*
G75*
G02*
X14141800Y-10909300I-15000J0D01*
G01*
X14141800Y-10909300D02*
G75*
G02*
X14171800Y-10909300I15000J0D01*
G01*
X14180000Y-11760200D02*
G75*
G02*
X14150000Y-11760200I-15000J0D01*
G01*
X14150000Y-11760200D02*
G75*
G02*
X14180000Y-11760200I15000J0D01*
G01*
X14189000Y-13690600D02*
G75*
G02*
X14159000Y-13690600I-15000J0D01*
G01*
X14159000Y-13690600D02*
G75*
G02*
X14189000Y-13690600I15000J0D01*
G01*
X14227100Y-10439400D02*
G75*
G02*
X14197100Y-10439400I-15000J0D01*
G01*
X14197100Y-10439400D02*
G75*
G02*
X14227100Y-10439400I15000J0D01*
G01*
X14310000Y-13690000D02*
G75*
G02*
X14280000Y-13690000I-15000J0D01*
G01*
X14280000Y-13690000D02*
G75*
G02*
X14310000Y-13690000I15000J0D01*
G01*
X14327900Y-9874000D02*
G75*
G02*
X14297900Y-9874000I-15000J0D01*
G01*
X14297900Y-9874000D02*
G75*
G02*
X14327900Y-9874000I15000J0D01*
G01*
X14421207Y-9871113D02*
G75*
G02*
X14391207Y-9871113I-15000J0D01*
G01*
X14391207Y-9871113D02*
G75*
G02*
X14421207Y-9871113I15000J0D01*
G01*
X14452360Y-13695680D02*
G75*
G02*
X14422360Y-13695680I-15000J0D01*
G01*
X14422360Y-13695680D02*
G75*
G02*
X14452360Y-13695680I15000J0D01*
G01*
X14468400Y-12075160D02*
G75*
G02*
X14438400Y-12075160I-15000J0D01*
G01*
X14438400Y-12075160D02*
G75*
G02*
X14468400Y-12075160I15000J0D01*
G01*
X14515000Y-9745000D02*
G75*
G02*
X14485000Y-9745000I-15000J0D01*
G01*
X14485000Y-9745000D02*
G75*
G02*
X14515000Y-9745000I15000J0D01*
G01*
X14559040Y-15095220D02*
G75*
G02*
X14529040Y-15095220I-15000J0D01*
G01*
X14529040Y-15095220D02*
G75*
G02*
X14559040Y-15095220I15000J0D01*
G01*
X14587500Y-10033000D02*
G75*
G02*
X14557500Y-10033000I-15000J0D01*
G01*
X14557500Y-10033000D02*
G75*
G02*
X14587500Y-10033000I15000J0D01*
G01*
X14599400Y-13690000D02*
G75*
G02*
X14569400Y-13690000I-15000J0D01*
G01*
X14569400Y-13690000D02*
G75*
G02*
X14599400Y-13690000I15000J0D01*
G01*
X14643246Y-9820000D02*
G75*
G02*
X14613246Y-9820000I-15000J0D01*
G01*
X14613246Y-9820000D02*
G75*
G02*
X14643246Y-9820000I15000J0D01*
G01*
X14643246Y-10115452D02*
G75*
G02*
X14613246Y-10115452I-15000J0D01*
G01*
X14613246Y-10115452D02*
G75*
G02*
X14643246Y-10115452I15000J0D01*
G01*
X14666303Y-9714101D02*
G75*
G02*
X14636303Y-9714101I-15000J0D01*
G01*
X14636303Y-9714101D02*
G75*
G02*
X14666303Y-9714101I15000J0D01*
G01*
X14667756Y-10691960D02*
G75*
G02*
X14637756Y-10691960I-15000J0D01*
G01*
X14637756Y-10691960D02*
G75*
G02*
X14667756Y-10691960I15000J0D01*
G01*
X14785000Y-12307000D02*
G75*
G02*
X14755000Y-12307000I-15000J0D01*
G01*
X14755000Y-12307000D02*
G75*
G02*
X14785000Y-12307000I15000J0D01*
G01*
X14790282Y-9424029D02*
G75*
G02*
X14760282Y-9424029I-15000J0D01*
G01*
X14760282Y-9424029D02*
G75*
G02*
X14790282Y-9424029I15000J0D01*
G01*
X14811300Y-9677400D02*
G75*
G02*
X14781300Y-9677400I-15000J0D01*
G01*
X14781300Y-9677400D02*
G75*
G02*
X14811300Y-9677400I15000J0D01*
G01*
X14816500Y-13597300D02*
G75*
G02*
X14786500Y-13597300I-15000J0D01*
G01*
X14786500Y-13597300D02*
G75*
G02*
X14816500Y-13597300I15000J0D01*
G01*
X14818939Y-10823620D02*
G75*
G02*
X14788939Y-10823620I-15000J0D01*
G01*
X14788939Y-10823620D02*
G75*
G02*
X14818939Y-10823620I15000J0D01*
G01*
X14849401Y-10687091D02*
G75*
G02*
X14819401Y-10687091I-15000J0D01*
G01*
X14819401Y-10687091D02*
G75*
G02*
X14849401Y-10687091I15000J0D01*
G01*
X14875000Y-12390000D02*
G75*
G02*
X14845000Y-12390000I-15000J0D01*
G01*
X14845000Y-12390000D02*
G75*
G02*
X14875000Y-12390000I15000J0D01*
G01*
X14930800Y-14118000D02*
G75*
G02*
X14900800Y-14118000I-15000J0D01*
G01*
X14900800Y-14118000D02*
G75*
G02*
X14930800Y-14118000I15000J0D01*
G01*
X14938300Y-10871200D02*
G75*
G02*
X14908300Y-10871200I-15000J0D01*
G01*
X14908300Y-10871200D02*
G75*
G02*
X14938300Y-10871200I15000J0D01*
G01*
X14968834Y-10373278D02*
G75*
G02*
X14938834Y-10373278I-15000J0D01*
G01*
X14938834Y-10373278D02*
G75*
G02*
X14968834Y-10373278I15000J0D01*
G01*
X14969145Y-9389378D02*
G75*
G02*
X14939145Y-9389378I-15000J0D01*
G01*
X14939145Y-9389378D02*
G75*
G02*
X14969145Y-9389378I15000J0D01*
G01*
X14970678Y-10623562D02*
G75*
G02*
X14940678Y-10623562I-15000J0D01*
G01*
X14940678Y-10623562D02*
G75*
G02*
X14970678Y-10623562I15000J0D01*
G01*
X15008620Y-12032000D02*
G75*
G02*
X14978620Y-12032000I-15000J0D01*
G01*
X14978620Y-12032000D02*
G75*
G02*
X15008620Y-12032000I15000J0D01*
G01*
X15061266Y-9372500D02*
G75*
G02*
X15031266Y-9372500I-15000J0D01*
G01*
X15031266Y-9372500D02*
G75*
G02*
X15061266Y-9372500I15000J0D01*
G01*
X15079740Y-12679680D02*
G75*
G02*
X15049740Y-12679680I-15000J0D01*
G01*
X15049740Y-12679680D02*
G75*
G02*
X15079740Y-12679680I15000J0D01*
G01*
X15095157Y-9630164D02*
G75*
G02*
X15065157Y-9630164I-15000J0D01*
G01*
X15065157Y-9630164D02*
G75*
G02*
X15095157Y-9630164I15000J0D01*
G01*
X15101640Y-9714917D02*
G75*
G02*
X15071640Y-9714917I-15000J0D01*
G01*
X15071640Y-9714917D02*
G75*
G02*
X15101640Y-9714917I15000J0D01*
G01*
X15144622Y-9372500D02*
G75*
G02*
X15114622Y-9372500I-15000J0D01*
G01*
X15114622Y-9372500D02*
G75*
G02*
X15144622Y-9372500I15000J0D01*
G01*
X15172681Y-9550652D02*
G75*
G02*
X15142681Y-9550652I-15000J0D01*
G01*
X15142681Y-9550652D02*
G75*
G02*
X15172681Y-9550652I15000J0D01*
G01*
X15176260Y-12614720D02*
G75*
G02*
X15146260Y-12614720I-15000J0D01*
G01*
X15146260Y-12614720D02*
G75*
G02*
X15176260Y-12614720I15000J0D01*
G01*
X15313167Y-9493964D02*
G75*
G02*
X15283167Y-9493964I-15000J0D01*
G01*
X15283167Y-9493964D02*
G75*
G02*
X15313167Y-9493964I15000J0D01*
G01*
X15382800Y-9906000D02*
G75*
G02*
X15352800Y-9906000I-15000J0D01*
G01*
X15352800Y-9906000D02*
G75*
G02*
X15382800Y-9906000I15000J0D01*
G01*
X15433600Y-9436100D02*
G75*
G02*
X15403600Y-9436100I-15000J0D01*
G01*
X15403600Y-9436100D02*
G75*
G02*
X15433600Y-9436100I15000J0D01*
G01*
X15436658Y-10266300D02*
G75*
G02*
X15406658Y-10266300I-15000J0D01*
G01*
X15406658Y-10266300D02*
G75*
G02*
X15436658Y-10266300I15000J0D01*
G01*
X15600830Y-13137030D02*
G75*
G02*
X15570830Y-13137030I-15000J0D01*
G01*
X15570830Y-13137030D02*
G75*
G02*
X15600830Y-13137030I15000J0D01*
G01*
X15642000Y-13762400D02*
G75*
G02*
X15612000Y-13762400I-15000J0D01*
G01*
X15612000Y-13762400D02*
G75*
G02*
X15642000Y-13762400I15000J0D01*
G01*
X15687600Y-11023600D02*
G75*
G02*
X15657600Y-11023600I-15000J0D01*
G01*
X15657600Y-11023600D02*
G75*
G02*
X15687600Y-11023600I15000J0D01*
G01*
X15687600Y-11125200D02*
G75*
G02*
X15657600Y-11125200I-15000J0D01*
G01*
X15657600Y-11125200D02*
G75*
G02*
X15687600Y-11125200I15000J0D01*
G01*
X15725700Y-10033000D02*
G75*
G02*
X15695700Y-10033000I-15000J0D01*
G01*
X15695700Y-10033000D02*
G75*
G02*
X15725700Y-10033000I15000J0D01*
G01*
X15729403Y-9888000D02*
G75*
G02*
X15699403Y-9888000I-15000J0D01*
G01*
X15699403Y-9888000D02*
G75*
G02*
X15729403Y-9888000I15000J0D01*
G01*
X15832500Y-15007000D02*
G75*
G02*
X15802500Y-15007000I-15000J0D01*
G01*
X15802500Y-15007000D02*
G75*
G02*
X15832500Y-15007000I15000J0D01*
G01*
X15865400Y-7289800D02*
G75*
G02*
X15835400Y-7289800I-15000J0D01*
G01*
X15835400Y-7289800D02*
G75*
G02*
X15865400Y-7289800I15000J0D01*
G01*
X15865400Y-10871200D02*
G75*
G02*
X15835400Y-10871200I-15000J0D01*
G01*
X15835400Y-10871200D02*
G75*
G02*
X15865400Y-10871200I15000J0D01*
G01*
X15877881Y-10185900D02*
G75*
G02*
X15847881Y-10185900I-15000J0D01*
G01*
X15847881Y-10185900D02*
G75*
G02*
X15877881Y-10185900I15000J0D01*
G01*
X15941600Y-7670800D02*
G75*
G02*
X15911600Y-7670800I-15000J0D01*
G01*
X15911600Y-7670800D02*
G75*
G02*
X15941600Y-7670800I15000J0D01*
G01*
X16043200Y-7543800D02*
G75*
G02*
X16013200Y-7543800I-15000J0D01*
G01*
X16013200Y-7543800D02*
G75*
G02*
X16043200Y-7543800I15000J0D01*
G01*
X16043200Y-9457800D02*
G75*
G02*
X16013200Y-9457800I-15000J0D01*
G01*
X16013200Y-9457800D02*
G75*
G02*
X16043200Y-9457800I15000J0D01*
G01*
X16048400Y-12873400D02*
G75*
G02*
X16018400Y-12873400I-15000J0D01*
G01*
X16018400Y-12873400D02*
G75*
G02*
X16048400Y-12873400I15000J0D01*
G01*
X16048400Y-13381400D02*
G75*
G02*
X16018400Y-13381400I-15000J0D01*
G01*
X16018400Y-13381400D02*
G75*
G02*
X16048400Y-13381400I15000J0D01*
G01*
X16084294Y-8583137D02*
G75*
G02*
X16054294Y-8583137I-15000J0D01*
G01*
X16054294Y-8583137D02*
G75*
G02*
X16084294Y-8583137I15000J0D01*
G01*
X16101200Y-8476300D02*
G75*
G02*
X16071200Y-8476300I-15000J0D01*
G01*
X16071200Y-8476300D02*
G75*
G02*
X16101200Y-8476300I15000J0D01*
G01*
X16147832Y-10158752D02*
G75*
G02*
X16117832Y-10158752I-15000J0D01*
G01*
X16117832Y-10158752D02*
G75*
G02*
X16147832Y-10158752I15000J0D01*
G01*
X16156218Y-8628435D02*
G75*
G02*
X16126218Y-8628435I-15000J0D01*
G01*
X16126218Y-8628435D02*
G75*
G02*
X16156218Y-8628435I15000J0D01*
G01*
X16174400Y-12457000D02*
G75*
G02*
X16144400Y-12457000I-15000J0D01*
G01*
X16144400Y-12457000D02*
G75*
G02*
X16174400Y-12457000I15000J0D01*
G01*
X16198720Y-9536200D02*
G75*
G02*
X16168720Y-9536200I-15000J0D01*
G01*
X16168720Y-9536200D02*
G75*
G02*
X16198720Y-9536200I15000J0D01*
G01*
X16199269Y-9666200D02*
G75*
G02*
X16169269Y-9666200I-15000J0D01*
G01*
X16169269Y-9666200D02*
G75*
G02*
X16199269Y-9666200I15000J0D01*
G01*
X16255400Y-7975600D02*
G75*
G02*
X16225400Y-7975600I-15000J0D01*
G01*
X16225400Y-7975600D02*
G75*
G02*
X16255400Y-7975600I15000J0D01*
G01*
X16271800Y-11150600D02*
G75*
G02*
X16241800Y-11150600I-15000J0D01*
G01*
X16241800Y-11150600D02*
G75*
G02*
X16271800Y-11150600I15000J0D01*
G01*
X16271800Y-11531600D02*
G75*
G02*
X16241800Y-11531600I-15000J0D01*
G01*
X16241800Y-11531600D02*
G75*
G02*
X16271800Y-11531600I15000J0D01*
G01*
X16305788Y-8848465D02*
G75*
G02*
X16275788Y-8848465I-15000J0D01*
G01*
X16275788Y-8848465D02*
G75*
G02*
X16305788Y-8848465I15000J0D01*
G01*
X16330500Y-10922000D02*
G75*
G02*
X16300500Y-10922000I-15000J0D01*
G01*
X16300500Y-10922000D02*
G75*
G02*
X16330500Y-10922000I15000J0D01*
G01*
X16356800Y-11531600D02*
G75*
G02*
X16326800Y-11531600I-15000J0D01*
G01*
X16326800Y-11531600D02*
G75*
G02*
X16356800Y-11531600I15000J0D01*
G01*
X16383244Y-8813456D02*
G75*
G02*
X16353244Y-8813456I-15000J0D01*
G01*
X16353244Y-8813456D02*
G75*
G02*
X16383244Y-8813456I15000J0D01*
G01*
X16388600Y-12456200D02*
G75*
G02*
X16358600Y-12456200I-15000J0D01*
G01*
X16358600Y-12456200D02*
G75*
G02*
X16388600Y-12456200I15000J0D01*
G01*
X16398800Y-10693400D02*
G75*
G02*
X16368800Y-10693400I-15000J0D01*
G01*
X16368800Y-10693400D02*
G75*
G02*
X16398800Y-10693400I15000J0D01*
G01*
X16398800Y-10778400D02*
G75*
G02*
X16368800Y-10778400I-15000J0D01*
G01*
X16368800Y-10778400D02*
G75*
G02*
X16398800Y-10778400I15000J0D01*
G01*
X16439250Y-11648250D02*
G75*
G02*
X16409250Y-11648250I-15000J0D01*
G01*
X16409250Y-11648250D02*
G75*
G02*
X16439250Y-11648250I15000J0D01*
G01*
X16457274Y-11095569D02*
G75*
G02*
X16427274Y-11095569I-15000J0D01*
G01*
X16427274Y-11095569D02*
G75*
G02*
X16457274Y-11095569I15000J0D01*
G01*
X16459072Y-10066779D02*
G75*
G02*
X16429072Y-10066779I-15000J0D01*
G01*
X16429072Y-10066779D02*
G75*
G02*
X16459072Y-10066779I15000J0D01*
G01*
X16462300Y-9842500D02*
G75*
G02*
X16432300Y-9842500I-15000J0D01*
G01*
X16432300Y-9842500D02*
G75*
G02*
X16462300Y-9842500I15000J0D01*
G01*
X16525800Y-11262300D02*
G75*
G02*
X16495800Y-11262300I-15000J0D01*
G01*
X16495800Y-11262300D02*
G75*
G02*
X16525800Y-11262300I15000J0D01*
G01*
X16525800Y-11430000D02*
G75*
G02*
X16495800Y-11430000I-15000J0D01*
G01*
X16495800Y-11430000D02*
G75*
G02*
X16525800Y-11430000I15000J0D01*
G01*
X16546112Y-10852750D02*
G75*
G02*
X16516112Y-10852750I-15000J0D01*
G01*
X16516112Y-10852750D02*
G75*
G02*
X16546112Y-10852750I15000J0D01*
G01*
X16551200Y-10617200D02*
G75*
G02*
X16521200Y-10617200I-15000J0D01*
G01*
X16521200Y-10617200D02*
G75*
G02*
X16551200Y-10617200I15000J0D01*
G01*
X16556400Y-13000400D02*
G75*
G02*
X16526400Y-13000400I-15000J0D01*
G01*
X16526400Y-13000400D02*
G75*
G02*
X16556400Y-13000400I15000J0D01*
G01*
X16581845Y-11013075D02*
G75*
G02*
X16551845Y-11013075I-15000J0D01*
G01*
X16551845Y-11013075D02*
G75*
G02*
X16581845Y-11013075I15000J0D01*
G01*
X16588800Y-8704715D02*
G75*
G02*
X16558800Y-8704715I-15000J0D01*
G01*
X16558800Y-8704715D02*
G75*
G02*
X16588800Y-8704715I15000J0D01*
G01*
X16588800Y-8786254D02*
G75*
G02*
X16558800Y-8786254I-15000J0D01*
G01*
X16558800Y-8786254D02*
G75*
G02*
X16588800Y-8786254I15000J0D01*
G01*
X16631100Y-10064423D02*
G75*
G02*
X16601100Y-10064423I-15000J0D01*
G01*
X16601100Y-10064423D02*
G75*
G02*
X16631100Y-10064423I15000J0D01*
G01*
X16643800Y-8331077D02*
G75*
G02*
X16613800Y-8331077I-15000J0D01*
G01*
X16613800Y-8331077D02*
G75*
G02*
X16643800Y-8331077I15000J0D01*
G01*
X16665500Y-8232000D02*
G75*
G02*
X16635500Y-8232000I-15000J0D01*
G01*
X16635500Y-8232000D02*
G75*
G02*
X16665500Y-8232000I15000J0D01*
G01*
X16703600Y-9448800D02*
G75*
G02*
X16673600Y-9448800I-15000J0D01*
G01*
X16673600Y-9448800D02*
G75*
G02*
X16703600Y-9448800I15000J0D01*
G01*
X16703600Y-10274300D02*
G75*
G02*
X16673600Y-10274300I-15000J0D01*
G01*
X16673600Y-10274300D02*
G75*
G02*
X16703600Y-10274300I15000J0D01*
G01*
X16703600Y-10617200D02*
G75*
G02*
X16673600Y-10617200I-15000J0D01*
G01*
X16673600Y-10617200D02*
G75*
G02*
X16703600Y-10617200I15000J0D01*
G01*
X16703600Y-11148600D02*
G75*
G02*
X16673600Y-11148600I-15000J0D01*
G01*
X16673600Y-11148600D02*
G75*
G02*
X16703600Y-11148600I15000J0D01*
G01*
X16843300Y-9639300D02*
G75*
G02*
X16813300Y-9639300I-15000J0D01*
G01*
X16813300Y-9639300D02*
G75*
G02*
X16843300Y-9639300I15000J0D01*
G01*
X16932200Y-9537700D02*
G75*
G02*
X16902200Y-9537700I-15000J0D01*
G01*
X16902200Y-9537700D02*
G75*
G02*
X16932200Y-9537700I15000J0D01*
G01*
X16962800Y-13762400D02*
G75*
G02*
X16932800Y-13762400I-15000J0D01*
G01*
X16932800Y-13762400D02*
G75*
G02*
X16962800Y-13762400I15000J0D01*
G01*
X16962800Y-13889400D02*
G75*
G02*
X16932800Y-13889400I-15000J0D01*
G01*
X16932800Y-13889400D02*
G75*
G02*
X16962800Y-13889400I15000J0D01*
G01*
X16995700Y-9385300D02*
G75*
G02*
X16965700Y-9385300I-15000J0D01*
G01*
X16965700Y-9385300D02*
G75*
G02*
X16995700Y-9385300I15000J0D01*
G01*
X17064400Y-12872000D02*
G75*
G02*
X17034400Y-12872000I-15000J0D01*
G01*
X17034400Y-12872000D02*
G75*
G02*
X17064400Y-12872000I15000J0D01*
G01*
X17191400Y-13508400D02*
G75*
G02*
X17161400Y-13508400I-15000J0D01*
G01*
X17161400Y-13508400D02*
G75*
G02*
X17191400Y-13508400I15000J0D01*
G01*
X17214400Y-14057000D02*
G75*
G02*
X17184400Y-14057000I-15000J0D01*
G01*
X17184400Y-14057000D02*
G75*
G02*
X17214400Y-14057000I15000J0D01*
G01*
X17420000Y-13762400D02*
G75*
G02*
X17390000Y-13762400I-15000J0D01*
G01*
X17390000Y-13762400D02*
G75*
G02*
X17420000Y-13762400I15000J0D01*
G01*
X17851800Y-13838600D02*
G75*
G02*
X17821800Y-13838600I-15000J0D01*
G01*
X17821800Y-13838600D02*
G75*
G02*
X17851800Y-13838600I15000J0D01*
G01*
X17953400Y-13508400D02*
G75*
G02*
X17923400Y-13508400I-15000J0D01*
G01*
X17923400Y-13508400D02*
G75*
G02*
X17953400Y-13508400I15000J0D01*
G01*
X18131200Y-14282000D02*
G75*
G02*
X18101200Y-14282000I-15000J0D01*
G01*
X18101200Y-14282000D02*
G75*
G02*
X18131200Y-14282000I15000J0D01*
G01*
X9255200Y-15385940D02*
X9255200Y-15435940D01*
X9230200Y-15410940D02*
X9280200Y-15410940D01*
X9230200Y-15378440D02*
X9230200Y-15443440D01*
X9280200Y-15443440D02*
G75*
G02*
X9230200Y-15443440I-25000J0D01*
G01*
X9280200Y-15443440D02*
X9280200Y-15378440D01*
X9280200Y-15378440D02*
G75*
G03*
X9230200Y-15378440I-25000J0D01*
G01*
X9955200Y-15385940D02*
X9955200Y-15435940D01*
X9930200Y-15410940D02*
X9980200Y-15410940D01*
X9930200Y-15378440D02*
X9930200Y-15443440D01*
X9980200Y-15443440D02*
G75*
G02*
X9930200Y-15443440I-25000J0D01*
G01*
X9980200Y-15443440D02*
X9980200Y-15378440D01*
X9980200Y-15378440D02*
G75*
G03*
X9930200Y-15378440I-25000J0D01*
G01*
X9374646Y-15160386D02*
X9374646Y-15121494D01*
X9335754Y-15121494D01*
X9335754Y-15160386D01*
X9374646Y-15160386D01*
X9340200Y-15168440D02*
X9370200Y-15168440D01*
X9370200Y-15113440D02*
G75*
G02*
X9370200Y-15168440I0J-27500D01*
G01*
X9370200Y-15113440D02*
X9340200Y-15113440D01*
X9340200Y-15113440D02*
G75*
G03*
X9340200Y-15168440I0J-27500D01*
G01*
X9874646Y-15160386D02*
X9874646Y-15121494D01*
X9835754Y-15121494D01*
X9835754Y-15160386D01*
X9874646Y-15160386D01*
X9840200Y-15168440D02*
X9870200Y-15168440D01*
X9870200Y-15113440D02*
G75*
G02*
X9870200Y-15168440I0J-27500D01*
G01*
X9870200Y-15113440D02*
X9840200Y-15113440D01*
X9840200Y-15113440D02*
G75*
G03*
X9840200Y-15168440I0J-27500D01*
G01*
X13985000Y-13745000D02*
X14025000Y-13705000D01*
X13985000Y-13665000D01*
X13945000Y-13705000D01*
X13985000Y-13745000D01*
X13985000Y-14245000D02*
X14025000Y-14205000D01*
X13985000Y-14165000D01*
X13945000Y-14205000D01*
X13985000Y-14245000D01*
X13995000Y-12614107D02*
X14035000Y-12574107D01*
X13995000Y-12534107D01*
X13955000Y-12574107D01*
X13995000Y-12614107D01*
X13995000Y-13114107D02*
X14035000Y-13074107D01*
X13995000Y-13034107D01*
X13955000Y-13074107D01*
X13995000Y-13114107D01*
X9494400Y-6912000D02*
X9594400Y-7012000D01*
X9594400Y-6912000D02*
X9494400Y-7012000D01*
X9594400Y-6962000D02*
G75*
G02*
X9494400Y-6962000I-50000J0D01*
G01*
X9494400Y-6962000D02*
G75*
G02*
X9594400Y-6962000I50000J0D01*
G01*
X9494400Y-7166000D02*
X9594400Y-7266000D01*
X9594400Y-7166000D02*
X9494400Y-7266000D01*
X9594400Y-7216000D02*
G75*
G02*
X9494400Y-7216000I-50000J0D01*
G01*
X9494400Y-7216000D02*
G75*
G02*
X9594400Y-7216000I50000J0D01*
G01*
X9494400Y-7420000D02*
X9594400Y-7520000D01*
X9594400Y-7420000D02*
X9494400Y-7520000D01*
X9594400Y-7470000D02*
G75*
G02*
X9494400Y-7470000I-50000J0D01*
G01*
X9494400Y-7470000D02*
G75*
G02*
X9594400Y-7470000I50000J0D01*
G01*
X9494400Y-7674000D02*
X9594400Y-7774000D01*
X9594400Y-7674000D02*
X9494400Y-7774000D01*
X9594400Y-7724000D02*
G75*
G02*
X9494400Y-7724000I-50000J0D01*
G01*
X9494400Y-7724000D02*
G75*
G02*
X9594400Y-7724000I50000J0D01*
G01*
X9494400Y-7928000D02*
X9594400Y-8028000D01*
X9594400Y-7928000D02*
X9494400Y-8028000D01*
X9594400Y-7978000D02*
G75*
G02*
X9494400Y-7978000I-50000J0D01*
G01*
X9494400Y-7978000D02*
G75*
G02*
X9594400Y-7978000I50000J0D01*
G01*
X9494400Y-8182000D02*
X9594400Y-8282000D01*
X9594400Y-8182000D02*
X9494400Y-8282000D01*
X9594400Y-8232000D02*
G75*
G02*
X9494400Y-8232000I-50000J0D01*
G01*
X9494400Y-8232000D02*
G75*
G02*
X9594400Y-8232000I50000J0D01*
G01*
X9494400Y-8436000D02*
X9594400Y-8536000D01*
X9594400Y-8436000D02*
X9494400Y-8536000D01*
X9594400Y-8486000D02*
G75*
G02*
X9494400Y-8486000I-50000J0D01*
G01*
X9494400Y-8486000D02*
G75*
G02*
X9594400Y-8486000I50000J0D01*
G01*
X9494400Y-8690000D02*
X9594400Y-8790000D01*
X9594400Y-8690000D02*
X9494400Y-8790000D01*
X9594400Y-8740000D02*
G75*
G02*
X9494400Y-8740000I-50000J0D01*
G01*
X9494400Y-8740000D02*
G75*
G02*
X9594400Y-8740000I50000J0D01*
G01*
X9494400Y-8944000D02*
X9594400Y-9044000D01*
X9594400Y-8944000D02*
X9494400Y-9044000D01*
X9594400Y-8994000D02*
G75*
G02*
X9494400Y-8994000I-50000J0D01*
G01*
X9494400Y-8994000D02*
G75*
G02*
X9594400Y-8994000I50000J0D01*
G01*
X9494400Y-9198000D02*
X9594400Y-9298000D01*
X9594400Y-9198000D02*
X9494400Y-9298000D01*
X9594400Y-9248000D02*
G75*
G02*
X9494400Y-9248000I-50000J0D01*
G01*
X9494400Y-9248000D02*
G75*
G02*
X9594400Y-9248000I50000J0D01*
G01*
X9494400Y-9452000D02*
X9594400Y-9552000D01*
X9594400Y-9452000D02*
X9494400Y-9552000D01*
X9594400Y-9502000D02*
G75*
G02*
X9494400Y-9502000I-50000J0D01*
G01*
X9494400Y-9502000D02*
G75*
G02*
X9594400Y-9502000I50000J0D01*
G01*
X9494400Y-9706000D02*
X9594400Y-9806000D01*
X9594400Y-9706000D02*
X9494400Y-9806000D01*
X9594400Y-9756000D02*
G75*
G02*
X9494400Y-9756000I-50000J0D01*
G01*
X9494400Y-9756000D02*
G75*
G02*
X9594400Y-9756000I50000J0D01*
G01*
X9494400Y-9960000D02*
X9594400Y-10060000D01*
X9594400Y-9960000D02*
X9494400Y-10060000D01*
X9594400Y-10010000D02*
G75*
G02*
X9494400Y-10010000I-50000J0D01*
G01*
X9494400Y-10010000D02*
G75*
G02*
X9594400Y-10010000I50000J0D01*
G01*
X9494400Y-10214000D02*
X9594400Y-10314000D01*
X9594400Y-10214000D02*
X9494400Y-10314000D01*
X9594400Y-10264000D02*
G75*
G02*
X9494400Y-10264000I-50000J0D01*
G01*
X9494400Y-10264000D02*
G75*
G02*
X9594400Y-10264000I50000J0D01*
G01*
X9494400Y-10468000D02*
X9594400Y-10568000D01*
X9594400Y-10468000D02*
X9494400Y-10568000D01*
X9594400Y-10518000D02*
G75*
G02*
X9494400Y-10518000I-50000J0D01*
G01*
X9494400Y-10518000D02*
G75*
G02*
X9594400Y-10518000I50000J0D01*
G01*
X9494400Y-10722000D02*
X9594400Y-10822000D01*
X9594400Y-10722000D02*
X9494400Y-10822000D01*
X9594400Y-10772000D02*
G75*
G02*
X9494400Y-10772000I-50000J0D01*
G01*
X9494400Y-10772000D02*
G75*
G02*
X9594400Y-10772000I50000J0D01*
G01*
X9494400Y-10976000D02*
X9594400Y-11076000D01*
X9594400Y-10976000D02*
X9494400Y-11076000D01*
X9594400Y-11026000D02*
G75*
G02*
X9494400Y-11026000I-50000J0D01*
G01*
X9494400Y-11026000D02*
G75*
G02*
X9594400Y-11026000I50000J0D01*
G01*
X9494400Y-11230000D02*
X9594400Y-11330000D01*
X9594400Y-11230000D02*
X9494400Y-11330000D01*
X9594400Y-11280000D02*
G75*
G02*
X9494400Y-11280000I-50000J0D01*
G01*
X9494400Y-11280000D02*
G75*
G02*
X9594400Y-11280000I50000J0D01*
G01*
X9494400Y-11484000D02*
X9594400Y-11584000D01*
X9594400Y-11484000D02*
X9494400Y-11584000D01*
X9594400Y-11534000D02*
G75*
G02*
X9494400Y-11534000I-50000J0D01*
G01*
X9494400Y-11534000D02*
G75*
G02*
X9594400Y-11534000I50000J0D01*
G01*
X9494400Y-11738000D02*
X9594400Y-11838000D01*
X9594400Y-11738000D02*
X9494400Y-11838000D01*
X9594400Y-11788000D02*
G75*
G02*
X9494400Y-11788000I-50000J0D01*
G01*
X9494400Y-11788000D02*
G75*
G02*
X9594400Y-11788000I50000J0D01*
G01*
X9748400Y-6912000D02*
X9848400Y-7012000D01*
X9848400Y-6912000D02*
X9748400Y-7012000D01*
X9848400Y-6962000D02*
G75*
G02*
X9748400Y-6962000I-50000J0D01*
G01*
X9748400Y-6962000D02*
G75*
G02*
X9848400Y-6962000I50000J0D01*
G01*
X9748400Y-7166000D02*
X9848400Y-7266000D01*
X9848400Y-7166000D02*
X9748400Y-7266000D01*
X9848400Y-7216000D02*
G75*
G02*
X9748400Y-7216000I-50000J0D01*
G01*
X9748400Y-7216000D02*
G75*
G02*
X9848400Y-7216000I50000J0D01*
G01*
X9748400Y-7420000D02*
X9848400Y-7520000D01*
X9848400Y-7420000D02*
X9748400Y-7520000D01*
X9848400Y-7470000D02*
G75*
G02*
X9748400Y-7470000I-50000J0D01*
G01*
X9748400Y-7470000D02*
G75*
G02*
X9848400Y-7470000I50000J0D01*
G01*
X9748400Y-7674000D02*
X9848400Y-7774000D01*
X9848400Y-7674000D02*
X9748400Y-7774000D01*
X9848400Y-7724000D02*
G75*
G02*
X9748400Y-7724000I-50000J0D01*
G01*
X9748400Y-7724000D02*
G75*
G02*
X9848400Y-7724000I50000J0D01*
G01*
X9748400Y-7928000D02*
X9848400Y-8028000D01*
X9848400Y-7928000D02*
X9748400Y-8028000D01*
X9848400Y-7978000D02*
G75*
G02*
X9748400Y-7978000I-50000J0D01*
G01*
X9748400Y-7978000D02*
G75*
G02*
X9848400Y-7978000I50000J0D01*
G01*
X9748400Y-8182000D02*
X9848400Y-8282000D01*
X9848400Y-8182000D02*
X9748400Y-8282000D01*
X9848400Y-8232000D02*
G75*
G02*
X9748400Y-8232000I-50000J0D01*
G01*
X9748400Y-8232000D02*
G75*
G02*
X9848400Y-8232000I50000J0D01*
G01*
X9748400Y-8436000D02*
X9848400Y-8536000D01*
X9848400Y-8436000D02*
X9748400Y-8536000D01*
X9848400Y-8486000D02*
G75*
G02*
X9748400Y-8486000I-50000J0D01*
G01*
X9748400Y-8486000D02*
G75*
G02*
X9848400Y-8486000I50000J0D01*
G01*
X9748400Y-8690000D02*
X9848400Y-8790000D01*
X9848400Y-8690000D02*
X9748400Y-8790000D01*
X9848400Y-8740000D02*
G75*
G02*
X9748400Y-8740000I-50000J0D01*
G01*
X9748400Y-8740000D02*
G75*
G02*
X9848400Y-8740000I50000J0D01*
G01*
X9748400Y-8944000D02*
X9848400Y-9044000D01*
X9848400Y-8944000D02*
X9748400Y-9044000D01*
X9848400Y-8994000D02*
G75*
G02*
X9748400Y-8994000I-50000J0D01*
G01*
X9748400Y-8994000D02*
G75*
G02*
X9848400Y-8994000I50000J0D01*
G01*
X9748400Y-9198000D02*
X9848400Y-9298000D01*
X9848400Y-9198000D02*
X9748400Y-9298000D01*
X9848400Y-9248000D02*
G75*
G02*
X9748400Y-9248000I-50000J0D01*
G01*
X9748400Y-9248000D02*
G75*
G02*
X9848400Y-9248000I50000J0D01*
G01*
X9748400Y-9452000D02*
X9848400Y-9552000D01*
X9848400Y-9452000D02*
X9748400Y-9552000D01*
X9848400Y-9502000D02*
G75*
G02*
X9748400Y-9502000I-50000J0D01*
G01*
X9748400Y-9502000D02*
G75*
G02*
X9848400Y-9502000I50000J0D01*
G01*
X9748400Y-9706000D02*
X9848400Y-9806000D01*
X9848400Y-9706000D02*
X9748400Y-9806000D01*
X9848400Y-9756000D02*
G75*
G02*
X9748400Y-9756000I-50000J0D01*
G01*
X9748400Y-9756000D02*
G75*
G02*
X9848400Y-9756000I50000J0D01*
G01*
X9748400Y-9960000D02*
X9848400Y-10060000D01*
X9848400Y-9960000D02*
X9748400Y-10060000D01*
X9848400Y-10010000D02*
G75*
G02*
X9748400Y-10010000I-50000J0D01*
G01*
X9748400Y-10010000D02*
G75*
G02*
X9848400Y-10010000I50000J0D01*
G01*
X9748400Y-10214000D02*
X9848400Y-10314000D01*
X9848400Y-10214000D02*
X9748400Y-10314000D01*
X9848400Y-10264000D02*
G75*
G02*
X9748400Y-10264000I-50000J0D01*
G01*
X9748400Y-10264000D02*
G75*
G02*
X9848400Y-10264000I50000J0D01*
G01*
X9748400Y-10468000D02*
X9848400Y-10568000D01*
X9848400Y-10468000D02*
X9748400Y-10568000D01*
X9848400Y-10518000D02*
G75*
G02*
X9748400Y-10518000I-50000J0D01*
G01*
X9748400Y-10518000D02*
G75*
G02*
X9848400Y-10518000I50000J0D01*
G01*
X9748400Y-10722000D02*
X9848400Y-10822000D01*
X9848400Y-10722000D02*
X9748400Y-10822000D01*
X9848400Y-10772000D02*
G75*
G02*
X9748400Y-10772000I-50000J0D01*
G01*
X9748400Y-10772000D02*
G75*
G02*
X9848400Y-10772000I50000J0D01*
G01*
X9748400Y-10976000D02*
X9848400Y-11076000D01*
X9848400Y-10976000D02*
X9748400Y-11076000D01*
X9848400Y-11026000D02*
G75*
G02*
X9748400Y-11026000I-50000J0D01*
G01*
X9748400Y-11026000D02*
G75*
G02*
X9848400Y-11026000I50000J0D01*
G01*
X9748400Y-11230000D02*
X9848400Y-11330000D01*
X9848400Y-11230000D02*
X9748400Y-11330000D01*
X9848400Y-11280000D02*
G75*
G02*
X9748400Y-11280000I-50000J0D01*
G01*
X9748400Y-11280000D02*
G75*
G02*
X9848400Y-11280000I50000J0D01*
G01*
X9748400Y-11484000D02*
X9848400Y-11584000D01*
X9848400Y-11484000D02*
X9748400Y-11584000D01*
X9848400Y-11534000D02*
G75*
G02*
X9748400Y-11534000I-50000J0D01*
G01*
X9748400Y-11534000D02*
G75*
G02*
X9848400Y-11534000I50000J0D01*
G01*
X9748400Y-11738000D02*
X9848400Y-11838000D01*
X9848400Y-11738000D02*
X9748400Y-11838000D01*
X9848400Y-11788000D02*
G75*
G02*
X9748400Y-11788000I-50000J0D01*
G01*
X9748400Y-11788000D02*
G75*
G02*
X9848400Y-11788000I50000J0D01*
G01*
X11192400Y-15299000D02*
X11292400Y-15399000D01*
X11292400Y-15299000D02*
X11192400Y-15399000D01*
X11292400Y-15349000D02*
G75*
G02*
X11192400Y-15349000I-50000J0D01*
G01*
X11192400Y-15349000D02*
G75*
G02*
X11292400Y-15349000I50000J0D01*
G01*
X11642400Y-15299000D02*
X11742400Y-15399000D01*
X11742400Y-15299000D02*
X11642400Y-15399000D01*
X11742400Y-15349000D02*
G75*
G02*
X11642400Y-15349000I-50000J0D01*
G01*
X11642400Y-15349000D02*
G75*
G02*
X11742400Y-15349000I50000J0D01*
G01*
X14965400Y-14394500D02*
X15065400Y-14494500D01*
X15065400Y-14394500D02*
X14965400Y-14494500D01*
X15065400Y-14444500D02*
G75*
G02*
X14965400Y-14444500I-50000J0D01*
G01*
X14965400Y-14444500D02*
G75*
G02*
X15065400Y-14444500I50000J0D01*
G01*
X14965400Y-14648500D02*
X15065400Y-14748500D01*
X15065400Y-14648500D02*
X14965400Y-14748500D01*
X15065400Y-14698500D02*
G75*
G02*
X14965400Y-14698500I-50000J0D01*
G01*
X14965400Y-14698500D02*
G75*
G02*
X15065400Y-14698500I50000J0D01*
G01*
X15219400Y-14394500D02*
X15319400Y-14494500D01*
X15319400Y-14394500D02*
X15219400Y-14494500D01*
X15319400Y-14444500D02*
G75*
G02*
X15219400Y-14444500I-50000J0D01*
G01*
X15219400Y-14444500D02*
G75*
G02*
X15319400Y-14444500I50000J0D01*
G01*
X15219400Y-14648500D02*
X15319400Y-14748500D01*
X15319400Y-14648500D02*
X15219400Y-14748500D01*
X15319400Y-14698500D02*
G75*
G02*
X15219400Y-14698500I-50000J0D01*
G01*
X15219400Y-14698500D02*
G75*
G02*
X15319400Y-14698500I50000J0D01*
G01*
X15473400Y-14394500D02*
X15573400Y-14494500D01*
X15573400Y-14394500D02*
X15473400Y-14494500D01*
X15573400Y-14444500D02*
G75*
G02*
X15473400Y-14444500I-50000J0D01*
G01*
X15473400Y-14444500D02*
G75*
G02*
X15573400Y-14444500I50000J0D01*
G01*
X15473400Y-14648500D02*
X15573400Y-14748500D01*
X15573400Y-14648500D02*
X15473400Y-14748500D01*
X15573400Y-14698500D02*
G75*
G02*
X15473400Y-14698500I-50000J0D01*
G01*
X15473400Y-14698500D02*
G75*
G02*
X15573400Y-14698500I50000J0D01*
G01*
X15727400Y-14394500D02*
X15827400Y-14494500D01*
X15827400Y-14394500D02*
X15727400Y-14494500D01*
X15827400Y-14444500D02*
G75*
G02*
X15727400Y-14444500I-50000J0D01*
G01*
X15727400Y-14444500D02*
G75*
G02*
X15827400Y-14444500I50000J0D01*
G01*
X15727400Y-14648500D02*
X15827400Y-14748500D01*
X15827400Y-14648500D02*
X15727400Y-14748500D01*
X15827400Y-14698500D02*
G75*
G02*
X15727400Y-14698500I-50000J0D01*
G01*
X15727400Y-14698500D02*
G75*
G02*
X15827400Y-14698500I50000J0D01*
G01*
X15981400Y-14394500D02*
X16081400Y-14494500D01*
X16081400Y-14394500D02*
X15981400Y-14494500D01*
X16081400Y-14444500D02*
G75*
G02*
X15981400Y-14444500I-50000J0D01*
G01*
X15981400Y-14444500D02*
G75*
G02*
X16081400Y-14444500I50000J0D01*
G01*
X15981400Y-14648500D02*
X16081400Y-14748500D01*
X16081400Y-14648500D02*
X15981400Y-14748500D01*
X16081400Y-14698500D02*
G75*
G02*
X15981400Y-14698500I-50000J0D01*
G01*
X15981400Y-14698500D02*
G75*
G02*
X16081400Y-14698500I50000J0D01*
G01*
X16489400Y-14394500D02*
X16589400Y-14494500D01*
X16589400Y-14394500D02*
X16489400Y-14494500D01*
X16589400Y-14444500D02*
G75*
G02*
X16489400Y-14444500I-50000J0D01*
G01*
X16489400Y-14444500D02*
G75*
G02*
X16589400Y-14444500I50000J0D01*
G01*
X16489400Y-14648500D02*
X16589400Y-14748500D01*
X16589400Y-14648500D02*
X16489400Y-14748500D01*
X16589400Y-14698500D02*
G75*
G02*
X16489400Y-14698500I-50000J0D01*
G01*
X16489400Y-14698500D02*
G75*
G02*
X16589400Y-14698500I50000J0D01*
G01*
X16743400Y-14394500D02*
X16843400Y-14494500D01*
X16843400Y-14394500D02*
X16743400Y-14494500D01*
X16843400Y-14444500D02*
G75*
G02*
X16743400Y-14444500I-50000J0D01*
G01*
X16743400Y-14444500D02*
G75*
G02*
X16843400Y-14444500I50000J0D01*
G01*
X16743400Y-14648500D02*
X16843400Y-14748500D01*
X16843400Y-14648500D02*
X16743400Y-14748500D01*
X16843400Y-14698500D02*
G75*
G02*
X16743400Y-14698500I-50000J0D01*
G01*
X16743400Y-14698500D02*
G75*
G02*
X16843400Y-14698500I50000J0D01*
G01*
X16997400Y-14394500D02*
X17097400Y-14494500D01*
X17097400Y-14394500D02*
X16997400Y-14494500D01*
X17097400Y-14444500D02*
G75*
G02*
X16997400Y-14444500I-50000J0D01*
G01*
X16997400Y-14444500D02*
G75*
G02*
X17097400Y-14444500I50000J0D01*
G01*
X16997400Y-14648500D02*
X17097400Y-14748500D01*
X17097400Y-14648500D02*
X16997400Y-14748500D01*
X17097400Y-14698500D02*
G75*
G02*
X16997400Y-14698500I-50000J0D01*
G01*
X16997400Y-14698500D02*
G75*
G02*
X17097400Y-14698500I50000J0D01*
G01*
X17230400Y-6912000D02*
X17330400Y-7012000D01*
X17330400Y-6912000D02*
X17230400Y-7012000D01*
X17330400Y-6962000D02*
G75*
G02*
X17230400Y-6962000I-50000J0D01*
G01*
X17230400Y-6962000D02*
G75*
G02*
X17330400Y-6962000I50000J0D01*
G01*
X17230400Y-7166000D02*
X17330400Y-7266000D01*
X17330400Y-7166000D02*
X17230400Y-7266000D01*
X17330400Y-7216000D02*
G75*
G02*
X17230400Y-7216000I-50000J0D01*
G01*
X17230400Y-7216000D02*
G75*
G02*
X17330400Y-7216000I50000J0D01*
G01*
X17230400Y-7420000D02*
X17330400Y-7520000D01*
X17330400Y-7420000D02*
X17230400Y-7520000D01*
X17330400Y-7470000D02*
G75*
G02*
X17230400Y-7470000I-50000J0D01*
G01*
X17230400Y-7470000D02*
G75*
G02*
X17330400Y-7470000I50000J0D01*
G01*
X17230400Y-7674000D02*
X17330400Y-7774000D01*
X17330400Y-7674000D02*
X17230400Y-7774000D01*
X17330400Y-7724000D02*
G75*
G02*
X17230400Y-7724000I-50000J0D01*
G01*
X17230400Y-7724000D02*
G75*
G02*
X17330400Y-7724000I50000J0D01*
G01*
X17230400Y-7928000D02*
X17330400Y-8028000D01*
X17330400Y-7928000D02*
X17230400Y-8028000D01*
X17330400Y-7978000D02*
G75*
G02*
X17230400Y-7978000I-50000J0D01*
G01*
X17230400Y-7978000D02*
G75*
G02*
X17330400Y-7978000I50000J0D01*
G01*
X17230400Y-8182000D02*
X17330400Y-8282000D01*
X17330400Y-8182000D02*
X17230400Y-8282000D01*
X17330400Y-8232000D02*
G75*
G02*
X17230400Y-8232000I-50000J0D01*
G01*
X17230400Y-8232000D02*
G75*
G02*
X17330400Y-8232000I50000J0D01*
G01*
X17230400Y-8436000D02*
X17330400Y-8536000D01*
X17330400Y-8436000D02*
X17230400Y-8536000D01*
X17330400Y-8486000D02*
G75*
G02*
X17230400Y-8486000I-50000J0D01*
G01*
X17230400Y-8486000D02*
G75*
G02*
X17330400Y-8486000I50000J0D01*
G01*
X17230400Y-8690000D02*
X17330400Y-8790000D01*
X17330400Y-8690000D02*
X17230400Y-8790000D01*
X17330400Y-8740000D02*
G75*
G02*
X17230400Y-8740000I-50000J0D01*
G01*
X17230400Y-8740000D02*
G75*
G02*
X17330400Y-8740000I50000J0D01*
G01*
X17230400Y-8944000D02*
X17330400Y-9044000D01*
X17330400Y-8944000D02*
X17230400Y-9044000D01*
X17330400Y-8994000D02*
G75*
G02*
X17230400Y-8994000I-50000J0D01*
G01*
X17230400Y-8994000D02*
G75*
G02*
X17330400Y-8994000I50000J0D01*
G01*
X17230400Y-9198000D02*
X17330400Y-9298000D01*
X17330400Y-9198000D02*
X17230400Y-9298000D01*
X17330400Y-9248000D02*
G75*
G02*
X17230400Y-9248000I-50000J0D01*
G01*
X17230400Y-9248000D02*
G75*
G02*
X17330400Y-9248000I50000J0D01*
G01*
X17230400Y-9452000D02*
X17330400Y-9552000D01*
X17330400Y-9452000D02*
X17230400Y-9552000D01*
X17330400Y-9502000D02*
G75*
G02*
X17230400Y-9502000I-50000J0D01*
G01*
X17230400Y-9502000D02*
G75*
G02*
X17330400Y-9502000I50000J0D01*
G01*
X17230400Y-9706000D02*
X17330400Y-9806000D01*
X17330400Y-9706000D02*
X17230400Y-9806000D01*
X17330400Y-9756000D02*
G75*
G02*
X17230400Y-9756000I-50000J0D01*
G01*
X17230400Y-9756000D02*
G75*
G02*
X17330400Y-9756000I50000J0D01*
G01*
X17230400Y-9960000D02*
X17330400Y-10060000D01*
X17330400Y-9960000D02*
X17230400Y-10060000D01*
X17330400Y-10010000D02*
G75*
G02*
X17230400Y-10010000I-50000J0D01*
G01*
X17230400Y-10010000D02*
G75*
G02*
X17330400Y-10010000I50000J0D01*
G01*
X17230400Y-10214000D02*
X17330400Y-10314000D01*
X17330400Y-10214000D02*
X17230400Y-10314000D01*
X17330400Y-10264000D02*
G75*
G02*
X17230400Y-10264000I-50000J0D01*
G01*
X17230400Y-10264000D02*
G75*
G02*
X17330400Y-10264000I50000J0D01*
G01*
X17230400Y-10468000D02*
X17330400Y-10568000D01*
X17330400Y-10468000D02*
X17230400Y-10568000D01*
X17330400Y-10518000D02*
G75*
G02*
X17230400Y-10518000I-50000J0D01*
G01*
X17230400Y-10518000D02*
G75*
G02*
X17330400Y-10518000I50000J0D01*
G01*
X17230400Y-10722000D02*
X17330400Y-10822000D01*
X17330400Y-10722000D02*
X17230400Y-10822000D01*
X17330400Y-10772000D02*
G75*
G02*
X17230400Y-10772000I-50000J0D01*
G01*
X17230400Y-10772000D02*
G75*
G02*
X17330400Y-10772000I50000J0D01*
G01*
X17230400Y-10976000D02*
X17330400Y-11076000D01*
X17330400Y-10976000D02*
X17230400Y-11076000D01*
X17330400Y-11026000D02*
G75*
G02*
X17230400Y-11026000I-50000J0D01*
G01*
X17230400Y-11026000D02*
G75*
G02*
X17330400Y-11026000I50000J0D01*
G01*
X17230400Y-11230000D02*
X17330400Y-11330000D01*
X17330400Y-11230000D02*
X17230400Y-11330000D01*
X17330400Y-11280000D02*
G75*
G02*
X17230400Y-11280000I-50000J0D01*
G01*
X17230400Y-11280000D02*
G75*
G02*
X17330400Y-11280000I50000J0D01*
G01*
X17230400Y-11484000D02*
X17330400Y-11584000D01*
X17330400Y-11484000D02*
X17230400Y-11584000D01*
X17330400Y-11534000D02*
G75*
G02*
X17230400Y-11534000I-50000J0D01*
G01*
X17230400Y-11534000D02*
G75*
G02*
X17330400Y-11534000I50000J0D01*
G01*
X17230400Y-11738000D02*
X17330400Y-11838000D01*
X17330400Y-11738000D02*
X17230400Y-11838000D01*
X17330400Y-11788000D02*
G75*
G02*
X17230400Y-11788000I-50000J0D01*
G01*
X17230400Y-11788000D02*
G75*
G02*
X17330400Y-11788000I50000J0D01*
G01*
X17251400Y-14394500D02*
X17351400Y-14494500D01*
X17351400Y-14394500D02*
X17251400Y-14494500D01*
X17351400Y-14444500D02*
G75*
G02*
X17251400Y-14444500I-50000J0D01*
G01*
X17251400Y-14444500D02*
G75*
G02*
X17351400Y-14444500I50000J0D01*
G01*
X17251400Y-14648500D02*
X17351400Y-14748500D01*
X17351400Y-14648500D02*
X17251400Y-14748500D01*
X17351400Y-14698500D02*
G75*
G02*
X17251400Y-14698500I-50000J0D01*
G01*
X17251400Y-14698500D02*
G75*
G02*
X17351400Y-14698500I50000J0D01*
G01*
X17484400Y-6912000D02*
X17584400Y-7012000D01*
X17584400Y-6912000D02*
X17484400Y-7012000D01*
X17584400Y-6962000D02*
G75*
G02*
X17484400Y-6962000I-50000J0D01*
G01*
X17484400Y-6962000D02*
G75*
G02*
X17584400Y-6962000I50000J0D01*
G01*
X17484400Y-7166000D02*
X17584400Y-7266000D01*
X17584400Y-7166000D02*
X17484400Y-7266000D01*
X17584400Y-7216000D02*
G75*
G02*
X17484400Y-7216000I-50000J0D01*
G01*
X17484400Y-7216000D02*
G75*
G02*
X17584400Y-7216000I50000J0D01*
G01*
X17484400Y-7420000D02*
X17584400Y-7520000D01*
X17584400Y-7420000D02*
X17484400Y-7520000D01*
X17584400Y-7470000D02*
G75*
G02*
X17484400Y-7470000I-50000J0D01*
G01*
X17484400Y-7470000D02*
G75*
G02*
X17584400Y-7470000I50000J0D01*
G01*
X17484400Y-7674000D02*
X17584400Y-7774000D01*
X17584400Y-7674000D02*
X17484400Y-7774000D01*
X17584400Y-7724000D02*
G75*
G02*
X17484400Y-7724000I-50000J0D01*
G01*
X17484400Y-7724000D02*
G75*
G02*
X17584400Y-7724000I50000J0D01*
G01*
X17484400Y-7928000D02*
X17584400Y-8028000D01*
X17584400Y-7928000D02*
X17484400Y-8028000D01*
X17584400Y-7978000D02*
G75*
G02*
X17484400Y-7978000I-50000J0D01*
G01*
X17484400Y-7978000D02*
G75*
G02*
X17584400Y-7978000I50000J0D01*
G01*
X17484400Y-8182000D02*
X17584400Y-8282000D01*
X17584400Y-8182000D02*
X17484400Y-8282000D01*
X17584400Y-8232000D02*
G75*
G02*
X17484400Y-8232000I-50000J0D01*
G01*
X17484400Y-8232000D02*
G75*
G02*
X17584400Y-8232000I50000J0D01*
G01*
X17484400Y-8436000D02*
X17584400Y-8536000D01*
X17584400Y-8436000D02*
X17484400Y-8536000D01*
X17584400Y-8486000D02*
G75*
G02*
X17484400Y-8486000I-50000J0D01*
G01*
X17484400Y-8486000D02*
G75*
G02*
X17584400Y-8486000I50000J0D01*
G01*
X17484400Y-8690000D02*
X17584400Y-8790000D01*
X17584400Y-8690000D02*
X17484400Y-8790000D01*
X17584400Y-8740000D02*
G75*
G02*
X17484400Y-8740000I-50000J0D01*
G01*
X17484400Y-8740000D02*
G75*
G02*
X17584400Y-8740000I50000J0D01*
G01*
X17484400Y-8944000D02*
X17584400Y-9044000D01*
X17584400Y-8944000D02*
X17484400Y-9044000D01*
X17584400Y-8994000D02*
G75*
G02*
X17484400Y-8994000I-50000J0D01*
G01*
X17484400Y-8994000D02*
G75*
G02*
X17584400Y-8994000I50000J0D01*
G01*
X17484400Y-9198000D02*
X17584400Y-9298000D01*
X17584400Y-9198000D02*
X17484400Y-9298000D01*
X17584400Y-9248000D02*
G75*
G02*
X17484400Y-9248000I-50000J0D01*
G01*
X17484400Y-9248000D02*
G75*
G02*
X17584400Y-9248000I50000J0D01*
G01*
X17484400Y-9452000D02*
X17584400Y-9552000D01*
X17584400Y-9452000D02*
X17484400Y-9552000D01*
X17584400Y-9502000D02*
G75*
G02*
X17484400Y-9502000I-50000J0D01*
G01*
X17484400Y-9502000D02*
G75*
G02*
X17584400Y-9502000I50000J0D01*
G01*
X17484400Y-9706000D02*
X17584400Y-9806000D01*
X17584400Y-9706000D02*
X17484400Y-9806000D01*
X17584400Y-9756000D02*
G75*
G02*
X17484400Y-9756000I-50000J0D01*
G01*
X17484400Y-9756000D02*
G75*
G02*
X17584400Y-9756000I50000J0D01*
G01*
X17484400Y-9960000D02*
X17584400Y-10060000D01*
X17584400Y-9960000D02*
X17484400Y-10060000D01*
X17584400Y-10010000D02*
G75*
G02*
X17484400Y-10010000I-50000J0D01*
G01*
X17484400Y-10010000D02*
G75*
G02*
X17584400Y-10010000I50000J0D01*
G01*
X17484400Y-10214000D02*
X17584400Y-10314000D01*
X17584400Y-10214000D02*
X17484400Y-10314000D01*
X17584400Y-10264000D02*
G75*
G02*
X17484400Y-10264000I-50000J0D01*
G01*
X17484400Y-10264000D02*
G75*
G02*
X17584400Y-10264000I50000J0D01*
G01*
X17484400Y-10468000D02*
X17584400Y-10568000D01*
X17584400Y-10468000D02*
X17484400Y-10568000D01*
X17584400Y-10518000D02*
G75*
G02*
X17484400Y-10518000I-50000J0D01*
G01*
X17484400Y-10518000D02*
G75*
G02*
X17584400Y-10518000I50000J0D01*
G01*
X17484400Y-10722000D02*
X17584400Y-10822000D01*
X17584400Y-10722000D02*
X17484400Y-10822000D01*
X17584400Y-10772000D02*
G75*
G02*
X17484400Y-10772000I-50000J0D01*
G01*
X17484400Y-10772000D02*
G75*
G02*
X17584400Y-10772000I50000J0D01*
G01*
X17484400Y-10976000D02*
X17584400Y-11076000D01*
X17584400Y-10976000D02*
X17484400Y-11076000D01*
X17584400Y-11026000D02*
G75*
G02*
X17484400Y-11026000I-50000J0D01*
G01*
X17484400Y-11026000D02*
G75*
G02*
X17584400Y-11026000I50000J0D01*
G01*
X17484400Y-11230000D02*
X17584400Y-11330000D01*
X17584400Y-11230000D02*
X17484400Y-11330000D01*
X17584400Y-11280000D02*
G75*
G02*
X17484400Y-11280000I-50000J0D01*
G01*
X17484400Y-11280000D02*
G75*
G02*
X17584400Y-11280000I50000J0D01*
G01*
X17484400Y-11484000D02*
X17584400Y-11584000D01*
X17584400Y-11484000D02*
X17484400Y-11584000D01*
X17584400Y-11534000D02*
G75*
G02*
X17484400Y-11534000I-50000J0D01*
G01*
X17484400Y-11534000D02*
G75*
G02*
X17584400Y-11534000I50000J0D01*
G01*
X17484400Y-11738000D02*
X17584400Y-11838000D01*
X17584400Y-11738000D02*
X17484400Y-11838000D01*
X17584400Y-11788000D02*
G75*
G02*
X17484400Y-11788000I-50000J0D01*
G01*
X17484400Y-11788000D02*
G75*
G02*
X17584400Y-11788000I50000J0D01*
G01*
X17505400Y-14394500D02*
X17605400Y-14494500D01*
X17605400Y-14394500D02*
X17505400Y-14494500D01*
X17605400Y-14444500D02*
G75*
G02*
X17505400Y-14444500I-50000J0D01*
G01*
X17505400Y-14444500D02*
G75*
G02*
X17605400Y-14444500I50000J0D01*
G01*
X17505400Y-14648500D02*
X17605400Y-14748500D01*
X17605400Y-14648500D02*
X17505400Y-14748500D01*
X17605400Y-14698500D02*
G75*
G02*
X17505400Y-14698500I-50000J0D01*
G01*
X17505400Y-14698500D02*
G75*
G02*
X17605400Y-14698500I50000J0D01*
G01*
D13*
X11052400Y-15034000D02*
X11182400Y-15164000D01*
X11182400Y-15034000D02*
X11052400Y-15164000D01*
X11117400Y-15034000D02*
X11117400Y-15164000D01*
X11052400Y-15099000D02*
X11182400Y-15099000D01*
X11752400Y-15034000D02*
X11882400Y-15164000D01*
X11882400Y-15034000D02*
X11752400Y-15164000D01*
X11817400Y-15034000D02*
X11817400Y-15164000D01*
X11752400Y-15099000D02*
X11882400Y-15099000D01*
D11*
X9017677Y-16050984D02*
X9017677Y-15850984D01*
X9017677Y-15850984D02*
X9065296Y-15850984D01*
X9065296Y-15850984D02*
X9093867Y-15860508D01*
X9093867Y-15860508D02*
X9112915Y-15879555D01*
X9112915Y-15879555D02*
X9122439Y-15898603D01*
X9122439Y-15898603D02*
X9131963Y-15936698D01*
X9131963Y-15936698D02*
X9131963Y-15965269D01*
X9131963Y-15965269D02*
X9122439Y-16003365D01*
X9122439Y-16003365D02*
X9112915Y-16022412D01*
X9112915Y-16022412D02*
X9093867Y-16041460D01*
X9093867Y-16041460D02*
X9065296Y-16050984D01*
X9065296Y-16050984D02*
X9017677Y-16050984D01*
X9217677Y-16050984D02*
X9217677Y-15917650D01*
X9217677Y-15955746D02*
X9227201Y-15936698D01*
X9227201Y-15936698D02*
X9236724Y-15927174D01*
X9236724Y-15927174D02*
X9255772Y-15917650D01*
X9255772Y-15917650D02*
X9274820Y-15917650D01*
X9341486Y-16050984D02*
X9341486Y-15917650D01*
X9341486Y-15850984D02*
X9331963Y-15860508D01*
X9331963Y-15860508D02*
X9341486Y-15870031D01*
X9341486Y-15870031D02*
X9351010Y-15860508D01*
X9351010Y-15860508D02*
X9341486Y-15850984D01*
X9341486Y-15850984D02*
X9341486Y-15870031D01*
X9465296Y-16050984D02*
X9446248Y-16041460D01*
X9446248Y-16041460D02*
X9436724Y-16022412D01*
X9436724Y-16022412D02*
X9436724Y-15850984D01*
X9570058Y-16050984D02*
X9551010Y-16041460D01*
X9551010Y-16041460D02*
X9541486Y-16022412D01*
X9541486Y-16022412D02*
X9541486Y-15850984D01*
X9798629Y-16050984D02*
X9798629Y-15850984D01*
X9798629Y-15850984D02*
X9865296Y-15993841D01*
X9865296Y-15993841D02*
X9931963Y-15850984D01*
X9931963Y-15850984D02*
X9931963Y-16050984D01*
X10112915Y-16050984D02*
X10112915Y-15946222D01*
X10112915Y-15946222D02*
X10103391Y-15927174D01*
X10103391Y-15927174D02*
X10084344Y-15917650D01*
X10084344Y-15917650D02*
X10046248Y-15917650D01*
X10046248Y-15917650D02*
X10027201Y-15927174D01*
X10112915Y-16041460D02*
X10093867Y-16050984D01*
X10093867Y-16050984D02*
X10046248Y-16050984D01*
X10046248Y-16050984D02*
X10027201Y-16041460D01*
X10027201Y-16041460D02*
X10017677Y-16022412D01*
X10017677Y-16022412D02*
X10017677Y-16003365D01*
X10017677Y-16003365D02*
X10027201Y-15984317D01*
X10027201Y-15984317D02*
X10046248Y-15974793D01*
X10046248Y-15974793D02*
X10093867Y-15974793D01*
X10093867Y-15974793D02*
X10112915Y-15965269D01*
X10208153Y-15917650D02*
X10208153Y-16117650D01*
X10208153Y-15927174D02*
X10227201Y-15917650D01*
X10227201Y-15917650D02*
X10265296Y-15917650D01*
X10265296Y-15917650D02*
X10284344Y-15927174D01*
X10284344Y-15927174D02*
X10293867Y-15936698D01*
X10293867Y-15936698D02*
X10303391Y-15955746D01*
X10303391Y-15955746D02*
X10303391Y-16012888D01*
X10303391Y-16012888D02*
X10293867Y-16031936D01*
X10293867Y-16031936D02*
X10284344Y-16041460D01*
X10284344Y-16041460D02*
X10265296Y-16050984D01*
X10265296Y-16050984D02*
X10227201Y-16050984D01*
X10227201Y-16050984D02*
X10208153Y-16041460D01*
X10389105Y-16031936D02*
X10398629Y-16041460D01*
X10398629Y-16041460D02*
X10389105Y-16050984D01*
X10389105Y-16050984D02*
X10379582Y-16041460D01*
X10379582Y-16041460D02*
X10389105Y-16031936D01*
X10389105Y-16031936D02*
X10389105Y-16050984D01*
X10389105Y-15927174D02*
X10398629Y-15936698D01*
X10398629Y-15936698D02*
X10389105Y-15946222D01*
X10389105Y-15946222D02*
X10379582Y-15936698D01*
X10379582Y-15936698D02*
X10389105Y-15927174D01*
X10389105Y-15927174D02*
X10389105Y-15946222D01*
D12*
X8736900Y-16369500D02*
X8756900Y-16389500D01*
X8756900Y-16369500D02*
X8736900Y-16389500D01*
D11*
X9055772Y-16270984D02*
X9074820Y-16270984D01*
X9074820Y-16270984D02*
X9093867Y-16280508D01*
X9093867Y-16280508D02*
X9103391Y-16290031D01*
X9103391Y-16290031D02*
X9112915Y-16309079D01*
X9112915Y-16309079D02*
X9122439Y-16347174D01*
X9122439Y-16347174D02*
X9122439Y-16394793D01*
X9122439Y-16394793D02*
X9112915Y-16432888D01*
X9112915Y-16432888D02*
X9103391Y-16451936D01*
X9103391Y-16451936D02*
X9093867Y-16461460D01*
X9093867Y-16461460D02*
X9074820Y-16470984D01*
X9074820Y-16470984D02*
X9055772Y-16470984D01*
X9055772Y-16470984D02*
X9036724Y-16461460D01*
X9036724Y-16461460D02*
X9027201Y-16451936D01*
X9027201Y-16451936D02*
X9017677Y-16432888D01*
X9017677Y-16432888D02*
X9008153Y-16394793D01*
X9008153Y-16394793D02*
X9008153Y-16347174D01*
X9008153Y-16347174D02*
X9017677Y-16309079D01*
X9017677Y-16309079D02*
X9027201Y-16290031D01*
X9027201Y-16290031D02*
X9036724Y-16280508D01*
X9036724Y-16280508D02*
X9055772Y-16270984D01*
X9208153Y-16451936D02*
X9217677Y-16461460D01*
X9217677Y-16461460D02*
X9208153Y-16470984D01*
X9208153Y-16470984D02*
X9198629Y-16461460D01*
X9198629Y-16461460D02*
X9208153Y-16451936D01*
X9208153Y-16451936D02*
X9208153Y-16470984D01*
X9293867Y-16290031D02*
X9303391Y-16280508D01*
X9303391Y-16280508D02*
X9322439Y-16270984D01*
X9322439Y-16270984D02*
X9370058Y-16270984D01*
X9370058Y-16270984D02*
X9389105Y-16280508D01*
X9389105Y-16280508D02*
X9398629Y-16290031D01*
X9398629Y-16290031D02*
X9408153Y-16309079D01*
X9408153Y-16309079D02*
X9408153Y-16328127D01*
X9408153Y-16328127D02*
X9398629Y-16356698D01*
X9398629Y-16356698D02*
X9284344Y-16470984D01*
X9284344Y-16470984D02*
X9408153Y-16470984D01*
X9531963Y-16270984D02*
X9551010Y-16270984D01*
X9551010Y-16270984D02*
X9570058Y-16280508D01*
X9570058Y-16280508D02*
X9579582Y-16290031D01*
X9579582Y-16290031D02*
X9589105Y-16309079D01*
X9589105Y-16309079D02*
X9598629Y-16347174D01*
X9598629Y-16347174D02*
X9598629Y-16394793D01*
X9598629Y-16394793D02*
X9589105Y-16432888D01*
X9589105Y-16432888D02*
X9579582Y-16451936D01*
X9579582Y-16451936D02*
X9570058Y-16461460D01*
X9570058Y-16461460D02*
X9551010Y-16470984D01*
X9551010Y-16470984D02*
X9531963Y-16470984D01*
X9531963Y-16470984D02*
X9512915Y-16461460D01*
X9512915Y-16461460D02*
X9503391Y-16451936D01*
X9503391Y-16451936D02*
X9493867Y-16432888D01*
X9493867Y-16432888D02*
X9484344Y-16394793D01*
X9484344Y-16394793D02*
X9484344Y-16347174D01*
X9484344Y-16347174D02*
X9493867Y-16309079D01*
X9493867Y-16309079D02*
X9503391Y-16290031D01*
X9503391Y-16290031D02*
X9512915Y-16280508D01*
X9512915Y-16280508D02*
X9531963Y-16270984D01*
X9722439Y-16270984D02*
X9741486Y-16270984D01*
X9741486Y-16270984D02*
X9760534Y-16280508D01*
X9760534Y-16280508D02*
X9770058Y-16290031D01*
X9770058Y-16290031D02*
X9779582Y-16309079D01*
X9779582Y-16309079D02*
X9789105Y-16347174D01*
X9789105Y-16347174D02*
X9789105Y-16394793D01*
X9789105Y-16394793D02*
X9779582Y-16432888D01*
X9779582Y-16432888D02*
X9770058Y-16451936D01*
X9770058Y-16451936D02*
X9760534Y-16461460D01*
X9760534Y-16461460D02*
X9741486Y-16470984D01*
X9741486Y-16470984D02*
X9722439Y-16470984D01*
X9722439Y-16470984D02*
X9703391Y-16461460D01*
X9703391Y-16461460D02*
X9693867Y-16451936D01*
X9693867Y-16451936D02*
X9684344Y-16432888D01*
X9684344Y-16432888D02*
X9674820Y-16394793D01*
X9674820Y-16394793D02*
X9674820Y-16347174D01*
X9674820Y-16347174D02*
X9684344Y-16309079D01*
X9684344Y-16309079D02*
X9693867Y-16290031D01*
X9693867Y-16290031D02*
X9703391Y-16280508D01*
X9703391Y-16280508D02*
X9722439Y-16270984D01*
X9874820Y-16470984D02*
X9874820Y-16337650D01*
X9874820Y-16356698D02*
X9884344Y-16347174D01*
X9884344Y-16347174D02*
X9903391Y-16337650D01*
X9903391Y-16337650D02*
X9931963Y-16337650D01*
X9931963Y-16337650D02*
X9951010Y-16347174D01*
X9951010Y-16347174D02*
X9960534Y-16366222D01*
X9960534Y-16366222D02*
X9960534Y-16470984D01*
X9960534Y-16366222D02*
X9970058Y-16347174D01*
X9970058Y-16347174D02*
X9989105Y-16337650D01*
X9989105Y-16337650D02*
X10017677Y-16337650D01*
X10017677Y-16337650D02*
X10036725Y-16347174D01*
X10036725Y-16347174D02*
X10046248Y-16366222D01*
X10046248Y-16366222D02*
X10046248Y-16470984D01*
X10141486Y-16470984D02*
X10141486Y-16337650D01*
X10141486Y-16356698D02*
X10151010Y-16347174D01*
X10151010Y-16347174D02*
X10170058Y-16337650D01*
X10170058Y-16337650D02*
X10198629Y-16337650D01*
X10198629Y-16337650D02*
X10217677Y-16347174D01*
X10217677Y-16347174D02*
X10227201Y-16366222D01*
X10227201Y-16366222D02*
X10227201Y-16470984D01*
X10227201Y-16366222D02*
X10236725Y-16347174D01*
X10236725Y-16347174D02*
X10255772Y-16337650D01*
X10255772Y-16337650D02*
X10284344Y-16337650D01*
X10284344Y-16337650D02*
X10303391Y-16347174D01*
X10303391Y-16347174D02*
X10312915Y-16366222D01*
X10312915Y-16366222D02*
X10312915Y-16470984D01*
X10703391Y-16261460D02*
X10531963Y-16518603D01*
X10960534Y-16270984D02*
X10979582Y-16270984D01*
X10979582Y-16270984D02*
X10998629Y-16280508D01*
X10998629Y-16280508D02*
X11008153Y-16290031D01*
X11008153Y-16290031D02*
X11017677Y-16309079D01*
X11017677Y-16309079D02*
X11027201Y-16347174D01*
X11027201Y-16347174D02*
X11027201Y-16394793D01*
X11027201Y-16394793D02*
X11017677Y-16432888D01*
X11017677Y-16432888D02*
X11008153Y-16451936D01*
X11008153Y-16451936D02*
X10998629Y-16461460D01*
X10998629Y-16461460D02*
X10979582Y-16470984D01*
X10979582Y-16470984D02*
X10960534Y-16470984D01*
X10960534Y-16470984D02*
X10941487Y-16461460D01*
X10941487Y-16461460D02*
X10931963Y-16451936D01*
X10931963Y-16451936D02*
X10922439Y-16432888D01*
X10922439Y-16432888D02*
X10912915Y-16394793D01*
X10912915Y-16394793D02*
X10912915Y-16347174D01*
X10912915Y-16347174D02*
X10922439Y-16309079D01*
X10922439Y-16309079D02*
X10931963Y-16290031D01*
X10931963Y-16290031D02*
X10941487Y-16280508D01*
X10941487Y-16280508D02*
X10960534Y-16270984D01*
X11112915Y-16451936D02*
X11122439Y-16461460D01*
X11122439Y-16461460D02*
X11112915Y-16470984D01*
X11112915Y-16470984D02*
X11103391Y-16461460D01*
X11103391Y-16461460D02*
X11112915Y-16451936D01*
X11112915Y-16451936D02*
X11112915Y-16470984D01*
X11246248Y-16270984D02*
X11265296Y-16270984D01*
X11265296Y-16270984D02*
X11284344Y-16280508D01*
X11284344Y-16280508D02*
X11293867Y-16290031D01*
X11293867Y-16290031D02*
X11303391Y-16309079D01*
X11303391Y-16309079D02*
X11312915Y-16347174D01*
X11312915Y-16347174D02*
X11312915Y-16394793D01*
X11312915Y-16394793D02*
X11303391Y-16432888D01*
X11303391Y-16432888D02*
X11293867Y-16451936D01*
X11293867Y-16451936D02*
X11284344Y-16461460D01*
X11284344Y-16461460D02*
X11265296Y-16470984D01*
X11265296Y-16470984D02*
X11246248Y-16470984D01*
X11246248Y-16470984D02*
X11227201Y-16461460D01*
X11227201Y-16461460D02*
X11217677Y-16451936D01*
X11217677Y-16451936D02*
X11208153Y-16432888D01*
X11208153Y-16432888D02*
X11198629Y-16394793D01*
X11198629Y-16394793D02*
X11198629Y-16347174D01*
X11198629Y-16347174D02*
X11208153Y-16309079D01*
X11208153Y-16309079D02*
X11217677Y-16290031D01*
X11217677Y-16290031D02*
X11227201Y-16280508D01*
X11227201Y-16280508D02*
X11246248Y-16270984D01*
X11436725Y-16270984D02*
X11455772Y-16270984D01*
X11455772Y-16270984D02*
X11474820Y-16280508D01*
X11474820Y-16280508D02*
X11484344Y-16290031D01*
X11484344Y-16290031D02*
X11493867Y-16309079D01*
X11493867Y-16309079D02*
X11503391Y-16347174D01*
X11503391Y-16347174D02*
X11503391Y-16394793D01*
X11503391Y-16394793D02*
X11493867Y-16432888D01*
X11493867Y-16432888D02*
X11484344Y-16451936D01*
X11484344Y-16451936D02*
X11474820Y-16461460D01*
X11474820Y-16461460D02*
X11455772Y-16470984D01*
X11455772Y-16470984D02*
X11436725Y-16470984D01*
X11436725Y-16470984D02*
X11417677Y-16461460D01*
X11417677Y-16461460D02*
X11408153Y-16451936D01*
X11408153Y-16451936D02*
X11398629Y-16432888D01*
X11398629Y-16432888D02*
X11389106Y-16394793D01*
X11389106Y-16394793D02*
X11389106Y-16347174D01*
X11389106Y-16347174D02*
X11398629Y-16309079D01*
X11398629Y-16309079D02*
X11408153Y-16290031D01*
X11408153Y-16290031D02*
X11417677Y-16280508D01*
X11417677Y-16280508D02*
X11436725Y-16270984D01*
X11570058Y-16270984D02*
X11703391Y-16270984D01*
X11703391Y-16270984D02*
X11617677Y-16470984D01*
X11789106Y-16470984D02*
X11827201Y-16470984D01*
X11827201Y-16470984D02*
X11846248Y-16461460D01*
X11846248Y-16461460D02*
X11855772Y-16451936D01*
X11855772Y-16451936D02*
X11874820Y-16423365D01*
X11874820Y-16423365D02*
X11884344Y-16385269D01*
X11884344Y-16385269D02*
X11884344Y-16309079D01*
X11884344Y-16309079D02*
X11874820Y-16290031D01*
X11874820Y-16290031D02*
X11865296Y-16280508D01*
X11865296Y-16280508D02*
X11846248Y-16270984D01*
X11846248Y-16270984D02*
X11808153Y-16270984D01*
X11808153Y-16270984D02*
X11789106Y-16280508D01*
X11789106Y-16280508D02*
X11779582Y-16290031D01*
X11779582Y-16290031D02*
X11770058Y-16309079D01*
X11770058Y-16309079D02*
X11770058Y-16356698D01*
X11770058Y-16356698D02*
X11779582Y-16375746D01*
X11779582Y-16375746D02*
X11789106Y-16385269D01*
X11789106Y-16385269D02*
X11808153Y-16394793D01*
X11808153Y-16394793D02*
X11846248Y-16394793D01*
X11846248Y-16394793D02*
X11865296Y-16385269D01*
X11865296Y-16385269D02*
X11874820Y-16375746D01*
X11874820Y-16375746D02*
X11884344Y-16356698D01*
X11960534Y-16270984D02*
X11960534Y-16309079D01*
X12036725Y-16270984D02*
X12036725Y-16309079D01*
X12331963Y-16547174D02*
X12322439Y-16537650D01*
X12322439Y-16537650D02*
X12303391Y-16509079D01*
X12303391Y-16509079D02*
X12293868Y-16490031D01*
X12293868Y-16490031D02*
X12284344Y-16461460D01*
X12284344Y-16461460D02*
X12274820Y-16413841D01*
X12274820Y-16413841D02*
X12274820Y-16375746D01*
X12274820Y-16375746D02*
X12284344Y-16328127D01*
X12284344Y-16328127D02*
X12293868Y-16299555D01*
X12293868Y-16299555D02*
X12303391Y-16280508D01*
X12303391Y-16280508D02*
X12322439Y-16251936D01*
X12322439Y-16251936D02*
X12331963Y-16242412D01*
X12512915Y-16470984D02*
X12398629Y-16470984D01*
X12455772Y-16470984D02*
X12455772Y-16270984D01*
X12455772Y-16270984D02*
X12436725Y-16299555D01*
X12436725Y-16299555D02*
X12417677Y-16318603D01*
X12417677Y-16318603D02*
X12398629Y-16328127D01*
X12589106Y-16290031D02*
X12598629Y-16280508D01*
X12598629Y-16280508D02*
X12617677Y-16270984D01*
X12617677Y-16270984D02*
X12665296Y-16270984D01*
X12665296Y-16270984D02*
X12684344Y-16280508D01*
X12684344Y-16280508D02*
X12693868Y-16290031D01*
X12693868Y-16290031D02*
X12703391Y-16309079D01*
X12703391Y-16309079D02*
X12703391Y-16328127D01*
X12703391Y-16328127D02*
X12693868Y-16356698D01*
X12693868Y-16356698D02*
X12579582Y-16470984D01*
X12579582Y-16470984D02*
X12703391Y-16470984D01*
X12941487Y-16470984D02*
X12941487Y-16270984D01*
X13027201Y-16470984D02*
X13027201Y-16366222D01*
X13027201Y-16366222D02*
X13017677Y-16347174D01*
X13017677Y-16347174D02*
X12998630Y-16337650D01*
X12998630Y-16337650D02*
X12970058Y-16337650D01*
X12970058Y-16337650D02*
X12951010Y-16347174D01*
X12951010Y-16347174D02*
X12941487Y-16356698D01*
X13151010Y-16470984D02*
X13131963Y-16461460D01*
X13131963Y-16461460D02*
X13122439Y-16451936D01*
X13122439Y-16451936D02*
X13112915Y-16432888D01*
X13112915Y-16432888D02*
X13112915Y-16375746D01*
X13112915Y-16375746D02*
X13122439Y-16356698D01*
X13122439Y-16356698D02*
X13131963Y-16347174D01*
X13131963Y-16347174D02*
X13151010Y-16337650D01*
X13151010Y-16337650D02*
X13179582Y-16337650D01*
X13179582Y-16337650D02*
X13198630Y-16347174D01*
X13198630Y-16347174D02*
X13208153Y-16356698D01*
X13208153Y-16356698D02*
X13217677Y-16375746D01*
X13217677Y-16375746D02*
X13217677Y-16432888D01*
X13217677Y-16432888D02*
X13208153Y-16451936D01*
X13208153Y-16451936D02*
X13198630Y-16461460D01*
X13198630Y-16461460D02*
X13179582Y-16470984D01*
X13179582Y-16470984D02*
X13151010Y-16470984D01*
X13331963Y-16470984D02*
X13312915Y-16461460D01*
X13312915Y-16461460D02*
X13303391Y-16442412D01*
X13303391Y-16442412D02*
X13303391Y-16270984D01*
X13484344Y-16461460D02*
X13465296Y-16470984D01*
X13465296Y-16470984D02*
X13427201Y-16470984D01*
X13427201Y-16470984D02*
X13408153Y-16461460D01*
X13408153Y-16461460D02*
X13398630Y-16442412D01*
X13398630Y-16442412D02*
X13398630Y-16366222D01*
X13398630Y-16366222D02*
X13408153Y-16347174D01*
X13408153Y-16347174D02*
X13427201Y-16337650D01*
X13427201Y-16337650D02*
X13465296Y-16337650D01*
X13465296Y-16337650D02*
X13484344Y-16347174D01*
X13484344Y-16347174D02*
X13493868Y-16366222D01*
X13493868Y-16366222D02*
X13493868Y-16385269D01*
X13493868Y-16385269D02*
X13398630Y-16404317D01*
X13570058Y-16461460D02*
X13589106Y-16470984D01*
X13589106Y-16470984D02*
X13627201Y-16470984D01*
X13627201Y-16470984D02*
X13646249Y-16461460D01*
X13646249Y-16461460D02*
X13655772Y-16442412D01*
X13655772Y-16442412D02*
X13655772Y-16432888D01*
X13655772Y-16432888D02*
X13646249Y-16413841D01*
X13646249Y-16413841D02*
X13627201Y-16404317D01*
X13627201Y-16404317D02*
X13598630Y-16404317D01*
X13598630Y-16404317D02*
X13579582Y-16394793D01*
X13579582Y-16394793D02*
X13570058Y-16375746D01*
X13570058Y-16375746D02*
X13570058Y-16366222D01*
X13570058Y-16366222D02*
X13579582Y-16347174D01*
X13579582Y-16347174D02*
X13598630Y-16337650D01*
X13598630Y-16337650D02*
X13627201Y-16337650D01*
X13627201Y-16337650D02*
X13646249Y-16347174D01*
X13722439Y-16547174D02*
X13731963Y-16537650D01*
X13731963Y-16537650D02*
X13751011Y-16509079D01*
X13751011Y-16509079D02*
X13760534Y-16490031D01*
X13760534Y-16490031D02*
X13770058Y-16461460D01*
X13770058Y-16461460D02*
X13779582Y-16413841D01*
X13779582Y-16413841D02*
X13779582Y-16375746D01*
X13779582Y-16375746D02*
X13770058Y-16328127D01*
X13770058Y-16328127D02*
X13760534Y-16299555D01*
X13760534Y-16299555D02*
X13751011Y-16280508D01*
X13751011Y-16280508D02*
X13731963Y-16251936D01*
X13731963Y-16251936D02*
X13722439Y-16242412D01*
D12*
X8756900Y-16643500D02*
G75*
G02*
X8726900Y-16643500I-15000J0D01*
G01*
X8726900Y-16643500D02*
G75*
G02*
X8756900Y-16643500I15000J0D01*
G01*
D11*
X9055772Y-16534984D02*
X9074820Y-16534984D01*
X9074820Y-16534984D02*
X9093867Y-16544508D01*
X9093867Y-16544508D02*
X9103391Y-16554031D01*
X9103391Y-16554031D02*
X9112915Y-16573079D01*
X9112915Y-16573079D02*
X9122439Y-16611174D01*
X9122439Y-16611174D02*
X9122439Y-16658793D01*
X9122439Y-16658793D02*
X9112915Y-16696888D01*
X9112915Y-16696888D02*
X9103391Y-16715936D01*
X9103391Y-16715936D02*
X9093867Y-16725460D01*
X9093867Y-16725460D02*
X9074820Y-16734984D01*
X9074820Y-16734984D02*
X9055772Y-16734984D01*
X9055772Y-16734984D02*
X9036724Y-16725460D01*
X9036724Y-16725460D02*
X9027201Y-16715936D01*
X9027201Y-16715936D02*
X9017677Y-16696888D01*
X9017677Y-16696888D02*
X9008153Y-16658793D01*
X9008153Y-16658793D02*
X9008153Y-16611174D01*
X9008153Y-16611174D02*
X9017677Y-16573079D01*
X9017677Y-16573079D02*
X9027201Y-16554031D01*
X9027201Y-16554031D02*
X9036724Y-16544508D01*
X9036724Y-16544508D02*
X9055772Y-16534984D01*
X9208153Y-16715936D02*
X9217677Y-16725460D01*
X9217677Y-16725460D02*
X9208153Y-16734984D01*
X9208153Y-16734984D02*
X9198629Y-16725460D01*
X9198629Y-16725460D02*
X9208153Y-16715936D01*
X9208153Y-16715936D02*
X9208153Y-16734984D01*
X9284344Y-16534984D02*
X9408153Y-16534984D01*
X9408153Y-16534984D02*
X9341486Y-16611174D01*
X9341486Y-16611174D02*
X9370058Y-16611174D01*
X9370058Y-16611174D02*
X9389105Y-16620698D01*
X9389105Y-16620698D02*
X9398629Y-16630222D01*
X9398629Y-16630222D02*
X9408153Y-16649269D01*
X9408153Y-16649269D02*
X9408153Y-16696888D01*
X9408153Y-16696888D02*
X9398629Y-16715936D01*
X9398629Y-16715936D02*
X9389105Y-16725460D01*
X9389105Y-16725460D02*
X9370058Y-16734984D01*
X9370058Y-16734984D02*
X9312915Y-16734984D01*
X9312915Y-16734984D02*
X9293867Y-16725460D01*
X9293867Y-16725460D02*
X9284344Y-16715936D01*
X9531963Y-16534984D02*
X9551010Y-16534984D01*
X9551010Y-16534984D02*
X9570058Y-16544508D01*
X9570058Y-16544508D02*
X9579582Y-16554031D01*
X9579582Y-16554031D02*
X9589105Y-16573079D01*
X9589105Y-16573079D02*
X9598629Y-16611174D01*
X9598629Y-16611174D02*
X9598629Y-16658793D01*
X9598629Y-16658793D02*
X9589105Y-16696888D01*
X9589105Y-16696888D02*
X9579582Y-16715936D01*
X9579582Y-16715936D02*
X9570058Y-16725460D01*
X9570058Y-16725460D02*
X9551010Y-16734984D01*
X9551010Y-16734984D02*
X9531963Y-16734984D01*
X9531963Y-16734984D02*
X9512915Y-16725460D01*
X9512915Y-16725460D02*
X9503391Y-16715936D01*
X9503391Y-16715936D02*
X9493867Y-16696888D01*
X9493867Y-16696888D02*
X9484344Y-16658793D01*
X9484344Y-16658793D02*
X9484344Y-16611174D01*
X9484344Y-16611174D02*
X9493867Y-16573079D01*
X9493867Y-16573079D02*
X9503391Y-16554031D01*
X9503391Y-16554031D02*
X9512915Y-16544508D01*
X9512915Y-16544508D02*
X9531963Y-16534984D01*
X9722439Y-16534984D02*
X9741486Y-16534984D01*
X9741486Y-16534984D02*
X9760534Y-16544508D01*
X9760534Y-16544508D02*
X9770058Y-16554031D01*
X9770058Y-16554031D02*
X9779582Y-16573079D01*
X9779582Y-16573079D02*
X9789105Y-16611174D01*
X9789105Y-16611174D02*
X9789105Y-16658793D01*
X9789105Y-16658793D02*
X9779582Y-16696888D01*
X9779582Y-16696888D02*
X9770058Y-16715936D01*
X9770058Y-16715936D02*
X9760534Y-16725460D01*
X9760534Y-16725460D02*
X9741486Y-16734984D01*
X9741486Y-16734984D02*
X9722439Y-16734984D01*
X9722439Y-16734984D02*
X9703391Y-16725460D01*
X9703391Y-16725460D02*
X9693867Y-16715936D01*
X9693867Y-16715936D02*
X9684344Y-16696888D01*
X9684344Y-16696888D02*
X9674820Y-16658793D01*
X9674820Y-16658793D02*
X9674820Y-16611174D01*
X9674820Y-16611174D02*
X9684344Y-16573079D01*
X9684344Y-16573079D02*
X9693867Y-16554031D01*
X9693867Y-16554031D02*
X9703391Y-16544508D01*
X9703391Y-16544508D02*
X9722439Y-16534984D01*
X9874820Y-16734984D02*
X9874820Y-16601650D01*
X9874820Y-16620698D02*
X9884344Y-16611174D01*
X9884344Y-16611174D02*
X9903391Y-16601650D01*
X9903391Y-16601650D02*
X9931963Y-16601650D01*
X9931963Y-16601650D02*
X9951010Y-16611174D01*
X9951010Y-16611174D02*
X9960534Y-16630222D01*
X9960534Y-16630222D02*
X9960534Y-16734984D01*
X9960534Y-16630222D02*
X9970058Y-16611174D01*
X9970058Y-16611174D02*
X9989105Y-16601650D01*
X9989105Y-16601650D02*
X10017677Y-16601650D01*
X10017677Y-16601650D02*
X10036725Y-16611174D01*
X10036725Y-16611174D02*
X10046248Y-16630222D01*
X10046248Y-16630222D02*
X10046248Y-16734984D01*
X10141486Y-16734984D02*
X10141486Y-16601650D01*
X10141486Y-16620698D02*
X10151010Y-16611174D01*
X10151010Y-16611174D02*
X10170058Y-16601650D01*
X10170058Y-16601650D02*
X10198629Y-16601650D01*
X10198629Y-16601650D02*
X10217677Y-16611174D01*
X10217677Y-16611174D02*
X10227201Y-16630222D01*
X10227201Y-16630222D02*
X10227201Y-16734984D01*
X10227201Y-16630222D02*
X10236725Y-16611174D01*
X10236725Y-16611174D02*
X10255772Y-16601650D01*
X10255772Y-16601650D02*
X10284344Y-16601650D01*
X10284344Y-16601650D02*
X10303391Y-16611174D01*
X10303391Y-16611174D02*
X10312915Y-16630222D01*
X10312915Y-16630222D02*
X10312915Y-16734984D01*
X10703391Y-16525460D02*
X10531963Y-16782603D01*
X10960534Y-16534984D02*
X10979582Y-16534984D01*
X10979582Y-16534984D02*
X10998629Y-16544508D01*
X10998629Y-16544508D02*
X11008153Y-16554031D01*
X11008153Y-16554031D02*
X11017677Y-16573079D01*
X11017677Y-16573079D02*
X11027201Y-16611174D01*
X11027201Y-16611174D02*
X11027201Y-16658793D01*
X11027201Y-16658793D02*
X11017677Y-16696888D01*
X11017677Y-16696888D02*
X11008153Y-16715936D01*
X11008153Y-16715936D02*
X10998629Y-16725460D01*
X10998629Y-16725460D02*
X10979582Y-16734984D01*
X10979582Y-16734984D02*
X10960534Y-16734984D01*
X10960534Y-16734984D02*
X10941487Y-16725460D01*
X10941487Y-16725460D02*
X10931963Y-16715936D01*
X10931963Y-16715936D02*
X10922439Y-16696888D01*
X10922439Y-16696888D02*
X10912915Y-16658793D01*
X10912915Y-16658793D02*
X10912915Y-16611174D01*
X10912915Y-16611174D02*
X10922439Y-16573079D01*
X10922439Y-16573079D02*
X10931963Y-16554031D01*
X10931963Y-16554031D02*
X10941487Y-16544508D01*
X10941487Y-16544508D02*
X10960534Y-16534984D01*
X11112915Y-16715936D02*
X11122439Y-16725460D01*
X11122439Y-16725460D02*
X11112915Y-16734984D01*
X11112915Y-16734984D02*
X11103391Y-16725460D01*
X11103391Y-16725460D02*
X11112915Y-16715936D01*
X11112915Y-16715936D02*
X11112915Y-16734984D01*
X11246248Y-16534984D02*
X11265296Y-16534984D01*
X11265296Y-16534984D02*
X11284344Y-16544508D01*
X11284344Y-16544508D02*
X11293867Y-16554031D01*
X11293867Y-16554031D02*
X11303391Y-16573079D01*
X11303391Y-16573079D02*
X11312915Y-16611174D01*
X11312915Y-16611174D02*
X11312915Y-16658793D01*
X11312915Y-16658793D02*
X11303391Y-16696888D01*
X11303391Y-16696888D02*
X11293867Y-16715936D01*
X11293867Y-16715936D02*
X11284344Y-16725460D01*
X11284344Y-16725460D02*
X11265296Y-16734984D01*
X11265296Y-16734984D02*
X11246248Y-16734984D01*
X11246248Y-16734984D02*
X11227201Y-16725460D01*
X11227201Y-16725460D02*
X11217677Y-16715936D01*
X11217677Y-16715936D02*
X11208153Y-16696888D01*
X11208153Y-16696888D02*
X11198629Y-16658793D01*
X11198629Y-16658793D02*
X11198629Y-16611174D01*
X11198629Y-16611174D02*
X11208153Y-16573079D01*
X11208153Y-16573079D02*
X11217677Y-16554031D01*
X11217677Y-16554031D02*
X11227201Y-16544508D01*
X11227201Y-16544508D02*
X11246248Y-16534984D01*
X11503391Y-16734984D02*
X11389106Y-16734984D01*
X11446248Y-16734984D02*
X11446248Y-16534984D01*
X11446248Y-16534984D02*
X11427201Y-16563555D01*
X11427201Y-16563555D02*
X11408153Y-16582603D01*
X11408153Y-16582603D02*
X11389106Y-16592127D01*
X11693867Y-16734984D02*
X11579582Y-16734984D01*
X11636725Y-16734984D02*
X11636725Y-16534984D01*
X11636725Y-16534984D02*
X11617677Y-16563555D01*
X11617677Y-16563555D02*
X11598629Y-16582603D01*
X11598629Y-16582603D02*
X11579582Y-16592127D01*
X11808153Y-16620698D02*
X11789106Y-16611174D01*
X11789106Y-16611174D02*
X11779582Y-16601650D01*
X11779582Y-16601650D02*
X11770058Y-16582603D01*
X11770058Y-16582603D02*
X11770058Y-16573079D01*
X11770058Y-16573079D02*
X11779582Y-16554031D01*
X11779582Y-16554031D02*
X11789106Y-16544508D01*
X11789106Y-16544508D02*
X11808153Y-16534984D01*
X11808153Y-16534984D02*
X11846248Y-16534984D01*
X11846248Y-16534984D02*
X11865296Y-16544508D01*
X11865296Y-16544508D02*
X11874820Y-16554031D01*
X11874820Y-16554031D02*
X11884344Y-16573079D01*
X11884344Y-16573079D02*
X11884344Y-16582603D01*
X11884344Y-16582603D02*
X11874820Y-16601650D01*
X11874820Y-16601650D02*
X11865296Y-16611174D01*
X11865296Y-16611174D02*
X11846248Y-16620698D01*
X11846248Y-16620698D02*
X11808153Y-16620698D01*
X11808153Y-16620698D02*
X11789106Y-16630222D01*
X11789106Y-16630222D02*
X11779582Y-16639746D01*
X11779582Y-16639746D02*
X11770058Y-16658793D01*
X11770058Y-16658793D02*
X11770058Y-16696888D01*
X11770058Y-16696888D02*
X11779582Y-16715936D01*
X11779582Y-16715936D02*
X11789106Y-16725460D01*
X11789106Y-16725460D02*
X11808153Y-16734984D01*
X11808153Y-16734984D02*
X11846248Y-16734984D01*
X11846248Y-16734984D02*
X11865296Y-16725460D01*
X11865296Y-16725460D02*
X11874820Y-16715936D01*
X11874820Y-16715936D02*
X11884344Y-16696888D01*
X11884344Y-16696888D02*
X11884344Y-16658793D01*
X11884344Y-16658793D02*
X11874820Y-16639746D01*
X11874820Y-16639746D02*
X11865296Y-16630222D01*
X11865296Y-16630222D02*
X11846248Y-16620698D01*
X11960534Y-16534984D02*
X11960534Y-16573079D01*
X12036725Y-16534984D02*
X12036725Y-16573079D01*
X12331963Y-16811174D02*
X12322439Y-16801650D01*
X12322439Y-16801650D02*
X12303391Y-16773079D01*
X12303391Y-16773079D02*
X12293868Y-16754031D01*
X12293868Y-16754031D02*
X12284344Y-16725460D01*
X12284344Y-16725460D02*
X12274820Y-16677841D01*
X12274820Y-16677841D02*
X12274820Y-16639746D01*
X12274820Y-16639746D02*
X12284344Y-16592127D01*
X12284344Y-16592127D02*
X12293868Y-16563555D01*
X12293868Y-16563555D02*
X12303391Y-16544508D01*
X12303391Y-16544508D02*
X12322439Y-16515936D01*
X12322439Y-16515936D02*
X12331963Y-16506412D01*
X12398629Y-16554031D02*
X12408153Y-16544508D01*
X12408153Y-16544508D02*
X12427201Y-16534984D01*
X12427201Y-16534984D02*
X12474820Y-16534984D01*
X12474820Y-16534984D02*
X12493868Y-16544508D01*
X12493868Y-16544508D02*
X12503391Y-16554031D01*
X12503391Y-16554031D02*
X12512915Y-16573079D01*
X12512915Y-16573079D02*
X12512915Y-16592127D01*
X12512915Y-16592127D02*
X12503391Y-16620698D01*
X12503391Y-16620698D02*
X12389106Y-16734984D01*
X12389106Y-16734984D02*
X12512915Y-16734984D01*
X12693868Y-16534984D02*
X12598629Y-16534984D01*
X12598629Y-16534984D02*
X12589106Y-16630222D01*
X12589106Y-16630222D02*
X12598629Y-16620698D01*
X12598629Y-16620698D02*
X12617677Y-16611174D01*
X12617677Y-16611174D02*
X12665296Y-16611174D01*
X12665296Y-16611174D02*
X12684344Y-16620698D01*
X12684344Y-16620698D02*
X12693868Y-16630222D01*
X12693868Y-16630222D02*
X12703391Y-16649269D01*
X12703391Y-16649269D02*
X12703391Y-16696888D01*
X12703391Y-16696888D02*
X12693868Y-16715936D01*
X12693868Y-16715936D02*
X12684344Y-16725460D01*
X12684344Y-16725460D02*
X12665296Y-16734984D01*
X12665296Y-16734984D02*
X12617677Y-16734984D01*
X12617677Y-16734984D02*
X12598629Y-16725460D01*
X12598629Y-16725460D02*
X12589106Y-16715936D01*
X12874820Y-16601650D02*
X12874820Y-16734984D01*
X12827201Y-16525460D02*
X12779582Y-16668317D01*
X12779582Y-16668317D02*
X12903391Y-16668317D01*
X13131963Y-16734984D02*
X13131963Y-16534984D01*
X13217677Y-16734984D02*
X13217677Y-16630222D01*
X13217677Y-16630222D02*
X13208153Y-16611174D01*
X13208153Y-16611174D02*
X13189106Y-16601650D01*
X13189106Y-16601650D02*
X13160534Y-16601650D01*
X13160534Y-16601650D02*
X13141487Y-16611174D01*
X13141487Y-16611174D02*
X13131963Y-16620698D01*
X13341487Y-16734984D02*
X13322439Y-16725460D01*
X13322439Y-16725460D02*
X13312915Y-16715936D01*
X13312915Y-16715936D02*
X13303391Y-16696888D01*
X13303391Y-16696888D02*
X13303391Y-16639746D01*
X13303391Y-16639746D02*
X13312915Y-16620698D01*
X13312915Y-16620698D02*
X13322439Y-16611174D01*
X13322439Y-16611174D02*
X13341487Y-16601650D01*
X13341487Y-16601650D02*
X13370058Y-16601650D01*
X13370058Y-16601650D02*
X13389106Y-16611174D01*
X13389106Y-16611174D02*
X13398630Y-16620698D01*
X13398630Y-16620698D02*
X13408153Y-16639746D01*
X13408153Y-16639746D02*
X13408153Y-16696888D01*
X13408153Y-16696888D02*
X13398630Y-16715936D01*
X13398630Y-16715936D02*
X13389106Y-16725460D01*
X13389106Y-16725460D02*
X13370058Y-16734984D01*
X13370058Y-16734984D02*
X13341487Y-16734984D01*
X13522439Y-16734984D02*
X13503391Y-16725460D01*
X13503391Y-16725460D02*
X13493868Y-16706412D01*
X13493868Y-16706412D02*
X13493868Y-16534984D01*
X13674820Y-16725460D02*
X13655772Y-16734984D01*
X13655772Y-16734984D02*
X13617677Y-16734984D01*
X13617677Y-16734984D02*
X13598630Y-16725460D01*
X13598630Y-16725460D02*
X13589106Y-16706412D01*
X13589106Y-16706412D02*
X13589106Y-16630222D01*
X13589106Y-16630222D02*
X13598630Y-16611174D01*
X13598630Y-16611174D02*
X13617677Y-16601650D01*
X13617677Y-16601650D02*
X13655772Y-16601650D01*
X13655772Y-16601650D02*
X13674820Y-16611174D01*
X13674820Y-16611174D02*
X13684344Y-16630222D01*
X13684344Y-16630222D02*
X13684344Y-16649269D01*
X13684344Y-16649269D02*
X13589106Y-16668317D01*
X13760534Y-16725460D02*
X13779582Y-16734984D01*
X13779582Y-16734984D02*
X13817677Y-16734984D01*
X13817677Y-16734984D02*
X13836725Y-16725460D01*
X13836725Y-16725460D02*
X13846249Y-16706412D01*
X13846249Y-16706412D02*
X13846249Y-16696888D01*
X13846249Y-16696888D02*
X13836725Y-16677841D01*
X13836725Y-16677841D02*
X13817677Y-16668317D01*
X13817677Y-16668317D02*
X13789106Y-16668317D01*
X13789106Y-16668317D02*
X13770058Y-16658793D01*
X13770058Y-16658793D02*
X13760534Y-16639746D01*
X13760534Y-16639746D02*
X13760534Y-16630222D01*
X13760534Y-16630222D02*
X13770058Y-16611174D01*
X13770058Y-16611174D02*
X13789106Y-16601650D01*
X13789106Y-16601650D02*
X13817677Y-16601650D01*
X13817677Y-16601650D02*
X13836725Y-16611174D01*
X13912915Y-16811174D02*
X13922439Y-16801650D01*
X13922439Y-16801650D02*
X13941487Y-16773079D01*
X13941487Y-16773079D02*
X13951011Y-16754031D01*
X13951011Y-16754031D02*
X13960534Y-16725460D01*
X13960534Y-16725460D02*
X13970058Y-16677841D01*
X13970058Y-16677841D02*
X13970058Y-16639746D01*
X13970058Y-16639746D02*
X13960534Y-16592127D01*
X13960534Y-16592127D02*
X13951011Y-16563555D01*
X13951011Y-16563555D02*
X13941487Y-16544508D01*
X13941487Y-16544508D02*
X13922439Y-16515936D01*
X13922439Y-16515936D02*
X13912915Y-16506412D01*
D12*
X8731900Y-16882500D02*
X8731900Y-16932500D01*
X8706900Y-16907500D02*
X8756900Y-16907500D01*
D11*
X9055772Y-16798984D02*
X9074820Y-16798984D01*
X9074820Y-16798984D02*
X9093867Y-16808508D01*
X9093867Y-16808508D02*
X9103391Y-16818031D01*
X9103391Y-16818031D02*
X9112915Y-16837079D01*
X9112915Y-16837079D02*
X9122439Y-16875174D01*
X9122439Y-16875174D02*
X9122439Y-16922793D01*
X9122439Y-16922793D02*
X9112915Y-16960889D01*
X9112915Y-16960889D02*
X9103391Y-16979936D01*
X9103391Y-16979936D02*
X9093867Y-16989460D01*
X9093867Y-16989460D02*
X9074820Y-16998984D01*
X9074820Y-16998984D02*
X9055772Y-16998984D01*
X9055772Y-16998984D02*
X9036724Y-16989460D01*
X9036724Y-16989460D02*
X9027201Y-16979936D01*
X9027201Y-16979936D02*
X9017677Y-16960889D01*
X9017677Y-16960889D02*
X9008153Y-16922793D01*
X9008153Y-16922793D02*
X9008153Y-16875174D01*
X9008153Y-16875174D02*
X9017677Y-16837079D01*
X9017677Y-16837079D02*
X9027201Y-16818031D01*
X9027201Y-16818031D02*
X9036724Y-16808508D01*
X9036724Y-16808508D02*
X9055772Y-16798984D01*
X9208153Y-16979936D02*
X9217677Y-16989460D01*
X9217677Y-16989460D02*
X9208153Y-16998984D01*
X9208153Y-16998984D02*
X9198629Y-16989460D01*
X9198629Y-16989460D02*
X9208153Y-16979936D01*
X9208153Y-16979936D02*
X9208153Y-16998984D01*
X9398629Y-16798984D02*
X9303391Y-16798984D01*
X9303391Y-16798984D02*
X9293867Y-16894222D01*
X9293867Y-16894222D02*
X9303391Y-16884698D01*
X9303391Y-16884698D02*
X9322439Y-16875174D01*
X9322439Y-16875174D02*
X9370058Y-16875174D01*
X9370058Y-16875174D02*
X9389105Y-16884698D01*
X9389105Y-16884698D02*
X9398629Y-16894222D01*
X9398629Y-16894222D02*
X9408153Y-16913270D01*
X9408153Y-16913270D02*
X9408153Y-16960889D01*
X9408153Y-16960889D02*
X9398629Y-16979936D01*
X9398629Y-16979936D02*
X9389105Y-16989460D01*
X9389105Y-16989460D02*
X9370058Y-16998984D01*
X9370058Y-16998984D02*
X9322439Y-16998984D01*
X9322439Y-16998984D02*
X9303391Y-16989460D01*
X9303391Y-16989460D02*
X9293867Y-16979936D01*
X9531963Y-16798984D02*
X9551010Y-16798984D01*
X9551010Y-16798984D02*
X9570058Y-16808508D01*
X9570058Y-16808508D02*
X9579582Y-16818031D01*
X9579582Y-16818031D02*
X9589105Y-16837079D01*
X9589105Y-16837079D02*
X9598629Y-16875174D01*
X9598629Y-16875174D02*
X9598629Y-16922793D01*
X9598629Y-16922793D02*
X9589105Y-16960889D01*
X9589105Y-16960889D02*
X9579582Y-16979936D01*
X9579582Y-16979936D02*
X9570058Y-16989460D01*
X9570058Y-16989460D02*
X9551010Y-16998984D01*
X9551010Y-16998984D02*
X9531963Y-16998984D01*
X9531963Y-16998984D02*
X9512915Y-16989460D01*
X9512915Y-16989460D02*
X9503391Y-16979936D01*
X9503391Y-16979936D02*
X9493867Y-16960889D01*
X9493867Y-16960889D02*
X9484344Y-16922793D01*
X9484344Y-16922793D02*
X9484344Y-16875174D01*
X9484344Y-16875174D02*
X9493867Y-16837079D01*
X9493867Y-16837079D02*
X9503391Y-16818031D01*
X9503391Y-16818031D02*
X9512915Y-16808508D01*
X9512915Y-16808508D02*
X9531963Y-16798984D01*
X9722439Y-16798984D02*
X9741486Y-16798984D01*
X9741486Y-16798984D02*
X9760534Y-16808508D01*
X9760534Y-16808508D02*
X9770058Y-16818031D01*
X9770058Y-16818031D02*
X9779582Y-16837079D01*
X9779582Y-16837079D02*
X9789105Y-16875174D01*
X9789105Y-16875174D02*
X9789105Y-16922793D01*
X9789105Y-16922793D02*
X9779582Y-16960889D01*
X9779582Y-16960889D02*
X9770058Y-16979936D01*
X9770058Y-16979936D02*
X9760534Y-16989460D01*
X9760534Y-16989460D02*
X9741486Y-16998984D01*
X9741486Y-16998984D02*
X9722439Y-16998984D01*
X9722439Y-16998984D02*
X9703391Y-16989460D01*
X9703391Y-16989460D02*
X9693867Y-16979936D01*
X9693867Y-16979936D02*
X9684344Y-16960889D01*
X9684344Y-16960889D02*
X9674820Y-16922793D01*
X9674820Y-16922793D02*
X9674820Y-16875174D01*
X9674820Y-16875174D02*
X9684344Y-16837079D01*
X9684344Y-16837079D02*
X9693867Y-16818031D01*
X9693867Y-16818031D02*
X9703391Y-16808508D01*
X9703391Y-16808508D02*
X9722439Y-16798984D01*
X9874820Y-16998984D02*
X9874820Y-16865650D01*
X9874820Y-16884698D02*
X9884344Y-16875174D01*
X9884344Y-16875174D02*
X9903391Y-16865650D01*
X9903391Y-16865650D02*
X9931963Y-16865650D01*
X9931963Y-16865650D02*
X9951010Y-16875174D01*
X9951010Y-16875174D02*
X9960534Y-16894222D01*
X9960534Y-16894222D02*
X9960534Y-16998984D01*
X9960534Y-16894222D02*
X9970058Y-16875174D01*
X9970058Y-16875174D02*
X9989105Y-16865650D01*
X9989105Y-16865650D02*
X10017677Y-16865650D01*
X10017677Y-16865650D02*
X10036725Y-16875174D01*
X10036725Y-16875174D02*
X10046248Y-16894222D01*
X10046248Y-16894222D02*
X10046248Y-16998984D01*
X10141486Y-16998984D02*
X10141486Y-16865650D01*
X10141486Y-16884698D02*
X10151010Y-16875174D01*
X10151010Y-16875174D02*
X10170058Y-16865650D01*
X10170058Y-16865650D02*
X10198629Y-16865650D01*
X10198629Y-16865650D02*
X10217677Y-16875174D01*
X10217677Y-16875174D02*
X10227201Y-16894222D01*
X10227201Y-16894222D02*
X10227201Y-16998984D01*
X10227201Y-16894222D02*
X10236725Y-16875174D01*
X10236725Y-16875174D02*
X10255772Y-16865650D01*
X10255772Y-16865650D02*
X10284344Y-16865650D01*
X10284344Y-16865650D02*
X10303391Y-16875174D01*
X10303391Y-16875174D02*
X10312915Y-16894222D01*
X10312915Y-16894222D02*
X10312915Y-16998984D01*
X10703391Y-16789460D02*
X10531963Y-17046603D01*
X10960534Y-16798984D02*
X10979582Y-16798984D01*
X10979582Y-16798984D02*
X10998629Y-16808508D01*
X10998629Y-16808508D02*
X11008153Y-16818031D01*
X11008153Y-16818031D02*
X11017677Y-16837079D01*
X11017677Y-16837079D02*
X11027201Y-16875174D01*
X11027201Y-16875174D02*
X11027201Y-16922793D01*
X11027201Y-16922793D02*
X11017677Y-16960889D01*
X11017677Y-16960889D02*
X11008153Y-16979936D01*
X11008153Y-16979936D02*
X10998629Y-16989460D01*
X10998629Y-16989460D02*
X10979582Y-16998984D01*
X10979582Y-16998984D02*
X10960534Y-16998984D01*
X10960534Y-16998984D02*
X10941487Y-16989460D01*
X10941487Y-16989460D02*
X10931963Y-16979936D01*
X10931963Y-16979936D02*
X10922439Y-16960889D01*
X10922439Y-16960889D02*
X10912915Y-16922793D01*
X10912915Y-16922793D02*
X10912915Y-16875174D01*
X10912915Y-16875174D02*
X10922439Y-16837079D01*
X10922439Y-16837079D02*
X10931963Y-16818031D01*
X10931963Y-16818031D02*
X10941487Y-16808508D01*
X10941487Y-16808508D02*
X10960534Y-16798984D01*
X11112915Y-16979936D02*
X11122439Y-16989460D01*
X11122439Y-16989460D02*
X11112915Y-16998984D01*
X11112915Y-16998984D02*
X11103391Y-16989460D01*
X11103391Y-16989460D02*
X11112915Y-16979936D01*
X11112915Y-16979936D02*
X11112915Y-16998984D01*
X11246248Y-16798984D02*
X11265296Y-16798984D01*
X11265296Y-16798984D02*
X11284344Y-16808508D01*
X11284344Y-16808508D02*
X11293867Y-16818031D01*
X11293867Y-16818031D02*
X11303391Y-16837079D01*
X11303391Y-16837079D02*
X11312915Y-16875174D01*
X11312915Y-16875174D02*
X11312915Y-16922793D01*
X11312915Y-16922793D02*
X11303391Y-16960889D01*
X11303391Y-16960889D02*
X11293867Y-16979936D01*
X11293867Y-16979936D02*
X11284344Y-16989460D01*
X11284344Y-16989460D02*
X11265296Y-16998984D01*
X11265296Y-16998984D02*
X11246248Y-16998984D01*
X11246248Y-16998984D02*
X11227201Y-16989460D01*
X11227201Y-16989460D02*
X11217677Y-16979936D01*
X11217677Y-16979936D02*
X11208153Y-16960889D01*
X11208153Y-16960889D02*
X11198629Y-16922793D01*
X11198629Y-16922793D02*
X11198629Y-16875174D01*
X11198629Y-16875174D02*
X11208153Y-16837079D01*
X11208153Y-16837079D02*
X11217677Y-16818031D01*
X11217677Y-16818031D02*
X11227201Y-16808508D01*
X11227201Y-16808508D02*
X11246248Y-16798984D01*
X11503391Y-16998984D02*
X11389106Y-16998984D01*
X11446248Y-16998984D02*
X11446248Y-16798984D01*
X11446248Y-16798984D02*
X11427201Y-16827555D01*
X11427201Y-16827555D02*
X11408153Y-16846603D01*
X11408153Y-16846603D02*
X11389106Y-16856127D01*
X11598629Y-16998984D02*
X11636725Y-16998984D01*
X11636725Y-16998984D02*
X11655772Y-16989460D01*
X11655772Y-16989460D02*
X11665296Y-16979936D01*
X11665296Y-16979936D02*
X11684344Y-16951365D01*
X11684344Y-16951365D02*
X11693867Y-16913270D01*
X11693867Y-16913270D02*
X11693867Y-16837079D01*
X11693867Y-16837079D02*
X11684344Y-16818031D01*
X11684344Y-16818031D02*
X11674820Y-16808508D01*
X11674820Y-16808508D02*
X11655772Y-16798984D01*
X11655772Y-16798984D02*
X11617677Y-16798984D01*
X11617677Y-16798984D02*
X11598629Y-16808508D01*
X11598629Y-16808508D02*
X11589106Y-16818031D01*
X11589106Y-16818031D02*
X11579582Y-16837079D01*
X11579582Y-16837079D02*
X11579582Y-16884698D01*
X11579582Y-16884698D02*
X11589106Y-16903746D01*
X11589106Y-16903746D02*
X11598629Y-16913270D01*
X11598629Y-16913270D02*
X11617677Y-16922793D01*
X11617677Y-16922793D02*
X11655772Y-16922793D01*
X11655772Y-16922793D02*
X11674820Y-16913270D01*
X11674820Y-16913270D02*
X11684344Y-16903746D01*
X11684344Y-16903746D02*
X11693867Y-16884698D01*
X11760534Y-16798984D02*
X11893867Y-16798984D01*
X11893867Y-16798984D02*
X11808153Y-16998984D01*
X11960534Y-16798984D02*
X11960534Y-16837079D01*
X12036725Y-16798984D02*
X12036725Y-16837079D01*
X12331963Y-17075174D02*
X12322439Y-17065650D01*
X12322439Y-17065650D02*
X12303391Y-17037079D01*
X12303391Y-17037079D02*
X12293868Y-17018031D01*
X12293868Y-17018031D02*
X12284344Y-16989460D01*
X12284344Y-16989460D02*
X12274820Y-16941841D01*
X12274820Y-16941841D02*
X12274820Y-16903746D01*
X12274820Y-16903746D02*
X12284344Y-16856127D01*
X12284344Y-16856127D02*
X12293868Y-16827555D01*
X12293868Y-16827555D02*
X12303391Y-16808508D01*
X12303391Y-16808508D02*
X12322439Y-16779936D01*
X12322439Y-16779936D02*
X12331963Y-16770412D01*
X12446248Y-16798984D02*
X12465296Y-16798984D01*
X12465296Y-16798984D02*
X12484344Y-16808508D01*
X12484344Y-16808508D02*
X12493868Y-16818031D01*
X12493868Y-16818031D02*
X12503391Y-16837079D01*
X12503391Y-16837079D02*
X12512915Y-16875174D01*
X12512915Y-16875174D02*
X12512915Y-16922793D01*
X12512915Y-16922793D02*
X12503391Y-16960889D01*
X12503391Y-16960889D02*
X12493868Y-16979936D01*
X12493868Y-16979936D02*
X12484344Y-16989460D01*
X12484344Y-16989460D02*
X12465296Y-16998984D01*
X12465296Y-16998984D02*
X12446248Y-16998984D01*
X12446248Y-16998984D02*
X12427201Y-16989460D01*
X12427201Y-16989460D02*
X12417677Y-16979936D01*
X12417677Y-16979936D02*
X12408153Y-16960889D01*
X12408153Y-16960889D02*
X12398629Y-16922793D01*
X12398629Y-16922793D02*
X12398629Y-16875174D01*
X12398629Y-16875174D02*
X12408153Y-16837079D01*
X12408153Y-16837079D02*
X12417677Y-16818031D01*
X12417677Y-16818031D02*
X12427201Y-16808508D01*
X12427201Y-16808508D02*
X12446248Y-16798984D01*
X12751010Y-16998984D02*
X12751010Y-16798984D01*
X12836725Y-16998984D02*
X12836725Y-16894222D01*
X12836725Y-16894222D02*
X12827201Y-16875174D01*
X12827201Y-16875174D02*
X12808153Y-16865650D01*
X12808153Y-16865650D02*
X12779582Y-16865650D01*
X12779582Y-16865650D02*
X12760534Y-16875174D01*
X12760534Y-16875174D02*
X12751010Y-16884698D01*
X12960534Y-16998984D02*
X12941487Y-16989460D01*
X12941487Y-16989460D02*
X12931963Y-16979936D01*
X12931963Y-16979936D02*
X12922439Y-16960889D01*
X12922439Y-16960889D02*
X12922439Y-16903746D01*
X12922439Y-16903746D02*
X12931963Y-16884698D01*
X12931963Y-16884698D02*
X12941487Y-16875174D01*
X12941487Y-16875174D02*
X12960534Y-16865650D01*
X12960534Y-16865650D02*
X12989106Y-16865650D01*
X12989106Y-16865650D02*
X13008153Y-16875174D01*
X13008153Y-16875174D02*
X13017677Y-16884698D01*
X13017677Y-16884698D02*
X13027201Y-16903746D01*
X13027201Y-16903746D02*
X13027201Y-16960889D01*
X13027201Y-16960889D02*
X13017677Y-16979936D01*
X13017677Y-16979936D02*
X13008153Y-16989460D01*
X13008153Y-16989460D02*
X12989106Y-16998984D01*
X12989106Y-16998984D02*
X12960534Y-16998984D01*
X13141487Y-16998984D02*
X13122439Y-16989460D01*
X13122439Y-16989460D02*
X13112915Y-16970412D01*
X13112915Y-16970412D02*
X13112915Y-16798984D01*
X13293868Y-16989460D02*
X13274820Y-16998984D01*
X13274820Y-16998984D02*
X13236725Y-16998984D01*
X13236725Y-16998984D02*
X13217677Y-16989460D01*
X13217677Y-16989460D02*
X13208153Y-16970412D01*
X13208153Y-16970412D02*
X13208153Y-16894222D01*
X13208153Y-16894222D02*
X13217677Y-16875174D01*
X13217677Y-16875174D02*
X13236725Y-16865650D01*
X13236725Y-16865650D02*
X13274820Y-16865650D01*
X13274820Y-16865650D02*
X13293868Y-16875174D01*
X13293868Y-16875174D02*
X13303391Y-16894222D01*
X13303391Y-16894222D02*
X13303391Y-16913270D01*
X13303391Y-16913270D02*
X13208153Y-16932317D01*
X13379582Y-16989460D02*
X13398630Y-16998984D01*
X13398630Y-16998984D02*
X13436725Y-16998984D01*
X13436725Y-16998984D02*
X13455772Y-16989460D01*
X13455772Y-16989460D02*
X13465296Y-16970412D01*
X13465296Y-16970412D02*
X13465296Y-16960889D01*
X13465296Y-16960889D02*
X13455772Y-16941841D01*
X13455772Y-16941841D02*
X13436725Y-16932317D01*
X13436725Y-16932317D02*
X13408153Y-16932317D01*
X13408153Y-16932317D02*
X13389106Y-16922793D01*
X13389106Y-16922793D02*
X13379582Y-16903746D01*
X13379582Y-16903746D02*
X13379582Y-16894222D01*
X13379582Y-16894222D02*
X13389106Y-16875174D01*
X13389106Y-16875174D02*
X13408153Y-16865650D01*
X13408153Y-16865650D02*
X13436725Y-16865650D01*
X13436725Y-16865650D02*
X13455772Y-16875174D01*
X13703392Y-16922793D02*
X13855773Y-16922793D01*
X13779582Y-16998984D02*
X13779582Y-16846603D01*
X14093868Y-16818031D02*
X14103392Y-16808508D01*
X14103392Y-16808508D02*
X14122439Y-16798984D01*
X14122439Y-16798984D02*
X14170058Y-16798984D01*
X14170058Y-16798984D02*
X14189106Y-16808508D01*
X14189106Y-16808508D02*
X14198630Y-16818031D01*
X14198630Y-16818031D02*
X14208153Y-16837079D01*
X14208153Y-16837079D02*
X14208153Y-16856127D01*
X14208153Y-16856127D02*
X14198630Y-16884698D01*
X14198630Y-16884698D02*
X14084344Y-16998984D01*
X14084344Y-16998984D02*
X14208153Y-16998984D01*
X14436725Y-16989460D02*
X14455773Y-16998984D01*
X14455773Y-16998984D02*
X14493868Y-16998984D01*
X14493868Y-16998984D02*
X14512915Y-16989460D01*
X14512915Y-16989460D02*
X14522439Y-16970412D01*
X14522439Y-16970412D02*
X14522439Y-16960889D01*
X14522439Y-16960889D02*
X14512915Y-16941841D01*
X14512915Y-16941841D02*
X14493868Y-16932317D01*
X14493868Y-16932317D02*
X14465296Y-16932317D01*
X14465296Y-16932317D02*
X14446249Y-16922793D01*
X14446249Y-16922793D02*
X14436725Y-16903746D01*
X14436725Y-16903746D02*
X14436725Y-16894222D01*
X14436725Y-16894222D02*
X14446249Y-16875174D01*
X14446249Y-16875174D02*
X14465296Y-16865650D01*
X14465296Y-16865650D02*
X14493868Y-16865650D01*
X14493868Y-16865650D02*
X14512915Y-16875174D01*
X14636725Y-16998984D02*
X14617677Y-16989460D01*
X14617677Y-16989460D02*
X14608154Y-16970412D01*
X14608154Y-16970412D02*
X14608154Y-16798984D01*
X14741487Y-16998984D02*
X14722439Y-16989460D01*
X14722439Y-16989460D02*
X14712915Y-16979936D01*
X14712915Y-16979936D02*
X14703392Y-16960889D01*
X14703392Y-16960889D02*
X14703392Y-16903746D01*
X14703392Y-16903746D02*
X14712915Y-16884698D01*
X14712915Y-16884698D02*
X14722439Y-16875174D01*
X14722439Y-16875174D02*
X14741487Y-16865650D01*
X14741487Y-16865650D02*
X14770058Y-16865650D01*
X14770058Y-16865650D02*
X14789106Y-16875174D01*
X14789106Y-16875174D02*
X14798630Y-16884698D01*
X14798630Y-16884698D02*
X14808154Y-16903746D01*
X14808154Y-16903746D02*
X14808154Y-16960889D01*
X14808154Y-16960889D02*
X14798630Y-16979936D01*
X14798630Y-16979936D02*
X14789106Y-16989460D01*
X14789106Y-16989460D02*
X14770058Y-16998984D01*
X14770058Y-16998984D02*
X14741487Y-16998984D01*
X14865296Y-16865650D02*
X14941487Y-16865650D01*
X14893868Y-16798984D02*
X14893868Y-16970412D01*
X14893868Y-16970412D02*
X14903392Y-16989460D01*
X14903392Y-16989460D02*
X14922439Y-16998984D01*
X14922439Y-16998984D02*
X14941487Y-16998984D01*
X14998630Y-16989460D02*
X15017677Y-16998984D01*
X15017677Y-16998984D02*
X15055773Y-16998984D01*
X15055773Y-16998984D02*
X15074820Y-16989460D01*
X15074820Y-16989460D02*
X15084344Y-16970412D01*
X15084344Y-16970412D02*
X15084344Y-16960889D01*
X15084344Y-16960889D02*
X15074820Y-16941841D01*
X15074820Y-16941841D02*
X15055773Y-16932317D01*
X15055773Y-16932317D02*
X15027201Y-16932317D01*
X15027201Y-16932317D02*
X15008154Y-16922793D01*
X15008154Y-16922793D02*
X14998630Y-16903746D01*
X14998630Y-16903746D02*
X14998630Y-16894222D01*
X14998630Y-16894222D02*
X15008154Y-16875174D01*
X15008154Y-16875174D02*
X15027201Y-16865650D01*
X15027201Y-16865650D02*
X15055773Y-16865650D01*
X15055773Y-16865650D02*
X15074820Y-16875174D01*
X15151011Y-17075174D02*
X15160535Y-17065650D01*
X15160535Y-17065650D02*
X15179582Y-17037079D01*
X15179582Y-17037079D02*
X15189106Y-17018031D01*
X15189106Y-17018031D02*
X15198630Y-16989460D01*
X15198630Y-16989460D02*
X15208154Y-16941841D01*
X15208154Y-16941841D02*
X15208154Y-16903746D01*
X15208154Y-16903746D02*
X15198630Y-16856127D01*
X15198630Y-16856127D02*
X15189106Y-16827555D01*
X15189106Y-16827555D02*
X15179582Y-16808508D01*
X15179582Y-16808508D02*
X15160535Y-16779936D01*
X15160535Y-16779936D02*
X15151011Y-16770412D01*
D12*
X8748846Y-17190946D02*
X8748846Y-17152054D01*
X8709954Y-17152054D01*
X8709954Y-17190946D01*
X8748846Y-17190946D01*
D11*
X9055772Y-17062984D02*
X9074820Y-17062984D01*
X9074820Y-17062984D02*
X9093867Y-17072508D01*
X9093867Y-17072508D02*
X9103391Y-17082031D01*
X9103391Y-17082031D02*
X9112915Y-17101079D01*
X9112915Y-17101079D02*
X9122439Y-17139174D01*
X9122439Y-17139174D02*
X9122439Y-17186793D01*
X9122439Y-17186793D02*
X9112915Y-17224889D01*
X9112915Y-17224889D02*
X9103391Y-17243936D01*
X9103391Y-17243936D02*
X9093867Y-17253460D01*
X9093867Y-17253460D02*
X9074820Y-17262984D01*
X9074820Y-17262984D02*
X9055772Y-17262984D01*
X9055772Y-17262984D02*
X9036724Y-17253460D01*
X9036724Y-17253460D02*
X9027201Y-17243936D01*
X9027201Y-17243936D02*
X9017677Y-17224889D01*
X9017677Y-17224889D02*
X9008153Y-17186793D01*
X9008153Y-17186793D02*
X9008153Y-17139174D01*
X9008153Y-17139174D02*
X9017677Y-17101079D01*
X9017677Y-17101079D02*
X9027201Y-17082031D01*
X9027201Y-17082031D02*
X9036724Y-17072508D01*
X9036724Y-17072508D02*
X9055772Y-17062984D01*
X9208153Y-17243936D02*
X9217677Y-17253460D01*
X9217677Y-17253460D02*
X9208153Y-17262984D01*
X9208153Y-17262984D02*
X9198629Y-17253460D01*
X9198629Y-17253460D02*
X9208153Y-17243936D01*
X9208153Y-17243936D02*
X9208153Y-17262984D01*
X9398629Y-17062984D02*
X9303391Y-17062984D01*
X9303391Y-17062984D02*
X9293867Y-17158222D01*
X9293867Y-17158222D02*
X9303391Y-17148698D01*
X9303391Y-17148698D02*
X9322439Y-17139174D01*
X9322439Y-17139174D02*
X9370058Y-17139174D01*
X9370058Y-17139174D02*
X9389105Y-17148698D01*
X9389105Y-17148698D02*
X9398629Y-17158222D01*
X9398629Y-17158222D02*
X9408153Y-17177270D01*
X9408153Y-17177270D02*
X9408153Y-17224889D01*
X9408153Y-17224889D02*
X9398629Y-17243936D01*
X9398629Y-17243936D02*
X9389105Y-17253460D01*
X9389105Y-17253460D02*
X9370058Y-17262984D01*
X9370058Y-17262984D02*
X9322439Y-17262984D01*
X9322439Y-17262984D02*
X9303391Y-17253460D01*
X9303391Y-17253460D02*
X9293867Y-17243936D01*
X9589105Y-17062984D02*
X9493867Y-17062984D01*
X9493867Y-17062984D02*
X9484344Y-17158222D01*
X9484344Y-17158222D02*
X9493867Y-17148698D01*
X9493867Y-17148698D02*
X9512915Y-17139174D01*
X9512915Y-17139174D02*
X9560534Y-17139174D01*
X9560534Y-17139174D02*
X9579582Y-17148698D01*
X9579582Y-17148698D02*
X9589105Y-17158222D01*
X9589105Y-17158222D02*
X9598629Y-17177270D01*
X9598629Y-17177270D02*
X9598629Y-17224889D01*
X9598629Y-17224889D02*
X9589105Y-17243936D01*
X9589105Y-17243936D02*
X9579582Y-17253460D01*
X9579582Y-17253460D02*
X9560534Y-17262984D01*
X9560534Y-17262984D02*
X9512915Y-17262984D01*
X9512915Y-17262984D02*
X9493867Y-17253460D01*
X9493867Y-17253460D02*
X9484344Y-17243936D01*
X9722439Y-17062984D02*
X9741486Y-17062984D01*
X9741486Y-17062984D02*
X9760534Y-17072508D01*
X9760534Y-17072508D02*
X9770058Y-17082031D01*
X9770058Y-17082031D02*
X9779582Y-17101079D01*
X9779582Y-17101079D02*
X9789105Y-17139174D01*
X9789105Y-17139174D02*
X9789105Y-17186793D01*
X9789105Y-17186793D02*
X9779582Y-17224889D01*
X9779582Y-17224889D02*
X9770058Y-17243936D01*
X9770058Y-17243936D02*
X9760534Y-17253460D01*
X9760534Y-17253460D02*
X9741486Y-17262984D01*
X9741486Y-17262984D02*
X9722439Y-17262984D01*
X9722439Y-17262984D02*
X9703391Y-17253460D01*
X9703391Y-17253460D02*
X9693867Y-17243936D01*
X9693867Y-17243936D02*
X9684344Y-17224889D01*
X9684344Y-17224889D02*
X9674820Y-17186793D01*
X9674820Y-17186793D02*
X9674820Y-17139174D01*
X9674820Y-17139174D02*
X9684344Y-17101079D01*
X9684344Y-17101079D02*
X9693867Y-17082031D01*
X9693867Y-17082031D02*
X9703391Y-17072508D01*
X9703391Y-17072508D02*
X9722439Y-17062984D01*
X9874820Y-17262984D02*
X9874820Y-17129650D01*
X9874820Y-17148698D02*
X9884344Y-17139174D01*
X9884344Y-17139174D02*
X9903391Y-17129650D01*
X9903391Y-17129650D02*
X9931963Y-17129650D01*
X9931963Y-17129650D02*
X9951010Y-17139174D01*
X9951010Y-17139174D02*
X9960534Y-17158222D01*
X9960534Y-17158222D02*
X9960534Y-17262984D01*
X9960534Y-17158222D02*
X9970058Y-17139174D01*
X9970058Y-17139174D02*
X9989105Y-17129650D01*
X9989105Y-17129650D02*
X10017677Y-17129650D01*
X10017677Y-17129650D02*
X10036725Y-17139174D01*
X10036725Y-17139174D02*
X10046248Y-17158222D01*
X10046248Y-17158222D02*
X10046248Y-17262984D01*
X10141486Y-17262984D02*
X10141486Y-17129650D01*
X10141486Y-17148698D02*
X10151010Y-17139174D01*
X10151010Y-17139174D02*
X10170058Y-17129650D01*
X10170058Y-17129650D02*
X10198629Y-17129650D01*
X10198629Y-17129650D02*
X10217677Y-17139174D01*
X10217677Y-17139174D02*
X10227201Y-17158222D01*
X10227201Y-17158222D02*
X10227201Y-17262984D01*
X10227201Y-17158222D02*
X10236725Y-17139174D01*
X10236725Y-17139174D02*
X10255772Y-17129650D01*
X10255772Y-17129650D02*
X10284344Y-17129650D01*
X10284344Y-17129650D02*
X10303391Y-17139174D01*
X10303391Y-17139174D02*
X10312915Y-17158222D01*
X10312915Y-17158222D02*
X10312915Y-17262984D01*
X10703391Y-17053460D02*
X10531963Y-17310603D01*
X10960534Y-17062984D02*
X10979582Y-17062984D01*
X10979582Y-17062984D02*
X10998629Y-17072508D01*
X10998629Y-17072508D02*
X11008153Y-17082031D01*
X11008153Y-17082031D02*
X11017677Y-17101079D01*
X11017677Y-17101079D02*
X11027201Y-17139174D01*
X11027201Y-17139174D02*
X11027201Y-17186793D01*
X11027201Y-17186793D02*
X11017677Y-17224889D01*
X11017677Y-17224889D02*
X11008153Y-17243936D01*
X11008153Y-17243936D02*
X10998629Y-17253460D01*
X10998629Y-17253460D02*
X10979582Y-17262984D01*
X10979582Y-17262984D02*
X10960534Y-17262984D01*
X10960534Y-17262984D02*
X10941487Y-17253460D01*
X10941487Y-17253460D02*
X10931963Y-17243936D01*
X10931963Y-17243936D02*
X10922439Y-17224889D01*
X10922439Y-17224889D02*
X10912915Y-17186793D01*
X10912915Y-17186793D02*
X10912915Y-17139174D01*
X10912915Y-17139174D02*
X10922439Y-17101079D01*
X10922439Y-17101079D02*
X10931963Y-17082031D01*
X10931963Y-17082031D02*
X10941487Y-17072508D01*
X10941487Y-17072508D02*
X10960534Y-17062984D01*
X11112915Y-17243936D02*
X11122439Y-17253460D01*
X11122439Y-17253460D02*
X11112915Y-17262984D01*
X11112915Y-17262984D02*
X11103391Y-17253460D01*
X11103391Y-17253460D02*
X11112915Y-17243936D01*
X11112915Y-17243936D02*
X11112915Y-17262984D01*
X11246248Y-17062984D02*
X11265296Y-17062984D01*
X11265296Y-17062984D02*
X11284344Y-17072508D01*
X11284344Y-17072508D02*
X11293867Y-17082031D01*
X11293867Y-17082031D02*
X11303391Y-17101079D01*
X11303391Y-17101079D02*
X11312915Y-17139174D01*
X11312915Y-17139174D02*
X11312915Y-17186793D01*
X11312915Y-17186793D02*
X11303391Y-17224889D01*
X11303391Y-17224889D02*
X11293867Y-17243936D01*
X11293867Y-17243936D02*
X11284344Y-17253460D01*
X11284344Y-17253460D02*
X11265296Y-17262984D01*
X11265296Y-17262984D02*
X11246248Y-17262984D01*
X11246248Y-17262984D02*
X11227201Y-17253460D01*
X11227201Y-17253460D02*
X11217677Y-17243936D01*
X11217677Y-17243936D02*
X11208153Y-17224889D01*
X11208153Y-17224889D02*
X11198629Y-17186793D01*
X11198629Y-17186793D02*
X11198629Y-17139174D01*
X11198629Y-17139174D02*
X11208153Y-17101079D01*
X11208153Y-17101079D02*
X11217677Y-17082031D01*
X11217677Y-17082031D02*
X11227201Y-17072508D01*
X11227201Y-17072508D02*
X11246248Y-17062984D01*
X11389106Y-17082031D02*
X11398629Y-17072508D01*
X11398629Y-17072508D02*
X11417677Y-17062984D01*
X11417677Y-17062984D02*
X11465296Y-17062984D01*
X11465296Y-17062984D02*
X11484344Y-17072508D01*
X11484344Y-17072508D02*
X11493867Y-17082031D01*
X11493867Y-17082031D02*
X11503391Y-17101079D01*
X11503391Y-17101079D02*
X11503391Y-17120127D01*
X11503391Y-17120127D02*
X11493867Y-17148698D01*
X11493867Y-17148698D02*
X11379582Y-17262984D01*
X11379582Y-17262984D02*
X11503391Y-17262984D01*
X11693867Y-17262984D02*
X11579582Y-17262984D01*
X11636725Y-17262984D02*
X11636725Y-17062984D01*
X11636725Y-17062984D02*
X11617677Y-17091555D01*
X11617677Y-17091555D02*
X11598629Y-17110603D01*
X11598629Y-17110603D02*
X11579582Y-17120127D01*
X11760534Y-17062984D02*
X11893867Y-17062984D01*
X11893867Y-17062984D02*
X11808153Y-17262984D01*
X11960534Y-17062984D02*
X11960534Y-17101079D01*
X12036725Y-17062984D02*
X12036725Y-17101079D01*
X12331963Y-17339174D02*
X12322439Y-17329650D01*
X12322439Y-17329650D02*
X12303391Y-17301079D01*
X12303391Y-17301079D02*
X12293868Y-17282031D01*
X12293868Y-17282031D02*
X12284344Y-17253460D01*
X12284344Y-17253460D02*
X12274820Y-17205841D01*
X12274820Y-17205841D02*
X12274820Y-17167746D01*
X12274820Y-17167746D02*
X12284344Y-17120127D01*
X12284344Y-17120127D02*
X12293868Y-17091555D01*
X12293868Y-17091555D02*
X12303391Y-17072508D01*
X12303391Y-17072508D02*
X12322439Y-17043936D01*
X12322439Y-17043936D02*
X12331963Y-17034412D01*
X12446248Y-17062984D02*
X12465296Y-17062984D01*
X12465296Y-17062984D02*
X12484344Y-17072508D01*
X12484344Y-17072508D02*
X12493868Y-17082031D01*
X12493868Y-17082031D02*
X12503391Y-17101079D01*
X12503391Y-17101079D02*
X12512915Y-17139174D01*
X12512915Y-17139174D02*
X12512915Y-17186793D01*
X12512915Y-17186793D02*
X12503391Y-17224889D01*
X12503391Y-17224889D02*
X12493868Y-17243936D01*
X12493868Y-17243936D02*
X12484344Y-17253460D01*
X12484344Y-17253460D02*
X12465296Y-17262984D01*
X12465296Y-17262984D02*
X12446248Y-17262984D01*
X12446248Y-17262984D02*
X12427201Y-17253460D01*
X12427201Y-17253460D02*
X12417677Y-17243936D01*
X12417677Y-17243936D02*
X12408153Y-17224889D01*
X12408153Y-17224889D02*
X12398629Y-17186793D01*
X12398629Y-17186793D02*
X12398629Y-17139174D01*
X12398629Y-17139174D02*
X12408153Y-17101079D01*
X12408153Y-17101079D02*
X12417677Y-17082031D01*
X12417677Y-17082031D02*
X12427201Y-17072508D01*
X12427201Y-17072508D02*
X12446248Y-17062984D01*
X12751010Y-17262984D02*
X12751010Y-17062984D01*
X12836725Y-17262984D02*
X12836725Y-17158222D01*
X12836725Y-17158222D02*
X12827201Y-17139174D01*
X12827201Y-17139174D02*
X12808153Y-17129650D01*
X12808153Y-17129650D02*
X12779582Y-17129650D01*
X12779582Y-17129650D02*
X12760534Y-17139174D01*
X12760534Y-17139174D02*
X12751010Y-17148698D01*
X12960534Y-17262984D02*
X12941487Y-17253460D01*
X12941487Y-17253460D02*
X12931963Y-17243936D01*
X12931963Y-17243936D02*
X12922439Y-17224889D01*
X12922439Y-17224889D02*
X12922439Y-17167746D01*
X12922439Y-17167746D02*
X12931963Y-17148698D01*
X12931963Y-17148698D02*
X12941487Y-17139174D01*
X12941487Y-17139174D02*
X12960534Y-17129650D01*
X12960534Y-17129650D02*
X12989106Y-17129650D01*
X12989106Y-17129650D02*
X13008153Y-17139174D01*
X13008153Y-17139174D02*
X13017677Y-17148698D01*
X13017677Y-17148698D02*
X13027201Y-17167746D01*
X13027201Y-17167746D02*
X13027201Y-17224889D01*
X13027201Y-17224889D02*
X13017677Y-17243936D01*
X13017677Y-17243936D02*
X13008153Y-17253460D01*
X13008153Y-17253460D02*
X12989106Y-17262984D01*
X12989106Y-17262984D02*
X12960534Y-17262984D01*
X13141487Y-17262984D02*
X13122439Y-17253460D01*
X13122439Y-17253460D02*
X13112915Y-17234412D01*
X13112915Y-17234412D02*
X13112915Y-17062984D01*
X13293868Y-17253460D02*
X13274820Y-17262984D01*
X13274820Y-17262984D02*
X13236725Y-17262984D01*
X13236725Y-17262984D02*
X13217677Y-17253460D01*
X13217677Y-17253460D02*
X13208153Y-17234412D01*
X13208153Y-17234412D02*
X13208153Y-17158222D01*
X13208153Y-17158222D02*
X13217677Y-17139174D01*
X13217677Y-17139174D02*
X13236725Y-17129650D01*
X13236725Y-17129650D02*
X13274820Y-17129650D01*
X13274820Y-17129650D02*
X13293868Y-17139174D01*
X13293868Y-17139174D02*
X13303391Y-17158222D01*
X13303391Y-17158222D02*
X13303391Y-17177270D01*
X13303391Y-17177270D02*
X13208153Y-17196317D01*
X13379582Y-17253460D02*
X13398630Y-17262984D01*
X13398630Y-17262984D02*
X13436725Y-17262984D01*
X13436725Y-17262984D02*
X13455772Y-17253460D01*
X13455772Y-17253460D02*
X13465296Y-17234412D01*
X13465296Y-17234412D02*
X13465296Y-17224889D01*
X13465296Y-17224889D02*
X13455772Y-17205841D01*
X13455772Y-17205841D02*
X13436725Y-17196317D01*
X13436725Y-17196317D02*
X13408153Y-17196317D01*
X13408153Y-17196317D02*
X13389106Y-17186793D01*
X13389106Y-17186793D02*
X13379582Y-17167746D01*
X13379582Y-17167746D02*
X13379582Y-17158222D01*
X13379582Y-17158222D02*
X13389106Y-17139174D01*
X13389106Y-17139174D02*
X13408153Y-17129650D01*
X13408153Y-17129650D02*
X13436725Y-17129650D01*
X13436725Y-17129650D02*
X13455772Y-17139174D01*
X13703392Y-17186793D02*
X13855773Y-17186793D01*
X13779582Y-17262984D02*
X13779582Y-17110603D01*
X14093868Y-17082031D02*
X14103392Y-17072508D01*
X14103392Y-17072508D02*
X14122439Y-17062984D01*
X14122439Y-17062984D02*
X14170058Y-17062984D01*
X14170058Y-17062984D02*
X14189106Y-17072508D01*
X14189106Y-17072508D02*
X14198630Y-17082031D01*
X14198630Y-17082031D02*
X14208153Y-17101079D01*
X14208153Y-17101079D02*
X14208153Y-17120127D01*
X14208153Y-17120127D02*
X14198630Y-17148698D01*
X14198630Y-17148698D02*
X14084344Y-17262984D01*
X14084344Y-17262984D02*
X14208153Y-17262984D01*
X14436725Y-17253460D02*
X14455773Y-17262984D01*
X14455773Y-17262984D02*
X14493868Y-17262984D01*
X14493868Y-17262984D02*
X14512915Y-17253460D01*
X14512915Y-17253460D02*
X14522439Y-17234412D01*
X14522439Y-17234412D02*
X14522439Y-17224889D01*
X14522439Y-17224889D02*
X14512915Y-17205841D01*
X14512915Y-17205841D02*
X14493868Y-17196317D01*
X14493868Y-17196317D02*
X14465296Y-17196317D01*
X14465296Y-17196317D02*
X14446249Y-17186793D01*
X14446249Y-17186793D02*
X14436725Y-17167746D01*
X14436725Y-17167746D02*
X14436725Y-17158222D01*
X14436725Y-17158222D02*
X14446249Y-17139174D01*
X14446249Y-17139174D02*
X14465296Y-17129650D01*
X14465296Y-17129650D02*
X14493868Y-17129650D01*
X14493868Y-17129650D02*
X14512915Y-17139174D01*
X14636725Y-17262984D02*
X14617677Y-17253460D01*
X14617677Y-17253460D02*
X14608154Y-17234412D01*
X14608154Y-17234412D02*
X14608154Y-17062984D01*
X14741487Y-17262984D02*
X14722439Y-17253460D01*
X14722439Y-17253460D02*
X14712915Y-17243936D01*
X14712915Y-17243936D02*
X14703392Y-17224889D01*
X14703392Y-17224889D02*
X14703392Y-17167746D01*
X14703392Y-17167746D02*
X14712915Y-17148698D01*
X14712915Y-17148698D02*
X14722439Y-17139174D01*
X14722439Y-17139174D02*
X14741487Y-17129650D01*
X14741487Y-17129650D02*
X14770058Y-17129650D01*
X14770058Y-17129650D02*
X14789106Y-17139174D01*
X14789106Y-17139174D02*
X14798630Y-17148698D01*
X14798630Y-17148698D02*
X14808154Y-17167746D01*
X14808154Y-17167746D02*
X14808154Y-17224889D01*
X14808154Y-17224889D02*
X14798630Y-17243936D01*
X14798630Y-17243936D02*
X14789106Y-17253460D01*
X14789106Y-17253460D02*
X14770058Y-17262984D01*
X14770058Y-17262984D02*
X14741487Y-17262984D01*
X14865296Y-17129650D02*
X14941487Y-17129650D01*
X14893868Y-17062984D02*
X14893868Y-17234412D01*
X14893868Y-17234412D02*
X14903392Y-17253460D01*
X14903392Y-17253460D02*
X14922439Y-17262984D01*
X14922439Y-17262984D02*
X14941487Y-17262984D01*
X14998630Y-17253460D02*
X15017677Y-17262984D01*
X15017677Y-17262984D02*
X15055773Y-17262984D01*
X15055773Y-17262984D02*
X15074820Y-17253460D01*
X15074820Y-17253460D02*
X15084344Y-17234412D01*
X15084344Y-17234412D02*
X15084344Y-17224889D01*
X15084344Y-17224889D02*
X15074820Y-17205841D01*
X15074820Y-17205841D02*
X15055773Y-17196317D01*
X15055773Y-17196317D02*
X15027201Y-17196317D01*
X15027201Y-17196317D02*
X15008154Y-17186793D01*
X15008154Y-17186793D02*
X14998630Y-17167746D01*
X14998630Y-17167746D02*
X14998630Y-17158222D01*
X14998630Y-17158222D02*
X15008154Y-17139174D01*
X15008154Y-17139174D02*
X15027201Y-17129650D01*
X15027201Y-17129650D02*
X15055773Y-17129650D01*
X15055773Y-17129650D02*
X15074820Y-17139174D01*
X15151011Y-17339174D02*
X15160535Y-17329650D01*
X15160535Y-17329650D02*
X15179582Y-17301079D01*
X15179582Y-17301079D02*
X15189106Y-17282031D01*
X15189106Y-17282031D02*
X15198630Y-17253460D01*
X15198630Y-17253460D02*
X15208154Y-17205841D01*
X15208154Y-17205841D02*
X15208154Y-17167746D01*
X15208154Y-17167746D02*
X15198630Y-17120127D01*
X15198630Y-17120127D02*
X15189106Y-17091555D01*
X15189106Y-17091555D02*
X15179582Y-17072508D01*
X15179582Y-17072508D02*
X15160535Y-17043936D01*
X15160535Y-17043936D02*
X15151011Y-17034412D01*
D12*
X8716900Y-17475500D02*
X8756900Y-17435500D01*
X8716900Y-17395500D01*
X8676900Y-17435500D01*
X8716900Y-17475500D01*
D11*
X9055772Y-17326984D02*
X9074820Y-17326984D01*
X9074820Y-17326984D02*
X9093867Y-17336508D01*
X9093867Y-17336508D02*
X9103391Y-17346031D01*
X9103391Y-17346031D02*
X9112915Y-17365079D01*
X9112915Y-17365079D02*
X9122439Y-17403174D01*
X9122439Y-17403174D02*
X9122439Y-17450793D01*
X9122439Y-17450793D02*
X9112915Y-17488889D01*
X9112915Y-17488889D02*
X9103391Y-17507936D01*
X9103391Y-17507936D02*
X9093867Y-17517460D01*
X9093867Y-17517460D02*
X9074820Y-17526984D01*
X9074820Y-17526984D02*
X9055772Y-17526984D01*
X9055772Y-17526984D02*
X9036724Y-17517460D01*
X9036724Y-17517460D02*
X9027201Y-17507936D01*
X9027201Y-17507936D02*
X9017677Y-17488889D01*
X9017677Y-17488889D02*
X9008153Y-17450793D01*
X9008153Y-17450793D02*
X9008153Y-17403174D01*
X9008153Y-17403174D02*
X9017677Y-17365079D01*
X9017677Y-17365079D02*
X9027201Y-17346031D01*
X9027201Y-17346031D02*
X9036724Y-17336508D01*
X9036724Y-17336508D02*
X9055772Y-17326984D01*
X9208153Y-17507936D02*
X9217677Y-17517460D01*
X9217677Y-17517460D02*
X9208153Y-17526984D01*
X9208153Y-17526984D02*
X9198629Y-17517460D01*
X9198629Y-17517460D02*
X9208153Y-17507936D01*
X9208153Y-17507936D02*
X9208153Y-17526984D01*
X9331963Y-17412698D02*
X9312915Y-17403174D01*
X9312915Y-17403174D02*
X9303391Y-17393650D01*
X9303391Y-17393650D02*
X9293867Y-17374603D01*
X9293867Y-17374603D02*
X9293867Y-17365079D01*
X9293867Y-17365079D02*
X9303391Y-17346031D01*
X9303391Y-17346031D02*
X9312915Y-17336508D01*
X9312915Y-17336508D02*
X9331963Y-17326984D01*
X9331963Y-17326984D02*
X9370058Y-17326984D01*
X9370058Y-17326984D02*
X9389105Y-17336508D01*
X9389105Y-17336508D02*
X9398629Y-17346031D01*
X9398629Y-17346031D02*
X9408153Y-17365079D01*
X9408153Y-17365079D02*
X9408153Y-17374603D01*
X9408153Y-17374603D02*
X9398629Y-17393650D01*
X9398629Y-17393650D02*
X9389105Y-17403174D01*
X9389105Y-17403174D02*
X9370058Y-17412698D01*
X9370058Y-17412698D02*
X9331963Y-17412698D01*
X9331963Y-17412698D02*
X9312915Y-17422222D01*
X9312915Y-17422222D02*
X9303391Y-17431746D01*
X9303391Y-17431746D02*
X9293867Y-17450793D01*
X9293867Y-17450793D02*
X9293867Y-17488889D01*
X9293867Y-17488889D02*
X9303391Y-17507936D01*
X9303391Y-17507936D02*
X9312915Y-17517460D01*
X9312915Y-17517460D02*
X9331963Y-17526984D01*
X9331963Y-17526984D02*
X9370058Y-17526984D01*
X9370058Y-17526984D02*
X9389105Y-17517460D01*
X9389105Y-17517460D02*
X9398629Y-17507936D01*
X9398629Y-17507936D02*
X9408153Y-17488889D01*
X9408153Y-17488889D02*
X9408153Y-17450793D01*
X9408153Y-17450793D02*
X9398629Y-17431746D01*
X9398629Y-17431746D02*
X9389105Y-17422222D01*
X9389105Y-17422222D02*
X9370058Y-17412698D01*
X9531963Y-17326984D02*
X9551010Y-17326984D01*
X9551010Y-17326984D02*
X9570058Y-17336508D01*
X9570058Y-17336508D02*
X9579582Y-17346031D01*
X9579582Y-17346031D02*
X9589105Y-17365079D01*
X9589105Y-17365079D02*
X9598629Y-17403174D01*
X9598629Y-17403174D02*
X9598629Y-17450793D01*
X9598629Y-17450793D02*
X9589105Y-17488889D01*
X9589105Y-17488889D02*
X9579582Y-17507936D01*
X9579582Y-17507936D02*
X9570058Y-17517460D01*
X9570058Y-17517460D02*
X9551010Y-17526984D01*
X9551010Y-17526984D02*
X9531963Y-17526984D01*
X9531963Y-17526984D02*
X9512915Y-17517460D01*
X9512915Y-17517460D02*
X9503391Y-17507936D01*
X9503391Y-17507936D02*
X9493867Y-17488889D01*
X9493867Y-17488889D02*
X9484344Y-17450793D01*
X9484344Y-17450793D02*
X9484344Y-17403174D01*
X9484344Y-17403174D02*
X9493867Y-17365079D01*
X9493867Y-17365079D02*
X9503391Y-17346031D01*
X9503391Y-17346031D02*
X9512915Y-17336508D01*
X9512915Y-17336508D02*
X9531963Y-17326984D01*
X9722439Y-17326984D02*
X9741486Y-17326984D01*
X9741486Y-17326984D02*
X9760534Y-17336508D01*
X9760534Y-17336508D02*
X9770058Y-17346031D01*
X9770058Y-17346031D02*
X9779582Y-17365079D01*
X9779582Y-17365079D02*
X9789105Y-17403174D01*
X9789105Y-17403174D02*
X9789105Y-17450793D01*
X9789105Y-17450793D02*
X9779582Y-17488889D01*
X9779582Y-17488889D02*
X9770058Y-17507936D01*
X9770058Y-17507936D02*
X9760534Y-17517460D01*
X9760534Y-17517460D02*
X9741486Y-17526984D01*
X9741486Y-17526984D02*
X9722439Y-17526984D01*
X9722439Y-17526984D02*
X9703391Y-17517460D01*
X9703391Y-17517460D02*
X9693867Y-17507936D01*
X9693867Y-17507936D02*
X9684344Y-17488889D01*
X9684344Y-17488889D02*
X9674820Y-17450793D01*
X9674820Y-17450793D02*
X9674820Y-17403174D01*
X9674820Y-17403174D02*
X9684344Y-17365079D01*
X9684344Y-17365079D02*
X9693867Y-17346031D01*
X9693867Y-17346031D02*
X9703391Y-17336508D01*
X9703391Y-17336508D02*
X9722439Y-17326984D01*
X9874820Y-17526984D02*
X9874820Y-17393650D01*
X9874820Y-17412698D02*
X9884344Y-17403174D01*
X9884344Y-17403174D02*
X9903391Y-17393650D01*
X9903391Y-17393650D02*
X9931963Y-17393650D01*
X9931963Y-17393650D02*
X9951010Y-17403174D01*
X9951010Y-17403174D02*
X9960534Y-17422222D01*
X9960534Y-17422222D02*
X9960534Y-17526984D01*
X9960534Y-17422222D02*
X9970058Y-17403174D01*
X9970058Y-17403174D02*
X9989105Y-17393650D01*
X9989105Y-17393650D02*
X10017677Y-17393650D01*
X10017677Y-17393650D02*
X10036725Y-17403174D01*
X10036725Y-17403174D02*
X10046248Y-17422222D01*
X10046248Y-17422222D02*
X10046248Y-17526984D01*
X10141486Y-17526984D02*
X10141486Y-17393650D01*
X10141486Y-17412698D02*
X10151010Y-17403174D01*
X10151010Y-17403174D02*
X10170058Y-17393650D01*
X10170058Y-17393650D02*
X10198629Y-17393650D01*
X10198629Y-17393650D02*
X10217677Y-17403174D01*
X10217677Y-17403174D02*
X10227201Y-17422222D01*
X10227201Y-17422222D02*
X10227201Y-17526984D01*
X10227201Y-17422222D02*
X10236725Y-17403174D01*
X10236725Y-17403174D02*
X10255772Y-17393650D01*
X10255772Y-17393650D02*
X10284344Y-17393650D01*
X10284344Y-17393650D02*
X10303391Y-17403174D01*
X10303391Y-17403174D02*
X10312915Y-17422222D01*
X10312915Y-17422222D02*
X10312915Y-17526984D01*
X10703391Y-17317460D02*
X10531963Y-17574603D01*
X10960534Y-17326984D02*
X10979582Y-17326984D01*
X10979582Y-17326984D02*
X10998629Y-17336508D01*
X10998629Y-17336508D02*
X11008153Y-17346031D01*
X11008153Y-17346031D02*
X11017677Y-17365079D01*
X11017677Y-17365079D02*
X11027201Y-17403174D01*
X11027201Y-17403174D02*
X11027201Y-17450793D01*
X11027201Y-17450793D02*
X11017677Y-17488889D01*
X11017677Y-17488889D02*
X11008153Y-17507936D01*
X11008153Y-17507936D02*
X10998629Y-17517460D01*
X10998629Y-17517460D02*
X10979582Y-17526984D01*
X10979582Y-17526984D02*
X10960534Y-17526984D01*
X10960534Y-17526984D02*
X10941487Y-17517460D01*
X10941487Y-17517460D02*
X10931963Y-17507936D01*
X10931963Y-17507936D02*
X10922439Y-17488889D01*
X10922439Y-17488889D02*
X10912915Y-17450793D01*
X10912915Y-17450793D02*
X10912915Y-17403174D01*
X10912915Y-17403174D02*
X10922439Y-17365079D01*
X10922439Y-17365079D02*
X10931963Y-17346031D01*
X10931963Y-17346031D02*
X10941487Y-17336508D01*
X10941487Y-17336508D02*
X10960534Y-17326984D01*
X11112915Y-17507936D02*
X11122439Y-17517460D01*
X11122439Y-17517460D02*
X11112915Y-17526984D01*
X11112915Y-17526984D02*
X11103391Y-17517460D01*
X11103391Y-17517460D02*
X11112915Y-17507936D01*
X11112915Y-17507936D02*
X11112915Y-17526984D01*
X11246248Y-17326984D02*
X11265296Y-17326984D01*
X11265296Y-17326984D02*
X11284344Y-17336508D01*
X11284344Y-17336508D02*
X11293867Y-17346031D01*
X11293867Y-17346031D02*
X11303391Y-17365079D01*
X11303391Y-17365079D02*
X11312915Y-17403174D01*
X11312915Y-17403174D02*
X11312915Y-17450793D01*
X11312915Y-17450793D02*
X11303391Y-17488889D01*
X11303391Y-17488889D02*
X11293867Y-17507936D01*
X11293867Y-17507936D02*
X11284344Y-17517460D01*
X11284344Y-17517460D02*
X11265296Y-17526984D01*
X11265296Y-17526984D02*
X11246248Y-17526984D01*
X11246248Y-17526984D02*
X11227201Y-17517460D01*
X11227201Y-17517460D02*
X11217677Y-17507936D01*
X11217677Y-17507936D02*
X11208153Y-17488889D01*
X11208153Y-17488889D02*
X11198629Y-17450793D01*
X11198629Y-17450793D02*
X11198629Y-17403174D01*
X11198629Y-17403174D02*
X11208153Y-17365079D01*
X11208153Y-17365079D02*
X11217677Y-17346031D01*
X11217677Y-17346031D02*
X11227201Y-17336508D01*
X11227201Y-17336508D02*
X11246248Y-17326984D01*
X11379582Y-17326984D02*
X11503391Y-17326984D01*
X11503391Y-17326984D02*
X11436725Y-17403174D01*
X11436725Y-17403174D02*
X11465296Y-17403174D01*
X11465296Y-17403174D02*
X11484344Y-17412698D01*
X11484344Y-17412698D02*
X11493867Y-17422222D01*
X11493867Y-17422222D02*
X11503391Y-17441270D01*
X11503391Y-17441270D02*
X11503391Y-17488889D01*
X11503391Y-17488889D02*
X11493867Y-17507936D01*
X11493867Y-17507936D02*
X11484344Y-17517460D01*
X11484344Y-17517460D02*
X11465296Y-17526984D01*
X11465296Y-17526984D02*
X11408153Y-17526984D01*
X11408153Y-17526984D02*
X11389106Y-17517460D01*
X11389106Y-17517460D02*
X11379582Y-17507936D01*
X11693867Y-17526984D02*
X11579582Y-17526984D01*
X11636725Y-17526984D02*
X11636725Y-17326984D01*
X11636725Y-17326984D02*
X11617677Y-17355555D01*
X11617677Y-17355555D02*
X11598629Y-17374603D01*
X11598629Y-17374603D02*
X11579582Y-17384127D01*
X11874820Y-17326984D02*
X11779582Y-17326984D01*
X11779582Y-17326984D02*
X11770058Y-17422222D01*
X11770058Y-17422222D02*
X11779582Y-17412698D01*
X11779582Y-17412698D02*
X11798629Y-17403174D01*
X11798629Y-17403174D02*
X11846248Y-17403174D01*
X11846248Y-17403174D02*
X11865296Y-17412698D01*
X11865296Y-17412698D02*
X11874820Y-17422222D01*
X11874820Y-17422222D02*
X11884344Y-17441270D01*
X11884344Y-17441270D02*
X11884344Y-17488889D01*
X11884344Y-17488889D02*
X11874820Y-17507936D01*
X11874820Y-17507936D02*
X11865296Y-17517460D01*
X11865296Y-17517460D02*
X11846248Y-17526984D01*
X11846248Y-17526984D02*
X11798629Y-17526984D01*
X11798629Y-17526984D02*
X11779582Y-17517460D01*
X11779582Y-17517460D02*
X11770058Y-17507936D01*
X11960534Y-17326984D02*
X11960534Y-17365079D01*
X12036725Y-17326984D02*
X12036725Y-17365079D01*
X12331963Y-17603174D02*
X12322439Y-17593650D01*
X12322439Y-17593650D02*
X12303391Y-17565079D01*
X12303391Y-17565079D02*
X12293868Y-17546031D01*
X12293868Y-17546031D02*
X12284344Y-17517460D01*
X12284344Y-17517460D02*
X12274820Y-17469841D01*
X12274820Y-17469841D02*
X12274820Y-17431746D01*
X12274820Y-17431746D02*
X12284344Y-17384127D01*
X12284344Y-17384127D02*
X12293868Y-17355555D01*
X12293868Y-17355555D02*
X12303391Y-17336508D01*
X12303391Y-17336508D02*
X12322439Y-17307936D01*
X12322439Y-17307936D02*
X12331963Y-17298412D01*
X12493868Y-17393650D02*
X12493868Y-17526984D01*
X12446248Y-17317460D02*
X12398629Y-17460317D01*
X12398629Y-17460317D02*
X12522439Y-17460317D01*
X12751010Y-17526984D02*
X12751010Y-17326984D01*
X12836725Y-17526984D02*
X12836725Y-17422222D01*
X12836725Y-17422222D02*
X12827201Y-17403174D01*
X12827201Y-17403174D02*
X12808153Y-17393650D01*
X12808153Y-17393650D02*
X12779582Y-17393650D01*
X12779582Y-17393650D02*
X12760534Y-17403174D01*
X12760534Y-17403174D02*
X12751010Y-17412698D01*
X12960534Y-17526984D02*
X12941487Y-17517460D01*
X12941487Y-17517460D02*
X12931963Y-17507936D01*
X12931963Y-17507936D02*
X12922439Y-17488889D01*
X12922439Y-17488889D02*
X12922439Y-17431746D01*
X12922439Y-17431746D02*
X12931963Y-17412698D01*
X12931963Y-17412698D02*
X12941487Y-17403174D01*
X12941487Y-17403174D02*
X12960534Y-17393650D01*
X12960534Y-17393650D02*
X12989106Y-17393650D01*
X12989106Y-17393650D02*
X13008153Y-17403174D01*
X13008153Y-17403174D02*
X13017677Y-17412698D01*
X13017677Y-17412698D02*
X13027201Y-17431746D01*
X13027201Y-17431746D02*
X13027201Y-17488889D01*
X13027201Y-17488889D02*
X13017677Y-17507936D01*
X13017677Y-17507936D02*
X13008153Y-17517460D01*
X13008153Y-17517460D02*
X12989106Y-17526984D01*
X12989106Y-17526984D02*
X12960534Y-17526984D01*
X13141487Y-17526984D02*
X13122439Y-17517460D01*
X13122439Y-17517460D02*
X13112915Y-17498412D01*
X13112915Y-17498412D02*
X13112915Y-17326984D01*
X13293868Y-17517460D02*
X13274820Y-17526984D01*
X13274820Y-17526984D02*
X13236725Y-17526984D01*
X13236725Y-17526984D02*
X13217677Y-17517460D01*
X13217677Y-17517460D02*
X13208153Y-17498412D01*
X13208153Y-17498412D02*
X13208153Y-17422222D01*
X13208153Y-17422222D02*
X13217677Y-17403174D01*
X13217677Y-17403174D02*
X13236725Y-17393650D01*
X13236725Y-17393650D02*
X13274820Y-17393650D01*
X13274820Y-17393650D02*
X13293868Y-17403174D01*
X13293868Y-17403174D02*
X13303391Y-17422222D01*
X13303391Y-17422222D02*
X13303391Y-17441270D01*
X13303391Y-17441270D02*
X13208153Y-17460317D01*
X13379582Y-17517460D02*
X13398630Y-17526984D01*
X13398630Y-17526984D02*
X13436725Y-17526984D01*
X13436725Y-17526984D02*
X13455772Y-17517460D01*
X13455772Y-17517460D02*
X13465296Y-17498412D01*
X13465296Y-17498412D02*
X13465296Y-17488889D01*
X13465296Y-17488889D02*
X13455772Y-17469841D01*
X13455772Y-17469841D02*
X13436725Y-17460317D01*
X13436725Y-17460317D02*
X13408153Y-17460317D01*
X13408153Y-17460317D02*
X13389106Y-17450793D01*
X13389106Y-17450793D02*
X13379582Y-17431746D01*
X13379582Y-17431746D02*
X13379582Y-17422222D01*
X13379582Y-17422222D02*
X13389106Y-17403174D01*
X13389106Y-17403174D02*
X13408153Y-17393650D01*
X13408153Y-17393650D02*
X13436725Y-17393650D01*
X13436725Y-17393650D02*
X13455772Y-17403174D01*
X13531963Y-17603174D02*
X13541487Y-17593650D01*
X13541487Y-17593650D02*
X13560534Y-17565079D01*
X13560534Y-17565079D02*
X13570058Y-17546031D01*
X13570058Y-17546031D02*
X13579582Y-17517460D01*
X13579582Y-17517460D02*
X13589106Y-17469841D01*
X13589106Y-17469841D02*
X13589106Y-17431746D01*
X13589106Y-17431746D02*
X13579582Y-17384127D01*
X13579582Y-17384127D02*
X13570058Y-17355555D01*
X13570058Y-17355555D02*
X13560534Y-17336508D01*
X13560534Y-17336508D02*
X13541487Y-17307936D01*
X13541487Y-17307936D02*
X13531963Y-17298412D01*
D12*
X8656900Y-17649500D02*
X8756900Y-17749500D01*
X8756900Y-17649500D02*
X8656900Y-17749500D01*
X8756900Y-17699500D02*
G75*
G02*
X8656900Y-17699500I-50000J0D01*
G01*
X8656900Y-17699500D02*
G75*
G02*
X8756900Y-17699500I50000J0D01*
G01*
D11*
X9122439Y-17790984D02*
X9008153Y-17790984D01*
X9065296Y-17790984D02*
X9065296Y-17590984D01*
X9065296Y-17590984D02*
X9046248Y-17619555D01*
X9046248Y-17619555D02*
X9027201Y-17638603D01*
X9027201Y-17638603D02*
X9008153Y-17648127D01*
X9208153Y-17771936D02*
X9217677Y-17781460D01*
X9217677Y-17781460D02*
X9208153Y-17790984D01*
X9208153Y-17790984D02*
X9198629Y-17781460D01*
X9198629Y-17781460D02*
X9208153Y-17771936D01*
X9208153Y-17771936D02*
X9208153Y-17790984D01*
X9341486Y-17590984D02*
X9360534Y-17590984D01*
X9360534Y-17590984D02*
X9379582Y-17600508D01*
X9379582Y-17600508D02*
X9389105Y-17610031D01*
X9389105Y-17610031D02*
X9398629Y-17629079D01*
X9398629Y-17629079D02*
X9408153Y-17667174D01*
X9408153Y-17667174D02*
X9408153Y-17714793D01*
X9408153Y-17714793D02*
X9398629Y-17752889D01*
X9398629Y-17752889D02*
X9389105Y-17771936D01*
X9389105Y-17771936D02*
X9379582Y-17781460D01*
X9379582Y-17781460D02*
X9360534Y-17790984D01*
X9360534Y-17790984D02*
X9341486Y-17790984D01*
X9341486Y-17790984D02*
X9322439Y-17781460D01*
X9322439Y-17781460D02*
X9312915Y-17771936D01*
X9312915Y-17771936D02*
X9303391Y-17752889D01*
X9303391Y-17752889D02*
X9293867Y-17714793D01*
X9293867Y-17714793D02*
X9293867Y-17667174D01*
X9293867Y-17667174D02*
X9303391Y-17629079D01*
X9303391Y-17629079D02*
X9312915Y-17610031D01*
X9312915Y-17610031D02*
X9322439Y-17600508D01*
X9322439Y-17600508D02*
X9341486Y-17590984D01*
X9531963Y-17590984D02*
X9551010Y-17590984D01*
X9551010Y-17590984D02*
X9570058Y-17600508D01*
X9570058Y-17600508D02*
X9579582Y-17610031D01*
X9579582Y-17610031D02*
X9589105Y-17629079D01*
X9589105Y-17629079D02*
X9598629Y-17667174D01*
X9598629Y-17667174D02*
X9598629Y-17714793D01*
X9598629Y-17714793D02*
X9589105Y-17752889D01*
X9589105Y-17752889D02*
X9579582Y-17771936D01*
X9579582Y-17771936D02*
X9570058Y-17781460D01*
X9570058Y-17781460D02*
X9551010Y-17790984D01*
X9551010Y-17790984D02*
X9531963Y-17790984D01*
X9531963Y-17790984D02*
X9512915Y-17781460D01*
X9512915Y-17781460D02*
X9503391Y-17771936D01*
X9503391Y-17771936D02*
X9493867Y-17752889D01*
X9493867Y-17752889D02*
X9484344Y-17714793D01*
X9484344Y-17714793D02*
X9484344Y-17667174D01*
X9484344Y-17667174D02*
X9493867Y-17629079D01*
X9493867Y-17629079D02*
X9503391Y-17610031D01*
X9503391Y-17610031D02*
X9512915Y-17600508D01*
X9512915Y-17600508D02*
X9531963Y-17590984D01*
X9722439Y-17590984D02*
X9741486Y-17590984D01*
X9741486Y-17590984D02*
X9760534Y-17600508D01*
X9760534Y-17600508D02*
X9770058Y-17610031D01*
X9770058Y-17610031D02*
X9779582Y-17629079D01*
X9779582Y-17629079D02*
X9789105Y-17667174D01*
X9789105Y-17667174D02*
X9789105Y-17714793D01*
X9789105Y-17714793D02*
X9779582Y-17752889D01*
X9779582Y-17752889D02*
X9770058Y-17771936D01*
X9770058Y-17771936D02*
X9760534Y-17781460D01*
X9760534Y-17781460D02*
X9741486Y-17790984D01*
X9741486Y-17790984D02*
X9722439Y-17790984D01*
X9722439Y-17790984D02*
X9703391Y-17781460D01*
X9703391Y-17781460D02*
X9693867Y-17771936D01*
X9693867Y-17771936D02*
X9684344Y-17752889D01*
X9684344Y-17752889D02*
X9674820Y-17714793D01*
X9674820Y-17714793D02*
X9674820Y-17667174D01*
X9674820Y-17667174D02*
X9684344Y-17629079D01*
X9684344Y-17629079D02*
X9693867Y-17610031D01*
X9693867Y-17610031D02*
X9703391Y-17600508D01*
X9703391Y-17600508D02*
X9722439Y-17590984D01*
X9874820Y-17790984D02*
X9874820Y-17657650D01*
X9874820Y-17676698D02*
X9884344Y-17667174D01*
X9884344Y-17667174D02*
X9903391Y-17657650D01*
X9903391Y-17657650D02*
X9931963Y-17657650D01*
X9931963Y-17657650D02*
X9951010Y-17667174D01*
X9951010Y-17667174D02*
X9960534Y-17686222D01*
X9960534Y-17686222D02*
X9960534Y-17790984D01*
X9960534Y-17686222D02*
X9970058Y-17667174D01*
X9970058Y-17667174D02*
X9989105Y-17657650D01*
X9989105Y-17657650D02*
X10017677Y-17657650D01*
X10017677Y-17657650D02*
X10036725Y-17667174D01*
X10036725Y-17667174D02*
X10046248Y-17686222D01*
X10046248Y-17686222D02*
X10046248Y-17790984D01*
X10141486Y-17790984D02*
X10141486Y-17657650D01*
X10141486Y-17676698D02*
X10151010Y-17667174D01*
X10151010Y-17667174D02*
X10170058Y-17657650D01*
X10170058Y-17657650D02*
X10198629Y-17657650D01*
X10198629Y-17657650D02*
X10217677Y-17667174D01*
X10217677Y-17667174D02*
X10227201Y-17686222D01*
X10227201Y-17686222D02*
X10227201Y-17790984D01*
X10227201Y-17686222D02*
X10236725Y-17667174D01*
X10236725Y-17667174D02*
X10255772Y-17657650D01*
X10255772Y-17657650D02*
X10284344Y-17657650D01*
X10284344Y-17657650D02*
X10303391Y-17667174D01*
X10303391Y-17667174D02*
X10312915Y-17686222D01*
X10312915Y-17686222D02*
X10312915Y-17790984D01*
X10703391Y-17581460D02*
X10531963Y-17838603D01*
X10960534Y-17590984D02*
X10979582Y-17590984D01*
X10979582Y-17590984D02*
X10998629Y-17600508D01*
X10998629Y-17600508D02*
X11008153Y-17610031D01*
X11008153Y-17610031D02*
X11017677Y-17629079D01*
X11017677Y-17629079D02*
X11027201Y-17667174D01*
X11027201Y-17667174D02*
X11027201Y-17714793D01*
X11027201Y-17714793D02*
X11017677Y-17752889D01*
X11017677Y-17752889D02*
X11008153Y-17771936D01*
X11008153Y-17771936D02*
X10998629Y-17781460D01*
X10998629Y-17781460D02*
X10979582Y-17790984D01*
X10979582Y-17790984D02*
X10960534Y-17790984D01*
X10960534Y-17790984D02*
X10941487Y-17781460D01*
X10941487Y-17781460D02*
X10931963Y-17771936D01*
X10931963Y-17771936D02*
X10922439Y-17752889D01*
X10922439Y-17752889D02*
X10912915Y-17714793D01*
X10912915Y-17714793D02*
X10912915Y-17667174D01*
X10912915Y-17667174D02*
X10922439Y-17629079D01*
X10922439Y-17629079D02*
X10931963Y-17610031D01*
X10931963Y-17610031D02*
X10941487Y-17600508D01*
X10941487Y-17600508D02*
X10960534Y-17590984D01*
X11112915Y-17771936D02*
X11122439Y-17781460D01*
X11122439Y-17781460D02*
X11112915Y-17790984D01*
X11112915Y-17790984D02*
X11103391Y-17781460D01*
X11103391Y-17781460D02*
X11112915Y-17771936D01*
X11112915Y-17771936D02*
X11112915Y-17790984D01*
X11246248Y-17590984D02*
X11265296Y-17590984D01*
X11265296Y-17590984D02*
X11284344Y-17600508D01*
X11284344Y-17600508D02*
X11293867Y-17610031D01*
X11293867Y-17610031D02*
X11303391Y-17629079D01*
X11303391Y-17629079D02*
X11312915Y-17667174D01*
X11312915Y-17667174D02*
X11312915Y-17714793D01*
X11312915Y-17714793D02*
X11303391Y-17752889D01*
X11303391Y-17752889D02*
X11293867Y-17771936D01*
X11293867Y-17771936D02*
X11284344Y-17781460D01*
X11284344Y-17781460D02*
X11265296Y-17790984D01*
X11265296Y-17790984D02*
X11246248Y-17790984D01*
X11246248Y-17790984D02*
X11227201Y-17781460D01*
X11227201Y-17781460D02*
X11217677Y-17771936D01*
X11217677Y-17771936D02*
X11208153Y-17752889D01*
X11208153Y-17752889D02*
X11198629Y-17714793D01*
X11198629Y-17714793D02*
X11198629Y-17667174D01*
X11198629Y-17667174D02*
X11208153Y-17629079D01*
X11208153Y-17629079D02*
X11217677Y-17610031D01*
X11217677Y-17610031D02*
X11227201Y-17600508D01*
X11227201Y-17600508D02*
X11246248Y-17590984D01*
X11379582Y-17590984D02*
X11503391Y-17590984D01*
X11503391Y-17590984D02*
X11436725Y-17667174D01*
X11436725Y-17667174D02*
X11465296Y-17667174D01*
X11465296Y-17667174D02*
X11484344Y-17676698D01*
X11484344Y-17676698D02*
X11493867Y-17686222D01*
X11493867Y-17686222D02*
X11503391Y-17705270D01*
X11503391Y-17705270D02*
X11503391Y-17752889D01*
X11503391Y-17752889D02*
X11493867Y-17771936D01*
X11493867Y-17771936D02*
X11484344Y-17781460D01*
X11484344Y-17781460D02*
X11465296Y-17790984D01*
X11465296Y-17790984D02*
X11408153Y-17790984D01*
X11408153Y-17790984D02*
X11389106Y-17781460D01*
X11389106Y-17781460D02*
X11379582Y-17771936D01*
X11598629Y-17790984D02*
X11636725Y-17790984D01*
X11636725Y-17790984D02*
X11655772Y-17781460D01*
X11655772Y-17781460D02*
X11665296Y-17771936D01*
X11665296Y-17771936D02*
X11684344Y-17743365D01*
X11684344Y-17743365D02*
X11693867Y-17705270D01*
X11693867Y-17705270D02*
X11693867Y-17629079D01*
X11693867Y-17629079D02*
X11684344Y-17610031D01*
X11684344Y-17610031D02*
X11674820Y-17600508D01*
X11674820Y-17600508D02*
X11655772Y-17590984D01*
X11655772Y-17590984D02*
X11617677Y-17590984D01*
X11617677Y-17590984D02*
X11598629Y-17600508D01*
X11598629Y-17600508D02*
X11589106Y-17610031D01*
X11589106Y-17610031D02*
X11579582Y-17629079D01*
X11579582Y-17629079D02*
X11579582Y-17676698D01*
X11579582Y-17676698D02*
X11589106Y-17695746D01*
X11589106Y-17695746D02*
X11598629Y-17705270D01*
X11598629Y-17705270D02*
X11617677Y-17714793D01*
X11617677Y-17714793D02*
X11655772Y-17714793D01*
X11655772Y-17714793D02*
X11674820Y-17705270D01*
X11674820Y-17705270D02*
X11684344Y-17695746D01*
X11684344Y-17695746D02*
X11693867Y-17676698D01*
X11865296Y-17657650D02*
X11865296Y-17790984D01*
X11817677Y-17581460D02*
X11770058Y-17724317D01*
X11770058Y-17724317D02*
X11893867Y-17724317D01*
X11960534Y-17590984D02*
X11960534Y-17629079D01*
X12036725Y-17590984D02*
X12036725Y-17629079D01*
X12331963Y-17867174D02*
X12322439Y-17857650D01*
X12322439Y-17857650D02*
X12303391Y-17829079D01*
X12303391Y-17829079D02*
X12293868Y-17810031D01*
X12293868Y-17810031D02*
X12284344Y-17781460D01*
X12284344Y-17781460D02*
X12274820Y-17733841D01*
X12274820Y-17733841D02*
X12274820Y-17695746D01*
X12274820Y-17695746D02*
X12284344Y-17648127D01*
X12284344Y-17648127D02*
X12293868Y-17619555D01*
X12293868Y-17619555D02*
X12303391Y-17600508D01*
X12303391Y-17600508D02*
X12322439Y-17571936D01*
X12322439Y-17571936D02*
X12331963Y-17562412D01*
X12512915Y-17790984D02*
X12398629Y-17790984D01*
X12455772Y-17790984D02*
X12455772Y-17590984D01*
X12455772Y-17590984D02*
X12436725Y-17619555D01*
X12436725Y-17619555D02*
X12417677Y-17638603D01*
X12417677Y-17638603D02*
X12398629Y-17648127D01*
X12636725Y-17590984D02*
X12655772Y-17590984D01*
X12655772Y-17590984D02*
X12674820Y-17600508D01*
X12674820Y-17600508D02*
X12684344Y-17610031D01*
X12684344Y-17610031D02*
X12693868Y-17629079D01*
X12693868Y-17629079D02*
X12703391Y-17667174D01*
X12703391Y-17667174D02*
X12703391Y-17714793D01*
X12703391Y-17714793D02*
X12693868Y-17752889D01*
X12693868Y-17752889D02*
X12684344Y-17771936D01*
X12684344Y-17771936D02*
X12674820Y-17781460D01*
X12674820Y-17781460D02*
X12655772Y-17790984D01*
X12655772Y-17790984D02*
X12636725Y-17790984D01*
X12636725Y-17790984D02*
X12617677Y-17781460D01*
X12617677Y-17781460D02*
X12608153Y-17771936D01*
X12608153Y-17771936D02*
X12598629Y-17752889D01*
X12598629Y-17752889D02*
X12589106Y-17714793D01*
X12589106Y-17714793D02*
X12589106Y-17667174D01*
X12589106Y-17667174D02*
X12598629Y-17629079D01*
X12598629Y-17629079D02*
X12608153Y-17610031D01*
X12608153Y-17610031D02*
X12617677Y-17600508D01*
X12617677Y-17600508D02*
X12636725Y-17590984D01*
X12779582Y-17610031D02*
X12789106Y-17600508D01*
X12789106Y-17600508D02*
X12808153Y-17590984D01*
X12808153Y-17590984D02*
X12855772Y-17590984D01*
X12855772Y-17590984D02*
X12874820Y-17600508D01*
X12874820Y-17600508D02*
X12884344Y-17610031D01*
X12884344Y-17610031D02*
X12893868Y-17629079D01*
X12893868Y-17629079D02*
X12893868Y-17648127D01*
X12893868Y-17648127D02*
X12884344Y-17676698D01*
X12884344Y-17676698D02*
X12770058Y-17790984D01*
X12770058Y-17790984D02*
X12893868Y-17790984D01*
X13131963Y-17790984D02*
X13131963Y-17590984D01*
X13217677Y-17790984D02*
X13217677Y-17686222D01*
X13217677Y-17686222D02*
X13208153Y-17667174D01*
X13208153Y-17667174D02*
X13189106Y-17657650D01*
X13189106Y-17657650D02*
X13160534Y-17657650D01*
X13160534Y-17657650D02*
X13141487Y-17667174D01*
X13141487Y-17667174D02*
X13131963Y-17676698D01*
X13341487Y-17790984D02*
X13322439Y-17781460D01*
X13322439Y-17781460D02*
X13312915Y-17771936D01*
X13312915Y-17771936D02*
X13303391Y-17752889D01*
X13303391Y-17752889D02*
X13303391Y-17695746D01*
X13303391Y-17695746D02*
X13312915Y-17676698D01*
X13312915Y-17676698D02*
X13322439Y-17667174D01*
X13322439Y-17667174D02*
X13341487Y-17657650D01*
X13341487Y-17657650D02*
X13370058Y-17657650D01*
X13370058Y-17657650D02*
X13389106Y-17667174D01*
X13389106Y-17667174D02*
X13398630Y-17676698D01*
X13398630Y-17676698D02*
X13408153Y-17695746D01*
X13408153Y-17695746D02*
X13408153Y-17752889D01*
X13408153Y-17752889D02*
X13398630Y-17771936D01*
X13398630Y-17771936D02*
X13389106Y-17781460D01*
X13389106Y-17781460D02*
X13370058Y-17790984D01*
X13370058Y-17790984D02*
X13341487Y-17790984D01*
X13522439Y-17790984D02*
X13503391Y-17781460D01*
X13503391Y-17781460D02*
X13493868Y-17762412D01*
X13493868Y-17762412D02*
X13493868Y-17590984D01*
X13674820Y-17781460D02*
X13655772Y-17790984D01*
X13655772Y-17790984D02*
X13617677Y-17790984D01*
X13617677Y-17790984D02*
X13598630Y-17781460D01*
X13598630Y-17781460D02*
X13589106Y-17762412D01*
X13589106Y-17762412D02*
X13589106Y-17686222D01*
X13589106Y-17686222D02*
X13598630Y-17667174D01*
X13598630Y-17667174D02*
X13617677Y-17657650D01*
X13617677Y-17657650D02*
X13655772Y-17657650D01*
X13655772Y-17657650D02*
X13674820Y-17667174D01*
X13674820Y-17667174D02*
X13684344Y-17686222D01*
X13684344Y-17686222D02*
X13684344Y-17705270D01*
X13684344Y-17705270D02*
X13589106Y-17724317D01*
X13760534Y-17781460D02*
X13779582Y-17790984D01*
X13779582Y-17790984D02*
X13817677Y-17790984D01*
X13817677Y-17790984D02*
X13836725Y-17781460D01*
X13836725Y-17781460D02*
X13846249Y-17762412D01*
X13846249Y-17762412D02*
X13846249Y-17752889D01*
X13846249Y-17752889D02*
X13836725Y-17733841D01*
X13836725Y-17733841D02*
X13817677Y-17724317D01*
X13817677Y-17724317D02*
X13789106Y-17724317D01*
X13789106Y-17724317D02*
X13770058Y-17714793D01*
X13770058Y-17714793D02*
X13760534Y-17695746D01*
X13760534Y-17695746D02*
X13760534Y-17686222D01*
X13760534Y-17686222D02*
X13770058Y-17667174D01*
X13770058Y-17667174D02*
X13789106Y-17657650D01*
X13789106Y-17657650D02*
X13817677Y-17657650D01*
X13817677Y-17657650D02*
X13836725Y-17667174D01*
X13912915Y-17867174D02*
X13922439Y-17857650D01*
X13922439Y-17857650D02*
X13941487Y-17829079D01*
X13941487Y-17829079D02*
X13951011Y-17810031D01*
X13951011Y-17810031D02*
X13960534Y-17781460D01*
X13960534Y-17781460D02*
X13970058Y-17733841D01*
X13970058Y-17733841D02*
X13970058Y-17695746D01*
X13970058Y-17695746D02*
X13960534Y-17648127D01*
X13960534Y-17648127D02*
X13951011Y-17619555D01*
X13951011Y-17619555D02*
X13941487Y-17600508D01*
X13941487Y-17600508D02*
X13922439Y-17571936D01*
X13922439Y-17571936D02*
X13912915Y-17562412D01*
D13*
X8626900Y-17898500D02*
X8756900Y-18028500D01*
X8756900Y-17898500D02*
X8626900Y-18028500D01*
X8691900Y-17898500D02*
X8691900Y-18028500D01*
X8626900Y-17963500D02*
X8756900Y-17963500D01*
D11*
X9122439Y-18054984D02*
X9008153Y-18054984D01*
X9065296Y-18054984D02*
X9065296Y-17854984D01*
X9065296Y-17854984D02*
X9046248Y-17883555D01*
X9046248Y-17883555D02*
X9027201Y-17902603D01*
X9027201Y-17902603D02*
X9008153Y-17912127D01*
X9208153Y-18035936D02*
X9217677Y-18045460D01*
X9217677Y-18045460D02*
X9208153Y-18054984D01*
X9208153Y-18054984D02*
X9198629Y-18045460D01*
X9198629Y-18045460D02*
X9208153Y-18035936D01*
X9208153Y-18035936D02*
X9208153Y-18054984D01*
X9284344Y-17854984D02*
X9408153Y-17854984D01*
X9408153Y-17854984D02*
X9341486Y-17931174D01*
X9341486Y-17931174D02*
X9370058Y-17931174D01*
X9370058Y-17931174D02*
X9389105Y-17940698D01*
X9389105Y-17940698D02*
X9398629Y-17950222D01*
X9398629Y-17950222D02*
X9408153Y-17969270D01*
X9408153Y-17969270D02*
X9408153Y-18016889D01*
X9408153Y-18016889D02*
X9398629Y-18035936D01*
X9398629Y-18035936D02*
X9389105Y-18045460D01*
X9389105Y-18045460D02*
X9370058Y-18054984D01*
X9370058Y-18054984D02*
X9312915Y-18054984D01*
X9312915Y-18054984D02*
X9293867Y-18045460D01*
X9293867Y-18045460D02*
X9284344Y-18035936D01*
X9531963Y-17854984D02*
X9551010Y-17854984D01*
X9551010Y-17854984D02*
X9570058Y-17864508D01*
X9570058Y-17864508D02*
X9579582Y-17874031D01*
X9579582Y-17874031D02*
X9589105Y-17893079D01*
X9589105Y-17893079D02*
X9598629Y-17931174D01*
X9598629Y-17931174D02*
X9598629Y-17978793D01*
X9598629Y-17978793D02*
X9589105Y-18016889D01*
X9589105Y-18016889D02*
X9579582Y-18035936D01*
X9579582Y-18035936D02*
X9570058Y-18045460D01*
X9570058Y-18045460D02*
X9551010Y-18054984D01*
X9551010Y-18054984D02*
X9531963Y-18054984D01*
X9531963Y-18054984D02*
X9512915Y-18045460D01*
X9512915Y-18045460D02*
X9503391Y-18035936D01*
X9503391Y-18035936D02*
X9493867Y-18016889D01*
X9493867Y-18016889D02*
X9484344Y-17978793D01*
X9484344Y-17978793D02*
X9484344Y-17931174D01*
X9484344Y-17931174D02*
X9493867Y-17893079D01*
X9493867Y-17893079D02*
X9503391Y-17874031D01*
X9503391Y-17874031D02*
X9512915Y-17864508D01*
X9512915Y-17864508D02*
X9531963Y-17854984D01*
X9722439Y-17854984D02*
X9741486Y-17854984D01*
X9741486Y-17854984D02*
X9760534Y-17864508D01*
X9760534Y-17864508D02*
X9770058Y-17874031D01*
X9770058Y-17874031D02*
X9779582Y-17893079D01*
X9779582Y-17893079D02*
X9789105Y-17931174D01*
X9789105Y-17931174D02*
X9789105Y-17978793D01*
X9789105Y-17978793D02*
X9779582Y-18016889D01*
X9779582Y-18016889D02*
X9770058Y-18035936D01*
X9770058Y-18035936D02*
X9760534Y-18045460D01*
X9760534Y-18045460D02*
X9741486Y-18054984D01*
X9741486Y-18054984D02*
X9722439Y-18054984D01*
X9722439Y-18054984D02*
X9703391Y-18045460D01*
X9703391Y-18045460D02*
X9693867Y-18035936D01*
X9693867Y-18035936D02*
X9684344Y-18016889D01*
X9684344Y-18016889D02*
X9674820Y-17978793D01*
X9674820Y-17978793D02*
X9674820Y-17931174D01*
X9674820Y-17931174D02*
X9684344Y-17893079D01*
X9684344Y-17893079D02*
X9693867Y-17874031D01*
X9693867Y-17874031D02*
X9703391Y-17864508D01*
X9703391Y-17864508D02*
X9722439Y-17854984D01*
X9874820Y-18054984D02*
X9874820Y-17921650D01*
X9874820Y-17940698D02*
X9884344Y-17931174D01*
X9884344Y-17931174D02*
X9903391Y-17921650D01*
X9903391Y-17921650D02*
X9931963Y-17921650D01*
X9931963Y-17921650D02*
X9951010Y-17931174D01*
X9951010Y-17931174D02*
X9960534Y-17950222D01*
X9960534Y-17950222D02*
X9960534Y-18054984D01*
X9960534Y-17950222D02*
X9970058Y-17931174D01*
X9970058Y-17931174D02*
X9989105Y-17921650D01*
X9989105Y-17921650D02*
X10017677Y-17921650D01*
X10017677Y-17921650D02*
X10036725Y-17931174D01*
X10036725Y-17931174D02*
X10046248Y-17950222D01*
X10046248Y-17950222D02*
X10046248Y-18054984D01*
X10141486Y-18054984D02*
X10141486Y-17921650D01*
X10141486Y-17940698D02*
X10151010Y-17931174D01*
X10151010Y-17931174D02*
X10170058Y-17921650D01*
X10170058Y-17921650D02*
X10198629Y-17921650D01*
X10198629Y-17921650D02*
X10217677Y-17931174D01*
X10217677Y-17931174D02*
X10227201Y-17950222D01*
X10227201Y-17950222D02*
X10227201Y-18054984D01*
X10227201Y-17950222D02*
X10236725Y-17931174D01*
X10236725Y-17931174D02*
X10255772Y-17921650D01*
X10255772Y-17921650D02*
X10284344Y-17921650D01*
X10284344Y-17921650D02*
X10303391Y-17931174D01*
X10303391Y-17931174D02*
X10312915Y-17950222D01*
X10312915Y-17950222D02*
X10312915Y-18054984D01*
X10703391Y-17845460D02*
X10531963Y-18102603D01*
X10960534Y-17854984D02*
X10979582Y-17854984D01*
X10979582Y-17854984D02*
X10998629Y-17864508D01*
X10998629Y-17864508D02*
X11008153Y-17874031D01*
X11008153Y-17874031D02*
X11017677Y-17893079D01*
X11017677Y-17893079D02*
X11027201Y-17931174D01*
X11027201Y-17931174D02*
X11027201Y-17978793D01*
X11027201Y-17978793D02*
X11017677Y-18016889D01*
X11017677Y-18016889D02*
X11008153Y-18035936D01*
X11008153Y-18035936D02*
X10998629Y-18045460D01*
X10998629Y-18045460D02*
X10979582Y-18054984D01*
X10979582Y-18054984D02*
X10960534Y-18054984D01*
X10960534Y-18054984D02*
X10941487Y-18045460D01*
X10941487Y-18045460D02*
X10931963Y-18035936D01*
X10931963Y-18035936D02*
X10922439Y-18016889D01*
X10922439Y-18016889D02*
X10912915Y-17978793D01*
X10912915Y-17978793D02*
X10912915Y-17931174D01*
X10912915Y-17931174D02*
X10922439Y-17893079D01*
X10922439Y-17893079D02*
X10931963Y-17874031D01*
X10931963Y-17874031D02*
X10941487Y-17864508D01*
X10941487Y-17864508D02*
X10960534Y-17854984D01*
X11112915Y-18035936D02*
X11122439Y-18045460D01*
X11122439Y-18045460D02*
X11112915Y-18054984D01*
X11112915Y-18054984D02*
X11103391Y-18045460D01*
X11103391Y-18045460D02*
X11112915Y-18035936D01*
X11112915Y-18035936D02*
X11112915Y-18054984D01*
X11246248Y-17854984D02*
X11265296Y-17854984D01*
X11265296Y-17854984D02*
X11284344Y-17864508D01*
X11284344Y-17864508D02*
X11293867Y-17874031D01*
X11293867Y-17874031D02*
X11303391Y-17893079D01*
X11303391Y-17893079D02*
X11312915Y-17931174D01*
X11312915Y-17931174D02*
X11312915Y-17978793D01*
X11312915Y-17978793D02*
X11303391Y-18016889D01*
X11303391Y-18016889D02*
X11293867Y-18035936D01*
X11293867Y-18035936D02*
X11284344Y-18045460D01*
X11284344Y-18045460D02*
X11265296Y-18054984D01*
X11265296Y-18054984D02*
X11246248Y-18054984D01*
X11246248Y-18054984D02*
X11227201Y-18045460D01*
X11227201Y-18045460D02*
X11217677Y-18035936D01*
X11217677Y-18035936D02*
X11208153Y-18016889D01*
X11208153Y-18016889D02*
X11198629Y-17978793D01*
X11198629Y-17978793D02*
X11198629Y-17931174D01*
X11198629Y-17931174D02*
X11208153Y-17893079D01*
X11208153Y-17893079D02*
X11217677Y-17874031D01*
X11217677Y-17874031D02*
X11227201Y-17864508D01*
X11227201Y-17864508D02*
X11246248Y-17854984D01*
X11493867Y-17854984D02*
X11398629Y-17854984D01*
X11398629Y-17854984D02*
X11389106Y-17950222D01*
X11389106Y-17950222D02*
X11398629Y-17940698D01*
X11398629Y-17940698D02*
X11417677Y-17931174D01*
X11417677Y-17931174D02*
X11465296Y-17931174D01*
X11465296Y-17931174D02*
X11484344Y-17940698D01*
X11484344Y-17940698D02*
X11493867Y-17950222D01*
X11493867Y-17950222D02*
X11503391Y-17969270D01*
X11503391Y-17969270D02*
X11503391Y-18016889D01*
X11503391Y-18016889D02*
X11493867Y-18035936D01*
X11493867Y-18035936D02*
X11484344Y-18045460D01*
X11484344Y-18045460D02*
X11465296Y-18054984D01*
X11465296Y-18054984D02*
X11417677Y-18054984D01*
X11417677Y-18054984D02*
X11398629Y-18045460D01*
X11398629Y-18045460D02*
X11389106Y-18035936D01*
X11693867Y-18054984D02*
X11579582Y-18054984D01*
X11636725Y-18054984D02*
X11636725Y-17854984D01*
X11636725Y-17854984D02*
X11617677Y-17883555D01*
X11617677Y-17883555D02*
X11598629Y-17902603D01*
X11598629Y-17902603D02*
X11579582Y-17912127D01*
X11770058Y-17874031D02*
X11779582Y-17864508D01*
X11779582Y-17864508D02*
X11798629Y-17854984D01*
X11798629Y-17854984D02*
X11846248Y-17854984D01*
X11846248Y-17854984D02*
X11865296Y-17864508D01*
X11865296Y-17864508D02*
X11874820Y-17874031D01*
X11874820Y-17874031D02*
X11884344Y-17893079D01*
X11884344Y-17893079D02*
X11884344Y-17912127D01*
X11884344Y-17912127D02*
X11874820Y-17940698D01*
X11874820Y-17940698D02*
X11760534Y-18054984D01*
X11760534Y-18054984D02*
X11884344Y-18054984D01*
X11960534Y-17854984D02*
X11960534Y-17893079D01*
X12036725Y-17854984D02*
X12036725Y-17893079D01*
X12331963Y-18131174D02*
X12322439Y-18121650D01*
X12322439Y-18121650D02*
X12303391Y-18093079D01*
X12303391Y-18093079D02*
X12293868Y-18074031D01*
X12293868Y-18074031D02*
X12284344Y-18045460D01*
X12284344Y-18045460D02*
X12274820Y-17997841D01*
X12274820Y-17997841D02*
X12274820Y-17959746D01*
X12274820Y-17959746D02*
X12284344Y-17912127D01*
X12284344Y-17912127D02*
X12293868Y-17883555D01*
X12293868Y-17883555D02*
X12303391Y-17864508D01*
X12303391Y-17864508D02*
X12322439Y-17835936D01*
X12322439Y-17835936D02*
X12331963Y-17826412D01*
X12398629Y-17874031D02*
X12408153Y-17864508D01*
X12408153Y-17864508D02*
X12427201Y-17854984D01*
X12427201Y-17854984D02*
X12474820Y-17854984D01*
X12474820Y-17854984D02*
X12493868Y-17864508D01*
X12493868Y-17864508D02*
X12503391Y-17874031D01*
X12503391Y-17874031D02*
X12512915Y-17893079D01*
X12512915Y-17893079D02*
X12512915Y-17912127D01*
X12512915Y-17912127D02*
X12503391Y-17940698D01*
X12503391Y-17940698D02*
X12389106Y-18054984D01*
X12389106Y-18054984D02*
X12512915Y-18054984D01*
X12751010Y-18054984D02*
X12751010Y-17854984D01*
X12836725Y-18054984D02*
X12836725Y-17950222D01*
X12836725Y-17950222D02*
X12827201Y-17931174D01*
X12827201Y-17931174D02*
X12808153Y-17921650D01*
X12808153Y-17921650D02*
X12779582Y-17921650D01*
X12779582Y-17921650D02*
X12760534Y-17931174D01*
X12760534Y-17931174D02*
X12751010Y-17940698D01*
X12960534Y-18054984D02*
X12941487Y-18045460D01*
X12941487Y-18045460D02*
X12931963Y-18035936D01*
X12931963Y-18035936D02*
X12922439Y-18016889D01*
X12922439Y-18016889D02*
X12922439Y-17959746D01*
X12922439Y-17959746D02*
X12931963Y-17940698D01*
X12931963Y-17940698D02*
X12941487Y-17931174D01*
X12941487Y-17931174D02*
X12960534Y-17921650D01*
X12960534Y-17921650D02*
X12989106Y-17921650D01*
X12989106Y-17921650D02*
X13008153Y-17931174D01*
X13008153Y-17931174D02*
X13017677Y-17940698D01*
X13017677Y-17940698D02*
X13027201Y-17959746D01*
X13027201Y-17959746D02*
X13027201Y-18016889D01*
X13027201Y-18016889D02*
X13017677Y-18035936D01*
X13017677Y-18035936D02*
X13008153Y-18045460D01*
X13008153Y-18045460D02*
X12989106Y-18054984D01*
X12989106Y-18054984D02*
X12960534Y-18054984D01*
X13141487Y-18054984D02*
X13122439Y-18045460D01*
X13122439Y-18045460D02*
X13112915Y-18026412D01*
X13112915Y-18026412D02*
X13112915Y-17854984D01*
X13293868Y-18045460D02*
X13274820Y-18054984D01*
X13274820Y-18054984D02*
X13236725Y-18054984D01*
X13236725Y-18054984D02*
X13217677Y-18045460D01*
X13217677Y-18045460D02*
X13208153Y-18026412D01*
X13208153Y-18026412D02*
X13208153Y-17950222D01*
X13208153Y-17950222D02*
X13217677Y-17931174D01*
X13217677Y-17931174D02*
X13236725Y-17921650D01*
X13236725Y-17921650D02*
X13274820Y-17921650D01*
X13274820Y-17921650D02*
X13293868Y-17931174D01*
X13293868Y-17931174D02*
X13303391Y-17950222D01*
X13303391Y-17950222D02*
X13303391Y-17969270D01*
X13303391Y-17969270D02*
X13208153Y-17988317D01*
X13379582Y-18045460D02*
X13398630Y-18054984D01*
X13398630Y-18054984D02*
X13436725Y-18054984D01*
X13436725Y-18054984D02*
X13455772Y-18045460D01*
X13455772Y-18045460D02*
X13465296Y-18026412D01*
X13465296Y-18026412D02*
X13465296Y-18016889D01*
X13465296Y-18016889D02*
X13455772Y-17997841D01*
X13455772Y-17997841D02*
X13436725Y-17988317D01*
X13436725Y-17988317D02*
X13408153Y-17988317D01*
X13408153Y-17988317D02*
X13389106Y-17978793D01*
X13389106Y-17978793D02*
X13379582Y-17959746D01*
X13379582Y-17959746D02*
X13379582Y-17950222D01*
X13379582Y-17950222D02*
X13389106Y-17931174D01*
X13389106Y-17931174D02*
X13408153Y-17921650D01*
X13408153Y-17921650D02*
X13436725Y-17921650D01*
X13436725Y-17921650D02*
X13455772Y-17931174D01*
X13531963Y-18131174D02*
X13541487Y-18121650D01*
X13541487Y-18121650D02*
X13560534Y-18093079D01*
X13560534Y-18093079D02*
X13570058Y-18074031D01*
X13570058Y-18074031D02*
X13579582Y-18045460D01*
X13579582Y-18045460D02*
X13589106Y-17997841D01*
X13589106Y-17997841D02*
X13589106Y-17959746D01*
X13589106Y-17959746D02*
X13579582Y-17912127D01*
X13579582Y-17912127D02*
X13570058Y-17883555D01*
X13570058Y-17883555D02*
X13560534Y-17864508D01*
X13560534Y-17864508D02*
X13541487Y-17835936D01*
X13541487Y-17835936D02*
X13531963Y-17826412D01*
M02*
